<?xml version="1.0" encoding="utf-8"?>
<!-- Generator: Adobe Illustrator 25.2.1, SVG Export Plug-In . SVG Version: 6.00 Build 0)  -->
<svg version="1.1" xmlns="http://www.w3.org/2000/svg" xmlns:xlink="http://www.w3.org/1999/xlink" x="0px" y="0px"
	 viewBox="0 0 158.12 280.94" style="enable-background:new 0 0 158.12 280.94;" xml:space="preserve">
<g id="Layer_1">
</g>
<g id="Layer_2">
	<path d="M100.85,264.32c13.99,0,21.95-9.25,28.91-18.71c3.5-4.76,3.79-10.8,3.79-16.08c0-14.74-8.56-27.6-21.25-32.61v-35.38
		c0-1.2-0.44-2.37-1.25-3.28l-5.96-6.73c-1.95-2.2-1.99-5.51-0.09-7.76l6.13-7.26c0.75-0.89,1.16-2.01,1.16-3.18V83.57
		c3.76-1.34,5.84-3.03,6.26-3.4c0.43-0.37,0.79-0.81,1.07-1.29c7.03-12.24,8.34-23.4,3.88-33.18c-5.8-12.72-19.8-18.82-27.16-20.42
		c-4.16-0.9-7.3,0.63-9.51,2.23c-1.33,0.96-3.16,0.84-4.43-0.2c-0.33-0.27-0.63-0.49-0.86-0.6c-5.33-2.47-9.45,0.01-9.98,0.35
		C32.27,52.11,38.54,73.02,41.39,78.83c1.98,4.03,6.51,5.56,11.36,5.9v48.93c0,1.19,0.44,2.35,1.23,3.25l6.21,7.1
		c1.82,2.08,1.84,5.18,0.04,7.28l-6.29,7.36c-0.77,0.9-1.19,2.04-1.19,3.22v28.92c-14.66,3.14-25.54,16.87-25.54,33.28
		c0,4.47,0.22,9.6,2.87,13.92c8.65,14.12,14.6,20.03,29.05,20.03c6.19,0,12.15-1.88,17.26-5.39
		C82.53,260.04,91.33,264.32,100.85,264.32z M73.75,241.75c-4.01,4.04-9.2,6.27-14.62,6.27c-8.15,0-11.77-1.24-20.29-15.17
		c-1.3-2.13-1.41-5.5-1.41-8.78c0-12.84,9.1-23.35,20.72-23.93c1.94-0.1,3.65-1.28,4.42-3.03c0.28-0.63,0.41-1.3,0.41-1.97
		c0-0.11,0-0.21-0.01-0.32v-28.55c0-1.68,0.6-3.31,1.69-4.58l2.28-2.66c1.67-1.95,4.68-1.97,6.36-0.04l2.18,2.5
		c1.25,1.43,1.94,3.27,1.94,5.17v32.37c0,2.76,2.28,5,5.1,5c2.82,0,5.1-2.24,5.1-5v-37.17c0,0,0-0.01,0-0.01c0-0.01,0-0.01,0-0.02
		c-0.01-1.24-0.48-2.38-1.25-3.25l-12.45-14.23c0,0-0.01-0.01-0.01-0.01l-9.56-10.93c-0.9-1.03-1.4-2.35-1.4-3.72V87.88
		c0-2.14,1.48-3.99,3.57-4.45l0.05-0.01c2.65-0.59,4.36-3.12,3.89-5.74c-0.47-2.62-2.95-4.43-5.65-4.1l-7.59,0.91
		c-0.36,0.04-0.71,0.12-1.05,0.24c-2.65,0.11-4.82-0.06-5.74-0.54c-1.53-3.47-10.58-15.5,21.44-35.95c0.15-0.09,1.51-0.78,2.91-1.49
		c2.01-1.02,4.47,0.13,4.92,2.34c0.13,0.66,0.25,1.43,0.35,2.33c0,0,0,0.01,0,0.01c0,0,0,0,0,0c0.3,2.73,2.79,4.7,5.58,4.43
		c2.79-0.27,4.85-2.73,4.57-5.46c-0.15-1.66,0.19-4.46,1.11-5.26c0.41-0.35,1.45-0.39,2.8-0.1c5.12,1.11,15.9,5.62,20.05,14.74
		c2.96,6.5,1.98,14.33-2.93,23.26c-0.74,0.44-2.26,1.21-4.57,1.72l-11.85-0.18c-2.64-0.04-4.87,1.9-5.15,4.47
		c-0.28,2.58,1.49,4.93,4.08,5.43c1.51,0.3,2.95,0.5,4.32,0.63c2.29,0.22,4.01,2.18,4.01,4.48l0,38.93c0,1.94-0.69,3.82-1.94,5.31
		l-1.72,2.04c-1.85,2.19-5.22,2.23-7.12,0.08l-1.74-1.97c-1.25-1.41-1.93-3.22-1.93-5.1V93.39c0-2.76-2.28-5-5.1-5
		c-2.82,0-5.1,2.24-5.1,5v40.25c0,0.01,0,0.02,0,0.03c0,1.16,0.41,2.32,1.24,3.27c0,0,0,0,0,0.01l12.48,14.1l8.89,10.05
		c1.32,1.49,2.05,3.41,2.05,5.4v34.03c0,2.28,1.57,4.27,3.82,4.84c10.26,2.61,17.43,12.54,17.43,24.16c0,3.72-0.14,7.89-1.87,10.25
		c-6.93,9.44-12.27,14.55-20.62,14.55c-7.73,0-14.83-4.31-19-11.54c-0.79-1.37-2.2-2.3-3.79-2.5
		C76.46,240.08,74.87,240.62,73.75,241.75z"/>
</g>
</svg>
