<?xml version="1.0" encoding="utf-8"?>
<!-- Generator: Adobe Illustrator 25.2.1, SVG Export Plug-In . SVG Version: 6.00 Build 0)  -->
<svg version="1.1" xmlns="http://www.w3.org/2000/svg" xmlns:xlink="http://www.w3.org/1999/xlink" x="0px" y="0px"
	 viewBox="0 0 158.12 280.94" style="enable-background:new 0 0 158.12 280.94;" xml:space="preserve">
<g id="Layer_1">
</g>
<g id="Layer_2">
	<path d="M100.85,264.32c13.99,0,21.95-9.25,28.91-18.71c3.5-4.76,3.79-10.8,3.79-16.08c0-14.74-8.56-27.6-21.25-32.61v-35.38
		c0-1.2-0.44-2.37-1.25-3.28l-9.36-10.57l9.43-11.16c0.76-0.9,1.17-2.02,1.17-3.19V83.57c3.76-1.34,5.84-3.03,6.26-3.4
		c0.43-0.37,0.79-0.81,1.07-1.29c7.03-12.24,8.34-23.4,3.88-33.18c-5.8-12.72-19.8-18.82-27.16-20.42
		c-5.83-1.27-9.52,0.48-11.63,2.25c-0.69-0.57-1.44-1.04-2.25-1.42c-5.33-2.47-10.37,0.61-10.9,0.96
		C32.27,52.11,38.54,73.02,41.39,78.83c1.98,4.03,6.51,5.56,11.36,5.9v48.93c0,1.19,0.44,2.35,1.23,3.25l9.38,10.72l-9.41,11.01
		c-0.77,0.9-1.19,2.04-1.19,3.21v28.93c-14.66,3.14-25.54,16.87-25.54,33.28c0,4.47,0.22,9.6,2.87,13.92
		c8.65,14.12,14.6,20.03,29.05,20.03c6.19,0,12.15-1.88,17.26-5.39C82.53,260.04,91.33,264.32,100.85,264.32z M73.75,241.75
		c-4.01,4.04-9.2,6.27-14.62,6.27c-8.15,0-11.77-1.24-20.29-15.17c-1.3-2.13-1.41-5.5-1.41-8.78c0-12.84,9.1-23.35,20.72-23.93
		c1.94-0.1,3.65-1.28,4.42-3.03c0.28-0.63,0.41-1.3,0.41-1.97c0-0.11,0-0.21-0.01-0.32v-31.15l7.13-8.34l7.33,8.38v35.32
		c0,2.76,2.28,5,5.1,5c2.82,0,5.1-2.24,5.1-5v-37.17c0,0,0-0.01,0-0.01c0-0.01,0-0.01,0-0.02c-0.01-1.24-0.48-2.38-1.25-3.25
		l-12.45-14.23c0,0-0.01-0.01-0.01-0.01l-10.96-12.53v-47.7c1.38-0.22,2.61-0.47,3.62-0.7c2.65-0.59,4.36-3.12,3.89-5.74
		c-0.47-2.62-2.95-4.43-5.65-4.1l-7.59,0.91c-0.36,0.04-0.71,0.12-1.05,0.24c-2.65,0.11-4.82-0.06-5.74-0.54
		c-1.53-3.47-5.39-18.27,26.62-38.72c0.33-0.19,0.87-0.34,1.02-0.33c0.01,0.01,1.4,1.03,1.97,6.27c0,0,0,0.01,0,0.01c0,0,0,0,0,0
		c0.3,2.73,2.79,4.7,5.58,4.43c2.79-0.27,4.85-2.73,4.57-5.46c-0.15-1.66,0.19-4.46,1.11-5.26c0.41-0.35,1.45-0.39,2.8-0.1
		c5.12,1.11,15.9,5.62,20.05,14.74c2.96,6.5,1.98,14.33-2.93,23.26c-0.74,0.44-2.26,1.21-4.57,1.72l-11.85-0.18
		c-2.64-0.04-4.87,1.9-5.15,4.47c-0.28,2.58,1.49,4.93,4.08,5.43c3.06,0.6,5.84,0.83,8.33,0.81v46.24l-7.17,8.49l-7.28-8.23V93.39
		c0-2.76-2.28-5-5.1-5c-2.82,0-5.1,2.24-5.1,5v40.25c0,0.01,0,0.02,0,0.03c0,1.16,0.41,2.32,1.24,3.27c0,0,0,0,0,0.01l12.48,14.1
		l10.94,12.36v37.12c0,2.28,1.57,4.27,3.82,4.84c10.26,2.61,17.43,12.54,17.43,24.16c0,3.72-0.14,7.89-1.87,10.25
		c-6.93,9.44-12.27,14.55-20.62,14.55c-7.73,0-14.83-4.31-19-11.54c-0.79-1.37-2.2-2.3-3.79-2.5
		C76.46,240.08,74.87,240.62,73.75,241.75z"/>
</g>
</svg>
