<svg xmlns="http://www.w3.org/2000/svg" viewBox="0 0 440.11 163"><defs><style>.cls-1{fill:none;stroke:#231f20;stroke-miterlimit:10;}</style></defs><title>Asset 1</title><g id="Layer_2" data-name="Layer 2"><g id="Layer_1-2" data-name="Layer 1"><g id="SiliconeOutline"><path class="cls-1" d="M430.61.5H304.91a9.15,9.15,0,0,0-9.1,9l-.09,7.75a9.15,9.15,0,0,1-9.1,9H38.12a9,9,0,0,1-9-9V16.7a8.82,8.82,0,0,0-9-8.83L9.5,8.07a9.24,9.24,0,0,0-9,9.17h0V124.7a9,9,0,0,0,9,9H23.81a9,9,0,0,1,9,9v10.8a9,9,0,0,0,9,9h370.8a9,9,0,0,0,9-9V136.69c0-3.84,4.05-7,9-7h0a9,9,0,0,0,9-9V9.5h0a9,9,0,0,0-9-9Z"/><circle class="cls-1" cx="398.54" cy="145.71" r="4.25"/><circle class="cls-1" cx="314.81" cy="15.92" r="4.25"/><circle class="cls-1" cx="14.45" cy="20.17" r="4.25"/><circle class="cls-1" cx="43.1" cy="145.71" r="4.25"/></g></g></g></svg>