<svg xmlns="http://www.w3.org/2000/svg" viewBox="0 0 425.71 148.6"><defs><style>.cls-1{fill:none;stroke:#231f20;stroke-miterlimit:10;}</style></defs><title>Asset 2</title><g id="Layer_2" data-name="Layer 2"><g id="Layer_1-2" data-name="Layer 1"><g id="Buttons"><rect class="cls-1" x="378.41" y="25.7" width="21.6" height="21.6" rx="8.85" ry="8.85"/><rect class="cls-1" x="403.61" y="25.7" width="21.6" height="21.6" rx="8.85" ry="8.85"/><rect class="cls-1" x="63.41" y="50.9" width="21.6" height="21.6" rx="8.85" ry="8.85"/><rect class="cls-1" x="88.61" y="50.9" width="21.6" height="21.6" rx="8.85" ry="8.85"/><rect class="cls-1" x="113.81" y="50.9" width="21.6" height="21.6" rx="8.85" ry="8.85"/><rect class="cls-1" x="139.01" y="50.9" width="21.6" height="21.6" rx="8.85" ry="8.85"/><rect class="cls-1" x="164.21" y="50.9" width="21.6" height="21.6" rx="8.85" ry="8.85"/><rect class="cls-1" x="189.41" y="50.9" width="21.6" height="21.6" rx="8.85" ry="8.85"/><rect class="cls-1" x="214.61" y="50.9" width="21.6" height="21.6" rx="8.85" ry="8.85"/><rect class="cls-1" x="239.81" y="50.9" width="21.6" height="21.6" rx="8.85" ry="8.85"/><rect class="cls-1" x="265.01" y="50.9" width="21.6" height="21.6" rx="8.85" ry="8.85"/><rect class="cls-1" x="290.21" y="50.9" width="21.6" height="21.6" rx="8.85" ry="8.85"/><rect class="cls-1" x="315.41" y="50.9" width="21.6" height="21.6" rx="8.85" ry="8.85"/><rect class="cls-1" x="340.61" y="50.9" width="21.6" height="21.6" rx="8.85" ry="8.85"/><rect class="cls-1" x="25.61" y="25.7" width="21.6" height="21.6" rx="8.85" ry="8.85"/><rect class="cls-1" x="50.81" y="25.7" width="21.6" height="21.6" rx="8.85" ry="8.85"/><rect class="cls-1" x="76.01" y="25.7" width="21.6" height="21.6" rx="8.85" ry="8.85"/><rect class="cls-1" x="101.21" y="25.7" width="21.6" height="21.6" rx="8.85" ry="8.85"/><rect class="cls-1" x="126.41" y="25.7" width="21.6" height="21.6" rx="8.85" ry="8.85"/><rect class="cls-1" x="151.61" y="25.7" width="21.6" height="21.6" rx="8.85" ry="8.85"/><rect class="cls-1" x="176.81" y="25.7" width="21.6" height="21.6" rx="8.85" ry="8.85"/><rect class="cls-1" x="202.01" y="25.7" width="21.6" height="21.6" rx="8.85" ry="8.85"/><rect class="cls-1" x="227.21" y="25.7" width="21.6" height="21.6" rx="8.85" ry="8.85"/><rect class="cls-1" x="252.41" y="25.7" width="21.6" height="21.6" rx="8.85" ry="8.85"/><rect class="cls-1" x="277.61" y="25.7" width="21.6" height="21.6" rx="8.85" ry="8.85"/><rect class="cls-1" x="328.01" y="25.7" width="21.6" height="21.6" rx="8.85" ry="8.85"/><rect class="cls-1" x="302.81" y="25.7" width="21.6" height="21.6" rx="8.85" ry="8.85"/><rect class="cls-1" x="353.21" y="25.7" width="21.6" height="21.6" rx="8.85" ry="8.85"/><rect class="cls-1" x="392.81" y="75.1" width="21.6" height="21.6" rx="8.85" ry="8.85"/><rect class="cls-1" x="392.81" y="49.61" width="21.6" height="21.6" rx="8.85" ry="8.85"/><rect class="cls-1" x="25.61" y="50.9" width="34.2" height="21.6" rx="5.37" ry="5.37"/><rect class="cls-1" x="26.26" y="76.1" width="42.52" height="21.6" rx="5.37" ry="5.37"/><rect class="cls-1" x="72.82" y="76.1" width="21.6" height="21.6" rx="8.85" ry="8.85"/><rect class="cls-1" x="98.02" y="76.1" width="21.6" height="21.6" rx="8.85" ry="8.85"/><rect class="cls-1" x="123.22" y="76.1" width="21.6" height="21.6" rx="8.85" ry="8.85"/><rect class="cls-1" x="148.42" y="76.1" width="21.6" height="21.6" rx="8.85" ry="8.85"/><rect class="cls-1" x="173.62" y="76.1" width="21.6" height="21.6" rx="8.85" ry="8.85"/><rect class="cls-1" x="274.85" y="76.1" width="21.6" height="21.6" rx="8.85" ry="8.85"/><rect class="cls-1" x="300.05" y="76.1" width="21.6" height="21.6" rx="8.85" ry="8.85"/><rect class="cls-1" x="325.25" y="76.1" width="21.6" height="21.6" rx="8.85" ry="8.85"/><rect class="cls-1" x="26.96" y="101.3" width="55.5" height="21.6" rx="5.37" ry="5.37"/><rect class="cls-1" x="86.81" y="101.3" width="21.6" height="21.6" rx="8.85" ry="8.85"/><rect class="cls-1" x="112.01" y="101.3" width="21.6" height="21.6" rx="8.85" ry="8.85"/><rect class="cls-1" x="137.21" y="101.3" width="21.6" height="21.6" rx="8.85" ry="8.85"/><rect class="cls-1" x="162.41" y="101.3" width="21.6" height="21.6" rx="8.85" ry="8.85"/><rect class="cls-1" x="187.61" y="101.3" width="21.6" height="21.6" rx="8.85" ry="8.85"/><rect class="cls-1" x="212.81" y="101.3" width="21.6" height="21.6" rx="8.85" ry="8.85"/><rect class="cls-1" x="238.01" y="101.3" width="21.6" height="21.6" rx="8.85" ry="8.85"/><rect class="cls-1" x="263.21" y="101.3" width="21.6" height="21.6" rx="8.85" ry="8.85"/><rect class="cls-1" x="288.41" y="101.3" width="21.6" height="21.6" rx="8.85" ry="8.85"/><rect class="cls-1" x="313.61" y="101.3" width="21.6" height="21.6" rx="8.85" ry="8.85"/><rect class="cls-1" x="339.24" y="101.3" width="42.52" height="21.6" rx="5.37" ry="5.37"/><rect class="cls-1" x="385.71" y="101.3" width="21.6" height="21.6" rx="8.85" ry="8.85"/><rect class="cls-1" x="328.01" y="0.5" width="21.6" height="21.6" rx="8.85" ry="8.85"/><rect class="cls-1" x="353.21" y="0.5" width="21.6" height="21.6" rx="8.85" ry="8.85"/><rect class="cls-1" x="378.41" y="0.5" width="21.6" height="21.6" rx="8.85" ry="8.85"/><rect class="cls-1" x="403.61" y="0.5" width="21.6" height="21.6" rx="8.85" ry="8.85"/><rect class="cls-1" x="98.02" y="126.5" width="224.59" height="21.6" rx="10.14" ry="10.14"/><rect class="cls-1" x="0.62" y="76.1" width="21.6" height="21.6" rx="8.85" ry="8.85"/><rect class="cls-1" x="0.62" y="101.3" width="21.6" height="21.6" rx="8.85" ry="8.85"/><rect class="cls-1" x="-11.92" y="38.66" width="46.25" height="21.42" rx="5.37" ry="5.37" transform="translate(-38.16 60.58) rotate(-90)"/><rect class="cls-1" x="199.41" y="76.1" width="21.6" height="21.6" rx="8.85" ry="8.85"/><rect class="cls-1" x="224.39" y="76.1" width="21.6" height="21.6" rx="8.85" ry="8.85"/><rect class="cls-1" x="249.59" y="76.1" width="21.6" height="21.6" rx="8.85" ry="8.85"/><path class="cls-1" d="M382.23,50.9H376a7,7,0,0,0-7,7V76.1h-10.3a7.3,7.3,0,0,0-7.3,7.3v5.93a7.3,7.3,0,0,0,7.3,7.3h23.21a7.3,7.3,0,0,0,7.3-7.3V57.88A7,7,0,0,0,382.23,50.9Z"/><rect class="cls-1" x="47.21" y="126.5" width="21.6" height="21.6" rx="8.85" ry="8.85"/><rect class="cls-1" x="72.82" y="126.5" width="21.6" height="21.6" rx="8.85" ry="8.85"/><rect class="cls-1" x="326.8" y="125.68" width="21.6" height="21.6" rx="8.85" ry="8.85"/><rect class="cls-1" x="352.42" y="125.68" width="21.6" height="21.6" rx="8.85" ry="8.85"/></g></g></g></svg>