  0
SECTION
  2
HEADER
  9
$ACADVER
  1
AC1021
  9
$ACADMAINTVER
 70
    25
  9
$DWGCODEPAGE
  3
ANSI_1252
  9
$INSBASE
 10
0.0
 20
0.0
 30
0.0
  9
$EXTMIN
 10
1.000000000000000E+20
 20
1.000000000000000E+20
 30
1.000000000000000E+20
  9
$EXTMAX
 10
-1.000000000000000E+20
 20
-1.000000000000000E+20
 30
-1.000000000000000E+20
  9
$LIMMIN
 10
0.0
 20
0.0
  9
$LIMMAX
 10
12.0
 20
9.0
  9
$ORTHOMODE
 70
     0
  9
$REGENMODE
 70
     1
  9
$FILLMODE
 70
     1
  9
$QTEXTMODE
 70
     0
  9
$MIRRTEXT
 70
     1
  9
$LTSCALE
 40
1.0
  9
$ATTMODE
 70
     1
  9
$TEXTSIZE
 40
0.2
  9
$TRACEWID
 40
0.05
  9
$TEXTSTYLE
  7
Standard
  9
$CLAYER
  8
0
  9
$CELTYPE
  6
ByLayer
  9
$CECOLOR
 62
   256
  9
$CELTSCALE
 40
1.0
  9
$DISPSILH
 70
     0
  9
$DIMSCALE
 40
1.0
  9
$DIMASZ
 40
0.18
  9
$DIMEXO
 40
0.0625
  9
$DIMDLI
 40
0.38
  9
$DIMRND
 40
0.0
  9
$DIMDLE
 40
0.0
  9
$DIMEXE
 40
0.18
  9
$DIMTP
 40
0.0
  9
$DIMTM
 40
0.0
  9
$DIMTXT
 40
0.18
  9
$DIMCEN
 40
0.09
  9
$DIMTSZ
 40
0.0
  9
$DIMTOL
 70
     0
  9
$DIMLIM
 70
     0
  9
$DIMTIH
 70
     1
  9
$DIMTOH
 70
     1
  9
$DIMSE1
 70
     0
  9
$DIMSE2
 70
     0
  9
$DIMTAD
 70
     0
  9
$DIMZIN
 70
     0
  9
$DIMBLK
  1

  9
$DIMASO
 70
     1
  9
$DIMSHO
 70
     1
  9
$DIMPOST
  1

  9
$DIMAPOST
  1

  9
$DIMALT
 70
     0
  9
$DIMALTD
 70
     2
  9
$DIMALTF
 40
25.4
  9
$DIMLFAC
 40
1.0
  9
$DIMTOFL
 70
     0
  9
$DIMTVP
 40
0.0
  9
$DIMTIX
 70
     0
  9
$DIMSOXD
 70
     0
  9
$DIMSAH
 70
     0
  9
$DIMBLK1
  1

  9
$DIMBLK2
  1

  9
$DIMSTYLE
  2
Standard
  9
$DIMCLRD
 70
     0
  9
$DIMCLRE
 70
     0
  9
$DIMCLRT
 70
     0
  9
$DIMTFAC
 40
1.0
  9
$DIMGAP
 40
0.09
  9
$DIMJUST
 70
     0
  9
$DIMSD1
 70
     0
  9
$DIMSD2
 70
     0
  9
$DIMTOLJ
 70
     1
  9
$DIMTZIN
 70
     0
  9
$DIMALTZ
 70
     0
  9
$DIMALTTZ
 70
     0
  9
$DIMUPT
 70
     0
  9
$DIMDEC
 70
     4
  9
$DIMTDEC
 70
     4
  9
$DIMALTU
 70
     2
  9
$DIMALTTD
 70
     2
  9
$DIMTXSTY
  7
Standard
  9
$DIMAUNIT
 70
     0
  9
$DIMADEC
 70
     0
  9
$DIMALTRND
 40
0.0
  9
$DIMAZIN
 70
     0
  9
$DIMDSEP
 70
    46
  9
$DIMATFIT
 70
     3
  9
$DIMFRAC
 70
     0
  9
$DIMLDRBLK
  1

  9
$DIMLUNIT
 70
     2
  9
$DIMLWD
 70
    -2
  9
$DIMLWE
 70
    -2
  9
$DIMTMOVE
 70
     0
  9
$DIMFXL
 40
1.0
  9
$DIMFXLON
 70
     0
  9
$DIMJOGANG
 40
0.7853981633974483
  9
$DIMTFILL
 70
     0
  9
$DIMTFILLCLR
 70
     0
  9
$DIMARCSYM
 70
     0
  9
$DIMLTYPE
  6

  9
$DIMLTEX1
  6

  9
$DIMLTEX2
  6

  9
$LUNITS
 70
     2
  9
$LUPREC
 70
     4
  9
$SKETCHINC
 40
0.1
  9
$FILLETRAD
 40
0.5
  9
$AUNITS
 70
     0
  9
$AUPREC
 70
     0
  9
$MENU
  1
.
  9
$ELEVATION
 40
0.0
  9
$PELEVATION
 40
0.0
  9
$THICKNESS
 40
0.0
  9
$LIMCHECK
 70
     0
  9
$CHAMFERA
 40
0.5
  9
$CHAMFERB
 40
0.5
  9
$CHAMFERC
 40
1.0
  9
$CHAMFERD
 40
0.0
  9
$SKPOLY
 70
     0
  9
$TDCREATE
 40
2458526.560491609
  9
$TDUCREATE
 40
2458526.893824942
  9
$TDUPDATE
 40
2458526.560491632
  9
$TDUUPDATE
 40
2458526.893824965
  9
$TDINDWG
 40
0.0000000116
  9
$TDUSRTIMER
 40
0.0000000116
  9
$USRTIMER
 70
     1
  9
$ANGBASE
 50
0.0
  9
$ANGDIR
 70
     0
  9
$PDMODE
 70
     0
  9
$PDSIZE
 40
0.0
  9
$PLINEWID
 40
0.0
  9
$SPLFRAME
 70
     0
  9
$SPLINETYPE
 70
     6
  9
$SPLINESEGS
 70
     8
  9
$HANDSEED
  5
AC
  9
$SURFTAB1
 70
     6
  9
$SURFTAB2
 70
     6
  9
$SURFTYPE
 70
     6
  9
$SURFU
 70
     6
  9
$SURFV
 70
     6
  9
$UCSBASE
  2

  9
$UCSNAME
  2

  9
$UCSORG
 10
0.0
 20
0.0
 30
0.0
  9
$UCSXDIR
 10
1.0
 20
0.0
 30
0.0
  9
$UCSYDIR
 10
0.0
 20
1.0
 30
0.0
  9
$UCSORTHOREF
  2

  9
$UCSORTHOVIEW
 70
     0
  9
$UCSORGTOP
 10
0.0
 20
0.0
 30
0.0
  9
$UCSORGBOTTOM
 10
0.0
 20
0.0
 30
0.0
  9
$UCSORGLEFT
 10
0.0
 20
0.0
 30
0.0
  9
$UCSORGRIGHT
 10
0.0
 20
0.0
 30
0.0
  9
$UCSORGFRONT
 10
0.0
 20
0.0
 30
0.0
  9
$UCSORGBACK
 10
0.0
 20
0.0
 30
0.0
  9
$PUCSBASE
  2

  9
$PUCSNAME
  2

  9
$PUCSORG
 10
0.0
 20
0.0
 30
0.0
  9
$PUCSXDIR
 10
1.0
 20
0.0
 30
0.0
  9
$PUCSYDIR
 10
0.0
 20
1.0
 30
0.0
  9
$PUCSORTHOREF
  2

  9
$PUCSORTHOVIEW
 70
     0
  9
$PUCSORGTOP
 10
0.0
 20
0.0
 30
0.0
  9
$PUCSORGBOTTOM
 10
0.0
 20
0.0
 30
0.0
  9
$PUCSORGLEFT
 10
0.0
 20
0.0
 30
0.0
  9
$PUCSORGRIGHT
 10
0.0
 20
0.0
 30
0.0
  9
$PUCSORGFRONT
 10
0.0
 20
0.0
 30
0.0
  9
$PUCSORGBACK
 10
0.0
 20
0.0
 30
0.0
  9
$USERI1
 70
     0
  9
$USERI2
 70
     0
  9
$USERI3
 70
     0
  9
$USERI4
 70
     0
  9
$USERI5
 70
     0
  9
$USERR1
 40
0.0
  9
$USERR2
 40
0.0
  9
$USERR3
 40
0.0
  9
$USERR4
 40
0.0
  9
$USERR5
 40
0.0
  9
$WORLDVIEW
 70
     1
  9
$SHADEDGE
 70
     3
  9
$SHADEDIF
 70
    70
  9
$TILEMODE
 70
     1
  9
$MAXACTVP
 70
    64
  9
$PINSBASE
 10
0.0
 20
0.0
 30
0.0
  9
$PLIMCHECK
 70
     0
  9
$PEXTMIN
 10
1.000000000000000E+20
 20
1.000000000000000E+20
 30
1.000000000000000E+20
  9
$PEXTMAX
 10
-1.000000000000000E+20
 20
-1.000000000000000E+20
 30
-1.000000000000000E+20
  9
$PLIMMIN
 10
0.0
 20
0.0
  9
$PLIMMAX
 10
12.0
 20
9.0
  9
$UNITMODE
 70
     0
  9
$VISRETAIN
 70
     1
  9
$PLINEGEN
 70
     0
  9
$PSLTSCALE
 70
     1
  9
$TREEDEPTH
 70
  3020
  9
$CMLSTYLE
  2
Standard
  9
$CMLJUST
 70
     0
  9
$CMLSCALE
 40
1.0
  9
$PROXYGRAPHICS
 70
     1
  9
$MEASUREMENT
 70
     0
  9
$CELWEIGHT
370
    -1
  9
$ENDCAPS
280
     0
  9
$JOINSTYLE
280
     0
  9
$LWDISPLAY
290
     1
  9
$INSUNITS
 70
     1
  9
$HYPERLINKBASE
  1

  9
$STYLESHEET
  1

  9
$XEDIT
290
     1
  9
$CEPSNTYPE
380
     0
  9
$PSTYLEMODE
290
     1
  9
$FINGERPRINTGUID
  2
{AB265D5D-4907-4881-9D2C-46A5169AF987}
  9
$VERSIONGUID
  2
{FAEB1C32-E019-11D5-929B-00C0DF256EC4}
  9
$EXTNAMES
290
     1
  9
$PSVPSCALE
 40
0.0
  9
$OLESTARTUP
290
     0
  9
$SORTENTS
280
   127
  9
$INDEXCTL
280
     0
  9
$HIDETEXT
280
     1
  9
$XCLIPFRAME
290
     0
  9
$HALOGAP
280
     0
  9
$OBSCOLOR
 70
   257
  9
$OBSLTYPE
280
     0
  9
$INTERSECTIONDISPLAY
280
     0
  9
$INTERSECTIONCOLOR
 70
   257
  9
$DIMASSOC
280
     2
  9
$PROJECTNAME
  1

  9
$CAMERADISPLAY
290
     0
  9
$LENSLENGTH
 40
50.0
  9
$CAMERAHEIGHT
 40
0.0
  9
$STEPSPERSEC
 40
2.0
  9
$STEPSIZE
 40
6.0
  9
$3DDWFPREC
 40
2.0
  9
$PSOLWIDTH
 40
0.25
  9
$PSOLHEIGHT
 40
4.0
  9
$LOFTANG1
 40
1.570796326794897
  9
$LOFTANG2
 40
1.570796326794897
  9
$LOFTMAG1
 40
0.0
  9
$LOFTMAG2
 40
0.0
  9
$LOFTPARAM
 70
     7
  9
$LOFTNORMALS
280
     1
  9
$LATITUDE
 40
37.795
  9
$LONGITUDE
 40
-122.394
  9
$NORTHDIRECTION
 40
0.0
  9
$TIMEZONE
 70
 -8000
  9
$LIGHTGLYPHDISPLAY
280
     1
  9
$TILEMODELIGHTSYNCH
280
     1
  9
$CMATERIAL
347
3C
  9
$SOLIDHIST
280
     1
  9
$SHOWHIST
280
     1
  9
$DWFFRAME
280
     2
  9
$DGNFRAME
280
     2
  9
$REALWORLDSCALE
290
     1
  9
$INTERFERECOLOR
 62
   256
  9
$CSHADOW
280
     0
  9
$SHADOWPLANELOCATION
 40
0.0
  0
ENDSEC
  0
SECTION
  2
CLASSES
  0
CLASS
  1
ACDBDICTIONARYWDFLT
  2
AcDbDictionaryWithDefault
  3
ObjectDBX Classes
 90
        0
 91
        4
280
     0
281
     0
  0
CLASS
  1
VISUALSTYLE
  2
AcDbVisualStyle
  3
ObjectDBX Classes
 90
     4095
 91
        4
280
     0
281
     0
  0
CLASS
  1
MATERIAL
  2
AcDbMaterial
  3
ObjectDBX Classes
 90
     1153
 91
        4
280
     0
281
     0
  0
CLASS
  1
SUN
  2
AcDbSun
  3
SCENEOE
 90
     1024
 91
        4
280
     0
281
     0
  0
ENDSEC
  0
SECTION
  2
TABLES
  0
TABLE
  2
VPORT
  5
8
330
0
100
AcDbSymbolTable
 70
     1
  0
VPORT
  5
29
330
8
100
AcDbSymbolTableRecord
100
AcDbViewportTableRecord
  2
*Active
 70
     0
 10
0.0
 20
0.0
 11
1.0
 21
1.0
 12
0.0
 22
0.0
 13
0.0
 23
0.0
 14
0.5
 24
0.5
 15
0.5
 25
0.5
 16
0.0
 26
0.0
 36
1.0
 17
139.699999965075
 27
-107.9499999730125
 37
0.0
 40
215.899999946025
 41
1.294117647058823
 42
50.0
 43
0.0
 44
0.0
 50
0.0
 51
0.0
 71
     0
 72
   100
 73
     1
 74
     3
 75
     0
 76
     0
 77
     0
 78
     0
281
     0
 65
     1
110
0.0
120
0.0
130
0.0
111
1.0
121
0.0
131
0.0
112
0.0
122
1.0
132
0.0
 79
     0
146
0.0
 60
     3
 61
     5
292
     1
282
     1
141
0.0
142
0.0
 63
   250
361
3F
  0
ENDTAB
  0
TABLE
  2
LTYPE
  5
5
330
0
100
AcDbSymbolTable
 70
     1
  0
LTYPE
  5
14
330
5
100
AcDbSymbolTableRecord
100
AcDbLinetypeTableRecord
  2
ByBlock
 70
     0
  3

 72
    65
 73
     0
 40
0.0
  0
LTYPE
  5
15
330
5
100
AcDbSymbolTableRecord
100
AcDbLinetypeTableRecord
  2
ByLayer
 70
     0
  3

 72
    65
 73
     0
 40
0.0
  0
LTYPE
  5
16
330
5
100
AcDbSymbolTableRecord
100
AcDbLinetypeTableRecord
  2
Continuous
 70
     0
  3
Solid line
 72
    65
 73
     0
 40
0.0
  0
ENDTAB
  0
TABLE
  2
LAYER
  5
2
330
0
100
AcDbSymbolTable
 70
     2
  0
LAYER
  5
10
330
2
100
AcDbSymbolTableRecord
100
AcDbLayerTableRecord
  2
0
 70
     0
 62
     7
  6
Continuous
370
    -3
390
F
347
3E
  0
LAYER
  5
40
330
2
100
AcDbSymbolTableRecord
100
AcDbLayerTableRecord
  2
Layer 1
 70
     0
 62
     7
  6
Continuous
370
    -3
390
F
347
3E
  0
ENDTAB
  0
TABLE
  2
STYLE
  5
3
330
0
100
AcDbSymbolTable
 70
     1
  0
STYLE
  5
11
330
3
100
AcDbSymbolTableRecord
100
AcDbTextStyleTableRecord
  2
Standard
 70
     0
 40
0.0
 41
1.0
 50
0.0
 71
     0
 42
0.2
  3
txt
  4

  0
ENDTAB
  0
TABLE
  2
VIEW
  5
6
330
0
100
AcDbSymbolTable
 70
     0
  0
ENDTAB
  0
TABLE
  2
UCS
  5
7
330
0
100
AcDbSymbolTable
 70
     0
  0
ENDTAB
  0
TABLE
  2
APPID
  5
9
330
0
100
AcDbSymbolTable
 70
     1
  0
APPID
  5
12
330
9
100
AcDbSymbolTableRecord
100
AcDbRegAppTableRecord
  2
ACAD
 70
     0
  0
ENDTAB
  0
TABLE
  2
DIMSTYLE
  5
A
330
0
100
AcDbSymbolTable
 70
     1
100
AcDbDimStyleTable
  0
DIMSTYLE
105
27
330
A
100
AcDbSymbolTableRecord
100
AcDbDimStyleTableRecord
  2
Standard
 70
     0
178
     0
340
11
  0
ENDTAB
  0
TABLE
  2
BLOCK_RECORD
  5
1
330
0
100
AcDbSymbolTable
 70
     2
  0
BLOCK_RECORD
  5
1F
330
1
100
AcDbSymbolTableRecord
100
AcDbBlockTableRecord
  2
*Model_Space
340
22
 70
     0
280
     1
281
     0
  0
BLOCK_RECORD
  5
1B
330
1
100
AcDbSymbolTableRecord
100
AcDbBlockTableRecord
  2
*Paper_Space
340
1E
 70
     0
280
     1
281
     0
  0
BLOCK_RECORD
  5
23
330
1
100
AcDbSymbolTableRecord
100
AcDbBlockTableRecord
  2
*Paper_Space0
340
26
 70
     0
280
     1
281
     0
  0
BLOCK_RECORD
  5
41
330
1
100
AcDbSymbolTableRecord
100
AcDbBlockTableRecord
  2
block 2
340
0
102
{BLKREFS
331
42
102
}
 70
     0
280
     1
281
     0
  0
ENDTAB
  0
ENDSEC
  0
SECTION
  2
BLOCKS
  0
BLOCK
  5
20
330
1F
100
AcDbEntity
  8
0
100
AcDbBlockBegin
  2
*Model_Space
 70
     0
 10
0.0
 20
0.0
 30
0.0
  3
*Model_Space
  1

  0
ENDBLK
  5
21
330
1F
100
AcDbEntity
  8
0
100
AcDbBlockEnd
  0
BLOCK
  5
1C
330
1B
100
AcDbEntity
 67
     1
  8
0
100
AcDbBlockBegin
  2
*Paper_Space
 70
     0
 10
0.0
 20
0.0
 30
0.0
  3
*Paper_Space
  1

  0
ENDBLK
  5
1D
330
1B
100
AcDbEntity
 67
     1
  8
0
100
AcDbBlockEnd
  0
BLOCK
  5
24
330
23
100
AcDbEntity
  8
0
100
AcDbBlockBegin
  2
*Paper_Space0
 70
     0
 10
0.0
 20
0.0
 30
0.0
  3
*Paper_Space0
  1

  0
ENDBLK
  5
25
330
23
100
AcDbEntity
  8
0
100
AcDbBlockEnd
  0
BLOCK
  5
43
330
41
100
AcDbEntity
  8
0
100
AcDbBlockBegin
  2
block 2
 70
     0
 10
0.0
 20
0.0
 30
0.0
  3
block 2
  1

  0
SPLINE
  5
45
330
41
100
AcDbEntity
  8
Layer 1
 62
     7
370
    35
100
AcDbSpline
210
0.0
220
0.0
230
1.0
 70
    11
 71
     3
 72
    29
 73
    25
 74
     0
 42
0.0000000001
 43
0.0000000001
 12
1.0
 22
0.0
 32
0.0
 13
1.0
 23
0.0
 33
0.0
 40
0.0
 40
0.0
 40
0.0
 40
0.0
 40
1.0
 40
1.0
 40
1.0
 40
2.0
 40
2.0
 40
2.0
 40
3.0
 40
3.0
 40
3.0
 40
4.0
 40
4.0
 40
4.0
 40
5.0
 40
5.0
 40
5.0
 40
6.0
 40
6.0
 40
6.0
 40
7.0
 40
7.0
 40
7.0
 40
8.0
 40
8.0
 40
8.0
 40
8.0
 10
202.7950337212583
 20
-98.3123114178023
 30
0.0
 10
202.7950337212583
 20
-98.3123114178023
 30
0.0
 10
201.4192003882684
 20
-98.3123114178023
 30
0.0
 10
201.4192003882684
 20
-98.3123114178023
 30
0.0
 10
199.6949213759994
 20
-98.3123114178023
 30
0.0
 10
198.2971170557161
 20
-96.91450709751904
 30
0.0
 10
198.2971170557161
 20
-95.19022808524937
 30
0.0
 10
198.2971170557161
 20
-95.19022808524937
 30
0.0
 10
198.2971170557161
 20
-93.81439475226013
 30
0.0
 10
198.2971170557161
 20
-93.81439475226013
 30
0.0
 10
198.2971170557161
 20
-92.09011573999047
 30
0.0
 10
199.6949213759994
 20
-90.69231141970718
 30
0.0
 10
201.4192003882684
 20
-90.69231141970718
 30
0.0
 10
201.4192003882684
 20
-90.69231141970718
 30
0.0
 10
202.7950337212583
 20
-90.69231141970718
 30
0.0
 10
202.7950337212583
 20
-90.69231141970718
 30
0.0
 10
204.5193127335286
 20
-90.69231141970718
 30
0.0
 10
205.9171170538106
 20
-92.09011573999047
 30
0.0
 10
205.9171170538106
 20
-93.81439475226013
 30
0.0
 10
205.9171170538106
 20
-93.81439475226013
 30
0.0
 10
205.9171170538106
 20
-95.19022808524937
 30
0.0
 10
205.9171170538106
 20
-95.19022808524937
 30
0.0
 10
205.9171170538106
 20
-96.91450709751904
 30
0.0
 10
204.5193127335286
 20
-98.3123114178023
 30
0.0
 10
202.7950337212583
 20
-98.3123114178023
 30
0.0
  0
SPLINE
  5
46
330
41
100
AcDbEntity
  8
Layer 1
 62
     7
370
    35
100
AcDbSpline
210
0.0
220
0.0
230
1.0
 70
    11
 71
     3
 72
    29
 73
    25
 74
     0
 42
0.0000000001
 43
0.0000000001
 12
1.0
 22
0.0
 32
0.0
 13
1.0
 23
0.0
 33
0.0
 40
0.0
 40
0.0
 40
0.0
 40
0.0
 40
1.0
 40
1.0
 40
1.0
 40
2.0
 40
2.0
 40
2.0
 40
3.0
 40
3.0
 40
3.0
 40
4.0
 40
4.0
 40
4.0
 40
5.0
 40
5.0
 40
5.0
 40
6.0
 40
6.0
 40
6.0
 40
7.0
 40
7.0
 40
7.0
 40
8.0
 40
8.0
 40
8.0
 40
8.0
 10
211.6850337190361
 20
-98.3123114178023
 30
0.0
 10
211.6850337190361
 20
-98.3123114178023
 30
0.0
 10
210.3092003860462
 20
-98.3123114178023
 30
0.0
 10
210.3092003860462
 20
-98.3123114178023
 30
0.0
 10
208.5849213737771
 20
-98.3123114178023
 30
0.0
 10
207.1871170534939
 20
-96.91450709751904
 30
0.0
 10
207.1871170534939
 20
-95.19022808524937
 30
0.0
 10
207.1871170534939
 20
-95.19022808524937
 30
0.0
 10
207.1871170534939
 20
-93.81439475226013
 30
0.0
 10
207.1871170534939
 20
-93.81439475226013
 30
0.0
 10
207.1871170534939
 20
-92.09011573999047
 30
0.0
 10
208.5849213737771
 20
-90.69231141970718
 30
0.0
 10
210.3092003860462
 20
-90.69231141970718
 30
0.0
 10
210.3092003860462
 20
-90.69231141970718
 30
0.0
 10
211.6850337190361
 20
-90.69231141970718
 30
0.0
 10
211.6850337190361
 20
-90.69231141970718
 30
0.0
 10
213.4093127313064
 20
-90.69231141970718
 30
0.0
 10
214.8071170515884
 20
-92.09011573999047
 30
0.0
 10
214.8071170515884
 20
-93.81439475226013
 30
0.0
 10
214.8071170515884
 20
-93.81439475226013
 30
0.0
 10
214.8071170515884
 20
-95.19022808524937
 30
0.0
 10
214.8071170515884
 20
-95.19022808524937
 30
0.0
 10
214.8071170515884
 20
-96.91450709751904
 30
0.0
 10
213.4093127313064
 20
-98.3123114178023
 30
0.0
 10
211.6850337190361
 20
-98.3123114178023
 30
0.0
  0
SPLINE
  5
47
330
41
100
AcDbEntity
  8
Layer 1
 62
     7
370
    35
100
AcDbSpline
210
0.0
220
0.0
230
1.0
 70
    11
 71
     3
 72
    29
 73
    25
 74
     0
 42
0.0000000001
 43
0.0000000001
 12
1.0
 22
0.0
 32
0.0
 13
1.0
 23
0.0
 33
0.0
 40
0.0
 40
0.0
 40
0.0
 40
0.0
 40
1.0
 40
1.0
 40
1.0
 40
2.0
 40
2.0
 40
2.0
 40
3.0
 40
3.0
 40
3.0
 40
4.0
 40
4.0
 40
4.0
 40
5.0
 40
5.0
 40
5.0
 40
6.0
 40
6.0
 40
6.0
 40
7.0
 40
7.0
 40
7.0
 40
8.0
 40
8.0
 40
8.0
 40
8.0
 10
91.67003374903858
 20
-107.2023114155788
 30
0.0
 10
91.67003374903858
 20
-107.2023114155788
 30
0.0
 10
90.29420041604934
 20
-107.2023114155788
 30
0.0
 10
90.29420041604934
 20
-107.2023114155788
 30
0.0
 10
88.56992140377935
 20
-107.2023114155788
 30
0.0
 10
87.17211708349639
 20
-105.8045070952955
 30
0.0
 10
87.17211708349639
 20
-104.0802280830258
 30
0.0
 10
87.17211708349639
 20
-104.0802280830258
 30
0.0
 10
87.17211708349639
 20
-102.7043947500366
 30
0.0
 10
87.17211708349639
 20
-102.7043947500366
 30
0.0
 10
87.17211708349639
 20
-100.9801157377669
 30
0.0
 10
88.56992140377935
 20
-99.58231141748365
 30
0.0
 10
90.29420041604934
 20
-99.58231141748365
 30
0.0
 10
90.29420041604934
 20
-99.58231141748365
 30
0.0
 10
91.67003374903858
 20
-99.58231141748365
 30
0.0
 10
91.67003374903858
 20
-99.58231141748365
 30
0.0
 10
93.39431276130856
 20
-99.58231141748365
 30
0.0
 10
94.79211708159151
 20
-100.9801157377669
 30
0.0
 10
94.79211708159151
 20
-102.7043947500366
 30
0.0
 10
94.79211708159151
 20
-102.7043947500366
 30
0.0
 10
94.79211708159151
 20
-104.0802280830258
 30
0.0
 10
94.79211708159151
 20
-104.0802280830258
 30
0.0
 10
94.79211708159151
 20
-105.8045070952955
 30
0.0
 10
93.39431276130856
 20
-107.2023114155788
 30
0.0
 10
91.67003374903858
 20
-107.2023114155788
 30
0.0
  0
SPLINE
  5
48
330
41
100
AcDbEntity
  8
Layer 1
 62
     7
370
    35
100
AcDbSpline
210
0.0
220
0.0
230
1.0
 70
    11
 71
     3
 72
    29
 73
    25
 74
     0
 42
0.0000000001
 43
0.0000000001
 12
1.0
 22
0.0
 32
0.0
 13
1.0
 23
0.0
 33
0.0
 40
0.0
 40
0.0
 40
0.0
 40
0.0
 40
1.0
 40
1.0
 40
1.0
 40
2.0
 40
2.0
 40
2.0
 40
3.0
 40
3.0
 40
3.0
 40
4.0
 40
4.0
 40
4.0
 40
5.0
 40
5.0
 40
5.0
 40
6.0
 40
6.0
 40
6.0
 40
7.0
 40
7.0
 40
7.0
 40
8.0
 40
8.0
 40
8.0
 40
8.0
 10
100.560033746816
 20
-107.2023114155788
 30
0.0
 10
100.560033746816
 20
-107.2023114155788
 30
0.0
 10
99.18420041382645
 20
-107.2023114155788
 30
0.0
 10
99.18420041382645
 20
-107.2023114155788
 30
0.0
 10
97.45992140155711
 20
-107.2023114155788
 30
0.0
 10
96.06211708127383
 20
-105.8045070952955
 30
0.0
 10
96.06211708127383
 20
-104.0802280830258
 30
0.0
 10
96.06211708127383
 20
-104.0802280830258
 30
0.0
 10
96.06211708127383
 20
-102.7043947500366
 30
0.0
 10
96.06211708127383
 20
-102.7043947500366
 30
0.0
 10
96.06211708127383
 20
-100.9801157377669
 30
0.0
 10
97.45992140155711
 20
-99.58231141748365
 30
0.0
 10
99.18420041382645
 20
-99.58231141748365
 30
0.0
 10
99.18420041382645
 20
-99.58231141748365
 30
0.0
 10
100.560033746816
 20
-99.58231141748365
 30
0.0
 10
100.560033746816
 20
-99.58231141748365
 30
0.0
 10
102.2843127590863
 20
-99.58231141748365
 30
0.0
 10
103.6821170793686
 20
-100.9801157377669
 30
0.0
 10
103.6821170793686
 20
-102.7043947500366
 30
0.0
 10
103.6821170793686
 20
-102.7043947500366
 30
0.0
 10
103.6821170793686
 20
-104.0802280830258
 30
0.0
 10
103.6821170793686
 20
-104.0802280830258
 30
0.0
 10
103.6821170793686
 20
-105.8045070952955
 30
0.0
 10
102.2843127590863
 20
-107.2023114155788
 30
0.0
 10
100.560033746816
 20
-107.2023114155788
 30
0.0
  0
SPLINE
  5
49
330
41
100
AcDbEntity
  8
Layer 1
 62
     7
370
    35
100
AcDbSpline
210
0.0
220
0.0
230
1.0
 70
    11
 71
     3
 72
    29
 73
    25
 74
     0
 42
0.0000000001
 43
0.0000000001
 12
1.0
 22
0.0
 32
0.0
 13
1.0
 23
0.0
 33
0.0
 40
0.0
 40
0.0
 40
0.0
 40
0.0
 40
1.0
 40
1.0
 40
1.0
 40
2.0
 40
2.0
 40
2.0
 40
3.0
 40
3.0
 40
3.0
 40
4.0
 40
4.0
 40
4.0
 40
5.0
 40
5.0
 40
5.0
 40
6.0
 40
6.0
 40
6.0
 40
7.0
 40
7.0
 40
7.0
 40
8.0
 40
8.0
 40
8.0
 40
8.0
 10
109.4500337445938
 20
-107.2023114155788
 30
0.0
 10
109.4500337445938
 20
-107.2023114155788
 30
0.0
 10
108.0742004116045
 20
-107.2023114155788
 30
0.0
 10
108.0742004116045
 20
-107.2023114155788
 30
0.0
 10
106.3499213993349
 20
-107.2023114155788
 30
0.0
 10
104.9521170790516
 20
-105.8045070952955
 30
0.0
 10
104.9521170790516
 20
-104.0802280830258
 30
0.0
 10
104.9521170790516
 20
-104.0802280830258
 30
0.0
 10
104.9521170790516
 20
-102.7043947500366
 30
0.0
 10
104.9521170790516
 20
-102.7043947500366
 30
0.0
 10
104.9521170790516
 20
-100.9801157377669
 30
0.0
 10
106.3499213993349
 20
-99.58231141748365
 30
0.0
 10
108.0742004116045
 20
-99.58231141748365
 30
0.0
 10
108.0742004116045
 20
-99.58231141748365
 30
0.0
 10
109.4500337445938
 20
-99.58231141748365
 30
0.0
 10
109.4500337445938
 20
-99.58231141748365
 30
0.0
 10
111.1743127568641
 20
-99.58231141748365
 30
0.0
 10
112.5721170771467
 20
-100.9801157377669
 30
0.0
 10
112.5721170771467
 20
-102.7043947500366
 30
0.0
 10
112.5721170771467
 20
-102.7043947500366
 30
0.0
 10
112.5721170771467
 20
-104.0802280830258
 30
0.0
 10
112.5721170771467
 20
-104.0802280830258
 30
0.0
 10
112.5721170771467
 20
-105.8045070952955
 30
0.0
 10
111.1743127568641
 20
-107.2023114155788
 30
0.0
 10
109.4500337445938
 20
-107.2023114155788
 30
0.0
  0
SPLINE
  5
4A
330
41
100
AcDbEntity
  8
Layer 1
 62
     7
370
    35
100
AcDbSpline
210
0.0
220
0.0
230
1.0
 70
    11
 71
     3
 72
    29
 73
    25
 74
     0
 42
0.0000000001
 43
0.0000000001
 12
1.0
 22
0.0
 32
0.0
 13
1.0
 23
0.0
 33
0.0
 40
0.0
 40
0.0
 40
0.0
 40
0.0
 40
1.0
 40
1.0
 40
1.0
 40
2.0
 40
2.0
 40
2.0
 40
3.0
 40
3.0
 40
3.0
 40
4.0
 40
4.0
 40
4.0
 40
5.0
 40
5.0
 40
5.0
 40
6.0
 40
6.0
 40
6.0
 40
7.0
 40
7.0
 40
7.0
 40
8.0
 40
8.0
 40
8.0
 40
8.0
 10
118.3400337423718
 20
-107.2023114155788
 30
0.0
 10
118.3400337423718
 20
-107.2023114155788
 30
0.0
 10
116.9642004093823
 20
-107.2023114155788
 30
0.0
 10
116.9642004093823
 20
-107.2023114155788
 30
0.0
 10
115.2399213971126
 20
-107.2023114155788
 30
0.0
 10
113.8421170768297
 20
-105.8045070952955
 30
0.0
 10
113.8421170768297
 20
-104.0802280830258
 30
0.0
 10
113.8421170768297
 20
-104.0802280830258
 30
0.0
 10
113.8421170768297
 20
-102.7043947500366
 30
0.0
 10
113.8421170768297
 20
-102.7043947500366
 30
0.0
 10
113.8421170768297
 20
-100.9801157377669
 30
0.0
 10
115.2399213971126
 20
-99.58231141748365
 30
0.0
 10
116.9642004093823
 20
-99.58231141748365
 30
0.0
 10
116.9642004093823
 20
-99.58231141748365
 30
0.0
 10
118.3400337423718
 20
-99.58231141748365
 30
0.0
 10
118.3400337423718
 20
-99.58231141748365
 30
0.0
 10
120.0643127546415
 20
-99.58231141748365
 30
0.0
 10
121.4621170749245
 20
-100.9801157377669
 30
0.0
 10
121.4621170749245
 20
-102.7043947500366
 30
0.0
 10
121.4621170749245
 20
-102.7043947500366
 30
0.0
 10
121.4621170749245
 20
-104.0802280830258
 30
0.0
 10
121.4621170749245
 20
-104.0802280830258
 30
0.0
 10
121.4621170749245
 20
-105.8045070952955
 30
0.0
 10
120.0643127546415
 20
-107.2023114155788
 30
0.0
 10
118.3400337423718
 20
-107.2023114155788
 30
0.0
  0
SPLINE
  5
4B
330
41
100
AcDbEntity
  8
Layer 1
 62
     7
370
    35
100
AcDbSpline
210
0.0
220
0.0
230
1.0
 70
    11
 71
     3
 72
    29
 73
    25
 74
     0
 42
0.0000000001
 43
0.0000000001
 12
1.0
 22
0.0
 32
0.0
 13
1.0
 23
0.0
 33
0.0
 40
0.0
 40
0.0
 40
0.0
 40
0.0
 40
1.0
 40
1.0
 40
1.0
 40
2.0
 40
2.0
 40
2.0
 40
3.0
 40
3.0
 40
3.0
 40
4.0
 40
4.0
 40
4.0
 40
5.0
 40
5.0
 40
5.0
 40
6.0
 40
6.0
 40
6.0
 40
7.0
 40
7.0
 40
7.0
 40
8.0
 40
8.0
 40
8.0
 40
8.0
 10
127.2300337401496
 20
-107.2023114155788
 30
0.0
 10
127.2300337401496
 20
-107.2023114155788
 30
0.0
 10
125.85420040716
 20
-107.2023114155788
 30
0.0
 10
125.85420040716
 20
-107.2023114155788
 30
0.0
 10
124.1299213948907
 20
-107.2023114155788
 30
0.0
 10
122.7321170746071
 20
-105.8045070952955
 30
0.0
 10
122.7321170746071
 20
-104.0802280830258
 30
0.0
 10
122.7321170746071
 20
-104.0802280830258
 30
0.0
 10
122.7321170746071
 20
-102.7043947500366
 30
0.0
 10
122.7321170746071
 20
-102.7043947500366
 30
0.0
 10
122.7321170746071
 20
-100.9801157377669
 30
0.0
 10
124.1299213948907
 20
-99.58231141748365
 30
0.0
 10
125.85420040716
 20
-99.58231141748365
 30
0.0
 10
125.85420040716
 20
-99.58231141748365
 30
0.0
 10
127.2300337401496
 20
-99.58231141748365
 30
0.0
 10
127.2300337401496
 20
-99.58231141748365
 30
0.0
 10
128.9543127524199
 20
-99.58231141748365
 30
0.0
 10
130.3521170727019
 20
-100.9801157377669
 30
0.0
 10
130.3521170727019
 20
-102.7043947500366
 30
0.0
 10
130.3521170727019
 20
-102.7043947500366
 30
0.0
 10
130.3521170727019
 20
-104.0802280830258
 30
0.0
 10
130.3521170727019
 20
-104.0802280830258
 30
0.0
 10
130.3521170727019
 20
-105.8045070952955
 30
0.0
 10
128.9543127524199
 20
-107.2023114155788
 30
0.0
 10
127.2300337401496
 20
-107.2023114155788
 30
0.0
  0
SPLINE
  5
4C
330
41
100
AcDbEntity
  8
Layer 1
 62
     7
370
    35
100
AcDbSpline
210
0.0
220
0.0
230
1.0
 70
    11
 71
     3
 72
    29
 73
    25
 74
     0
 42
0.0000000001
 43
0.0000000001
 12
1.0
 22
0.0
 32
0.0
 13
1.0
 23
0.0
 33
0.0
 40
0.0
 40
0.0
 40
0.0
 40
0.0
 40
1.0
 40
1.0
 40
1.0
 40
2.0
 40
2.0
 40
2.0
 40
3.0
 40
3.0
 40
3.0
 40
4.0
 40
4.0
 40
4.0
 40
5.0
 40
5.0
 40
5.0
 40
6.0
 40
6.0
 40
6.0
 40
7.0
 40
7.0
 40
7.0
 40
8.0
 40
8.0
 40
8.0
 40
8.0
 10
136.1200337379274
 20
-107.2023114155788
 30
0.0
 10
136.1200337379274
 20
-107.2023114155788
 30
0.0
 10
134.7442004049375
 20
-107.2023114155788
 30
0.0
 10
134.7442004049375
 20
-107.2023114155788
 30
0.0
 10
133.0199213926685
 20
-107.2023114155788
 30
0.0
 10
131.6221170723852
 20
-105.8045070952955
 30
0.0
 10
131.6221170723852
 20
-104.0802280830258
 30
0.0
 10
131.6221170723852
 20
-104.0802280830258
 30
0.0
 10
131.6221170723852
 20
-102.7043947500366
 30
0.0
 10
131.6221170723852
 20
-102.7043947500366
 30
0.0
 10
131.6221170723852
 20
-100.9801157377669
 30
0.0
 10
133.0199213926685
 20
-99.58231141748365
 30
0.0
 10
134.7442004049375
 20
-99.58231141748365
 30
0.0
 10
134.7442004049375
 20
-99.58231141748365
 30
0.0
 10
136.1200337379274
 20
-99.58231141748365
 30
0.0
 10
136.1200337379274
 20
-99.58231141748365
 30
0.0
 10
137.8443127501977
 20
-99.58231141748365
 30
0.0
 10
139.2421170704797
 20
-100.9801157377669
 30
0.0
 10
139.2421170704797
 20
-102.7043947500366
 30
0.0
 10
139.2421170704797
 20
-102.7043947500366
 30
0.0
 10
139.2421170704797
 20
-104.0802280830258
 30
0.0
 10
139.2421170704797
 20
-104.0802280830258
 30
0.0
 10
139.2421170704797
 20
-105.8045070952955
 30
0.0
 10
137.8443127501977
 20
-107.2023114155788
 30
0.0
 10
136.1200337379274
 20
-107.2023114155788
 30
0.0
  0
SPLINE
  5
4D
330
41
100
AcDbEntity
  8
Layer 1
 62
     7
370
    35
100
AcDbSpline
210
0.0
220
0.0
230
1.0
 70
    11
 71
     3
 72
    29
 73
    25
 74
     0
 42
0.0000000001
 43
0.0000000001
 12
1.0
 22
0.0
 32
0.0
 13
1.0
 23
0.0
 33
0.0
 40
0.0
 40
0.0
 40
0.0
 40
0.0
 40
1.0
 40
1.0
 40
1.0
 40
2.0
 40
2.0
 40
2.0
 40
3.0
 40
3.0
 40
3.0
 40
4.0
 40
4.0
 40
4.0
 40
5.0
 40
5.0
 40
5.0
 40
6.0
 40
6.0
 40
6.0
 40
7.0
 40
7.0
 40
7.0
 40
8.0
 40
8.0
 40
8.0
 40
8.0
 10
145.0100337357054
 20
-107.2023114155788
 30
0.0
 10
145.0100337357054
 20
-107.2023114155788
 30
0.0
 10
143.6342004027155
 20
-107.2023114155788
 30
0.0
 10
143.6342004027155
 20
-107.2023114155788
 30
0.0
 10
141.9099213904452
 20
-107.2023114155788
 30
0.0
 10
140.5121170701632
 20
-105.8045070952955
 30
0.0
 10
140.5121170701632
 20
-104.0802280830258
 30
0.0
 10
140.5121170701632
 20
-104.0802280830258
 30
0.0
 10
140.5121170701632
 20
-102.7043947500366
 30
0.0
 10
140.5121170701632
 20
-102.7043947500366
 30
0.0
 10
140.5121170701632
 20
-100.9801157377669
 30
0.0
 10
141.9099213904452
 20
-99.58231141748365
 30
0.0
 10
143.6342004027155
 20
-99.58231141748365
 30
0.0
 10
143.6342004027155
 20
-99.58231141748365
 30
0.0
 10
145.0100337357054
 20
-99.58231141748365
 30
0.0
 10
145.0100337357054
 20
-99.58231141748365
 30
0.0
 10
146.7343127479745
 20
-99.58231141748365
 30
0.0
 10
148.1321170682577
 20
-100.9801157377669
 30
0.0
 10
148.1321170682577
 20
-102.7043947500366
 30
0.0
 10
148.1321170682577
 20
-102.7043947500366
 30
0.0
 10
148.1321170682577
 20
-104.0802280830258
 30
0.0
 10
148.1321170682577
 20
-104.0802280830258
 30
0.0
 10
148.1321170682577
 20
-105.8045070952955
 30
0.0
 10
146.7343127479745
 20
-107.2023114155788
 30
0.0
 10
145.0100337357054
 20
-107.2023114155788
 30
0.0
  0
SPLINE
  5
4E
330
41
100
AcDbEntity
  8
Layer 1
 62
     7
370
    35
100
AcDbSpline
210
0.0
220
0.0
230
1.0
 70
    11
 71
     3
 72
    29
 73
    25
 74
     0
 42
0.0000000001
 43
0.0000000001
 12
1.0
 22
0.0
 32
0.0
 13
1.0
 23
0.0
 33
0.0
 40
0.0
 40
0.0
 40
0.0
 40
0.0
 40
1.0
 40
1.0
 40
1.0
 40
2.0
 40
2.0
 40
2.0
 40
3.0
 40
3.0
 40
3.0
 40
4.0
 40
4.0
 40
4.0
 40
5.0
 40
5.0
 40
5.0
 40
6.0
 40
6.0
 40
6.0
 40
7.0
 40
7.0
 40
7.0
 40
8.0
 40
8.0
 40
8.0
 40
8.0
 10
153.9000337334813
 20
-107.2023114155788
 30
0.0
 10
153.9000337334813
 20
-107.2023114155788
 30
0.0
 10
152.5242004004927
 20
-107.2023114155788
 30
0.0
 10
152.5242004004927
 20
-107.2023114155788
 30
0.0
 10
150.799921388223
 20
-107.2023114155788
 30
0.0
 10
149.4021170679397
 20
-105.8045070952955
 30
0.0
 10
149.4021170679397
 20
-104.0802280830258
 30
0.0
 10
149.4021170679397
 20
-104.0802280830258
 30
0.0
 10
149.4021170679397
 20
-102.7043947500366
 30
0.0
 10
149.4021170679397
 20
-102.7043947500366
 30
0.0
 10
149.4021170679397
 20
-100.9801157377669
 30
0.0
 10
150.799921388223
 20
-99.58231141748365
 30
0.0
 10
152.5242004004927
 20
-99.58231141748365
 30
0.0
 10
152.5242004004927
 20
-99.58231141748365
 30
0.0
 10
153.9000337334813
 20
-99.58231141748365
 30
0.0
 10
153.9000337334813
 20
-99.58231141748365
 30
0.0
 10
155.6243127457516
 20
-99.58231141748365
 30
0.0
 10
157.0221170660349
 20
-100.9801157377669
 30
0.0
 10
157.0221170660349
 20
-102.7043947500366
 30
0.0
 10
157.0221170660349
 20
-102.7043947500366
 30
0.0
 10
157.0221170660349
 20
-104.0802280830258
 30
0.0
 10
157.0221170660349
 20
-104.0802280830258
 30
0.0
 10
157.0221170660349
 20
-105.8045070952955
 30
0.0
 10
155.6243127457516
 20
-107.2023114155788
 30
0.0
 10
153.9000337334813
 20
-107.2023114155788
 30
0.0
  0
SPLINE
  5
4F
330
41
100
AcDbEntity
  8
Layer 1
 62
     7
370
    35
100
AcDbSpline
210
0.0
220
0.0
230
1.0
 70
    11
 71
     3
 72
    29
 73
    25
 74
     0
 42
0.0000000001
 43
0.0000000001
 12
1.0
 22
0.0
 32
0.0
 13
1.0
 23
0.0
 33
0.0
 40
0.0
 40
0.0
 40
0.0
 40
0.0
 40
1.0
 40
1.0
 40
1.0
 40
2.0
 40
2.0
 40
2.0
 40
3.0
 40
3.0
 40
3.0
 40
4.0
 40
4.0
 40
4.0
 40
5.0
 40
5.0
 40
5.0
 40
6.0
 40
6.0
 40
6.0
 40
7.0
 40
7.0
 40
7.0
 40
8.0
 40
8.0
 40
8.0
 40
8.0
 10
162.7900337312578
 20
-107.2023114155788
 30
0.0
 10
162.7900337312578
 20
-107.2023114155788
 30
0.0
 10
161.4142003982679
 20
-107.2023114155788
 30
0.0
 10
161.4142003982679
 20
-107.2023114155788
 30
0.0
 10
159.6899213859988
 20
-107.2023114155788
 30
0.0
 10
158.2921170657156
 20
-105.8045070952955
 30
0.0
 10
158.2921170657156
 20
-104.0802280830258
 30
0.0
 10
158.2921170657156
 20
-104.0802280830258
 30
0.0
 10
158.2921170657156
 20
-102.7043947500366
 30
0.0
 10
158.2921170657156
 20
-102.7043947500366
 30
0.0
 10
158.2921170657156
 20
-100.9801157377669
 30
0.0
 10
159.6899213859988
 20
-99.58231141748365
 30
0.0
 10
161.4142003982679
 20
-99.58231141748365
 30
0.0
 10
161.4142003982679
 20
-99.58231141748365
 30
0.0
 10
162.7900337312578
 20
-99.58231141748365
 30
0.0
 10
162.7900337312578
 20
-99.58231141748365
 30
0.0
 10
164.5143127435281
 20
-99.58231141748365
 30
0.0
 10
165.9121170638101
 20
-100.9801157377669
 30
0.0
 10
165.9121170638101
 20
-102.7043947500366
 30
0.0
 10
165.9121170638101
 20
-102.7043947500366
 30
0.0
 10
165.9121170638101
 20
-104.0802280830258
 30
0.0
 10
165.9121170638101
 20
-104.0802280830258
 30
0.0
 10
165.9121170638101
 20
-105.8045070952955
 30
0.0
 10
164.5143127435281
 20
-107.2023114155788
 30
0.0
 10
162.7900337312578
 20
-107.2023114155788
 30
0.0
  0
SPLINE
  5
50
330
41
100
AcDbEntity
  8
Layer 1
 62
     7
370
    35
100
AcDbSpline
210
0.0
220
0.0
230
1.0
 70
    11
 71
     3
 72
    29
 73
    25
 74
     0
 42
0.0000000001
 43
0.0000000001
 12
1.0
 22
0.0
 32
0.0
 13
1.0
 23
0.0
 33
0.0
 40
0.0
 40
0.0
 40
0.0
 40
0.0
 40
1.0
 40
1.0
 40
1.0
 40
2.0
 40
2.0
 40
2.0
 40
3.0
 40
3.0
 40
3.0
 40
4.0
 40
4.0
 40
4.0
 40
5.0
 40
5.0
 40
5.0
 40
6.0
 40
6.0
 40
6.0
 40
7.0
 40
7.0
 40
7.0
 40
8.0
 40
8.0
 40
8.0
 40
8.0
 10
171.6800337290355
 20
-107.2023114155788
 30
0.0
 10
171.6800337290355
 20
-107.2023114155788
 30
0.0
 10
170.3042003960456
 20
-107.2023114155788
 30
0.0
 10
170.3042003960456
 20
-107.2023114155788
 30
0.0
 10
168.5799213837766
 20
-107.2023114155788
 30
0.0
 10
167.1821170634933
 20
-105.8045070952955
 30
0.0
 10
167.1821170634933
 20
-104.0802280830258
 30
0.0
 10
167.1821170634933
 20
-104.0802280830258
 30
0.0
 10
167.1821170634933
 20
-102.7043947500366
 30
0.0
 10
167.1821170634933
 20
-102.7043947500366
 30
0.0
 10
167.1821170634933
 20
-100.9801157377669
 30
0.0
 10
168.5799213837766
 20
-99.58231141748365
 30
0.0
 10
170.3042003960456
 20
-99.58231141748365
 30
0.0
 10
170.3042003960456
 20
-99.58231141748365
 30
0.0
 10
171.6800337290355
 20
-99.58231141748365
 30
0.0
 10
171.6800337290355
 20
-99.58231141748365
 30
0.0
 10
173.4043127413058
 20
-99.58231141748365
 30
0.0
 10
174.8021170615878
 20
-100.9801157377669
 30
0.0
 10
174.8021170615878
 20
-102.7043947500366
 30
0.0
 10
174.8021170615878
 20
-102.7043947500366
 30
0.0
 10
174.8021170615878
 20
-104.0802280830258
 30
0.0
 10
174.8021170615878
 20
-104.0802280830258
 30
0.0
 10
174.8021170615878
 20
-105.8045070952955
 30
0.0
 10
173.4043127413058
 20
-107.2023114155788
 30
0.0
 10
171.6800337290355
 20
-107.2023114155788
 30
0.0
  0
SPLINE
  5
51
330
41
100
AcDbEntity
  8
Layer 1
 62
     7
370
    35
100
AcDbSpline
210
0.0
220
0.0
230
1.0
 70
    11
 71
     3
 72
    29
 73
    25
 74
     0
 42
0.0000000001
 43
0.0000000001
 12
1.0
 22
0.0
 32
0.0
 13
1.0
 23
0.0
 33
0.0
 40
0.0
 40
0.0
 40
0.0
 40
0.0
 40
1.0
 40
1.0
 40
1.0
 40
2.0
 40
2.0
 40
2.0
 40
3.0
 40
3.0
 40
3.0
 40
4.0
 40
4.0
 40
4.0
 40
5.0
 40
5.0
 40
5.0
 40
6.0
 40
6.0
 40
6.0
 40
7.0
 40
7.0
 40
7.0
 40
8.0
 40
8.0
 40
8.0
 40
8.0
 10
180.5700337268133
 20
-107.2023114155788
 30
0.0
 10
180.5700337268133
 20
-107.2023114155788
 30
0.0
 10
179.1942003938234
 20
-107.2023114155788
 30
0.0
 10
179.1942003938234
 20
-107.2023114155788
 30
0.0
 10
177.4699213815543
 20
-107.2023114155788
 30
0.0
 10
176.0721170612711
 20
-105.8045070952955
 30
0.0
 10
176.0721170612711
 20
-104.0802280830258
 30
0.0
 10
176.0721170612711
 20
-104.0802280830258
 30
0.0
 10
176.0721170612711
 20
-102.7043947500366
 30
0.0
 10
176.0721170612711
 20
-102.7043947500366
 30
0.0
 10
176.0721170612711
 20
-100.9801157377669
 30
0.0
 10
177.4699213815543
 20
-99.58231141748365
 30
0.0
 10
179.1942003938234
 20
-99.58231141748365
 30
0.0
 10
179.1942003938234
 20
-99.58231141748365
 30
0.0
 10
180.5700337268133
 20
-99.58231141748365
 30
0.0
 10
180.5700337268133
 20
-99.58231141748365
 30
0.0
 10
182.2943127390836
 20
-99.58231141748365
 30
0.0
 10
183.6921170593656
 20
-100.9801157377669
 30
0.0
 10
183.6921170593656
 20
-102.7043947500366
 30
0.0
 10
183.6921170593656
 20
-102.7043947500366
 30
0.0
 10
183.6921170593656
 20
-104.0802280830258
 30
0.0
 10
183.6921170593656
 20
-104.0802280830258
 30
0.0
 10
183.6921170593656
 20
-105.8045070952955
 30
0.0
 10
182.2943127390836
 20
-107.2023114155788
 30
0.0
 10
180.5700337268133
 20
-107.2023114155788
 30
0.0
  0
SPLINE
  5
52
330
41
100
AcDbEntity
  8
Layer 1
 62
     7
370
    35
100
AcDbSpline
210
0.0
220
0.0
230
1.0
 70
    11
 71
     3
 72
    29
 73
    25
 74
     0
 42
0.0000000001
 43
0.0000000001
 12
1.0
 22
0.0
 32
0.0
 13
1.0
 23
0.0
 33
0.0
 40
0.0
 40
0.0
 40
0.0
 40
0.0
 40
1.0
 40
1.0
 40
1.0
 40
2.0
 40
2.0
 40
2.0
 40
3.0
 40
3.0
 40
3.0
 40
4.0
 40
4.0
 40
4.0
 40
5.0
 40
5.0
 40
5.0
 40
6.0
 40
6.0
 40
6.0
 40
7.0
 40
7.0
 40
7.0
 40
8.0
 40
8.0
 40
8.0
 40
8.0
 10
189.4600337245923
 20
-107.2023114155788
 30
0.0
 10
189.4600337245923
 20
-107.2023114155788
 30
0.0
 10
188.0842003916024
 20
-107.2023114155788
 30
0.0
 10
188.0842003916024
 20
-107.2023114155788
 30
0.0
 10
186.3599213793334
 20
-107.2023114155788
 30
0.0
 10
184.9621170590501
 20
-105.8045070952955
 30
0.0
 10
184.9621170590501
 20
-104.0802280830258
 30
0.0
 10
184.9621170590501
 20
-104.0802280830258
 30
0.0
 10
184.9621170590501
 20
-102.7043947500366
 30
0.0
 10
184.9621170590501
 20
-102.7043947500366
 30
0.0
 10
184.9621170590501
 20
-100.9801157377669
 30
0.0
 10
186.3599213793334
 20
-99.58231141748365
 30
0.0
 10
188.0842003916024
 20
-99.58231141748365
 30
0.0
 10
188.0842003916024
 20
-99.58231141748365
 30
0.0
 10
189.4600337245923
 20
-99.58231141748365
 30
0.0
 10
189.4600337245923
 20
-99.58231141748365
 30
0.0
 10
191.1843127368626
 20
-99.58231141748365
 30
0.0
 10
192.5821170571446
 20
-100.9801157377669
 30
0.0
 10
192.5821170571446
 20
-102.7043947500366
 30
0.0
 10
192.5821170571446
 20
-102.7043947500366
 30
0.0
 10
192.5821170571446
 20
-104.0802280830258
 30
0.0
 10
192.5821170571446
 20
-104.0802280830258
 30
0.0
 10
192.5821170571446
 20
-105.8045070952955
 30
0.0
 10
191.1843127368626
 20
-107.2023114155788
 30
0.0
 10
189.4600337245923
 20
-107.2023114155788
 30
0.0
  0
SPLINE
  5
53
330
41
100
AcDbEntity
  8
Layer 1
 62
     7
370
    35
100
AcDbSpline
210
0.0
220
0.0
230
1.0
 70
    11
 71
     3
 72
    29
 73
    25
 74
     0
 42
0.0000000001
 43
0.0000000001
 12
1.0
 22
0.0
 32
0.0
 13
1.0
 23
0.0
 33
0.0
 40
0.0
 40
0.0
 40
0.0
 40
0.0
 40
1.0
 40
1.0
 40
1.0
 40
2.0
 40
2.0
 40
2.0
 40
3.0
 40
3.0
 40
3.0
 40
4.0
 40
4.0
 40
4.0
 40
5.0
 40
5.0
 40
5.0
 40
6.0
 40
6.0
 40
6.0
 40
7.0
 40
7.0
 40
7.0
 40
8.0
 40
8.0
 40
8.0
 40
8.0
 10
78.33503375237161
 20
-98.3123114178023
 30
0.0
 10
78.33503375237161
 20
-98.3123114178023
 30
0.0
 10
76.95920041938237
 20
-98.3123114178023
 30
0.0
 10
76.95920041938237
 20
-98.3123114178023
 30
0.0
 10
75.2349214071124
 20
-98.3123114178023
 30
0.0
 10
73.83711708682944
 20
-96.91450709751904
 30
0.0
 10
73.83711708682944
 20
-95.19022808524937
 30
0.0
 10
73.83711708682944
 20
-95.19022808524937
 30
0.0
 10
73.83711708682944
 20
-93.81439475226013
 30
0.0
 10
73.83711708682944
 20
-93.81439475226013
 30
0.0
 10
73.83711708682944
 20
-92.09011573999047
 30
0.0
 10
75.2349214071124
 20
-90.69231141970718
 30
0.0
 10
76.95920041938237
 20
-90.69231141970718
 30
0.0
 10
76.95920041938237
 20
-90.69231141970718
 30
0.0
 10
78.33503375237161
 20
-90.69231141970718
 30
0.0
 10
78.33503375237161
 20
-90.69231141970718
 30
0.0
 10
80.0593127646416
 20
-90.69231141970718
 30
0.0
 10
81.45711708492456
 20
-92.09011573999047
 30
0.0
 10
81.45711708492456
 20
-93.81439475226013
 30
0.0
 10
81.45711708492456
 20
-93.81439475226013
 30
0.0
 10
81.45711708492456
 20
-95.19022808524937
 30
0.0
 10
81.45711708492456
 20
-95.19022808524937
 30
0.0
 10
81.45711708492456
 20
-96.91450709751904
 30
0.0
 10
80.0593127646416
 20
-98.3123114178023
 30
0.0
 10
78.33503375237161
 20
-98.3123114178023
 30
0.0
  0
SPLINE
  5
54
330
41
100
AcDbEntity
  8
Layer 1
 62
     7
370
    35
100
AcDbSpline
210
0.0
220
0.0
230
1.0
 70
    11
 71
     3
 72
    29
 73
    25
 74
     0
 42
0.0000000001
 43
0.0000000001
 12
1.0
 22
0.0
 32
0.0
 13
1.0
 23
0.0
 33
0.0
 40
0.0
 40
0.0
 40
0.0
 40
0.0
 40
1.0
 40
1.0
 40
1.0
 40
2.0
 40
2.0
 40
2.0
 40
3.0
 40
3.0
 40
3.0
 40
4.0
 40
4.0
 40
4.0
 40
5.0
 40
5.0
 40
5.0
 40
6.0
 40
6.0
 40
6.0
 40
7.0
 40
7.0
 40
7.0
 40
8.0
 40
8.0
 40
8.0
 40
8.0
 10
87.22503375014905
 20
-98.3123114178023
 30
0.0
 10
87.22503375014905
 20
-98.3123114178023
 30
0.0
 10
85.8492004171598
 20
-98.3123114178023
 30
0.0
 10
85.8492004171598
 20
-98.3123114178023
 30
0.0
 10
84.12492140489015
 20
-98.3123114178023
 30
0.0
 10
82.72711708460687
 20
-96.91450709751904
 30
0.0
 10
82.72711708460687
 20
-95.19022808524937
 30
0.0
 10
82.72711708460687
 20
-95.19022808524937
 30
0.0
 10
82.72711708460687
 20
-93.81439475226013
 30
0.0
 10
82.72711708460687
 20
-93.81439475226013
 30
0.0
 10
82.72711708460687
 20
-92.09011573999047
 30
0.0
 10
84.12492140489015
 20
-90.69231141970718
 30
0.0
 10
85.8492004171598
 20
-90.69231141970718
 30
0.0
 10
85.8492004171598
 20
-90.69231141970718
 30
0.0
 10
87.22503375014905
 20
-90.69231141970718
 30
0.0
 10
87.22503375014905
 20
-90.69231141970718
 30
0.0
 10
88.94931276241935
 20
-90.69231141970718
 30
0.0
 10
90.347117082702
 20
-92.09011573999047
 30
0.0
 10
90.347117082702
 20
-93.81439475226013
 30
0.0
 10
90.347117082702
 20
-93.81439475226013
 30
0.0
 10
90.347117082702
 20
-95.19022808524937
 30
0.0
 10
90.347117082702
 20
-95.19022808524937
 30
0.0
 10
90.347117082702
 20
-96.91450709751904
 30
0.0
 10
88.94931276241935
 20
-98.3123114178023
 30
0.0
 10
87.22503375014905
 20
-98.3123114178023
 30
0.0
  0
SPLINE
  5
55
330
41
100
AcDbEntity
  8
Layer 1
 62
     7
370
    35
100
AcDbSpline
210
0.0
220
0.0
230
1.0
 70
    11
 71
     3
 72
    29
 73
    25
 74
     0
 42
0.0000000001
 43
0.0000000001
 12
1.0
 22
0.0
 32
0.0
 13
1.0
 23
0.0
 33
0.0
 40
0.0
 40
0.0
 40
0.0
 40
0.0
 40
1.0
 40
1.0
 40
1.0
 40
2.0
 40
2.0
 40
2.0
 40
3.0
 40
3.0
 40
3.0
 40
4.0
 40
4.0
 40
4.0
 40
5.0
 40
5.0
 40
5.0
 40
6.0
 40
6.0
 40
6.0
 40
7.0
 40
7.0
 40
7.0
 40
8.0
 40
8.0
 40
8.0
 40
8.0
 10
96.11503374792682
 20
-98.3123114178023
 30
0.0
 10
96.11503374792682
 20
-98.3123114178023
 30
0.0
 10
94.73920041493757
 20
-98.3123114178023
 30
0.0
 10
94.73920041493757
 20
-98.3123114178023
 30
0.0
 10
93.01492140266791
 20
-98.3123114178023
 30
0.0
 10
91.61711708238462
 20
-96.91450709751904
 30
0.0
 10
91.61711708238462
 20
-95.19022808524937
 30
0.0
 10
91.61711708238462
 20
-95.19022808524937
 30
0.0
 10
91.61711708238462
 20
-93.81439475226013
 30
0.0
 10
91.61711708238462
 20
-93.81439475226013
 30
0.0
 10
91.61711708238462
 20
-92.09011573999047
 30
0.0
 10
93.01492140266791
 20
-90.69231141970718
 30
0.0
 10
94.73920041493757
 20
-90.69231141970718
 30
0.0
 10
94.73920041493757
 20
-90.69231141970718
 30
0.0
 10
96.11503374792682
 20
-90.69231141970718
 30
0.0
 10
96.11503374792682
 20
-90.69231141970718
 30
0.0
 10
97.83931276019712
 20
-90.69231141970718
 30
0.0
 10
99.23711708047975
 20
-92.09011573999047
 30
0.0
 10
99.23711708047975
 20
-93.81439475226013
 30
0.0
 10
99.23711708047975
 20
-93.81439475226013
 30
0.0
 10
99.23711708047975
 20
-95.19022808524937
 30
0.0
 10
99.23711708047975
 20
-95.19022808524937
 30
0.0
 10
99.23711708047975
 20
-96.91450709751904
 30
0.0
 10
97.83931276019712
 20
-98.3123114178023
 30
0.0
 10
96.11503374792682
 20
-98.3123114178023
 30
0.0
  0
SPLINE
  5
56
330
41
100
AcDbEntity
  8
Layer 1
 62
     7
370
    35
100
AcDbSpline
210
0.0
220
0.0
230
1.0
 70
    11
 71
     3
 72
    29
 73
    25
 74
     0
 42
0.0000000001
 43
0.0000000001
 12
1.0
 22
0.0
 32
0.0
 13
1.0
 23
0.0
 33
0.0
 40
0.0
 40
0.0
 40
0.0
 40
0.0
 40
1.0
 40
1.0
 40
1.0
 40
2.0
 40
2.0
 40
2.0
 40
3.0
 40
3.0
 40
3.0
 40
4.0
 40
4.0
 40
4.0
 40
5.0
 40
5.0
 40
5.0
 40
6.0
 40
6.0
 40
6.0
 40
7.0
 40
7.0
 40
7.0
 40
8.0
 40
8.0
 40
8.0
 40
8.0
 10
105.0050337457046
 20
-98.3123114178023
 30
0.0
 10
105.0050337457046
 20
-98.3123114178023
 30
0.0
 10
103.6292004127153
 20
-98.3123114178023
 30
0.0
 10
103.6292004127153
 20
-98.3123114178023
 30
0.0
 10
101.9049214004457
 20
-98.3123114178023
 30
0.0
 10
100.5071170801624
 20
-96.91450709751904
 30
0.0
 10
100.5071170801624
 20
-95.19022808524937
 30
0.0
 10
100.5071170801624
 20
-95.19022808524937
 30
0.0
 10
100.5071170801624
 20
-93.81439475226013
 30
0.0
 10
100.5071170801624
 20
-93.81439475226013
 30
0.0
 10
100.5071170801624
 20
-92.09011573999047
 30
0.0
 10
101.9049214004457
 20
-90.69231141970718
 30
0.0
 10
103.6292004127153
 20
-90.69231141970718
 30
0.0
 10
103.6292004127153
 20
-90.69231141970718
 30
0.0
 10
105.0050337457046
 20
-90.69231141970718
 30
0.0
 10
105.0050337457046
 20
-90.69231141970718
 30
0.0
 10
106.7293127579749
 20
-90.69231141970718
 30
0.0
 10
108.1271170782575
 20
-92.09011573999047
 30
0.0
 10
108.1271170782575
 20
-93.81439475226013
 30
0.0
 10
108.1271170782575
 20
-93.81439475226013
 30
0.0
 10
108.1271170782575
 20
-95.19022808524937
 30
0.0
 10
108.1271170782575
 20
-95.19022808524937
 30
0.0
 10
108.1271170782575
 20
-96.91450709751904
 30
0.0
 10
106.7293127579749
 20
-98.3123114178023
 30
0.0
 10
105.0050337457046
 20
-98.3123114178023
 30
0.0
  0
SPLINE
  5
57
330
41
100
AcDbEntity
  8
Layer 1
 62
     7
370
    35
100
AcDbSpline
210
0.0
220
0.0
230
1.0
 70
    11
 71
     3
 72
    29
 73
    25
 74
     0
 42
0.0000000001
 43
0.0000000001
 12
1.0
 22
0.0
 32
0.0
 13
1.0
 23
0.0
 33
0.0
 40
0.0
 40
0.0
 40
0.0
 40
0.0
 40
1.0
 40
1.0
 40
1.0
 40
2.0
 40
2.0
 40
2.0
 40
3.0
 40
3.0
 40
3.0
 40
4.0
 40
4.0
 40
4.0
 40
5.0
 40
5.0
 40
5.0
 40
6.0
 40
6.0
 40
6.0
 40
7.0
 40
7.0
 40
7.0
 40
8.0
 40
8.0
 40
8.0
 40
8.0
 10
113.8950337434842
 20
-98.3123114178023
 30
0.0
 10
113.8950337434842
 20
-98.3123114178023
 30
0.0
 10
112.5192004104944
 20
-98.3123114178023
 30
0.0
 10
112.5192004104944
 20
-98.3123114178023
 30
0.0
 10
110.7949213982247
 20
-98.3123114178023
 30
0.0
 10
109.3971170779414
 20
-96.91450709751904
 30
0.0
 10
109.3971170779414
 20
-95.19022808524937
 30
0.0
 10
109.3971170779414
 20
-95.19022808524937
 30
0.0
 10
109.3971170779414
 20
-93.81439475226013
 30
0.0
 10
109.3971170779414
 20
-93.81439475226013
 30
0.0
 10
109.3971170779414
 20
-92.09011573999047
 30
0.0
 10
110.7949213982247
 20
-90.69231141970718
 30
0.0
 10
112.5192004104944
 20
-90.69231141970718
 30
0.0
 10
112.5192004104944
 20
-90.69231141970718
 30
0.0
 10
113.8950337434842
 20
-90.69231141970718
 30
0.0
 10
113.8950337434842
 20
-90.69231141970718
 30
0.0
 10
115.6193127557545
 20
-90.69231141970718
 30
0.0
 10
117.0171170760366
 20
-92.09011573999047
 30
0.0
 10
117.0171170760366
 20
-93.81439475226013
 30
0.0
 10
117.0171170760366
 20
-93.81439475226013
 30
0.0
 10
117.0171170760366
 20
-95.19022808524937
 30
0.0
 10
117.0171170760366
 20
-95.19022808524937
 30
0.0
 10
117.0171170760366
 20
-96.91450709751904
 30
0.0
 10
115.6193127557545
 20
-98.3123114178023
 30
0.0
 10
113.8950337434842
 20
-98.3123114178023
 30
0.0
  0
SPLINE
  5
58
330
41
100
AcDbEntity
  8
Layer 1
 62
     7
370
    35
100
AcDbSpline
210
0.0
220
0.0
230
1.0
 70
    11
 71
     3
 72
    29
 73
    25
 74
     0
 42
0.0000000001
 43
0.0000000001
 12
1.0
 22
0.0
 32
0.0
 13
1.0
 23
0.0
 33
0.0
 40
0.0
 40
0.0
 40
0.0
 40
0.0
 40
1.0
 40
1.0
 40
1.0
 40
2.0
 40
2.0
 40
2.0
 40
3.0
 40
3.0
 40
3.0
 40
4.0
 40
4.0
 40
4.0
 40
5.0
 40
5.0
 40
5.0
 40
6.0
 40
6.0
 40
6.0
 40
7.0
 40
7.0
 40
7.0
 40
8.0
 40
8.0
 40
8.0
 40
8.0
 10
122.7850337412607
 20
-98.3123114178023
 30
0.0
 10
122.7850337412607
 20
-98.3123114178023
 30
0.0
 10
121.4092004082708
 20
-98.3123114178023
 30
0.0
 10
121.4092004082708
 20
-98.3123114178023
 30
0.0
 10
119.6849213960018
 20
-98.3123114178023
 30
0.0
 10
118.2871170757185
 20
-96.91450709751904
 30
0.0
 10
118.2871170757185
 20
-95.19022808524937
 30
0.0
 10
118.2871170757185
 20
-95.19022808524937
 30
0.0
 10
118.2871170757185
 20
-93.81439475226013
 30
0.0
 10
118.2871170757185
 20
-93.81439475226013
 30
0.0
 10
118.2871170757185
 20
-92.09011573999047
 30
0.0
 10
119.6849213960018
 20
-90.69231141970718
 30
0.0
 10
121.4092004082708
 20
-90.69231141970718
 30
0.0
 10
121.4092004082708
 20
-90.69231141970718
 30
0.0
 10
122.7850337412607
 20
-90.69231141970718
 30
0.0
 10
122.7850337412607
 20
-90.69231141970718
 30
0.0
 10
124.509312753531
 20
-90.69231141970718
 30
0.0
 10
125.907117073813
 20
-92.09011573999047
 30
0.0
 10
125.907117073813
 20
-93.81439475226013
 30
0.0
 10
125.907117073813
 20
-93.81439475226013
 30
0.0
 10
125.907117073813
 20
-95.19022808524937
 30
0.0
 10
125.907117073813
 20
-95.19022808524937
 30
0.0
 10
125.907117073813
 20
-96.91450709751904
 30
0.0
 10
124.509312753531
 20
-98.3123114178023
 30
0.0
 10
122.7850337412607
 20
-98.3123114178023
 30
0.0
  0
SPLINE
  5
59
330
41
100
AcDbEntity
  8
Layer 1
 62
     7
370
    35
100
AcDbSpline
210
0.0
220
0.0
230
1.0
 70
    11
 71
     3
 72
    29
 73
    25
 74
     0
 42
0.0000000001
 43
0.0000000001
 12
1.0
 22
0.0
 32
0.0
 13
1.0
 23
0.0
 33
0.0
 40
0.0
 40
0.0
 40
0.0
 40
0.0
 40
1.0
 40
1.0
 40
1.0
 40
2.0
 40
2.0
 40
2.0
 40
3.0
 40
3.0
 40
3.0
 40
4.0
 40
4.0
 40
4.0
 40
5.0
 40
5.0
 40
5.0
 40
6.0
 40
6.0
 40
6.0
 40
7.0
 40
7.0
 40
7.0
 40
8.0
 40
8.0
 40
8.0
 40
8.0
 10
131.6750337390385
 20
-98.3123114178023
 30
0.0
 10
131.6750337390385
 20
-98.3123114178023
 30
0.0
 10
130.2992004060486
 20
-98.3123114178023
 30
0.0
 10
130.2992004060486
 20
-98.3123114178023
 30
0.0
 10
128.5749213937783
 20
-98.3123114178023
 30
0.0
 10
127.1771170734963
 20
-96.91450709751904
 30
0.0
 10
127.1771170734963
 20
-95.19022808524937
 30
0.0
 10
127.1771170734963
 20
-95.19022808524937
 30
0.0
 10
127.1771170734963
 20
-93.81439475226013
 30
0.0
 10
127.1771170734963
 20
-93.81439475226013
 30
0.0
 10
127.1771170734963
 20
-92.09011573999047
 30
0.0
 10
128.5749213937783
 20
-90.69231141970718
 30
0.0
 10
130.2992004060486
 20
-90.69231141970718
 30
0.0
 10
130.2992004060486
 20
-90.69231141970718
 30
0.0
 10
131.6750337390385
 20
-90.69231141970718
 30
0.0
 10
131.6750337390385
 20
-90.69231141970718
 30
0.0
 10
133.3993127513075
 20
-90.69231141970718
 30
0.0
 10
134.7971170715908
 20
-92.09011573999047
 30
0.0
 10
134.7971170715908
 20
-93.81439475226013
 30
0.0
 10
134.7971170715908
 20
-93.81439475226013
 30
0.0
 10
134.7971170715908
 20
-95.19022808524937
 30
0.0
 10
134.7971170715908
 20
-95.19022808524937
 30
0.0
 10
134.7971170715908
 20
-96.91450709751904
 30
0.0
 10
133.3993127513075
 20
-98.3123114178023
 30
0.0
 10
131.6750337390385
 20
-98.3123114178023
 30
0.0
  0
SPLINE
  5
5A
330
41
100
AcDbEntity
  8
Layer 1
 62
     7
370
    35
100
AcDbSpline
210
0.0
220
0.0
230
1.0
 70
    11
 71
     3
 72
    29
 73
    25
 74
     0
 42
0.0000000001
 43
0.0000000001
 12
1.0
 22
0.0
 32
0.0
 13
1.0
 23
0.0
 33
0.0
 40
0.0
 40
0.0
 40
0.0
 40
0.0
 40
1.0
 40
1.0
 40
1.0
 40
2.0
 40
2.0
 40
2.0
 40
3.0
 40
3.0
 40
3.0
 40
4.0
 40
4.0
 40
4.0
 40
5.0
 40
5.0
 40
5.0
 40
6.0
 40
6.0
 40
6.0
 40
7.0
 40
7.0
 40
7.0
 40
8.0
 40
8.0
 40
8.0
 40
8.0
 10
140.5650337368146
 20
-98.3123114178023
 30
0.0
 10
140.5650337368146
 20
-98.3123114178023
 30
0.0
 10
139.1892004038264
 20
-98.3123114178023
 30
0.0
 10
139.1892004038264
 20
-98.3123114178023
 30
0.0
 10
137.4649213915561
 20
-98.3123114178023
 30
0.0
 10
136.0671170712728
 20
-96.91450709751904
 30
0.0
 10
136.0671170712728
 20
-95.19022808524937
 30
0.0
 10
136.0671170712728
 20
-95.19022808524937
 30
0.0
 10
136.0671170712728
 20
-93.81439475226013
 30
0.0
 10
136.0671170712728
 20
-93.81439475226013
 30
0.0
 10
136.0671170712728
 20
-92.09011573999047
 30
0.0
 10
137.4649213915561
 20
-90.69231141970718
 30
0.0
 10
139.1892004038264
 20
-90.69231141970718
 30
0.0
 10
139.1892004038264
 20
-90.69231141970718
 30
0.0
 10
140.5650337368146
 20
-90.69231141970718
 30
0.0
 10
140.5650337368146
 20
-90.69231141970718
 30
0.0
 10
142.2893127490849
 20
-90.69231141970718
 30
0.0
 10
143.6871170693682
 20
-92.09011573999047
 30
0.0
 10
143.6871170693682
 20
-93.81439475226013
 30
0.0
 10
143.6871170693682
 20
-93.81439475226013
 30
0.0
 10
143.6871170693682
 20
-95.19022808524937
 30
0.0
 10
143.6871170693682
 20
-95.19022808524937
 30
0.0
 10
143.6871170693682
 20
-96.91450709751904
 30
0.0
 10
142.2893127490849
 20
-98.3123114178023
 30
0.0
 10
140.5650337368146
 20
-98.3123114178023
 30
0.0
  0
SPLINE
  5
5B
330
41
100
AcDbEntity
  8
Layer 1
 62
     7
370
    35
100
AcDbSpline
210
0.0
220
0.0
230
1.0
 70
    11
 71
     3
 72
    29
 73
    25
 74
     0
 42
0.0000000001
 43
0.0000000001
 12
1.0
 22
0.0
 32
0.0
 13
1.0
 23
0.0
 33
0.0
 40
0.0
 40
0.0
 40
0.0
 40
0.0
 40
1.0
 40
1.0
 40
1.0
 40
2.0
 40
2.0
 40
2.0
 40
3.0
 40
3.0
 40
3.0
 40
4.0
 40
4.0
 40
4.0
 40
5.0
 40
5.0
 40
5.0
 40
6.0
 40
6.0
 40
6.0
 40
7.0
 40
7.0
 40
7.0
 40
8.0
 40
8.0
 40
8.0
 40
8.0
 10
149.4550337345924
 20
-98.3123114178023
 30
0.0
 10
149.4550337345924
 20
-98.3123114178023
 30
0.0
 10
148.0792004016025
 20
-98.3123114178023
 30
0.0
 10
148.0792004016025
 20
-98.3123114178023
 30
0.0
 10
146.3549213893335
 20
-98.3123114178023
 30
0.0
 10
144.9571170690496
 20
-96.91450709751904
 30
0.0
 10
144.9571170690496
 20
-95.19022808524937
 30
0.0
 10
144.9571170690496
 20
-95.19022808524937
 30
0.0
 10
144.9571170690496
 20
-93.81439475226013
 30
0.0
 10
144.9571170690496
 20
-93.81439475226013
 30
0.0
 10
144.9571170690496
 20
-92.09011573999047
 30
0.0
 10
146.3549213893335
 20
-90.69231141970718
 30
0.0
 10
148.0792004016025
 20
-90.69231141970718
 30
0.0
 10
148.0792004016025
 20
-90.69231141970718
 30
0.0
 10
149.4550337345924
 20
-90.69231141970718
 30
0.0
 10
149.4550337345924
 20
-90.69231141970718
 30
0.0
 10
151.1793127468627
 20
-90.69231141970718
 30
0.0
 10
152.5771170671441
 20
-92.09011573999047
 30
0.0
 10
152.5771170671441
 20
-93.81439475226013
 30
0.0
 10
152.5771170671441
 20
-93.81439475226013
 30
0.0
 10
152.5771170671441
 20
-95.19022808524937
 30
0.0
 10
152.5771170671441
 20
-95.19022808524937
 30
0.0
 10
152.5771170671441
 20
-96.91450709751904
 30
0.0
 10
151.1793127468627
 20
-98.3123114178023
 30
0.0
 10
149.4550337345924
 20
-98.3123114178023
 30
0.0
  0
SPLINE
  5
5C
330
41
100
AcDbEntity
  8
Layer 1
 62
     7
370
    35
100
AcDbSpline
210
0.0
220
0.0
230
1.0
 70
    11
 71
     3
 72
    29
 73
    25
 74
     0
 42
0.0000000001
 43
0.0000000001
 12
1.0
 22
0.0
 32
0.0
 13
1.0
 23
0.0
 33
0.0
 40
0.0
 40
0.0
 40
0.0
 40
0.0
 40
1.0
 40
1.0
 40
1.0
 40
2.0
 40
2.0
 40
2.0
 40
3.0
 40
3.0
 40
3.0
 40
4.0
 40
4.0
 40
4.0
 40
5.0
 40
5.0
 40
5.0
 40
6.0
 40
6.0
 40
6.0
 40
7.0
 40
7.0
 40
7.0
 40
8.0
 40
8.0
 40
8.0
 40
8.0
 10
158.3450337323695
 20
-98.3123114178023
 30
0.0
 10
158.3450337323695
 20
-98.3123114178023
 30
0.0
 10
156.9692003993796
 20
-98.3123114178023
 30
0.0
 10
156.9692003993796
 20
-98.3123114178023
 30
0.0
 10
155.2449213871106
 20
-98.3123114178023
 30
0.0
 10
153.8471170668273
 20
-96.91450709751904
 30
0.0
 10
153.8471170668273
 20
-95.19022808524937
 30
0.0
 10
153.8471170668273
 20
-95.19022808524937
 30
0.0
 10
153.8471170668273
 20
-93.81439475226013
 30
0.0
 10
153.8471170668273
 20
-93.81439475226013
 30
0.0
 10
153.8471170668273
 20
-92.09011573999047
 30
0.0
 10
155.2449213871106
 20
-90.69231141970718
 30
0.0
 10
156.9692003993796
 20
-90.69231141970718
 30
0.0
 10
156.9692003993796
 20
-90.69231141970718
 30
0.0
 10
158.3450337323695
 20
-90.69231141970718
 30
0.0
 10
158.3450337323695
 20
-90.69231141970718
 30
0.0
 10
160.0693127446398
 20
-90.69231141970718
 30
0.0
 10
161.4671170649218
 20
-92.09011573999047
 30
0.0
 10
161.4671170649218
 20
-93.81439475226013
 30
0.0
 10
161.4671170649218
 20
-93.81439475226013
 30
0.0
 10
161.4671170649218
 20
-95.19022808524937
 30
0.0
 10
161.4671170649218
 20
-95.19022808524937
 30
0.0
 10
161.4671170649218
 20
-96.91450709751904
 30
0.0
 10
160.0693127446398
 20
-98.3123114178023
 30
0.0
 10
158.3450337323695
 20
-98.3123114178023
 30
0.0
  0
SPLINE
  5
5D
330
41
100
AcDbEntity
  8
Layer 1
 62
     7
370
    35
100
AcDbSpline
210
0.0
220
0.0
230
1.0
 70
    11
 71
     3
 72
    29
 73
    25
 74
     0
 42
0.0000000001
 43
0.0000000001
 12
1.0
 22
0.0
 32
0.0
 13
1.0
 23
0.0
 33
0.0
 40
0.0
 40
0.0
 40
0.0
 40
0.0
 40
1.0
 40
1.0
 40
1.0
 40
2.0
 40
2.0
 40
2.0
 40
3.0
 40
3.0
 40
3.0
 40
4.0
 40
4.0
 40
4.0
 40
5.0
 40
5.0
 40
5.0
 40
6.0
 40
6.0
 40
6.0
 40
7.0
 40
7.0
 40
7.0
 40
8.0
 40
8.0
 40
8.0
 40
8.0
 10
167.2350337301473
 20
-98.3123114178023
 30
0.0
 10
167.2350337301473
 20
-98.3123114178023
 30
0.0
 10
165.8592003971574
 20
-98.3123114178023
 30
0.0
 10
165.8592003971574
 20
-98.3123114178023
 30
0.0
 10
164.1349213848884
 20
-98.3123114178023
 30
0.0
 10
162.7371170646051
 20
-96.91450709751904
 30
0.0
 10
162.7371170646051
 20
-95.19022808524937
 30
0.0
 10
162.7371170646051
 20
-95.19022808524937
 30
0.0
 10
162.7371170646051
 20
-93.81439475226013
 30
0.0
 10
162.7371170646051
 20
-93.81439475226013
 30
0.0
 10
162.7371170646051
 20
-92.09011573999047
 30
0.0
 10
164.1349213848884
 20
-90.69231141970718
 30
0.0
 10
165.8592003971574
 20
-90.69231141970718
 30
0.0
 10
165.8592003971574
 20
-90.69231141970718
 30
0.0
 10
167.2350337301473
 20
-90.69231141970718
 30
0.0
 10
167.2350337301473
 20
-90.69231141970718
 30
0.0
 10
168.9593127424176
 20
-90.69231141970718
 30
0.0
 10
170.3571170626996
 20
-92.09011573999047
 30
0.0
 10
170.3571170626996
 20
-93.81439475226013
 30
0.0
 10
170.3571170626996
 20
-93.81439475226013
 30
0.0
 10
170.3571170626996
 20
-95.19022808524937
 30
0.0
 10
170.3571170626996
 20
-95.19022808524937
 30
0.0
 10
170.3571170626996
 20
-96.91450709751904
 30
0.0
 10
168.9593127424176
 20
-98.3123114178023
 30
0.0
 10
167.2350337301473
 20
-98.3123114178023
 30
0.0
  0
SPLINE
  5
5E
330
41
100
AcDbEntity
  8
Layer 1
 62
     7
370
    35
100
AcDbSpline
210
0.0
220
0.0
230
1.0
 70
    11
 71
     3
 72
    29
 73
    25
 74
     0
 42
0.0000000001
 43
0.0000000001
 12
1.0
 22
0.0
 32
0.0
 13
1.0
 23
0.0
 33
0.0
 40
0.0
 40
0.0
 40
0.0
 40
0.0
 40
1.0
 40
1.0
 40
1.0
 40
2.0
 40
2.0
 40
2.0
 40
3.0
 40
3.0
 40
3.0
 40
4.0
 40
4.0
 40
4.0
 40
5.0
 40
5.0
 40
5.0
 40
6.0
 40
6.0
 40
6.0
 40
7.0
 40
7.0
 40
7.0
 40
8.0
 40
8.0
 40
8.0
 40
8.0
 10
185.0150337257028
 20
-98.3123114178023
 30
0.0
 10
185.0150337257028
 20
-98.3123114178023
 30
0.0
 10
183.6392003927129
 20
-98.3123114178023
 30
0.0
 10
183.6392003927129
 20
-98.3123114178023
 30
0.0
 10
181.9149213804439
 20
-98.3123114178023
 30
0.0
 10
180.5171170601606
 20
-96.91450709751904
 30
0.0
 10
180.5171170601606
 20
-95.19022808524937
 30
0.0
 10
180.5171170601606
 20
-95.19022808524937
 30
0.0
 10
180.5171170601606
 20
-93.81439475226013
 30
0.0
 10
180.5171170601606
 20
-93.81439475226013
 30
0.0
 10
180.5171170601606
 20
-92.09011573999047
 30
0.0
 10
181.9149213804439
 20
-90.69231141970718
 30
0.0
 10
183.6392003927129
 20
-90.69231141970718
 30
0.0
 10
183.6392003927129
 20
-90.69231141970718
 30
0.0
 10
185.0150337257028
 20
-90.69231141970718
 30
0.0
 10
185.0150337257028
 20
-90.69231141970718
 30
0.0
 10
186.7393127379731
 20
-90.69231141970718
 30
0.0
 10
188.1371170582551
 20
-92.09011573999047
 30
0.0
 10
188.1371170582551
 20
-93.81439475226013
 30
0.0
 10
188.1371170582551
 20
-93.81439475226013
 30
0.0
 10
188.1371170582551
 20
-95.19022808524937
 30
0.0
 10
188.1371170582551
 20
-95.19022808524937
 30
0.0
 10
188.1371170582551
 20
-96.91450709751904
 30
0.0
 10
186.7393127379731
 20
-98.3123114178023
 30
0.0
 10
185.0150337257028
 20
-98.3123114178023
 30
0.0
  0
SPLINE
  5
5F
330
41
100
AcDbEntity
  8
Layer 1
 62
     7
370
    35
100
AcDbSpline
210
0.0
220
0.0
230
1.0
 70
    11
 71
     3
 72
    29
 73
    25
 74
     0
 42
0.0000000001
 43
0.0000000001
 12
1.0
 22
0.0
 32
0.0
 13
1.0
 23
0.0
 33
0.0
 40
0.0
 40
0.0
 40
0.0
 40
0.0
 40
1.0
 40
1.0
 40
1.0
 40
2.0
 40
2.0
 40
2.0
 40
3.0
 40
3.0
 40
3.0
 40
4.0
 40
4.0
 40
4.0
 40
5.0
 40
5.0
 40
5.0
 40
6.0
 40
6.0
 40
6.0
 40
7.0
 40
7.0
 40
7.0
 40
8.0
 40
8.0
 40
8.0
 40
8.0
 10
176.125033727925
 20
-98.3123114178023
 30
0.0
 10
176.125033727925
 20
-98.3123114178023
 30
0.0
 10
174.7492003949351
 20
-98.3123114178023
 30
0.0
 10
174.7492003949351
 20
-98.3123114178023
 30
0.0
 10
173.0249213826661
 20
-98.3123114178023
 30
0.0
 10
171.6271170623828
 20
-96.91450709751904
 30
0.0
 10
171.6271170623828
 20
-95.19022808524937
 30
0.0
 10
171.6271170623828
 20
-95.19022808524937
 30
0.0
 10
171.6271170623828
 20
-93.81439475226013
 30
0.0
 10
171.6271170623828
 20
-93.81439475226013
 30
0.0
 10
171.6271170623828
 20
-92.09011573999047
 30
0.0
 10
173.0249213826661
 20
-90.69231141970718
 30
0.0
 10
174.7492003949351
 20
-90.69231141970718
 30
0.0
 10
174.7492003949351
 20
-90.69231141970718
 30
0.0
 10
176.125033727925
 20
-90.69231141970718
 30
0.0
 10
176.125033727925
 20
-90.69231141970718
 30
0.0
 10
177.8493127401953
 20
-90.69231141970718
 30
0.0
 10
179.2471170604773
 20
-92.09011573999047
 30
0.0
 10
179.2471170604773
 20
-93.81439475226013
 30
0.0
 10
179.2471170604773
 20
-93.81439475226013
 30
0.0
 10
179.2471170604773
 20
-95.19022808524937
 30
0.0
 10
179.2471170604773
 20
-95.19022808524937
 30
0.0
 10
179.2471170604773
 20
-96.91450709751904
 30
0.0
 10
177.8493127401953
 20
-98.3123114178023
 30
0.0
 10
176.125033727925
 20
-98.3123114178023
 30
0.0
  0
SPLINE
  5
60
330
41
100
AcDbEntity
  8
Layer 1
 62
     7
370
    35
100
AcDbSpline
210
0.0
220
0.0
230
1.0
 70
    11
 71
     3
 72
    29
 73
    25
 74
     0
 42
0.0000000001
 43
0.0000000001
 12
1.0
 22
0.0
 32
0.0
 13
1.0
 23
0.0
 33
0.0
 40
0.0
 40
0.0
 40
0.0
 40
0.0
 40
1.0
 40
1.0
 40
1.0
 40
2.0
 40
2.0
 40
2.0
 40
3.0
 40
3.0
 40
3.0
 40
4.0
 40
4.0
 40
4.0
 40
5.0
 40
5.0
 40
5.0
 40
6.0
 40
6.0
 40
6.0
 40
7.0
 40
7.0
 40
7.0
 40
8.0
 40
8.0
 40
8.0
 40
8.0
 10
193.9050337234792
 20
-98.3123114178023
 30
0.0
 10
193.9050337234792
 20
-98.3123114178023
 30
0.0
 10
192.5292003904894
 20
-98.3123114178023
 30
0.0
 10
192.5292003904894
 20
-98.3123114178023
 30
0.0
 10
190.8049213782203
 20
-98.3123114178023
 30
0.0
 10
189.4071170579371
 20
-96.91450709751904
 30
0.0
 10
189.4071170579371
 20
-95.19022808524937
 30
0.0
 10
189.4071170579371
 20
-95.19022808524937
 30
0.0
 10
189.4071170579371
 20
-93.81439475226013
 30
0.0
 10
189.4071170579371
 20
-93.81439475226013
 30
0.0
 10
189.4071170579371
 20
-92.09011573999047
 30
0.0
 10
190.8049213782203
 20
-90.69231141970718
 30
0.0
 10
192.5292003904894
 20
-90.69231141970718
 30
0.0
 10
192.5292003904894
 20
-90.69231141970718
 30
0.0
 10
193.9050337234792
 20
-90.69231141970718
 30
0.0
 10
193.9050337234792
 20
-90.69231141970718
 30
0.0
 10
195.6293127357496
 20
-90.69231141970718
 30
0.0
 10
197.0271170560316
 20
-92.09011573999047
 30
0.0
 10
197.0271170560316
 20
-93.81439475226013
 30
0.0
 10
197.0271170560316
 20
-93.81439475226013
 30
0.0
 10
197.0271170560316
 20
-95.19022808524937
 30
0.0
 10
197.0271170560316
 20
-95.19022808524937
 30
0.0
 10
197.0271170560316
 20
-96.91450709751904
 30
0.0
 10
195.6293127357496
 20
-98.3123114178023
 30
0.0
 10
193.9050337234792
 20
-98.3123114178023
 30
0.0
  0
SPLINE
  5
61
330
41
100
AcDbEntity
  8
Layer 1
 62
     7
370
    35
100
AcDbSpline
210
0.0
220
0.0
230
1.0
 70
    11
 71
     3
 72
    29
 73
    25
 74
     0
 42
0.0000000001
 43
0.0000000001
 12
1.0
 22
0.0
 32
0.0
 13
1.0
 23
0.0
 33
0.0
 40
0.0
 40
0.0
 40
0.0
 40
0.0
 40
1.0
 40
1.0
 40
1.0
 40
2.0
 40
2.0
 40
2.0
 40
3.0
 40
3.0
 40
3.0
 40
4.0
 40
4.0
 40
4.0
 40
5.0
 40
5.0
 40
5.0
 40
6.0
 40
6.0
 40
6.0
 40
7.0
 40
7.0
 40
7.0
 40
8.0
 40
8.0
 40
8.0
 40
8.0
 10
207.8750337199901
 20
-115.7395336356625
 30
0.0
 10
207.8750337199901
 20
-115.7395336356625
 30
0.0
 10
206.4992003870002
 20
-115.7395336356625
 30
0.0
 10
206.4992003870002
 20
-115.7395336356625
 30
0.0
 10
204.7749213747312
 20
-115.7395336356625
 30
0.0
 10
203.3771170544479
 20
-114.3417293153792
 30
0.0
 10
203.3771170544479
 20
-112.6174503031095
 30
0.0
 10
203.3771170544479
 20
-112.6174503031095
 30
0.0
 10
203.3771170544479
 20
-111.2416169701203
 30
0.0
 10
203.3771170544479
 20
-111.2416169701203
 30
0.0
 10
203.3771170544479
 20
-109.5173379578506
 30
0.0
 10
204.7749213747312
 20
-108.1195336375673
 30
0.0
 10
206.4992003870002
 20
-108.1195336375673
 30
0.0
 10
206.4992003870002
 20
-108.1195336375673
 30
0.0
 10
207.8750337199901
 20
-108.1195336375673
 30
0.0
 10
207.8750337199901
 20
-108.1195336375673
 30
0.0
 10
209.5993127322604
 20
-108.1195336375673
 30
0.0
 10
210.9971170525424
 20
-109.5173379578506
 30
0.0
 10
210.9971170525424
 20
-111.2416169701203
 30
0.0
 10
210.9971170525424
 20
-111.2416169701203
 30
0.0
 10
210.9971170525424
 20
-112.6174503031095
 30
0.0
 10
210.9971170525424
 20
-112.6174503031095
 30
0.0
 10
210.9971170525424
 20
-114.3417293153792
 30
0.0
 10
209.5993127322604
 20
-115.7395336356625
 30
0.0
 10
207.8750337199901
 20
-115.7395336356625
 30
0.0
  0
SPLINE
  5
62
330
41
100
AcDbEntity
  8
Layer 1
 62
     7
370
    35
100
AcDbSpline
210
0.0
220
0.0
230
1.0
 70
    11
 71
     3
 72
    29
 73
    25
 74
     0
 42
0.0000000001
 43
0.0000000001
 12
1.0
 22
0.0
 32
0.0
 13
1.0
 23
0.0
 33
0.0
 40
0.0
 40
0.0
 40
0.0
 40
0.0
 40
1.0
 40
1.0
 40
1.0
 40
2.0
 40
2.0
 40
2.0
 40
3.0
 40
3.0
 40
3.0
 40
4.0
 40
4.0
 40
4.0
 40
5.0
 40
5.0
 40
5.0
 40
6.0
 40
6.0
 40
6.0
 40
7.0
 40
7.0
 40
7.0
 40
8.0
 40
8.0
 40
8.0
 40
8.0
 10
207.8750337199888
 20
-106.7488449805086
 30
0.0
 10
207.8750337199888
 20
-106.7488449805086
 30
0.0
 10
206.4992003869989
 20
-106.7488449805086
 30
0.0
 10
206.4992003869989
 20
-106.7488449805086
 30
0.0
 10
204.7749213747299
 20
-106.7488449805086
 30
0.0
 10
203.3771170544466
 20
-105.3510406602253
 30
0.0
 10
203.3771170544466
 20
-103.6267616479556
 30
0.0
 10
203.3771170544466
 20
-103.6267616479556
 30
0.0
 10
203.3771170544466
 20
-102.2509283149664
 30
0.0
 10
203.3771170544466
 20
-102.2509283149664
 30
0.0
 10
203.3771170544466
 20
-100.5266493026967
 30
0.0
 10
204.7749213747299
 20
-99.12884498241347
 30
0.0
 10
206.4992003869989
 20
-99.12884498241347
 30
0.0
 10
206.4992003869989
 20
-99.12884498241347
 30
0.0
 10
207.8750337199888
 20
-99.12884498241347
 30
0.0
 10
207.8750337199888
 20
-99.12884498241347
 30
0.0
 10
209.5993127322591
 20
-99.12884498241347
 30
0.0
 10
210.9971170525411
 20
-100.5266493026967
 30
0.0
 10
210.9971170525411
 20
-102.2509283149664
 30
0.0
 10
210.9971170525411
 20
-102.2509283149664
 30
0.0
 10
210.9971170525411
 20
-103.6267616479556
 30
0.0
 10
210.9971170525411
 20
-103.6267616479556
 30
0.0
 10
210.9971170525411
 20
-105.3510406602253
 30
0.0
 10
209.5993127322591
 20
-106.7488449805086
 30
0.0
 10
207.8750337199888
 20
-106.7488449805086
 30
0.0
  0
SPLINE
  5
63
330
41
100
AcDbEntity
  8
Layer 1
 62
     7
370
    35
100
AcDbSpline
210
0.0
220
0.0
230
1.0
 70
    11
 71
     3
 72
    29
 73
    25
 74
     0
 42
0.0000000001
 43
0.0000000001
 12
1.0
 22
0.0
 32
0.0
 13
1.0
 23
0.0
 33
0.0
 40
0.0
 40
0.0
 40
0.0
 40
0.0
 40
1.0
 40
1.0
 40
1.0
 40
2.0
 40
2.0
 40
2.0
 40
3.0
 40
3.0
 40
3.0
 40
4.0
 40
4.0
 40
4.0
 40
5.0
 40
5.0
 40
5.0
 40
6.0
 40
6.0
 40
6.0
 40
7.0
 40
7.0
 40
7.0
 40
8.0
 40
8.0
 40
8.0
 40
8.0
 10
84.00887634354693
 20
-107.2023114155788
 30
0.0
 10
84.00887634354693
 20
-107.2023114155788
 30
0.0
 10
75.73035782709691
 20
-107.2023114155788
 30
0.0
 10
75.73035782709691
 20
-107.2023114155788
 30
0.0
 10
74.68474983848941
 20
-107.2023114155788
 30
0.0
 10
73.83711708683008
 20
-106.3546786639195
 30
0.0
 10
73.83711708683008
 20
-105.309070675312
 30
0.0
 10
73.83711708683008
 20
-105.309070675312
 30
0.0
 10
73.83711708683008
 20
-101.4755521577511
 30
0.0
 10
73.83711708683008
 20
-101.4755521577511
 30
0.0
 10
73.83711708683008
 20
-100.429944169143
 30
0.0
 10
74.68474983848941
 20
-99.58231141748365
 30
0.0
 10
75.73035782709755
 20
-99.58231141748365
 30
0.0
 10
75.73035782709755
 20
-99.58231141748365
 30
0.0
 10
84.00887634354629
 20
-99.58231141748365
 30
0.0
 10
84.00887634354629
 20
-99.58231141748365
 30
0.0
 10
85.05448433215443
 20
-99.58231141748365
 30
0.0
 10
85.90211708381376
 20
-100.429944169143
 30
0.0
 10
85.90211708381376
 20
-101.4755521577511
 30
0.0
 10
85.90211708381376
 20
-101.4755521577511
 30
0.0
 10
85.90211708381376
 20
-105.309070675312
 30
0.0
 10
85.90211708381376
 20
-105.309070675312
 30
0.0
 10
85.90211708381376
 20
-106.3546786639195
 30
0.0
 10
85.05448433215507
 20
-107.2023114155788
 30
0.0
 10
84.00887634354693
 20
-107.2023114155788
 30
0.0
  0
SPLINE
  5
64
330
41
100
AcDbEntity
  8
Layer 1
 62
     7
370
    35
100
AcDbSpline
210
0.0
220
0.0
230
1.0
 70
    11
 71
     3
 72
    29
 73
    25
 74
     0
 42
0.0000000001
 43
0.0000000001
 12
1.0
 22
0.0
 32
0.0
 13
1.0
 23
0.0
 33
0.0
 40
0.0
 40
0.0
 40
0.0
 40
0.0
 40
1.0
 40
1.0
 40
1.0
 40
2.0
 40
2.0
 40
2.0
 40
3.0
 40
3.0
 40
3.0
 40
4.0
 40
4.0
 40
4.0
 40
5.0
 40
5.0
 40
5.0
 40
6.0
 40
6.0
 40
6.0
 40
7.0
 40
7.0
 40
7.0
 40
8.0
 40
8.0
 40
8.0
 40
8.0
 10
87.17470568149606
 20
-116.0923114133533
 30
0.0
 10
87.17470568149606
 20
-116.0923114133533
 30
0.0
 10
75.96001459940938
 20
-116.0923114133533
 30
0.0
 10
75.96001459940938
 20
-116.0923114133533
 30
0.0
 10
74.91440661080156
 20
-116.0923114133533
 30
0.0
 10
74.06677385914254
 20
-115.244678661694
 30
0.0
 10
74.06677385914254
 20
-114.1990706730865
 30
0.0
 10
74.06677385914254
 20
-114.1990706730865
 30
0.0
 10
74.06677385914254
 20
-110.3655521555257
 30
0.0
 10
74.06677385914254
 20
-110.3655521555257
 30
0.0
 10
74.06677385914254
 20
-109.3199441669175
 30
0.0
 10
74.91440661080188
 20
-108.4723114152582
 30
0.0
 10
75.96001459941002
 20
-108.4723114152582
 30
0.0
 10
75.96001459941002
 20
-108.4723114152582
 30
0.0
 10
87.17470568149542
 20
-108.4723114152582
 30
0.0
 10
87.17470568149542
 20
-108.4723114152582
 30
0.0
 10
88.22031367010355
 20
-108.4723114152582
 30
0.0
 10
89.0679464217629
 20
-109.3199441669175
 30
0.0
 10
89.0679464217629
 20
-110.3655521555257
 30
0.0
 10
89.0679464217629
 20
-110.3655521555257
 30
0.0
 10
89.0679464217629
 20
-114.1990706730865
 30
0.0
 10
89.0679464217629
 20
-114.1990706730865
 30
0.0
 10
89.0679464217629
 20
-115.244678661694
 30
0.0
 10
88.22031367010388
 20
-116.0923114133533
 30
0.0
 10
87.17470568149606
 20
-116.0923114133533
 30
0.0
  0
SPLINE
  5
65
330
41
100
AcDbEntity
  8
Layer 1
 62
     7
370
    35
100
AcDbSpline
210
0.0
220
0.0
230
1.0
 70
    11
 71
     3
 72
    29
 73
    25
 74
     0
 42
0.0000000001
 43
0.0000000001
 12
1.0
 22
0.0
 32
0.0
 13
1.0
 23
0.0
 33
0.0
 40
0.0
 40
0.0
 40
0.0
 40
0.0
 40
1.0
 40
1.0
 40
1.0
 40
2.0
 40
2.0
 40
2.0
 40
3.0
 40
3.0
 40
3.0
 40
4.0
 40
4.0
 40
4.0
 40
5.0
 40
5.0
 40
5.0
 40
6.0
 40
6.0
 40
6.0
 40
7.0
 40
7.0
 40
7.0
 40
8.0
 40
8.0
 40
8.0
 40
8.0
 10
94.9903984851794
 20
-116.0923114133559
 30
0.0
 10
94.9903984851794
 20
-116.0923114133559
 30
0.0
 10
93.61456515219015
 20
-116.0923114133559
 30
0.0
 10
93.61456515219015
 20
-116.0923114133559
 30
0.0
 10
91.89028613992018
 20
-116.0923114133559
 30
0.0
 10
90.4924818196372
 20
-114.6945070930726
 30
0.0
 10
90.4924818196372
 20
-112.970228080803
 30
0.0
 10
90.4924818196372
 20
-112.970228080803
 30
0.0
 10
90.4924818196372
 20
-111.5943947478137
 30
0.0
 10
90.4924818196372
 20
-111.5943947478137
 30
0.0
 10
90.4924818196372
 20
-109.8701157355441
 30
0.0
 10
91.89028613992018
 20
-108.4723114152608
 30
0.0
 10
93.61456515219015
 20
-108.4723114152608
 30
0.0
 10
93.61456515219015
 20
-108.4723114152608
 30
0.0
 10
94.9903984851794
 20
-108.4723114152608
 30
0.0
 10
94.9903984851794
 20
-108.4723114152608
 30
0.0
 10
96.7146774974497
 20
-108.4723114152608
 30
0.0
 10
98.11248181773234
 20
-109.8701157355441
 30
0.0
 10
98.11248181773234
 20
-111.5943947478137
 30
0.0
 10
98.11248181773234
 20
-111.5943947478137
 30
0.0
 10
98.11248181773234
 20
-112.970228080803
 30
0.0
 10
98.11248181773234
 20
-112.970228080803
 30
0.0
 10
98.11248181773234
 20
-114.6945070930726
 30
0.0
 10
96.7146774974497
 20
-116.0923114133559
 30
0.0
 10
94.9903984851794
 20
-116.0923114133559
 30
0.0
  0
SPLINE
  5
66
330
41
100
AcDbEntity
  8
Layer 1
 62
     7
370
    35
100
AcDbSpline
210
0.0
220
0.0
230
1.0
 70
    11
 71
     3
 72
    29
 73
    25
 74
     0
 42
0.0000000001
 43
0.0000000001
 12
1.0
 22
0.0
 32
0.0
 13
1.0
 23
0.0
 33
0.0
 40
0.0
 40
0.0
 40
0.0
 40
0.0
 40
1.0
 40
1.0
 40
1.0
 40
2.0
 40
2.0
 40
2.0
 40
3.0
 40
3.0
 40
3.0
 40
4.0
 40
4.0
 40
4.0
 40
5.0
 40
5.0
 40
5.0
 40
6.0
 40
6.0
 40
6.0
 40
7.0
 40
7.0
 40
7.0
 40
8.0
 40
8.0
 40
8.0
 40
8.0
 10
103.8803984829568
 20
-116.0923114133559
 30
0.0
 10
103.8803984829568
 20
-116.0923114133559
 30
0.0
 10
102.5045651499676
 20
-116.0923114133559
 30
0.0
 10
102.5045651499676
 20
-116.0923114133559
 30
0.0
 10
100.7802861376979
 20
-116.0923114133559
 30
0.0
 10
99.38248181741464
 20
-114.6945070930726
 30
0.0
 10
99.38248181741464
 20
-112.970228080803
 30
0.0
 10
99.38248181741464
 20
-112.970228080803
 30
0.0
 10
99.38248181741464
 20
-111.5943947478137
 30
0.0
 10
99.38248181741464
 20
-111.5943947478137
 30
0.0
 10
99.38248181741464
 20
-109.8701157355441
 30
0.0
 10
100.7802861376979
 20
-108.4723114152608
 30
0.0
 10
102.5045651499676
 20
-108.4723114152608
 30
0.0
 10
102.5045651499676
 20
-108.4723114152608
 30
0.0
 10
103.8803984829568
 20
-108.4723114152608
 30
0.0
 10
103.8803984829568
 20
-108.4723114152608
 30
0.0
 10
105.6046774952271
 20
-108.4723114152608
 30
0.0
 10
107.0024818155098
 20
-109.8701157355441
 30
0.0
 10
107.0024818155098
 20
-111.5943947478137
 30
0.0
 10
107.0024818155098
 20
-111.5943947478137
 30
0.0
 10
107.0024818155098
 20
-112.970228080803
 30
0.0
 10
107.0024818155098
 20
-112.970228080803
 30
0.0
 10
107.0024818155098
 20
-114.6945070930726
 30
0.0
 10
105.6046774952271
 20
-116.0923114133559
 30
0.0
 10
103.8803984829568
 20
-116.0923114133559
 30
0.0
  0
SPLINE
  5
67
330
41
100
AcDbEntity
  8
Layer 1
 62
     7
370
    35
100
AcDbSpline
210
0.0
220
0.0
230
1.0
 70
    11
 71
     3
 72
    29
 73
    25
 74
     0
 42
0.0000000001
 43
0.0000000001
 12
1.0
 22
0.0
 32
0.0
 13
1.0
 23
0.0
 33
0.0
 40
0.0
 40
0.0
 40
0.0
 40
0.0
 40
1.0
 40
1.0
 40
1.0
 40
2.0
 40
2.0
 40
2.0
 40
3.0
 40
3.0
 40
3.0
 40
4.0
 40
4.0
 40
4.0
 40
5.0
 40
5.0
 40
5.0
 40
6.0
 40
6.0
 40
6.0
 40
7.0
 40
7.0
 40
7.0
 40
8.0
 40
8.0
 40
8.0
 40
8.0
 10
112.7703984807346
 20
-116.0923114133559
 30
0.0
 10
112.7703984807346
 20
-116.0923114133559
 30
0.0
 10
111.394565147745
 20
-116.0923114133559
 30
0.0
 10
111.394565147745
 20
-116.0923114133559
 30
0.0
 10
109.6702861354757
 20
-116.0923114133559
 30
0.0
 10
108.2724818151924
 20
-114.6945070930726
 30
0.0
 10
108.2724818151924
 20
-112.970228080803
 30
0.0
 10
108.2724818151924
 20
-112.970228080803
 30
0.0
 10
108.2724818151924
 20
-111.5943947478137
 30
0.0
 10
108.2724818151924
 20
-111.5943947478137
 30
0.0
 10
108.2724818151924
 20
-109.8701157355441
 30
0.0
 10
109.6702861354757
 20
-108.4723114152608
 30
0.0
 10
111.394565147745
 20
-108.4723114152608
 30
0.0
 10
111.394565147745
 20
-108.4723114152608
 30
0.0
 10
112.7703984807346
 20
-108.4723114152608
 30
0.0
 10
112.7703984807346
 20
-108.4723114152608
 30
0.0
 10
114.4946774930049
 20
-108.4723114152608
 30
0.0
 10
115.8924818132872
 20
-109.8701157355441
 30
0.0
 10
115.8924818132872
 20
-111.5943947478137
 30
0.0
 10
115.8924818132872
 20
-111.5943947478137
 30
0.0
 10
115.8924818132872
 20
-112.970228080803
 30
0.0
 10
115.8924818132872
 20
-112.970228080803
 30
0.0
 10
115.8924818132872
 20
-114.6945070930726
 30
0.0
 10
114.4946774930049
 20
-116.0923114133559
 30
0.0
 10
112.7703984807346
 20
-116.0923114133559
 30
0.0
  0
SPLINE
  5
68
330
41
100
AcDbEntity
  8
Layer 1
 62
     7
370
    35
100
AcDbSpline
210
0.0
220
0.0
230
1.0
 70
    11
 71
     3
 72
    29
 73
    25
 74
     0
 42
0.0000000001
 43
0.0000000001
 12
1.0
 22
0.0
 32
0.0
 13
1.0
 23
0.0
 33
0.0
 40
0.0
 40
0.0
 40
0.0
 40
0.0
 40
1.0
 40
1.0
 40
1.0
 40
2.0
 40
2.0
 40
2.0
 40
3.0
 40
3.0
 40
3.0
 40
4.0
 40
4.0
 40
4.0
 40
5.0
 40
5.0
 40
5.0
 40
6.0
 40
6.0
 40
6.0
 40
7.0
 40
7.0
 40
7.0
 40
8.0
 40
8.0
 40
8.0
 40
8.0
 10
121.6603984785123
 20
-116.0923114133559
 30
0.0
 10
121.6603984785123
 20
-116.0923114133559
 30
0.0
 10
120.2845651455231
 20
-116.0923114133559
 30
0.0
 10
120.2845651455231
 20
-116.0923114133559
 30
0.0
 10
118.5602861332534
 20
-116.0923114133559
 30
0.0
 10
117.1624818129702
 20
-114.6945070930726
 30
0.0
 10
117.1624818129702
 20
-112.970228080803
 30
0.0
 10
117.1624818129702
 20
-112.970228080803
 30
0.0
 10
117.1624818129702
 20
-111.5943947478137
 30
0.0
 10
117.1624818129702
 20
-111.5943947478137
 30
0.0
 10
117.1624818129702
 20
-109.8701157355441
 30
0.0
 10
118.5602861332534
 20
-108.4723114152608
 30
0.0
 10
120.2845651455231
 20
-108.4723114152608
 30
0.0
 10
120.2845651455231
 20
-108.4723114152608
 30
0.0
 10
121.6603984785123
 20
-108.4723114152608
 30
0.0
 10
121.6603984785123
 20
-108.4723114152608
 30
0.0
 10
123.3846774907827
 20
-108.4723114152608
 30
0.0
 10
124.7824818110653
 20
-109.8701157355441
 30
0.0
 10
124.7824818110653
 20
-111.5943947478137
 30
0.0
 10
124.7824818110653
 20
-111.5943947478137
 30
0.0
 10
124.7824818110653
 20
-112.970228080803
 30
0.0
 10
124.7824818110653
 20
-112.970228080803
 30
0.0
 10
124.7824818110653
 20
-114.6945070930726
 30
0.0
 10
123.3846774907827
 20
-116.0923114133559
 30
0.0
 10
121.6603984785123
 20
-116.0923114133559
 30
0.0
  0
SPLINE
  5
69
330
41
100
AcDbEntity
  8
Layer 1
 62
     7
370
    35
100
AcDbSpline
210
0.0
220
0.0
230
1.0
 70
    11
 71
     3
 72
    29
 73
    25
 74
     0
 42
0.0000000001
 43
0.0000000001
 12
1.0
 22
0.0
 32
0.0
 13
1.0
 23
0.0
 33
0.0
 40
0.0
 40
0.0
 40
0.0
 40
0.0
 40
1.0
 40
1.0
 40
1.0
 40
2.0
 40
2.0
 40
2.0
 40
3.0
 40
3.0
 40
3.0
 40
4.0
 40
4.0
 40
4.0
 40
5.0
 40
5.0
 40
5.0
 40
6.0
 40
6.0
 40
6.0
 40
7.0
 40
7.0
 40
7.0
 40
8.0
 40
8.0
 40
8.0
 40
8.0
 10
130.5503984762904
 20
-116.0923114133559
 30
0.0
 10
130.5503984762904
 20
-116.0923114133559
 30
0.0
 10
129.1745651433009
 20
-116.0923114133559
 30
0.0
 10
129.1745651433009
 20
-116.0923114133559
 30
0.0
 10
127.4502861310312
 20
-116.0923114133559
 30
0.0
 10
126.0524818107482
 20
-114.6945070930726
 30
0.0
 10
126.0524818107482
 20
-112.970228080803
 30
0.0
 10
126.0524818107482
 20
-112.970228080803
 30
0.0
 10
126.0524818107482
 20
-111.5943947478137
 30
0.0
 10
126.0524818107482
 20
-111.5943947478137
 30
0.0
 10
126.0524818107482
 20
-109.8701157355441
 30
0.0
 10
127.4502861310312
 20
-108.4723114152608
 30
0.0
 10
129.1745651433009
 20
-108.4723114152608
 30
0.0
 10
129.1745651433009
 20
-108.4723114152608
 30
0.0
 10
130.5503984762904
 20
-108.4723114152608
 30
0.0
 10
130.5503984762904
 20
-108.4723114152608
 30
0.0
 10
132.2746774885607
 20
-108.4723114152608
 30
0.0
 10
133.6724818088427
 20
-109.8701157355441
 30
0.0
 10
133.6724818088427
 20
-111.5943947478137
 30
0.0
 10
133.6724818088427
 20
-111.5943947478137
 30
0.0
 10
133.6724818088427
 20
-112.970228080803
 30
0.0
 10
133.6724818088427
 20
-112.970228080803
 30
0.0
 10
133.6724818088427
 20
-114.6945070930726
 30
0.0
 10
132.2746774885607
 20
-116.0923114133559
 30
0.0
 10
130.5503984762904
 20
-116.0923114133559
 30
0.0
  0
SPLINE
  5
6A
330
41
100
AcDbEntity
  8
Layer 1
 62
     7
370
    35
100
AcDbSpline
210
0.0
220
0.0
230
1.0
 70
    11
 71
     3
 72
    29
 73
    25
 74
     0
 42
0.0000000001
 43
0.0000000001
 12
1.0
 22
0.0
 32
0.0
 13
1.0
 23
0.0
 33
0.0
 40
0.0
 40
0.0
 40
0.0
 40
0.0
 40
1.0
 40
1.0
 40
1.0
 40
2.0
 40
2.0
 40
2.0
 40
3.0
 40
3.0
 40
3.0
 40
4.0
 40
4.0
 40
4.0
 40
5.0
 40
5.0
 40
5.0
 40
6.0
 40
6.0
 40
6.0
 40
7.0
 40
7.0
 40
7.0
 40
8.0
 40
8.0
 40
8.0
 40
8.0
 10
166.2628460767495
 20
-116.0923114133559
 30
0.0
 10
166.2628460767495
 20
-116.0923114133559
 30
0.0
 10
164.8870127437596
 20
-116.0923114133559
 30
0.0
 10
164.8870127437596
 20
-116.0923114133559
 30
0.0
 10
163.1627337314893
 20
-116.0923114133559
 30
0.0
 10
161.7649294112073
 20
-114.6945070930726
 30
0.0
 10
161.7649294112073
 20
-112.970228080803
 30
0.0
 10
161.7649294112073
 20
-112.970228080803
 30
0.0
 10
161.7649294112073
 20
-111.5943947478137
 30
0.0
 10
161.7649294112073
 20
-111.5943947478137
 30
0.0
 10
161.7649294112073
 20
-109.8701157355441
 30
0.0
 10
163.1627337314893
 20
-108.4723114152608
 30
0.0
 10
164.8870127437596
 20
-108.4723114152608
 30
0.0
 10
164.8870127437596
 20
-108.4723114152608
 30
0.0
 10
166.2628460767495
 20
-108.4723114152608
 30
0.0
 10
166.2628460767495
 20
-108.4723114152608
 30
0.0
 10
167.9871250890185
 20
-108.4723114152608
 30
0.0
 10
169.3849294093018
 20
-109.8701157355441
 30
0.0
 10
169.3849294093018
 20
-111.5943947478137
 30
0.0
 10
169.3849294093018
 20
-111.5943947478137
 30
0.0
 10
169.3849294093018
 20
-112.970228080803
 30
0.0
 10
169.3849294093018
 20
-112.970228080803
 30
0.0
 10
169.3849294093018
 20
-114.6945070930726
 30
0.0
 10
167.9871250890185
 20
-116.0923114133559
 30
0.0
 10
166.2628460767495
 20
-116.0923114133559
 30
0.0
  0
SPLINE
  5
6B
330
41
100
AcDbEntity
  8
Layer 1
 62
     7
370
    35
100
AcDbSpline
210
0.0
220
0.0
230
1.0
 70
    11
 71
     3
 72
    29
 73
    25
 74
     0
 42
0.0000000001
 43
0.0000000001
 12
1.0
 22
0.0
 32
0.0
 13
1.0
 23
0.0
 33
0.0
 40
0.0
 40
0.0
 40
0.0
 40
0.0
 40
1.0
 40
1.0
 40
1.0
 40
2.0
 40
2.0
 40
2.0
 40
3.0
 40
3.0
 40
3.0
 40
4.0
 40
4.0
 40
4.0
 40
5.0
 40
5.0
 40
5.0
 40
6.0
 40
6.0
 40
6.0
 40
7.0
 40
7.0
 40
7.0
 40
8.0
 40
8.0
 40
8.0
 40
8.0
 10
175.152846074526
 20
-116.0923114133559
 30
0.0
 10
175.152846074526
 20
-116.0923114133559
 30
0.0
 10
173.7770127415374
 20
-116.0923114133559
 30
0.0
 10
173.7770127415374
 20
-116.0923114133559
 30
0.0
 10
172.0527337292671
 20
-116.0923114133559
 30
0.0
 10
170.6549294089838
 20
-114.6945070930726
 30
0.0
 10
170.6549294089838
 20
-112.970228080803
 30
0.0
 10
170.6549294089838
 20
-112.970228080803
 30
0.0
 10
170.6549294089838
 20
-111.5943947478137
 30
0.0
 10
170.6549294089838
 20
-111.5943947478137
 30
0.0
 10
170.6549294089838
 20
-109.8701157355441
 30
0.0
 10
172.0527337292671
 20
-108.4723114152608
 30
0.0
 10
173.7770127415374
 20
-108.4723114152608
 30
0.0
 10
173.7770127415374
 20
-108.4723114152608
 30
0.0
 10
175.152846074526
 20
-108.4723114152608
 30
0.0
 10
175.152846074526
 20
-108.4723114152608
 30
0.0
 10
176.8771250867963
 20
-108.4723114152608
 30
0.0
 10
178.2749294070796
 20
-109.8701157355441
 30
0.0
 10
178.2749294070796
 20
-111.5943947478137
 30
0.0
 10
178.2749294070796
 20
-111.5943947478137
 30
0.0
 10
178.2749294070796
 20
-112.970228080803
 30
0.0
 10
178.2749294070796
 20
-112.970228080803
 30
0.0
 10
178.2749294070796
 20
-114.6945070930726
 30
0.0
 10
176.8771250867963
 20
-116.0923114133559
 30
0.0
 10
175.152846074526
 20
-116.0923114133559
 30
0.0
  0
SPLINE
  5
6C
330
41
100
AcDbEntity
  8
Layer 1
 62
     7
370
    35
100
AcDbSpline
210
0.0
220
0.0
230
1.0
 70
    11
 71
     3
 72
    29
 73
    25
 74
     0
 42
0.0000000001
 43
0.0000000001
 12
1.0
 22
0.0
 32
0.0
 13
1.0
 23
0.0
 33
0.0
 40
0.0
 40
0.0
 40
0.0
 40
0.0
 40
1.0
 40
1.0
 40
1.0
 40
2.0
 40
2.0
 40
2.0
 40
3.0
 40
3.0
 40
3.0
 40
4.0
 40
4.0
 40
4.0
 40
5.0
 40
5.0
 40
5.0
 40
6.0
 40
6.0
 40
6.0
 40
7.0
 40
7.0
 40
7.0
 40
8.0
 40
8.0
 40
8.0
 40
8.0
 10
184.0428460723025
 20
-116.0923114133559
 30
0.0
 10
184.0428460723025
 20
-116.0923114133559
 30
0.0
 10
182.6670127393126
 20
-116.0923114133559
 30
0.0
 10
182.6670127393126
 20
-116.0923114133559
 30
0.0
 10
180.9427337270436
 20
-116.0923114133559
 30
0.0
 10
179.5449294067603
 20
-114.6945070930726
 30
0.0
 10
179.5449294067603
 20
-112.970228080803
 30
0.0
 10
179.5449294067603
 20
-112.970228080803
 30
0.0
 10
179.5449294067603
 20
-111.5943947478137
 30
0.0
 10
179.5449294067603
 20
-111.5943947478137
 30
0.0
 10
179.5449294067603
 20
-109.8701157355441
 30
0.0
 10
180.9427337270436
 20
-108.4723114152608
 30
0.0
 10
182.6670127393126
 20
-108.4723114152608
 30
0.0
 10
182.6670127393126
 20
-108.4723114152608
 30
0.0
 10
184.0428460723025
 20
-108.4723114152608
 30
0.0
 10
184.0428460723025
 20
-108.4723114152608
 30
0.0
 10
185.7671250845728
 20
-108.4723114152608
 30
0.0
 10
187.1649294048548
 20
-109.8701157355441
 30
0.0
 10
187.1649294048548
 20
-111.5943947478137
 30
0.0
 10
187.1649294048548
 20
-111.5943947478137
 30
0.0
 10
187.1649294048548
 20
-112.970228080803
 30
0.0
 10
187.1649294048548
 20
-112.970228080803
 30
0.0
 10
187.1649294048548
 20
-114.6945070930726
 30
0.0
 10
185.7671250845728
 20
-116.0923114133559
 30
0.0
 10
184.0428460723025
 20
-116.0923114133559
 30
0.0
  0
SPLINE
  5
6D
330
41
100
AcDbEntity
  8
Layer 1
 62
     7
370
    35
100
AcDbSpline
210
0.0
220
0.0
230
1.0
 70
    11
 71
     3
 72
    29
 73
    25
 74
     0
 42
0.0000000001
 43
0.0000000001
 12
1.0
 22
0.0
 32
0.0
 13
1.0
 23
0.0
 33
0.0
 40
0.0
 40
0.0
 40
0.0
 40
0.0
 40
1.0
 40
1.0
 40
1.0
 40
2.0
 40
2.0
 40
2.0
 40
3.0
 40
3.0
 40
3.0
 40
4.0
 40
4.0
 40
4.0
 40
5.0
 40
5.0
 40
5.0
 40
6.0
 40
6.0
 40
6.0
 40
7.0
 40
7.0
 40
7.0
 40
8.0
 40
8.0
 40
8.0
 40
8.0
 10
92.00233409983534
 20
-124.982311411126
 30
0.0
 10
92.00233409983534
 20
-124.982311411126
 30
0.0
 10
76.20797645757892
 20
-124.982311411126
 30
0.0
 10
76.20797645757892
 20
-124.982311411126
 30
0.0
 10
75.1623684689711
 20
-124.982311411126
 30
0.0
 10
74.31473571731209
 20
-124.1346786594666
 30
0.0
 10
74.31473571731209
 20
-123.0890706708591
 30
0.0
 10
74.31473571731209
 20
-123.0890706708591
 30
0.0
 10
74.31473571731209
 20
-119.2555521532983
 30
0.0
 10
74.31473571731209
 20
-119.2555521532983
 30
0.0
 10
74.31473571731209
 20
-118.2099441646902
 30
0.0
 10
75.16236846897142
 20
-117.3623114130308
 30
0.0
 10
76.20797645757956
 20
-117.3623114130308
 30
0.0
 10
76.20797645757956
 20
-117.3623114130308
 30
0.0
 10
92.00233409983468
 20
-117.3623114130308
 30
0.0
 10
92.00233409983468
 20
-117.3623114130308
 30
0.0
 10
93.04794208844282
 20
-117.3623114130308
 30
0.0
 10
93.89557484010216
 20
-118.2099441646902
 30
0.0
 10
93.89557484010216
 20
-119.2555521532983
 30
0.0
 10
93.89557484010216
 20
-119.2555521532983
 30
0.0
 10
93.89557484010216
 20
-123.0890706708591
 30
0.0
 10
93.89557484010216
 20
-123.0890706708591
 30
0.0
 10
93.89557484010216
 20
-124.1346786594666
 30
0.0
 10
93.04794208844315
 20
-124.982311411126
 30
0.0
 10
92.00233409983534
 20
-124.982311411126
 30
0.0
  0
SPLINE
  5
6E
330
41
100
AcDbEntity
  8
Layer 1
 62
     7
370
    35
100
AcDbSpline
210
0.0
220
0.0
230
1.0
 70
    11
 71
     3
 72
    29
 73
    25
 74
     0
 42
0.0000000001
 43
0.0000000001
 12
1.0
 22
0.0
 32
0.0
 13
1.0
 23
0.0
 33
0.0
 40
0.0
 40
0.0
 40
0.0
 40
0.0
 40
1.0
 40
1.0
 40
1.0
 40
2.0
 40
2.0
 40
2.0
 40
3.0
 40
3.0
 40
3.0
 40
4.0
 40
4.0
 40
4.0
 40
5.0
 40
5.0
 40
5.0
 40
6.0
 40
6.0
 40
6.0
 40
7.0
 40
7.0
 40
7.0
 40
8.0
 40
8.0
 40
8.0
 40
8.0
 10
99.92503374697662
 20
-124.9823114111253
 30
0.0
 10
99.92503374697662
 20
-124.9823114111253
 30
0.0
 10
98.54920041398738
 20
-124.9823114111253
 30
0.0
 10
98.54920041398738
 20
-124.9823114111253
 30
0.0
 10
96.8249214017174
 20
-124.9823114111253
 30
0.0
 10
95.42711708143443
 20
-123.584507090842
 30
0.0
 10
95.42711708143443
 20
-121.8602280785724
 30
0.0
 10
95.42711708143443
 20
-121.8602280785724
 30
0.0
 10
95.42711708143443
 20
-120.4843947455831
 30
0.0
 10
95.42711708143443
 20
-120.4843947455831
 30
0.0
 10
95.42711708143443
 20
-118.7601157333135
 30
0.0
 10
96.8249214017174
 20
-117.3623114130302
 30
0.0
 10
98.54920041398738
 20
-117.3623114130302
 30
0.0
 10
98.54920041398738
 20
-117.3623114130302
 30
0.0
 10
99.92503374697662
 20
-117.3623114130302
 30
0.0
 10
99.92503374697662
 20
-117.3623114130302
 30
0.0
 10
101.6493127592466
 20
-117.3623114130302
 30
0.0
 10
103.0471170795296
 20
-118.7601157333135
 30
0.0
 10
103.0471170795296
 20
-120.4843947455831
 30
0.0
 10
103.0471170795296
 20
-120.4843947455831
 30
0.0
 10
103.0471170795296
 20
-121.8602280785724
 30
0.0
 10
103.0471170795296
 20
-121.8602280785724
 30
0.0
 10
103.0471170795296
 20
-123.584507090842
 30
0.0
 10
101.6493127592466
 20
-124.9823114111253
 30
0.0
 10
99.92503374697662
 20
-124.9823114111253
 30
0.0
  0
SPLINE
  5
6F
330
41
100
AcDbEntity
  8
Layer 1
 62
     7
370
    35
100
AcDbSpline
210
0.0
220
0.0
230
1.0
 70
    11
 71
     3
 72
    29
 73
    25
 74
     0
 42
0.0000000001
 43
0.0000000001
 12
1.0
 22
0.0
 32
0.0
 13
1.0
 23
0.0
 33
0.0
 40
0.0
 40
0.0
 40
0.0
 40
0.0
 40
1.0
 40
1.0
 40
1.0
 40
2.0
 40
2.0
 40
2.0
 40
3.0
 40
3.0
 40
3.0
 40
4.0
 40
4.0
 40
4.0
 40
5.0
 40
5.0
 40
5.0
 40
6.0
 40
6.0
 40
6.0
 40
7.0
 40
7.0
 40
7.0
 40
8.0
 40
8.0
 40
8.0
 40
8.0
 10
108.8150337447541
 20
-124.9823114111253
 30
0.0
 10
108.8150337447541
 20
-124.9823114111253
 30
0.0
 10
107.4392004117651
 20
-124.9823114111253
 30
0.0
 10
107.4392004117651
 20
-124.9823114111253
 30
0.0
 10
105.7149213994948
 20
-124.9823114111253
 30
0.0
 10
104.3171170792119
 20
-123.584507090842
 30
0.0
 10
104.3171170792119
 20
-121.8602280785724
 30
0.0
 10
104.3171170792119
 20
-121.8602280785724
 30
0.0
 10
104.3171170792119
 20
-120.4843947455831
 30
0.0
 10
104.3171170792119
 20
-120.4843947455831
 30
0.0
 10
104.3171170792119
 20
-118.7601157333135
 30
0.0
 10
105.7149213994948
 20
-117.3623114130302
 30
0.0
 10
107.4392004117651
 20
-117.3623114130302
 30
0.0
 10
107.4392004117651
 20
-117.3623114130302
 30
0.0
 10
108.8150337447541
 20
-117.3623114130302
 30
0.0
 10
108.8150337447541
 20
-117.3623114130302
 30
0.0
 10
110.5393127570244
 20
-117.3623114130302
 30
0.0
 10
111.9371170773073
 20
-118.7601157333135
 30
0.0
 10
111.9371170773073
 20
-120.4843947455831
 30
0.0
 10
111.9371170773073
 20
-120.4843947455831
 30
0.0
 10
111.9371170773073
 20
-121.8602280785724
 30
0.0
 10
111.9371170773073
 20
-121.8602280785724
 30
0.0
 10
111.9371170773073
 20
-123.584507090842
 30
0.0
 10
110.5393127570244
 20
-124.9823114111253
 30
0.0
 10
108.8150337447541
 20
-124.9823114111253
 30
0.0
  0
SPLINE
  5
70
330
41
100
AcDbEntity
  8
Layer 1
 62
     7
370
    35
100
AcDbSpline
210
0.0
220
0.0
230
1.0
 70
    11
 71
     3
 72
    29
 73
    25
 74
     0
 42
0.0000000001
 43
0.0000000001
 12
1.0
 22
0.0
 32
0.0
 13
1.0
 23
0.0
 33
0.0
 40
0.0
 40
0.0
 40
0.0
 40
0.0
 40
1.0
 40
1.0
 40
1.0
 40
2.0
 40
2.0
 40
2.0
 40
3.0
 40
3.0
 40
3.0
 40
4.0
 40
4.0
 40
4.0
 40
5.0
 40
5.0
 40
5.0
 40
6.0
 40
6.0
 40
6.0
 40
7.0
 40
7.0
 40
7.0
 40
8.0
 40
8.0
 40
8.0
 40
8.0
 10
117.7050337425318
 20
-124.9823114111253
 30
0.0
 10
117.7050337425318
 20
-124.9823114111253
 30
0.0
 10
116.3292004095426
 20
-124.9823114111253
 30
0.0
 10
116.3292004095426
 20
-124.9823114111253
 30
0.0
 10
114.6049213972729
 20
-124.9823114111253
 30
0.0
 10
113.2071170769896
 20
-123.584507090842
 30
0.0
 10
113.2071170769896
 20
-121.8602280785724
 30
0.0
 10
113.2071170769896
 20
-121.8602280785724
 30
0.0
 10
113.2071170769896
 20
-120.4843947455831
 30
0.0
 10
113.2071170769896
 20
-120.4843947455831
 30
0.0
 10
113.2071170769896
 20
-118.7601157333135
 30
0.0
 10
114.6049213972729
 20
-117.3623114130302
 30
0.0
 10
116.3292004095426
 20
-117.3623114130302
 30
0.0
 10
116.3292004095426
 20
-117.3623114130302
 30
0.0
 10
117.7050337425318
 20
-117.3623114130302
 30
0.0
 10
117.7050337425318
 20
-117.3623114130302
 30
0.0
 10
119.4293127548021
 20
-117.3623114130302
 30
0.0
 10
120.8271170750848
 20
-118.7601157333135
 30
0.0
 10
120.8271170750848
 20
-120.4843947455831
 30
0.0
 10
120.8271170750848
 20
-120.4843947455831
 30
0.0
 10
120.8271170750848
 20
-121.8602280785724
 30
0.0
 10
120.8271170750848
 20
-121.8602280785724
 30
0.0
 10
120.8271170750848
 20
-123.584507090842
 30
0.0
 10
119.4293127548021
 20
-124.9823114111253
 30
0.0
 10
117.7050337425318
 20
-124.9823114111253
 30
0.0
  0
SPLINE
  5
71
330
41
100
AcDbEntity
  8
Layer 1
 62
     7
370
    35
100
AcDbSpline
210
0.0
220
0.0
230
1.0
 70
    11
 71
     3
 72
    29
 73
    25
 74
     0
 42
0.0000000001
 43
0.0000000001
 12
1.0
 22
0.0
 32
0.0
 13
1.0
 23
0.0
 33
0.0
 40
0.0
 40
0.0
 40
0.0
 40
0.0
 40
1.0
 40
1.0
 40
1.0
 40
2.0
 40
2.0
 40
2.0
 40
3.0
 40
3.0
 40
3.0
 40
4.0
 40
4.0
 40
4.0
 40
5.0
 40
5.0
 40
5.0
 40
6.0
 40
6.0
 40
6.0
 40
7.0
 40
7.0
 40
7.0
 40
8.0
 40
8.0
 40
8.0
 40
8.0
 10
126.5950337403096
 20
-124.9823114111253
 30
0.0
 10
126.5950337403096
 20
-124.9823114111253
 30
0.0
 10
125.2192004073203
 20
-124.9823114111253
 30
0.0
 10
125.2192004073203
 20
-124.9823114111253
 30
0.0
 10
123.4949213950507
 20
-124.9823114111253
 30
0.0
 10
122.0971170747674
 20
-123.584507090842
 30
0.0
 10
122.0971170747674
 20
-121.8602280785724
 30
0.0
 10
122.0971170747674
 20
-121.8602280785724
 30
0.0
 10
122.0971170747674
 20
-120.4843947455831
 30
0.0
 10
122.0971170747674
 20
-120.4843947455831
 30
0.0
 10
122.0971170747674
 20
-118.7601157333135
 30
0.0
 10
123.4949213950507
 20
-117.3623114130302
 30
0.0
 10
125.2192004073203
 20
-117.3623114130302
 30
0.0
 10
125.2192004073203
 20
-117.3623114130302
 30
0.0
 10
126.5950337403096
 20
-117.3623114130302
 30
0.0
 10
126.5950337403096
 20
-117.3623114130302
 30
0.0
 10
128.3193127525802
 20
-117.3623114130302
 30
0.0
 10
129.7171170728625
 20
-118.7601157333135
 30
0.0
 10
129.7171170728625
 20
-120.4843947455831
 30
0.0
 10
129.7171170728625
 20
-120.4843947455831
 30
0.0
 10
129.7171170728625
 20
-121.8602280785724
 30
0.0
 10
129.7171170728625
 20
-121.8602280785724
 30
0.0
 10
129.7171170728625
 20
-123.584507090842
 30
0.0
 10
128.3193127525802
 20
-124.9823114111253
 30
0.0
 10
126.5950337403096
 20
-124.9823114111253
 30
0.0
  0
SPLINE
  5
72
330
41
100
AcDbEntity
  8
Layer 1
 62
     7
370
    35
100
AcDbSpline
210
0.0
220
0.0
230
1.0
 70
    11
 71
     3
 72
    29
 73
    25
 74
     0
 42
0.0000000001
 43
0.0000000001
 12
1.0
 22
0.0
 32
0.0
 13
1.0
 23
0.0
 33
0.0
 40
0.0
 40
0.0
 40
0.0
 40
0.0
 40
1.0
 40
1.0
 40
1.0
 40
2.0
 40
2.0
 40
2.0
 40
3.0
 40
3.0
 40
3.0
 40
4.0
 40
4.0
 40
4.0
 40
5.0
 40
5.0
 40
5.0
 40
6.0
 40
6.0
 40
6.0
 40
7.0
 40
7.0
 40
7.0
 40
8.0
 40
8.0
 40
8.0
 40
8.0
 10
135.4850337380877
 20
-124.9823114111253
 30
0.0
 10
135.4850337380877
 20
-124.9823114111253
 30
0.0
 10
134.1092004050981
 20
-124.9823114111253
 30
0.0
 10
134.1092004050981
 20
-124.9823114111253
 30
0.0
 10
132.3849213928284
 20
-124.9823114111253
 30
0.0
 10
130.9871170725451
 20
-123.584507090842
 30
0.0
 10
130.9871170725451
 20
-121.8602280785724
 30
0.0
 10
130.9871170725451
 20
-121.8602280785724
 30
0.0
 10
130.9871170725451
 20
-120.4843947455831
 30
0.0
 10
130.9871170725451
 20
-120.4843947455831
 30
0.0
 10
130.9871170725451
 20
-118.7601157333135
 30
0.0
 10
132.3849213928284
 20
-117.3623114130302
 30
0.0
 10
134.1092004050981
 20
-117.3623114130302
 30
0.0
 10
134.1092004050981
 20
-117.3623114130302
 30
0.0
 10
135.4850337380877
 20
-117.3623114130302
 30
0.0
 10
135.4850337380877
 20
-117.3623114130302
 30
0.0
 10
137.209312750358
 20
-117.3623114130302
 30
0.0
 10
138.60711707064
 20
-118.7601157333135
 30
0.0
 10
138.60711707064
 20
-120.4843947455831
 30
0.0
 10
138.60711707064
 20
-120.4843947455831
 30
0.0
 10
138.60711707064
 20
-121.8602280785724
 30
0.0
 10
138.60711707064
 20
-121.8602280785724
 30
0.0
 10
138.60711707064
 20
-123.584507090842
 30
0.0
 10
137.209312750358
 20
-124.9823114111253
 30
0.0
 10
135.4850337380877
 20
-124.9823114111253
 30
0.0
  0
SPLINE
  5
73
330
41
100
AcDbEntity
  8
Layer 1
 62
     7
370
    35
100
AcDbSpline
210
0.0
220
0.0
230
1.0
 70
    11
 71
     3
 72
    29
 73
    25
 74
     0
 42
0.0000000001
 43
0.0000000001
 12
1.0
 22
0.0
 32
0.0
 13
1.0
 23
0.0
 33
0.0
 40
0.0
 40
0.0
 40
0.0
 40
0.0
 40
1.0
 40
1.0
 40
1.0
 40
2.0
 40
2.0
 40
2.0
 40
3.0
 40
3.0
 40
3.0
 40
4.0
 40
4.0
 40
4.0
 40
5.0
 40
5.0
 40
5.0
 40
6.0
 40
6.0
 40
6.0
 40
7.0
 40
7.0
 40
7.0
 40
8.0
 40
8.0
 40
8.0
 40
8.0
 10
144.3750337358651
 20
-124.9823114111253
 30
0.0
 10
144.3750337358651
 20
-124.9823114111253
 30
0.0
 10
142.9992004028752
 20
-124.9823114111253
 30
0.0
 10
142.9992004028752
 20
-124.9823114111253
 30
0.0
 10
141.2749213906062
 20
-124.9823114111253
 30
0.0
 10
139.8771170703232
 20
-123.584507090842
 30
0.0
 10
139.8771170703232
 20
-121.8602280785724
 30
0.0
 10
139.8771170703232
 20
-121.8602280785724
 30
0.0
 10
139.8771170703232
 20
-120.4843947455831
 30
0.0
 10
139.8771170703232
 20
-120.4843947455831
 30
0.0
 10
139.8771170703232
 20
-118.7601157333135
 30
0.0
 10
141.2749213906062
 20
-117.3623114130302
 30
0.0
 10
142.9992004028752
 20
-117.3623114130302
 30
0.0
 10
142.9992004028752
 20
-117.3623114130302
 30
0.0
 10
144.3750337358651
 20
-117.3623114130302
 30
0.0
 10
144.3750337358651
 20
-117.3623114130302
 30
0.0
 10
146.099312748136
 20
-117.3623114130302
 30
0.0
 10
147.497117068418
 20
-118.7601157333135
 30
0.0
 10
147.497117068418
 20
-120.4843947455831
 30
0.0
 10
147.497117068418
 20
-120.4843947455831
 30
0.0
 10
147.497117068418
 20
-121.8602280785724
 30
0.0
 10
147.497117068418
 20
-121.8602280785724
 30
0.0
 10
147.497117068418
 20
-123.584507090842
 30
0.0
 10
146.099312748136
 20
-124.9823114111253
 30
0.0
 10
144.3750337358651
 20
-124.9823114111253
 30
0.0
  0
SPLINE
  5
74
330
41
100
AcDbEntity
  8
Layer 1
 62
     7
370
    35
100
AcDbSpline
210
0.0
220
0.0
230
1.0
 70
    11
 71
     3
 72
    29
 73
    25
 74
     0
 42
0.0000000001
 43
0.0000000001
 12
1.0
 22
0.0
 32
0.0
 13
1.0
 23
0.0
 33
0.0
 40
0.0
 40
0.0
 40
0.0
 40
0.0
 40
1.0
 40
1.0
 40
1.0
 40
2.0
 40
2.0
 40
2.0
 40
3.0
 40
3.0
 40
3.0
 40
4.0
 40
4.0
 40
4.0
 40
5.0
 40
5.0
 40
5.0
 40
6.0
 40
6.0
 40
6.0
 40
7.0
 40
7.0
 40
7.0
 40
8.0
 40
8.0
 40
8.0
 40
8.0
 10
153.2650337336428
 20
-124.9823114111253
 30
0.0
 10
153.2650337336428
 20
-124.9823114111253
 30
0.0
 10
151.889200400653
 20
-124.9823114111253
 30
0.0
 10
151.889200400653
 20
-124.9823114111253
 30
0.0
 10
150.1649213883846
 20
-124.9823114111253
 30
0.0
 10
148.7671170681013
 20
-123.584507090842
 30
0.0
 10
148.7671170681013
 20
-121.8602280785724
 30
0.0
 10
148.7671170681013
 20
-121.8602280785724
 30
0.0
 10
148.7671170681013
 20
-120.4843947455831
 30
0.0
 10
148.7671170681013
 20
-120.4843947455831
 30
0.0
 10
148.7671170681013
 20
-118.7601157333135
 30
0.0
 10
150.1649213883846
 20
-117.3623114130302
 30
0.0
 10
151.889200400653
 20
-117.3623114130302
 30
0.0
 10
151.889200400653
 20
-117.3623114130302
 30
0.0
 10
153.2650337336428
 20
-117.3623114130302
 30
0.0
 10
153.2650337336428
 20
-117.3623114130302
 30
0.0
 10
154.9893127459119
 20
-117.3623114130302
 30
0.0
 10
156.3871170661951
 20
-118.7601157333135
 30
0.0
 10
156.3871170661951
 20
-120.4843947455831
 30
0.0
 10
156.3871170661951
 20
-120.4843947455831
 30
0.0
 10
156.3871170661951
 20
-121.8602280785724
 30
0.0
 10
156.3871170661951
 20
-121.8602280785724
 30
0.0
 10
156.3871170661951
 20
-123.584507090842
 30
0.0
 10
154.9893127459119
 20
-124.9823114111253
 30
0.0
 10
153.2650337336428
 20
-124.9823114111253
 30
0.0
  0
SPLINE
  5
75
330
41
100
AcDbEntity
  8
Layer 1
 62
     7
370
    35
100
AcDbSpline
210
0.0
220
0.0
230
1.0
 70
    11
 71
     3
 72
    29
 73
    25
 74
     0
 42
0.0000000001
 43
0.0000000001
 12
1.0
 22
0.0
 32
0.0
 13
1.0
 23
0.0
 33
0.0
 40
0.0
 40
0.0
 40
0.0
 40
0.0
 40
1.0
 40
1.0
 40
1.0
 40
2.0
 40
2.0
 40
2.0
 40
3.0
 40
3.0
 40
3.0
 40
4.0
 40
4.0
 40
4.0
 40
5.0
 40
5.0
 40
5.0
 40
6.0
 40
6.0
 40
6.0
 40
7.0
 40
7.0
 40
7.0
 40
8.0
 40
8.0
 40
8.0
 40
8.0
 10
162.1550337314193
 20
-124.9823114111253
 30
0.0
 10
162.1550337314193
 20
-124.9823114111253
 30
0.0
 10
160.7792003984307
 20
-124.9823114111253
 30
0.0
 10
160.7792003984307
 20
-124.9823114111253
 30
0.0
 10
159.0549213861604
 20
-124.9823114111253
 30
0.0
 10
157.6571170658771
 20
-123.584507090842
 30
0.0
 10
157.6571170658771
 20
-121.8602280785724
 30
0.0
 10
157.6571170658771
 20
-121.8602280785724
 30
0.0
 10
157.6571170658771
 20
-120.4843947455831
 30
0.0
 10
157.6571170658771
 20
-120.4843947455831
 30
0.0
 10
157.6571170658771
 20
-118.7601157333135
 30
0.0
 10
159.0549213861604
 20
-117.3623114130302
 30
0.0
 10
160.7792003984307
 20
-117.3623114130302
 30
0.0
 10
160.7792003984307
 20
-117.3623114130302
 30
0.0
 10
162.1550337314193
 20
-117.3623114130302
 30
0.0
 10
162.1550337314193
 20
-117.3623114130302
 30
0.0
 10
163.8793127436896
 20
-117.3623114130302
 30
0.0
 10
165.2771170639729
 20
-118.7601157333135
 30
0.0
 10
165.2771170639729
 20
-120.4843947455831
 30
0.0
 10
165.2771170639729
 20
-120.4843947455831
 30
0.0
 10
165.2771170639729
 20
-121.8602280785724
 30
0.0
 10
165.2771170639729
 20
-121.8602280785724
 30
0.0
 10
165.2771170639729
 20
-123.584507090842
 30
0.0
 10
163.8793127436896
 20
-124.9823114111253
 30
0.0
 10
162.1550337314193
 20
-124.9823114111253
 30
0.0
  0
SPLINE
  5
76
330
41
100
AcDbEntity
  8
Layer 1
 62
     7
370
    35
100
AcDbSpline
210
0.0
220
0.0
230
1.0
 70
    11
 71
     3
 72
    29
 73
    25
 74
     0
 42
0.0000000001
 43
0.0000000001
 12
1.0
 22
0.0
 32
0.0
 13
1.0
 23
0.0
 33
0.0
 40
0.0
 40
0.0
 40
0.0
 40
0.0
 40
1.0
 40
1.0
 40
1.0
 40
2.0
 40
2.0
 40
2.0
 40
3.0
 40
3.0
 40
3.0
 40
4.0
 40
4.0
 40
4.0
 40
5.0
 40
5.0
 40
5.0
 40
6.0
 40
6.0
 40
6.0
 40
7.0
 40
7.0
 40
7.0
 40
8.0
 40
8.0
 40
8.0
 40
8.0
 10
171.0450337291958
 20
-124.9823114111253
 30
0.0
 10
171.0450337291958
 20
-124.9823114111253
 30
0.0
 10
169.6692003962059
 20
-124.9823114111253
 30
0.0
 10
169.6692003962059
 20
-124.9823114111253
 30
0.0
 10
167.9449213839369
 20
-124.9823114111253
 30
0.0
 10
166.5471170636536
 20
-123.584507090842
 30
0.0
 10
166.5471170636536
 20
-121.8602280785724
 30
0.0
 10
166.5471170636536
 20
-121.8602280785724
 30
0.0
 10
166.5471170636536
 20
-120.4843947455831
 30
0.0
 10
166.5471170636536
 20
-120.4843947455831
 30
0.0
 10
166.5471170636536
 20
-118.7601157333135
 30
0.0
 10
167.9449213839369
 20
-117.3623114130302
 30
0.0
 10
169.6692003962059
 20
-117.3623114130302
 30
0.0
 10
169.6692003962059
 20
-117.3623114130302
 30
0.0
 10
171.0450337291958
 20
-117.3623114130302
 30
0.0
 10
171.0450337291958
 20
-117.3623114130302
 30
0.0
 10
172.7693127414661
 20
-117.3623114130302
 30
0.0
 10
174.1671170617481
 20
-118.7601157333135
 30
0.0
 10
174.1671170617481
 20
-120.4843947455831
 30
0.0
 10
174.1671170617481
 20
-120.4843947455831
 30
0.0
 10
174.1671170617481
 20
-121.8602280785724
 30
0.0
 10
174.1671170617481
 20
-121.8602280785724
 30
0.0
 10
174.1671170617481
 20
-123.584507090842
 30
0.0
 10
172.7693127414661
 20
-124.9823114111253
 30
0.0
 10
171.0450337291958
 20
-124.9823114111253
 30
0.0
  0
SPLINE
  5
77
330
41
100
AcDbEntity
  8
Layer 1
 62
     7
370
    35
100
AcDbSpline
210
0.0
220
0.0
230
1.0
 70
    11
 71
     3
 72
    29
 73
    25
 74
     0
 42
0.0000000001
 43
0.0000000001
 12
1.0
 22
0.0
 32
0.0
 13
1.0
 23
0.0
 33
0.0
 40
0.0
 40
0.0
 40
0.0
 40
0.0
 40
1.0
 40
1.0
 40
1.0
 40
2.0
 40
2.0
 40
2.0
 40
3.0
 40
3.0
 40
3.0
 40
4.0
 40
4.0
 40
4.0
 40
5.0
 40
5.0
 40
5.0
 40
6.0
 40
6.0
 40
6.0
 40
7.0
 40
7.0
 40
7.0
 40
8.0
 40
8.0
 40
8.0
 40
8.0
 10
179.9350337269736
 20
-124.9823114111253
 30
0.0
 10
179.9350337269736
 20
-124.9823114111253
 30
0.0
 10
178.5592003939837
 20
-124.9823114111253
 30
0.0
 10
178.5592003939837
 20
-124.9823114111253
 30
0.0
 10
176.8349213817147
 20
-124.9823114111253
 30
0.0
 10
175.4371170614314
 20
-123.584507090842
 30
0.0
 10
175.4371170614314
 20
-121.8602280785724
 30
0.0
 10
175.4371170614314
 20
-121.8602280785724
 30
0.0
 10
175.4371170614314
 20
-120.4843947455831
 30
0.0
 10
175.4371170614314
 20
-120.4843947455831
 30
0.0
 10
175.4371170614314
 20
-118.7601157333135
 30
0.0
 10
176.8349213817147
 20
-117.3623114130302
 30
0.0
 10
178.5592003939837
 20
-117.3623114130302
 30
0.0
 10
178.5592003939837
 20
-117.3623114130302
 30
0.0
 10
179.9350337269736
 20
-117.3623114130302
 30
0.0
 10
179.9350337269736
 20
-117.3623114130302
 30
0.0
 10
181.6593127392439
 20
-117.3623114130302
 30
0.0
 10
183.0571170595258
 20
-118.7601157333135
 30
0.0
 10
183.0571170595258
 20
-120.4843947455831
 30
0.0
 10
183.0571170595258
 20
-120.4843947455831
 30
0.0
 10
183.0571170595258
 20
-121.8602280785724
 30
0.0
 10
183.0571170595258
 20
-121.8602280785724
 30
0.0
 10
183.0571170595258
 20
-123.584507090842
 30
0.0
 10
181.6593127392439
 20
-124.9823114111253
 30
0.0
 10
179.9350337269736
 20
-124.9823114111253
 30
0.0
  0
SPLINE
  5
78
330
41
100
AcDbEntity
  8
Layer 1
 62
     7
370
    35
100
AcDbSpline
210
0.0
220
0.0
230
1.0
 70
    11
 71
     3
 72
    29
 73
    25
 74
     0
 42
0.0000000001
 43
0.0000000001
 12
1.0
 22
0.0
 32
0.0
 13
1.0
 23
0.0
 33
0.0
 40
0.0
 40
0.0
 40
0.0
 40
0.0
 40
1.0
 40
1.0
 40
1.0
 40
2.0
 40
2.0
 40
2.0
 40
3.0
 40
3.0
 40
3.0
 40
4.0
 40
4.0
 40
4.0
 40
5.0
 40
5.0
 40
5.0
 40
6.0
 40
6.0
 40
6.0
 40
7.0
 40
7.0
 40
7.0
 40
8.0
 40
8.0
 40
8.0
 40
8.0
 10
197.5879192518916
 20
-124.9823114111317
 30
0.0
 10
197.5879192518916
 20
-124.9823114111317
 30
0.0
 10
186.3732281698046
 20
-124.9823114111317
 30
0.0
 10
186.3732281698046
 20
-124.9823114111317
 30
0.0
 10
185.3276201811971
 20
-124.9823114111317
 30
0.0
 10
184.4799874295378
 20
-124.1346786594724
 30
0.0
 10
184.4799874295378
 20
-123.0890706708649
 30
0.0
 10
184.4799874295378
 20
-123.0890706708649
 30
0.0
 10
184.4799874295378
 20
-119.2555521533041
 30
0.0
 10
184.4799874295378
 20
-119.2555521533041
 30
0.0
 10
184.4799874295378
 20
-118.2099441646959
 30
0.0
 10
185.3276201811971
 20
-117.3623114130366
 30
0.0
 10
186.3732281698059
 20
-117.3623114130366
 30
0.0
 10
186.3732281698059
 20
-117.3623114130366
 30
0.0
 10
197.5879192518916
 20
-117.3623114130366
 30
0.0
 10
197.5879192518916
 20
-117.3623114130366
 30
0.0
 10
198.6335272404991
 20
-117.3623114130366
 30
0.0
 10
199.4811599921584
 20
-118.2099441646959
 30
0.0
 10
199.4811599921584
 20
-119.2555521533041
 30
0.0
 10
199.4811599921584
 20
-119.2555521533041
 30
0.0
 10
199.4811599921584
 20
-123.0890706708649
 30
0.0
 10
199.4811599921584
 20
-123.0890706708649
 30
0.0
 10
199.4811599921584
 20
-124.1346786594724
 30
0.0
 10
198.6335272404991
 20
-124.9823114111317
 30
0.0
 10
197.5879192518916
 20
-124.9823114111317
 30
0.0
  0
SPLINE
  5
79
330
41
100
AcDbEntity
  8
Layer 1
 62
     7
370
    35
100
AcDbSpline
210
0.0
220
0.0
230
1.0
 70
    11
 71
     3
 72
    29
 73
    25
 74
     0
 42
0.0000000001
 43
0.0000000001
 12
1.0
 22
0.0
 32
0.0
 13
1.0
 23
0.0
 33
0.0
 40
0.0
 40
0.0
 40
0.0
 40
0.0
 40
1.0
 40
1.0
 40
1.0
 40
2.0
 40
2.0
 40
2.0
 40
3.0
 40
3.0
 40
3.0
 40
4.0
 40
4.0
 40
4.0
 40
5.0
 40
5.0
 40
5.0
 40
6.0
 40
6.0
 40
6.0
 40
7.0
 40
7.0
 40
7.0
 40
8.0
 40
8.0
 40
8.0
 40
8.0
 10
205.37024259648
 20
-124.9823114111324
 30
0.0
 10
205.37024259648
 20
-124.9823114111324
 30
0.0
 10
203.9944092634901
 20
-124.9823114111324
 30
0.0
 10
203.9944092634901
 20
-124.9823114111324
 30
0.0
 10
202.2701302512211
 20
-124.9823114111324
 30
0.0
 10
200.8723259309378
 20
-123.5845070908491
 30
0.0
 10
200.8723259309378
 20
-121.8602280785794
 30
0.0
 10
200.8723259309378
 20
-121.8602280785794
 30
0.0
 10
200.8723259309378
 20
-120.4843947455902
 30
0.0
 10
200.8723259309378
 20
-120.4843947455902
 30
0.0
 10
200.8723259309378
 20
-118.7601157333205
 30
0.0
 10
202.2701302512211
 20
-117.3623114130372
 30
0.0
 10
203.9944092634901
 20
-117.3623114130372
 30
0.0
 10
203.9944092634901
 20
-117.3623114130372
 30
0.0
 10
205.37024259648
 20
-117.3623114130372
 30
0.0
 10
205.37024259648
 20
-117.3623114130372
 30
0.0
 10
207.0945216087503
 20
-117.3623114130372
 30
0.0
 10
208.4923259290323
 20
-118.7601157333205
 30
0.0
 10
208.4923259290323
 20
-120.4843947455902
 30
0.0
 10
208.4923259290323
 20
-120.4843947455902
 30
0.0
 10
208.4923259290323
 20
-121.8602280785794
 30
0.0
 10
208.4923259290323
 20
-121.8602280785794
 30
0.0
 10
208.4923259290323
 20
-123.5845070908491
 30
0.0
 10
207.0945216087503
 20
-124.9823114111324
 30
0.0
 10
205.37024259648
 20
-124.9823114111324
 30
0.0
  0
SPLINE
  5
7A
330
41
100
AcDbEntity
  8
Layer 1
 62
     7
370
    35
100
AcDbSpline
210
0.0
220
0.0
230
1.0
 70
    11
 71
     3
 72
    29
 73
    25
 74
     0
 42
0.0000000001
 43
0.0000000001
 12
1.0
 22
0.0
 32
0.0
 13
1.0
 23
0.0
 33
0.0
 40
0.0
 40
0.0
 40
0.0
 40
0.0
 40
1.0
 40
1.0
 40
1.0
 40
2.0
 40
2.0
 40
2.0
 40
3.0
 40
3.0
 40
3.0
 40
4.0
 40
4.0
 40
4.0
 40
5.0
 40
5.0
 40
5.0
 40
6.0
 40
6.0
 40
6.0
 40
7.0
 40
7.0
 40
7.0
 40
8.0
 40
8.0
 40
8.0
 40
8.0
 10
185.0150337257041
 20
-89.4223114199238
 30
0.0
 10
185.0150337257041
 20
-89.4223114199238
 30
0.0
 10
183.6392003927142
 20
-89.4223114199238
 30
0.0
 10
183.6392003927142
 20
-89.4223114199238
 30
0.0
 10
181.9149213804439
 20
-89.4223114199238
 30
0.0
 10
180.5171170601619
 20
-88.02450709964053
 30
0.0
 10
180.5171170601619
 20
-86.30022808737087
 30
0.0
 10
180.5171170601619
 20
-86.30022808737087
 30
0.0
 10
180.5171170601619
 20
-84.92439475438162
 30
0.0
 10
180.5171170601619
 20
-84.92439475438162
 30
0.0
 10
180.5171170601619
 20
-83.20011574211196
 30
0.0
 10
181.9149213804439
 20
-81.80231142182868
 30
0.0
 10
183.6392003927142
 20
-81.80231142182868
 30
0.0
 10
183.6392003927142
 20
-81.80231142182868
 30
0.0
 10
185.0150337257041
 20
-81.80231142182868
 30
0.0
 10
185.0150337257041
 20
-81.80231142182868
 30
0.0
 10
186.7393127379731
 20
-81.80231142182868
 30
0.0
 10
188.1371170582564
 20
-83.20011574211196
 30
0.0
 10
188.1371170582564
 20
-84.92439475438162
 30
0.0
 10
188.1371170582564
 20
-84.92439475438162
 30
0.0
 10
188.1371170582564
 20
-86.30022808737087
 30
0.0
 10
188.1371170582564
 20
-86.30022808737087
 30
0.0
 10
188.1371170582564
 20
-88.02450709964053
 30
0.0
 10
186.7393127379731
 20
-89.4223114199238
 30
0.0
 10
185.0150337257041
 20
-89.4223114199238
 30
0.0
  0
SPLINE
  5
7B
330
41
100
AcDbEntity
  8
Layer 1
 62
     7
370
    35
100
AcDbSpline
210
0.0
220
0.0
230
1.0
 70
    11
 71
     3
 72
    29
 73
    25
 74
     0
 42
0.0000000001
 43
0.0000000001
 12
1.0
 22
0.0
 32
0.0
 13
1.0
 23
0.0
 33
0.0
 40
0.0
 40
0.0
 40
0.0
 40
0.0
 40
1.0
 40
1.0
 40
1.0
 40
2.0
 40
2.0
 40
2.0
 40
3.0
 40
3.0
 40
3.0
 40
4.0
 40
4.0
 40
4.0
 40
5.0
 40
5.0
 40
5.0
 40
6.0
 40
6.0
 40
6.0
 40
7.0
 40
7.0
 40
7.0
 40
8.0
 40
8.0
 40
8.0
 40
8.0
 10
193.9050337234805
 20
-89.4223114199238
 30
0.0
 10
193.9050337234805
 20
-89.4223114199238
 30
0.0
 10
192.5292003904919
 20
-89.4223114199238
 30
0.0
 10
192.5292003904919
 20
-89.4223114199238
 30
0.0
 10
190.8049213782216
 20
-89.4223114199238
 30
0.0
 10
189.4071170579384
 20
-88.02450709964053
 30
0.0
 10
189.4071170579384
 20
-86.30022808737087
 30
0.0
 10
189.4071170579384
 20
-86.30022808737087
 30
0.0
 10
189.4071170579384
 20
-84.92439475438162
 30
0.0
 10
189.4071170579384
 20
-84.92439475438162
 30
0.0
 10
189.4071170579384
 20
-83.20011574211196
 30
0.0
 10
190.8049213782216
 20
-81.80231142182868
 30
0.0
 10
192.5292003904919
 20
-81.80231142182868
 30
0.0
 10
192.5292003904919
 20
-81.80231142182868
 30
0.0
 10
193.9050337234805
 20
-81.80231142182868
 30
0.0
 10
193.9050337234805
 20
-81.80231142182868
 30
0.0
 10
195.6293127357508
 20
-81.80231142182868
 30
0.0
 10
197.0271170560341
 20
-83.20011574211196
 30
0.0
 10
197.0271170560341
 20
-84.92439475438162
 30
0.0
 10
197.0271170560341
 20
-84.92439475438162
 30
0.0
 10
197.0271170560341
 20
-86.30022808737087
 30
0.0
 10
197.0271170560341
 20
-86.30022808737087
 30
0.0
 10
197.0271170560341
 20
-88.02450709964053
 30
0.0
 10
195.6293127357508
 20
-89.4223114199238
 30
0.0
 10
193.9050337234805
 20
-89.4223114199238
 30
0.0
  0
SPLINE
  5
7C
330
41
100
AcDbEntity
  8
Layer 1
 62
     7
370
    35
100
AcDbSpline
210
0.0
220
0.0
230
1.0
 70
    11
 71
     3
 72
    29
 73
    25
 74
     0
 42
0.0000000001
 43
0.0000000001
 12
1.0
 22
0.0
 32
0.0
 13
1.0
 23
0.0
 33
0.0
 40
0.0
 40
0.0
 40
0.0
 40
0.0
 40
1.0
 40
1.0
 40
1.0
 40
2.0
 40
2.0
 40
2.0
 40
3.0
 40
3.0
 40
3.0
 40
4.0
 40
4.0
 40
4.0
 40
5.0
 40
5.0
 40
5.0
 40
6.0
 40
6.0
 40
6.0
 40
7.0
 40
7.0
 40
7.0
 40
8.0
 40
8.0
 40
8.0
 40
8.0
 10
202.7950337212583
 20
-89.4223114199238
 30
0.0
 10
202.7950337212583
 20
-89.4223114199238
 30
0.0
 10
201.4192003882684
 20
-89.4223114199238
 30
0.0
 10
201.4192003882684
 20
-89.4223114199238
 30
0.0
 10
199.6949213759994
 20
-89.4223114199238
 30
0.0
 10
198.2971170557161
 20
-88.02450709964053
 30
0.0
 10
198.2971170557161
 20
-86.30022808737087
 30
0.0
 10
198.2971170557161
 20
-86.30022808737087
 30
0.0
 10
198.2971170557161
 20
-84.92439475438162
 30
0.0
 10
198.2971170557161
 20
-84.92439475438162
 30
0.0
 10
198.2971170557161
 20
-83.20011574211196
 30
0.0
 10
199.6949213759994
 20
-81.80231142182868
 30
0.0
 10
201.4192003882684
 20
-81.80231142182868
 30
0.0
 10
201.4192003882684
 20
-81.80231142182868
 30
0.0
 10
202.7950337212583
 20
-81.80231142182868
 30
0.0
 10
202.7950337212583
 20
-81.80231142182868
 30
0.0
 10
204.5193127335286
 20
-81.80231142182868
 30
0.0
 10
205.9171170538106
 20
-83.20011574211196
 30
0.0
 10
205.9171170538106
 20
-84.92439475438162
 30
0.0
 10
205.9171170538106
 20
-84.92439475438162
 30
0.0
 10
205.9171170538106
 20
-86.30022808737087
 30
0.0
 10
205.9171170538106
 20
-86.30022808737087
 30
0.0
 10
205.9171170538106
 20
-88.02450709964053
 30
0.0
 10
204.5193127335286
 20
-89.4223114199238
 30
0.0
 10
202.7950337212583
 20
-89.4223114199238
 30
0.0
  0
SPLINE
  5
7D
330
41
100
AcDbEntity
  8
Layer 1
 62
     7
370
    35
100
AcDbSpline
210
0.0
220
0.0
230
1.0
 70
    11
 71
     3
 72
    29
 73
    25
 74
     0
 42
0.0000000001
 43
0.0000000001
 12
1.0
 22
0.0
 32
0.0
 13
1.0
 23
0.0
 33
0.0
 40
0.0
 40
0.0
 40
0.0
 40
0.0
 40
1.0
 40
1.0
 40
1.0
 40
2.0
 40
2.0
 40
2.0
 40
3.0
 40
3.0
 40
3.0
 40
4.0
 40
4.0
 40
4.0
 40
5.0
 40
5.0
 40
5.0
 40
6.0
 40
6.0
 40
6.0
 40
7.0
 40
7.0
 40
7.0
 40
8.0
 40
8.0
 40
8.0
 40
8.0
 10
211.6850337190361
 20
-89.4223114199238
 30
0.0
 10
211.6850337190361
 20
-89.4223114199238
 30
0.0
 10
210.3092003860462
 20
-89.4223114199238
 30
0.0
 10
210.3092003860462
 20
-89.4223114199238
 30
0.0
 10
208.5849213737771
 20
-89.4223114199238
 30
0.0
 10
207.1871170534939
 20
-88.02450709964053
 30
0.0
 10
207.1871170534939
 20
-86.30022808737087
 30
0.0
 10
207.1871170534939
 20
-86.30022808737087
 30
0.0
 10
207.1871170534939
 20
-84.92439475438162
 30
0.0
 10
207.1871170534939
 20
-84.92439475438162
 30
0.0
 10
207.1871170534939
 20
-83.20011574211196
 30
0.0
 10
208.5849213737771
 20
-81.80231142182868
 30
0.0
 10
210.3092003860462
 20
-81.80231142182868
 30
0.0
 10
210.3092003860462
 20
-81.80231142182868
 30
0.0
 10
211.6850337190361
 20
-81.80231142182868
 30
0.0
 10
211.6850337190361
 20
-81.80231142182868
 30
0.0
 10
213.4093127313064
 20
-81.80231142182868
 30
0.0
 10
214.8071170515884
 20
-83.20011574211196
 30
0.0
 10
214.8071170515884
 20
-84.92439475438162
 30
0.0
 10
214.8071170515884
 20
-84.92439475438162
 30
0.0
 10
214.8071170515884
 20
-86.30022808737087
 30
0.0
 10
214.8071170515884
 20
-86.30022808737087
 30
0.0
 10
214.8071170515884
 20
-88.02450709964053
 30
0.0
 10
213.4093127313064
 20
-89.4223114199238
 30
0.0
 10
211.6850337190361
 20
-89.4223114199238
 30
0.0
  0
SPLINE
  5
7E
330
41
100
AcDbEntity
  8
Layer 1
 62
     7
370
    35
100
AcDbSpline
210
0.0
220
0.0
230
1.0
 70
    11
 71
     3
 72
    29
 73
    25
 74
     0
 42
0.0000000001
 43
0.0000000001
 12
1.0
 22
0.0
 32
0.0
 13
1.0
 23
0.0
 33
0.0
 40
0.0
 40
0.0
 40
0.0
 40
0.0
 40
1.0
 40
1.0
 40
1.0
 40
2.0
 40
2.0
 40
2.0
 40
3.0
 40
3.0
 40
3.0
 40
4.0
 40
4.0
 40
4.0
 40
5.0
 40
5.0
 40
5.0
 40
6.0
 40
6.0
 40
6.0
 40
7.0
 40
7.0
 40
7.0
 40
8.0
 40
8.0
 40
8.0
 40
8.0
 10
175.0360437197907
 20
-133.8723114088947
 30
0.0
 10
175.0360437197907
 20
-133.8723114088947
 30
0.0
 10
102.9585551582613
 20
-133.8723114088947
 30
0.0
 10
102.9585551582613
 20
-133.8723114088947
 30
0.0
 10
100.9835443878351
 20
-133.8723114088947
 30
0.0
 10
99.38248181741464
 20
-132.271248838474
 30
0.0
 10
99.38248181741464
 20
-130.2962380680478
 30
0.0
 10
99.38248181741464
 20
-130.2962380680478
 30
0.0
 10
99.38248181741464
 20
-129.8283847516459
 30
0.0
 10
99.38248181741464
 20
-129.8283847516459
 30
0.0
 10
99.38248181741464
 20
-127.8533739812204
 30
0.0
 10
100.9835443878351
 20
-126.2523114107996
 30
0.0
 10
102.9585551582613
 20
-126.2523114107996
 30
0.0
 10
102.9585551582613
 20
-126.2523114107996
 30
0.0
 10
175.0360437197907
 20
-126.2523114107996
 30
0.0
 10
175.0360437197907
 20
-126.2523114107996
 30
0.0
 10
177.0110544902168
 20
-126.2523114107996
 30
0.0
 10
178.6121170606376
 20
-127.8533739812204
 30
0.0
 10
178.6121170606376
 20
-129.8283847516459
 30
0.0
 10
178.6121170606376
 20
-129.8283847516459
 30
0.0
 10
178.6121170606376
 20
-130.2962380680478
 30
0.0
 10
178.6121170606376
 20
-130.2962380680478
 30
0.0
 10
178.6121170606376
 20
-132.271248838474
 30
0.0
 10
177.0110544902168
 20
-133.8723114088947
 30
0.0
 10
175.0360437197907
 20
-133.8723114088947
 30
0.0
  0
SPLINE
  5
7F
330
41
100
AcDbEntity
  8
Layer 1
 62
     7
370
    35
100
AcDbSpline
210
0.0
220
0.0
230
1.0
 70
    11
 71
     3
 72
    29
 73
    25
 74
     0
 42
0.0000000001
 43
0.0000000001
 12
1.0
 22
0.0
 32
0.0
 13
1.0
 23
0.0
 33
0.0
 40
0.0
 40
0.0
 40
0.0
 40
0.0
 40
1.0
 40
1.0
 40
1.0
 40
2.0
 40
2.0
 40
2.0
 40
3.0
 40
3.0
 40
3.0
 40
4.0
 40
4.0
 40
4.0
 40
5.0
 40
5.0
 40
5.0
 40
6.0
 40
6.0
 40
6.0
 40
7.0
 40
7.0
 40
7.0
 40
8.0
 40
8.0
 40
8.0
 40
8.0
 10
69.52015512871432
 20
-116.0923114133559
 30
0.0
 10
69.52015512871432
 20
-116.0923114133559
 30
0.0
 10
68.14432179572475
 20
-116.0923114133559
 30
0.0
 10
68.14432179572475
 20
-116.0923114133559
 30
0.0
 10
66.42004278345574
 20
-116.0923114133559
 30
0.0
 10
65.02223846317213
 20
-114.6945070930726
 30
0.0
 10
65.02223846317213
 20
-112.970228080803
 30
0.0
 10
65.02223846317213
 20
-112.970228080803
 30
0.0
 10
65.02223846317213
 20
-111.5943947478137
 30
0.0
 10
65.02223846317213
 20
-111.5943947478137
 30
0.0
 10
65.02223846317213
 20
-109.8701157355441
 30
0.0
 10
66.42004278345574
 20
-108.4723114152608
 30
0.0
 10
68.14432179572475
 20
-108.4723114152608
 30
0.0
 10
68.14432179572475
 20
-108.4723114152608
 30
0.0
 10
69.52015512871432
 20
-108.4723114152608
 30
0.0
 10
69.52015512871432
 20
-108.4723114152608
 30
0.0
 10
71.24443414098494
 20
-108.4723114152608
 30
0.0
 10
72.64223846126694
 20
-109.8701157355441
 30
0.0
 10
72.64223846126694
 20
-111.5943947478137
 30
0.0
 10
72.64223846126694
 20
-111.5943947478137
 30
0.0
 10
72.64223846126694
 20
-112.970228080803
 30
0.0
 10
72.64223846126694
 20
-112.970228080803
 30
0.0
 10
72.64223846126694
 20
-114.6945070930726
 30
0.0
 10
71.24443414098494
 20
-116.0923114133559
 30
0.0
 10
69.52015512871432
 20
-116.0923114133559
 30
0.0
  0
SPLINE
  5
80
330
41
100
AcDbEntity
  8
Layer 1
 62
     7
370
    35
100
AcDbSpline
210
0.0
220
0.0
230
1.0
 70
    11
 71
     3
 72
    29
 73
    25
 74
     0
 42
0.0000000001
 43
0.0000000001
 12
1.0
 22
0.0
 32
0.0
 13
1.0
 23
0.0
 33
0.0
 40
0.0
 40
0.0
 40
0.0
 40
0.0
 40
1.0
 40
1.0
 40
1.0
 40
2.0
 40
2.0
 40
2.0
 40
3.0
 40
3.0
 40
3.0
 40
4.0
 40
4.0
 40
4.0
 40
5.0
 40
5.0
 40
5.0
 40
6.0
 40
6.0
 40
6.0
 40
7.0
 40
7.0
 40
7.0
 40
8.0
 40
8.0
 40
8.0
 40
8.0
 10
69.520155128714
 20
-124.982311411133
 30
0.0
 10
69.520155128714
 20
-124.982311411133
 30
0.0
 10
68.14432179572411
 20
-124.982311411133
 30
0.0
 10
68.14432179572411
 20
-124.982311411133
 30
0.0
 10
66.42004278345509
 20
-124.982311411133
 30
0.0
 10
65.02223846317182
 20
-123.5845070908497
 30
0.0
 10
65.02223846317182
 20
-121.8602280785801
 30
0.0
 10
65.02223846317182
 20
-121.8602280785801
 30
0.0
 10
65.02223846317182
 20
-120.4843947455908
 30
0.0
 10
65.02223846317182
 20
-120.4843947455908
 30
0.0
 10
65.02223846317182
 20
-118.7601157333212
 30
0.0
 10
66.42004278345509
 20
-117.3623114130379
 30
0.0
 10
68.14432179572411
 20
-117.3623114130379
 30
0.0
 10
68.14432179572411
 20
-117.3623114130379
 30
0.0
 10
69.520155128714
 20
-117.3623114130379
 30
0.0
 10
69.520155128714
 20
-117.3623114130379
 30
0.0
 10
71.24443414098462
 20
-117.3623114130379
 30
0.0
 10
72.6422384612663
 20
-118.7601157333212
 30
0.0
 10
72.6422384612663
 20
-120.4843947455908
 30
0.0
 10
72.6422384612663
 20
-120.4843947455908
 30
0.0
 10
72.6422384612663
 20
-121.8602280785801
 30
0.0
 10
72.6422384612663
 20
-121.8602280785801
 30
0.0
 10
72.6422384612663
 20
-123.5845070908497
 30
0.0
 10
71.24443414098462
 20
-124.982311411133
 30
0.0
 10
69.520155128714
 20
-124.982311411133
 30
0.0
  0
SPLINE
  5
81
330
41
100
AcDbEntity
  8
Layer 1
 62
     7
370
    35
100
AcDbSpline
210
0.0
220
0.0
230
1.0
 70
    11
 71
     3
 72
    29
 73
    25
 74
     0
 42
0.0000000001
 43
0.0000000001
 12
1.0
 22
0.0
 32
0.0
 13
1.0
 23
0.0
 33
0.0
 40
0.0
 40
0.0
 40
0.0
 40
0.0
 40
1.0
 40
1.0
 40
1.0
 40
2.0
 40
2.0
 40
2.0
 40
3.0
 40
3.0
 40
3.0
 40
4.0
 40
4.0
 40
4.0
 40
5.0
 40
5.0
 40
5.0
 40
6.0
 40
6.0
 40
6.0
 40
7.0
 40
7.0
 40
7.0
 40
8.0
 40
8.0
 40
8.0
 40
8.0
 10
72.5364051279616
 20
-92.7782736440617
 30
0.0
 10
72.5364051279616
 20
-92.7782736440617
 30
0.0
 10
72.5364051279616
 20
-105.309070675312
 30
0.0
 10
72.5364051279616
 20
-105.309070675312
 30
0.0
 10
72.5364051279616
 20
-106.3546786639195
 30
0.0
 10
71.6887723763026
 20
-107.2023114155788
 30
0.0
 10
70.64316438769478
 20
-107.2023114155788
 30
0.0
 10
70.64316438769478
 20
-107.2023114155788
 30
0.0
 10
66.87225147615061
 20
-107.2023114155788
 30
0.0
 10
66.87225147615061
 20
-107.2023114155788
 30
0.0
 10
65.82664348754247
 20
-107.2023114155788
 30
0.0
 10
64.97901073588314
 20
-106.3546786639195
 30
0.0
 10
64.97901073588314
 20
-105.3090706753113
 30
0.0
 10
64.97901073588314
 20
-105.3090706753113
 30
0.0
 10
64.97901073588314
 20
-92.7782736440617
 30
0.0
 10
64.97901073588314
 20
-92.7782736440617
 30
0.0
 10
64.97901073588314
 20
-91.7326656554542
 30
0.0
 10
65.82664348754214
 20
-90.88503290379487
 30
0.0
 10
66.87225147614996
 20
-90.88503290379487
 30
0.0
 10
66.87225147614996
 20
-90.88503290379487
 30
0.0
 10
70.64316438769478
 20
-90.88503290379487
 30
0.0
 10
70.64316438769478
 20
-90.88503290379487
 30
0.0
 10
71.6887723763026
 20
-90.88503290379487
 30
0.0
 10
72.5364051279616
 20
-91.7326656554542
 30
0.0
 10
72.5364051279616
 20
-92.7782736440617
 30
0.0
  0
SPLINE
  5
82
330
41
100
AcDbEntity
  8
Layer 1
 62
     7
370
    35
100
AcDbSpline
210
0.0
220
0.0
230
1.0
 70
    11
 71
     3
 72
    29
 73
    25
 74
     0
 42
0.0000000001
 43
0.0000000001
 12
1.0
 22
0.0
 32
0.0
 13
1.0
 23
0.0
 33
0.0
 40
0.0
 40
0.0
 40
0.0
 40
0.0
 40
1.0
 40
1.0
 40
1.0
 40
2.0
 40
2.0
 40
2.0
 40
3.0
 40
3.0
 40
3.0
 40
4.0
 40
4.0
 40
4.0
 40
5.0
 40
5.0
 40
5.0
 40
6.0
 40
6.0
 40
6.0
 40
7.0
 40
7.0
 40
7.0
 40
8.0
 40
8.0
 40
8.0
 40
8.0
 10
139.6478115148238
 20
-116.092311413352
 30
0.0
 10
139.6478115148238
 20
-116.092311413352
 30
0.0
 10
138.271978181834
 20
-116.092311413352
 30
0.0
 10
138.271978181834
 20
-116.092311413352
 30
0.0
 10
136.5476991695649
 20
-116.092311413352
 30
0.0
 10
135.1498948492817
 20
-114.6945070930688
 30
0.0
 10
135.1498948492817
 20
-112.9702280807991
 30
0.0
 10
135.1498948492817
 20
-112.9702280807991
 30
0.0
 10
135.1498948492817
 20
-111.5943947478099
 30
0.0
 10
135.1498948492817
 20
-111.5943947478099
 30
0.0
 10
135.1498948492817
 20
-109.8701157355402
 30
0.0
 10
136.5476991695649
 20
-108.4723114152569
 30
0.0
 10
138.271978181834
 20
-108.4723114152569
 30
0.0
 10
138.271978181834
 20
-108.4723114152569
 30
0.0
 10
139.6478115148238
 20
-108.4723114152569
 30
0.0
 10
139.6478115148238
 20
-108.4723114152569
 30
0.0
 10
141.3720905270938
 20
-108.4723114152569
 30
0.0
 10
142.7698948473758
 20
-109.8701157355402
 30
0.0
 10
142.7698948473758
 20
-111.5943947478099
 30
0.0
 10
142.7698948473758
 20
-111.5943947478099
 30
0.0
 10
142.7698948473758
 20
-112.9702280807991
 30
0.0
 10
142.7698948473758
 20
-112.9702280807991
 30
0.0
 10
142.7698948473758
 20
-114.6945070930688
 30
0.0
 10
141.3720905270938
 20
-116.092311413352
 30
0.0
 10
139.6478115148238
 20
-116.092311413352
 30
0.0
  0
SPLINE
  5
83
330
41
100
AcDbEntity
  8
Layer 1
 62
     7
370
    35
100
AcDbSpline
210
0.0
220
0.0
230
1.0
 70
    11
 71
     3
 72
    29
 73
    25
 74
     0
 42
0.0000000001
 43
0.0000000001
 12
1.0
 22
0.0
 32
0.0
 13
1.0
 23
0.0
 33
0.0
 40
0.0
 40
0.0
 40
0.0
 40
0.0
 40
1.0
 40
1.0
 40
1.0
 40
2.0
 40
2.0
 40
2.0
 40
3.0
 40
3.0
 40
3.0
 40
4.0
 40
4.0
 40
4.0
 40
5.0
 40
5.0
 40
5.0
 40
6.0
 40
6.0
 40
6.0
 40
7.0
 40
7.0
 40
7.0
 40
8.0
 40
8.0
 40
8.0
 40
8.0
 10
148.4607974700916
 20
-116.0923114133559
 30
0.0
 10
148.4607974700916
 20
-116.0923114133559
 30
0.0
 10
147.0849641371005
 20
-116.0923114133559
 30
0.0
 10
147.0849641371005
 20
-116.0923114133559
 30
0.0
 10
145.3606851248314
 20
-116.0923114133559
 30
0.0
 10
143.9628774796244
 20
-114.6945070930726
 30
0.0
 10
143.9628774796244
 20
-112.970228080803
 30
0.0
 10
143.9628774796244
 20
-112.970228080803
 30
0.0
 10
143.9628774796244
 20
-111.5943947478137
 30
0.0
 10
143.9628774796244
 20
-111.5943947478137
 30
0.0
 10
143.9628774796244
 20
-109.8701157355441
 30
0.0
 10
145.3606851248314
 20
-108.4723114152608
 30
0.0
 10
147.0849641371005
 20
-108.4723114152608
 30
0.0
 10
147.0849641371005
 20
-108.4723114152608
 30
0.0
 10
148.4607974700916
 20
-108.4723114152608
 30
0.0
 10
148.4607974700916
 20
-108.4723114152608
 30
0.0
 10
150.1850764823594
 20
-108.4723114152608
 30
0.0
 10
151.5828808026433
 20
-109.8701157355441
 30
0.0
 10
151.5828808026433
 20
-111.5943947478137
 30
0.0
 10
151.5828808026433
 20
-111.5943947478137
 30
0.0
 10
151.5828808026433
 20
-112.970228080803
 30
0.0
 10
151.5828808026433
 20
-112.970228080803
 30
0.0
 10
151.5828808026433
 20
-114.6945070930726
 30
0.0
 10
150.1850764823594
 20
-116.0923114133559
 30
0.0
 10
148.4607974700916
 20
-116.0923114133559
 30
0.0
  0
SPLINE
  5
84
330
41
100
AcDbEntity
  8
Layer 1
 62
     7
370
    35
100
AcDbSpline
210
0.0
220
0.0
230
1.0
 70
    11
 71
     3
 72
    29
 73
    25
 74
     0
 42
0.0000000001
 43
0.0000000001
 12
1.0
 22
0.0
 32
0.0
 13
1.0
 23
0.0
 33
0.0
 40
0.0
 40
0.0
 40
0.0
 40
0.0
 40
1.0
 40
1.0
 40
1.0
 40
2.0
 40
2.0
 40
2.0
 40
3.0
 40
3.0
 40
3.0
 40
4.0
 40
4.0
 40
4.0
 40
5.0
 40
5.0
 40
5.0
 40
6.0
 40
6.0
 40
6.0
 40
7.0
 40
7.0
 40
7.0
 40
8.0
 40
8.0
 40
8.0
 40
8.0
 10
157.3507974678675
 20
-116.0923114133559
 30
0.0
 10
157.3507974678675
 20
-116.0923114133559
 30
0.0
 10
155.9749641348789
 20
-116.0923114133559
 30
0.0
 10
155.9749641348789
 20
-116.0923114133559
 30
0.0
 10
154.2506851226086
 20
-116.0923114133559
 30
0.0
 10
152.8528808023253
 20
-114.6945070930726
 30
0.0
 10
152.8528808023253
 20
-112.970228080803
 30
0.0
 10
152.8528808023253
 20
-112.970228080803
 30
0.0
 10
152.8528808023253
 20
-111.5943947478137
 30
0.0
 10
152.8528808023253
 20
-111.5943947478137
 30
0.0
 10
152.8528808023253
 20
-109.8701157355441
 30
0.0
 10
154.2506851226086
 20
-108.4723114152608
 30
0.0
 10
155.9749641348789
 20
-108.4723114152608
 30
0.0
 10
155.9749641348789
 20
-108.4723114152608
 30
0.0
 10
157.3507974678675
 20
-108.4723114152608
 30
0.0
 10
157.3507974678675
 20
-108.4723114152608
 30
0.0
 10
159.0750764801378
 20
-108.4723114152608
 30
0.0
 10
160.472880800421
 20
-109.8701157355441
 30
0.0
 10
160.472880800421
 20
-111.5943947478137
 30
0.0
 10
160.472880800421
 20
-111.5943947478137
 30
0.0
 10
160.472880800421
 20
-112.970228080803
 30
0.0
 10
160.472880800421
 20
-112.970228080803
 30
0.0
 10
160.472880800421
 20
-114.6945070930726
 30
0.0
 10
159.0750764801378
 20
-116.0923114133559
 30
0.0
 10
157.3507974678675
 20
-116.0923114133559
 30
0.0
  0
SPLINE
  5
85
330
41
100
AcDbEntity
  8
Layer 1
 62
     7
370
    35
100
AcDbSpline
210
0.0
220
0.0
230
1.0
 70
    11
 71
     3
 72
    44
 73
    40
 74
     0
 42
0.0000000001
 43
0.0000000001
 12
1.0
 22
0.0
 32
0.0
 13
1.0
 23
0.0
 33
0.0
 40
0.0
 40
0.0
 40
0.0
 40
0.0
 40
1.0
 40
1.0
 40
1.0
 40
2.0
 40
2.0
 40
2.0
 40
3.0
 40
3.0
 40
3.0
 40
4.0
 40
4.0
 40
4.0
 40
5.0
 40
5.0
 40
5.0
 40
6.0
 40
6.0
 40
6.0
 40
7.0
 40
7.0
 40
7.0
 40
8.0
 40
8.0
 40
8.0
 40
9.0
 40
9.0
 40
9.0
 40
10.0
 40
10.0
 40
10.0
 40
11.0
 40
11.0
 40
11.0
 40
12.0
 40
12.0
 40
12.0
 40
13.0
 40
13.0
 40
13.0
 40
13.0
 10
199.6443982414043
 20
-99.58231520812309
 30
0.0
 10
199.6443982414043
 20
-99.58231520812309
 30
0.0
 10
197.4437143091203
 20
-99.58231520812309
 30
0.0
 10
197.4437143091203
 20
-99.58231520812309
 30
0.0
 10
196.0835906115436
 20
-99.58231520812309
 30
0.0
 10
194.9810093333362
 20
-100.6848964863305
 30
0.0
 10
194.9810093333362
 20
-102.0450201839072
 30
0.0
 10
194.9810093333362
 20
-102.0450201839072
 30
0.0
 10
194.9810093333362
 20
-108.4722979804232
 30
0.0
 10
194.9810093333362
 20
-108.4722979804232
 30
0.0
 10
194.9810093333362
 20
-108.4722979804232
 30
0.0
 10
191.3460460231555
 20
-108.4722979804232
 30
0.0
 10
191.3460460231555
 20
-108.4722979804232
 30
0.0
 10
189.9245134985543
 20
-108.4722979804232
 30
0.0
 10
188.7721075268915
 20
-109.624703952086
 30
0.0
 10
188.7721075268915
 20
-111.0462364766872
 30
0.0
 10
188.7721075268915
 20
-111.0462364766872
 30
0.0
 10
188.7721075268915
 20
-113.1371725859193
 30
0.0
 10
188.7721075268915
 20
-113.1371725859193
 30
0.0
 10
188.7721075268915
 20
-114.5587266423673
 30
0.0
 10
189.9245134985543
 20
-115.7111110821833
 30
0.0
 10
191.3460460231555
 20
-115.7111110821833
 30
0.0
 10
191.3460460231555
 20
-115.7111110821833
 30
0.0
 10
199.5331862527711
 20
-115.7111110821833
 30
0.0
 10
199.5331862527711
 20
-115.7111110821833
 30
0.0
 10
200.9547187773723
 20
-115.7111110821833
 30
0.0
 10
202.1071247490351
 20
-114.5587266423673
 30
0.0
 10
202.1071247490351
 20
-113.1371725859193
 30
0.0
 10
202.1071247490351
 20
-113.1371725859193
 30
0.0
 10
202.1071247490351
 20
-111.1704321689305
 30
0.0
 10
202.1071247490351
 20
-111.1704321689305
 30
0.0
 10
202.1071247490351
 20
-111.1704321689305
 30
0.0
 10
202.1071247490351
 20
-111.0462364766872
 30
0.0
 10
202.1071247490351
 20
-111.0462364766872
 30
0.0
 10
202.1071247490351
 20
-111.0462364766872
 30
0.0
 10
202.1071247490351
 20
-102.0450201839072
 30
0.0
 10
202.1071247490351
 20
-102.0450201839072
 30
0.0
 10
202.1071247490351
 20
-100.6848964863305
 30
0.0
 10
201.0045219389809
 20
-99.58231520812309
 30
0.0
 10
199.6443982414043
 20
-99.58231520812309
 30
0.0
  0
SPLINE
  5
86
330
41
100
AcDbEntity
  8
Layer 1
 62
     7
370
    35
100
AcDbSpline
210
0.0
220
0.0
230
1.0
 70
    11
 71
     3
 72
    29
 73
    25
 74
     0
 42
0.0000000001
 43
0.0000000001
 12
1.0
 22
0.0
 32
0.0
 13
1.0
 23
0.0
 33
0.0
 40
0.0
 40
0.0
 40
0.0
 40
0.0
 40
1.0
 40
1.0
 40
1.0
 40
2.0
 40
2.0
 40
2.0
 40
3.0
 40
3.0
 40
3.0
 40
4.0
 40
4.0
 40
4.0
 40
5.0
 40
5.0
 40
5.0
 40
6.0
 40
6.0
 40
6.0
 40
7.0
 40
7.0
 40
7.0
 40
8.0
 40
8.0
 40
8.0
 40
8.0
 10
85.95503375046675
 20
-133.8723114088947
 30
0.0
 10
85.95503375046675
 20
-133.8723114088947
 30
0.0
 10
84.57920041747751
 20
-133.8723114088947
 30
0.0
 10
84.57920041747751
 20
-133.8723114088947
 30
0.0
 10
82.85492140520752
 20
-133.8723114088947
 30
0.0
 10
81.45711708492456
 20
-132.4745070886115
 30
0.0
 10
81.45711708492456
 20
-130.7502280763418
 30
0.0
 10
81.45711708492456
 20
-130.7502280763418
 30
0.0
 10
81.45711708492456
 20
-129.3743947433526
 30
0.0
 10
81.45711708492456
 20
-129.3743947433526
 30
0.0
 10
81.45711708492456
 20
-127.6501157310829
 30
0.0
 10
82.85492140520752
 20
-126.2523114107996
 30
0.0
 10
84.57920041747751
 20
-126.2523114107996
 30
0.0
 10
84.57920041747751
 20
-126.2523114107996
 30
0.0
 10
85.95503375046675
 20
-126.2523114107996
 30
0.0
 10
85.95503375046675
 20
-126.2523114107996
 30
0.0
 10
87.67931276273673
 20
-126.2523114107996
 30
0.0
 10
89.07711708301969
 20
-127.6501157310829
 30
0.0
 10
89.07711708301969
 20
-129.3743947433526
 30
0.0
 10
89.07711708301969
 20
-129.3743947433526
 30
0.0
 10
89.07711708301969
 20
-130.7502280763418
 30
0.0
 10
89.07711708301969
 20
-130.7502280763418
 30
0.0
 10
89.07711708301969
 20
-132.4745070886115
 30
0.0
 10
87.67931276273673
 20
-133.8723114088947
 30
0.0
 10
85.95503375046675
 20
-133.8723114088947
 30
0.0
  0
SPLINE
  5
87
330
41
100
AcDbEntity
  8
Layer 1
 62
     7
370
    35
100
AcDbSpline
210
0.0
220
0.0
230
1.0
 70
    11
 71
     3
 72
    29
 73
    25
 74
     0
 42
0.0000000001
 43
0.0000000001
 12
1.0
 22
0.0
 32
0.0
 13
1.0
 23
0.0
 33
0.0
 40
0.0
 40
0.0
 40
0.0
 40
0.0
 40
1.0
 40
1.0
 40
1.0
 40
2.0
 40
2.0
 40
2.0
 40
3.0
 40
3.0
 40
3.0
 40
4.0
 40
4.0
 40
4.0
 40
5.0
 40
5.0
 40
5.0
 40
6.0
 40
6.0
 40
6.0
 40
7.0
 40
7.0
 40
7.0
 40
8.0
 40
8.0
 40
8.0
 40
8.0
 10
94.9903984851794
 20
-133.8723114088947
 30
0.0
 10
94.9903984851794
 20
-133.8723114088947
 30
0.0
 10
93.61456515219015
 20
-133.8723114088947
 30
0.0
 10
93.61456515219015
 20
-133.8723114088947
 30
0.0
 10
91.89028613992018
 20
-133.8723114088947
 30
0.0
 10
90.4924818196372
 20
-132.4745070886115
 30
0.0
 10
90.4924818196372
 20
-130.7502280763418
 30
0.0
 10
90.4924818196372
 20
-130.7502280763418
 30
0.0
 10
90.4924818196372
 20
-129.3743947433526
 30
0.0
 10
90.4924818196372
 20
-129.3743947433526
 30
0.0
 10
90.4924818196372
 20
-127.6501157310829
 30
0.0
 10
91.89028613992018
 20
-126.2523114107996
 30
0.0
 10
93.61456515219015
 20
-126.2523114107996
 30
0.0
 10
93.61456515219015
 20
-126.2523114107996
 30
0.0
 10
94.9903984851794
 20
-126.2523114107996
 30
0.0
 10
94.9903984851794
 20
-126.2523114107996
 30
0.0
 10
96.71467749744937
 20
-126.2523114107996
 30
0.0
 10
98.11248181773234
 20
-127.6501157310829
 30
0.0
 10
98.11248181773234
 20
-129.3743947433526
 30
0.0
 10
98.11248181773234
 20
-129.3743947433526
 30
0.0
 10
98.11248181773234
 20
-130.7502280763418
 30
0.0
 10
98.11248181773234
 20
-130.7502280763418
 30
0.0
 10
98.11248181773234
 20
-132.4745070886115
 30
0.0
 10
96.71467749744937
 20
-133.8723114088947
 30
0.0
 10
94.9903984851794
 20
-133.8723114088947
 30
0.0
  0
SPLINE
  5
88
330
41
100
AcDbEntity
  8
Layer 1
 62
     7
370
    35
100
AcDbSpline
210
0.0
220
0.0
230
1.0
 70
    11
 71
     3
 72
    29
 73
    25
 74
     0
 42
0.0000000001
 43
0.0000000001
 12
1.0
 22
0.0
 32
0.0
 13
1.0
 23
0.0
 33
0.0
 40
0.0
 40
0.0
 40
0.0
 40
0.0
 40
1.0
 40
1.0
 40
1.0
 40
2.0
 40
2.0
 40
2.0
 40
3.0
 40
3.0
 40
3.0
 40
4.0
 40
4.0
 40
4.0
 40
5.0
 40
5.0
 40
5.0
 40
6.0
 40
6.0
 40
6.0
 40
7.0
 40
7.0
 40
7.0
 40
8.0
 40
8.0
 40
8.0
 40
8.0
 10
184.5895640483403
 20
-133.5827603202746
 30
0.0
 10
184.5895640483403
 20
-133.5827603202746
 30
0.0
 10
183.2137307153511
 20
-133.5827603202746
 30
0.0
 10
183.2137307153511
 20
-133.5827603202746
 30
0.0
 10
181.4894517030808
 20
-133.5827603202746
 30
0.0
 10
180.0916473827982
 20
-132.1849559999913
 30
0.0
 10
180.0916473827982
 20
-130.4606769877216
 30
0.0
 10
180.0916473827982
 20
-130.4606769877216
 30
0.0
 10
180.0916473827982
 20
-129.0848436547324
 30
0.0
 10
180.0916473827982
 20
-129.0848436547324
 30
0.0
 10
180.0916473827982
 20
-127.3605646424627
 30
0.0
 10
181.4894517030808
 20
-125.9627603221794
 30
0.0
 10
183.2137307153511
 20
-125.9627603221794
 30
0.0
 10
183.2137307153511
 20
-125.9627603221794
 30
0.0
 10
184.5895640483403
 20
-125.9627603221794
 30
0.0
 10
184.5895640483403
 20
-125.9627603221794
 30
0.0
 10
186.31384306061
 20
-125.9627603221794
 30
0.0
 10
187.7116473808933
 20
-127.3605646424627
 30
0.0
 10
187.7116473808933
 20
-129.0848436547324
 30
0.0
 10
187.7116473808933
 20
-129.0848436547324
 30
0.0
 10
187.7116473808933
 20
-130.4606769877216
 30
0.0
 10
187.7116473808933
 20
-130.4606769877216
 30
0.0
 10
187.7116473808933
 20
-132.1849559999913
 30
0.0
 10
186.31384306061
 20
-133.5827603202746
 30
0.0
 10
184.5895640483403
 20
-133.5827603202746
 30
0.0
  0
SPLINE
  5
89
330
41
100
AcDbEntity
  8
Layer 1
 62
     7
370
    35
100
AcDbSpline
210
0.0
220
0.0
230
1.0
 70
    11
 71
     3
 72
    29
 73
    25
 74
     0
 42
0.0000000001
 43
0.0000000001
 12
1.0
 22
0.0
 32
0.0
 13
1.0
 23
0.0
 33
0.0
 40
0.0
 40
0.0
 40
0.0
 40
0.0
 40
1.0
 40
1.0
 40
1.0
 40
2.0
 40
2.0
 40
2.0
 40
3.0
 40
3.0
 40
3.0
 40
4.0
 40
4.0
 40
4.0
 40
5.0
 40
5.0
 40
5.0
 40
6.0
 40
6.0
 40
6.0
 40
7.0
 40
7.0
 40
7.0
 40
8.0
 40
8.0
 40
8.0
 40
8.0
 10
193.6249287830527
 20
-133.5827603202746
 30
0.0
 10
193.6249287830527
 20
-133.5827603202746
 30
0.0
 10
192.2490954500641
 20
-133.5827603202746
 30
0.0
 10
192.2490954500641
 20
-133.5827603202746
 30
0.0
 10
190.5248164377938
 20
-133.5827603202746
 30
0.0
 10
189.1270121175105
 20
-132.1849559999913
 30
0.0
 10
189.1270121175105
 20
-130.4606769877216
 30
0.0
 10
189.1270121175105
 20
-130.4606769877216
 30
0.0
 10
189.1270121175105
 20
-129.0848436547324
 30
0.0
 10
189.1270121175105
 20
-129.0848436547324
 30
0.0
 10
189.1270121175105
 20
-127.3605646424627
 30
0.0
 10
190.5248164377938
 20
-125.9627603221794
 30
0.0
 10
192.2490954500641
 20
-125.9627603221794
 30
0.0
 10
192.2490954500641
 20
-125.9627603221794
 30
0.0
 10
193.6249287830527
 20
-125.9627603221794
 30
0.0
 10
193.6249287830527
 20
-125.9627603221794
 30
0.0
 10
195.349207795323
 20
-125.9627603221794
 30
0.0
 10
196.7470121156063
 20
-127.3605646424627
 30
0.0
 10
196.7470121156063
 20
-129.0848436547324
 30
0.0
 10
196.7470121156063
 20
-129.0848436547324
 30
0.0
 10
196.7470121156063
 20
-130.4606769877216
 30
0.0
 10
196.7470121156063
 20
-130.4606769877216
 30
0.0
 10
196.7470121156063
 20
-132.1849559999913
 30
0.0
 10
195.349207795323
 20
-133.5827603202746
 30
0.0
 10
193.6249287830527
 20
-133.5827603202746
 30
0.0
  0
ENDBLK
  5
44
330
41
100
AcDbEntity
  8
0
100
AcDbBlockEnd
  0
ENDSEC
  0
SECTION
  2
ENTITIES
  0
INSERT
  5
42
330
1F
100
AcDbEntity
  8
Layer 1
100
AcDbBlockReference
  2
block 2
 10
0.0
 20
0.0
 30
0.0
  0
ENDSEC
  0
SECTION
  2
OBJECTS
  0
DICTIONARY
  5
C
330
0
100
AcDbDictionary
281
     1
  3
ACAD_GROUP
350
D
  3
ACAD_LAYOUT
350
1A
  3
ACAD_MATERIAL
350
3B
  3
ACAD_MLEADERSTYLE
350
AB
  3
ACAD_MLINESTYLE
350
17
  3
ACAD_PLOTSETTINGS
350
19
  3
ACAD_PLOTSTYLENAME
350
E
  3
ACAD_TABLESTYLE
350
AA
  3
ACAD_VISUALSTYLE
350
2A
  0
SUN
  5
3F
330
29
100
AcDbSun
 90
        1
290
     0
 63
     7
421
 16777215
 40
1.0
291
     1
 91
  2455826
 92
 54000000
292
     0
 70
     2
 71
   256
280
     1
  0
DICTIONARY
  5
D
102
{ACAD_REACTORS
330
C
102
}
330
C
100
AcDbDictionary
281
     1
  0
DICTIONARY
  5
1A
102
{ACAD_REACTORS
330
C
102
}
330
C
100
AcDbDictionary
281
     1
  3
Layout1
350
1E
  3
Layout2
350
26
  3
Model
350
22
  0
DICTIONARY
  5
3B
102
{ACAD_REACTORS
330
C
102
}
330
C
100
AcDbDictionary
281
     1
  3
ByBlock
350
3D
  3
ByLayer
350
3C
  3
Global
350
3E
  0
DICTIONARY
  5
AB
102
{ACAD_REACTORS
330
C
102
}
330
C
100
AcDbDictionary
281
     1
  0
DICTIONARY
  5
17
102
{ACAD_REACTORS
330
C
102
}
330
C
100
AcDbDictionary
281
     1
  3
Standard
350
18
  0
DICTIONARY
  5
19
102
{ACAD_REACTORS
330
C
102
}
330
C
100
AcDbDictionary
281
     1
  0
ACDBDICTIONARYWDFLT
  5
E
102
{ACAD_REACTORS
330
C
102
}
330
C
100
AcDbDictionary
281
     1
  3
Normal
350
F
100
AcDbDictionaryWithDefault
340
F
  0
DICTIONARY
  5
AA
102
{ACAD_REACTORS
330
C
102
}
330
C
100
AcDbDictionary
281
     1
  0
DICTIONARY
  5
2A
102
{ACAD_REACTORS
330
C
102
}
330
C
100
AcDbDictionary
281
     1
  3
2dWireframe
350
2F
  3
3D Hidden
350
31
  3
3dWireframe
350
30
  3
Basic
350
32
  3
Brighten
350
36
  3
ColorChange
350
3A
  3
Conceptual
350
34
  3
Dim
350
35
  3
Facepattern
350
39
  3
Flat
350
2B
  3
FlatWithEdges
350
2C
  3
Gouraud
350
2D
  3
GouraudWithEdges
350
2E
  3
Linepattern
350
38
  3
Realistic
350
33
  3
Thicken
350
37
  0
LAYOUT
  5
1E
102
{ACAD_REACTORS
330
1A
102
}
330
1A
100
AcDbPlotSettings
  1

  2
none_device
  4

  6

 40
0.0
 41
0.0
 42
0.0
 43
0.0
 44
0.0
 45
0.0
 46
0.0
 47
0.0
 48
0.0
 49
0.0
140
0.0
141
0.0
142
1.0
143
1.0
 70
   688
 72
     0
 73
     0
 74
     5
  7

 75
    16
 76
     0
 77
     2
 78
   300
147
1.0
148
0.0
149
0.0
100
AcDbLayout
  1
Layout1
 70
     1
 71
     1
 10
0.0
 20
0.0
 11
12.0
 21
9.0
 12
0.0
 22
0.0
 32
0.0
 14
1.000000000000000E+20
 24
1.000000000000000E+20
 34
1.000000000000000E+20
 15
-1.000000000000000E+20
 25
-1.000000000000000E+20
 35
-1.000000000000000E+20
146
0.0
 13
0.0
 23
0.0
 33
0.0
 16
1.0
 26
0.0
 36
0.0
 17
0.0
 27
1.0
 37
0.0
 76
     0
330
1B
  0
LAYOUT
  5
26
102
{ACAD_REACTORS
330
1A
102
}
330
1A
100
AcDbPlotSettings
  1

  2
none_device
  4

  6

 40
0.0
 41
0.0
 42
0.0
 43
0.0
 44
0.0
 45
0.0
 46
0.0
 47
0.0
 48
0.0
 49
0.0
140
0.0
141
0.0
142
1.0
143
1.0
 70
   688
 72
     0
 73
     0
 74
     5
  7

 75
    16
 76
     0
 77
     2
 78
   300
147
1.0
148
0.0
149
0.0
100
AcDbLayout
  1
Layout2
 70
     1
 71
     2
 10
0.0
 20
0.0
 11
0.0
 21
0.0
 12
0.0
 22
0.0
 32
0.0
 14
0.0
 24
0.0
 34
0.0
 15
0.0
 25
0.0
 35
0.0
146
0.0
 13
0.0
 23
0.0
 33
0.0
 16
1.0
 26
0.0
 36
0.0
 17
0.0
 27
1.0
 37
0.0
 76
     0
330
23
  0
LAYOUT
  5
22
102
{ACAD_REACTORS
330
1A
102
}
330
1A
100
AcDbPlotSettings
  1

  2
none_device
  4

  6

 40
0.0
 41
0.0
 42
0.0
 43
0.0
 44
0.0
 45
0.0
 46
0.0
 47
0.0
 48
0.0
 49
0.0
140
0.0
141
0.0
142
1.0
143
1.0
 70
  1712
 72
     0
 73
     0
 74
     0
  7

 75
     0
 76
     0
 77
     2
 78
   300
147
1.0
148
0.0
149
0.0
100
AcDbLayout
  1
Model
 70
     1
 71
     0
 10
0.0
 20
0.0
 11
12.0
 21
9.0
 12
0.0
 22
0.0
 32
0.0
 14
1.000000000000000E+20
 24
1.000000000000000E+20
 34
1.000000000000000E+20
 15
-1.000000000000000E+20
 25
-1.000000000000000E+20
 35
-1.000000000000000E+20
146
0.0
 13
0.0
 23
0.0
 33
0.0
 16
1.0
 26
0.0
 36
0.0
 17
0.0
 27
1.0
 37
0.0
 76
     0
330
1F
331
29
  0
MATERIAL
  5
3D
102
{ACAD_REACTORS
330
3B
102
}
330
3B
100
AcDbMaterial
  1
ByBlock
 72
     1
 94
      127
  0
MATERIAL
  5
3C
102
{ACAD_REACTORS
330
3B
102
}
330
3B
100
AcDbMaterial
  1
ByLayer
 72
     1
 94
      127
  0
MATERIAL
  5
3E
102
{ACAD_REACTORS
330
3B
102
}
330
3B
100
AcDbMaterial
  1
Global
 72
     1
 94
      127
  0
MLINESTYLE
  5
18
102
{ACAD_REACTORS
330
17
102
}
330
17
100
AcDbMlineStyle
  2
Standard
 70
     0
  3

 62
   256
 51
90.0
 52
90.0
 71
     2
 49
0.5
 62
   256
  6
BYLAYER
 49
-0.5
 62
   256
  6
BYLAYER
  0
ACDBPLACEHOLDER
  5
F
102
{ACAD_REACTORS
330
E
102
}
330
E
  0
VISUALSTYLE
  5
2F
102
{ACAD_REACTORS
330
2A
102
}
102
{ACAD_XDICTIONARY
360
92
102
}
330
2A
100
AcDbVisualStyle
  2
2dWireframe
 70
     4
 71
     0
 72
     2
 73
     0
 90
        0
 40
-0.6
 41
-30.0
 62
     5
 63
     7
421
 16777215
 74
     1
 91
        4
 64
     7
 65
   257
 75
     1
175
     1
 42
1.0
 92
        0
 66
   257
 43
1.0
 76
     1
 77
     6
 78
     2
 67
     7
 79
     5
170
     0
171
     0
290
     0
174
     0
 93
        1
 44
0.0
173
     0
291
     0
 45
0.0
  0
VISUALSTYLE
  5
31
102
{ACAD_REACTORS
330
2A
102
}
102
{ACAD_XDICTIONARY
360
96
102
}
330
2A
100
AcDbVisualStyle
  2
3D Hidden
 70
     6
 71
     1
 72
     2
 73
     2
 90
        0
 40
-0.6
 41
-30.0
 62
     5
 63
     7
421
 16777215
 74
     2
 91
        2
 64
     7
 65
   257
 75
     2
175
     1
 42
40.0
 92
        0
 66
   257
 43
1.0
 76
     1
 77
     6
 78
     2
 67
     7
 79
     3
170
     0
171
     0
290
     0
174
     0
 93
        1
 44
0.0
173
     0
291
     0
 45
0.0
  0
VISUALSTYLE
  5
30
102
{ACAD_REACTORS
330
2A
102
}
102
{ACAD_XDICTIONARY
360
94
102
}
330
2A
100
AcDbVisualStyle
  2
3dWireframe
 70
     5
 71
     0
 72
     2
 73
     0
 90
        0
 40
-0.6
 41
-30.0
 62
     5
 63
     7
421
 16777215
 74
     1
 91
        4
 64
     7
 65
   257
 75
     1
175
     1
 42
1.0
 92
        0
 66
   257
 43
1.0
 76
     1
 77
     6
 78
     2
 67
     7
 79
     5
170
     0
171
     0
290
     0
174
     0
 93
        1
 44
0.0
173
     0
291
     0
 45
0.0
  0
VISUALSTYLE
  5
32
102
{ACAD_REACTORS
330
2A
102
}
102
{ACAD_XDICTIONARY
360
98
102
}
330
2A
100
AcDbVisualStyle
  2
Basic
 70
     7
 71
     1
 72
     0
 73
     1
 90
        0
 40
-0.6
 41
-30.0
 62
     5
 63
     7
421
 16777215
 74
     0
 91
        4
 64
     7
 65
   257
 75
     1
175
     1
 42
1.0
 92
        8
 66
     7
 43
1.0
 76
     1
 77
     6
 78
     2
 67
     7
 79
     5
170
     0
171
     0
290
     0
174
     0
 93
        1
 44
0.0
173
     0
291
     1
 45
0.0
  0
VISUALSTYLE
  5
36
102
{ACAD_REACTORS
330
2A
102
}
102
{ACAD_XDICTIONARY
360
A0
102
}
330
2A
100
AcDbVisualStyle
  2
Brighten
 70
    12
 71
     2
 72
     2
 73
     0
 90
        0
 40
-0.6
 41
-30.0
 62
     5
 63
     7
421
 16777215
 74
     1
 91
        4
 64
     7
 65
   257
 75
     1
175
     1
 42
1.0
 92
        8
 66
     7
 43
1.0
 76
     1
 77
     6
 78
     2
 67
     7
 79
     5
170
     0
171
     0
290
     0
174
     0
 93
        1
 44
50.0
173
     0
291
     1
 45
0.0
  0
VISUALSTYLE
  5
3A
102
{ACAD_REACTORS
330
2A
102
}
102
{ACAD_XDICTIONARY
360
A8
102
}
330
2A
100
AcDbVisualStyle
  2
ColorChange
 70
    16
 71
     2
 72
     2
 73
     3
 90
        0
 40
-0.6
 41
-30.0
 62
     5
 63
     8
421
  8421504
 74
     1
 91
        4
 64
     7
 65
   257
 75
     1
175
     1
 42
1.0
 92
        8
 66
     8
424
  8421504
 43
1.0
 76
     1
 77
     6
 78
     2
 67
     7
 79
     5
170
     0
171
     0
290
     0
174
     0
 93
        1
 44
0.0
173
     0
291
     1
 45
0.0
  0
VISUALSTYLE
  5
34
102
{ACAD_REACTORS
330
2A
102
}
102
{ACAD_XDICTIONARY
360
9C
102
}
330
2A
100
AcDbVisualStyle
  2
Conceptual
 70
     9
 71
     3
 72
     2
 73
     0
 90
        0
 40
-0.6
 41
-30.0
 62
     5
 63
     7
421
 16777215
 74
     2
 91
        2
 64
     7
 65
   257
 75
     1
175
     1
 42
40.0
 92
        8
 66
     7
 43
1.0
 76
     1
 77
     6
 78
     2
 67
     7
 79
     3
170
     0
171
     0
290
     0
174
     0
 93
        1
 44
0.0
173
     0
291
     0
 45
0.0
  0
VISUALSTYLE
  5
35
102
{ACAD_REACTORS
330
2A
102
}
102
{ACAD_XDICTIONARY
360
9E
102
}
330
2A
100
AcDbVisualStyle
  2
Dim
 70
    11
 71
     2
 72
     2
 73
     0
 90
        0
 40
-0.6
 41
-30.0
 62
     5
 63
     7
421
 16777215
 74
     1
 91
        4
 64
     7
 65
   257
 75
     1
175
     1
 42
1.0
 92
        8
 66
     7
 43
1.0
 76
     1
 77
     6
 78
     2
 67
     7
 79
     5
170
     0
171
     0
290
     0
174
     0
 93
        1
 44
-50.0
173
     0
291
     1
 45
0.0
  0
VISUALSTYLE
  5
39
102
{ACAD_REACTORS
330
2A
102
}
102
{ACAD_XDICTIONARY
360
A6
102
}
330
2A
100
AcDbVisualStyle
  2
Facepattern
 70
    15
 71
     2
 72
     2
 73
     0
 90
        0
 40
-0.6
 41
-30.0
 62
     5
 63
     7
421
 16777215
 74
     1
 91
        4
 64
     7
 65
   257
 75
     1
175
     1
 42
1.0
 92
        8
 66
     7
 43
1.0
 76
     1
 77
     6
 78
     2
 67
     7
 79
     5
170
     0
171
     0
290
     0
174
     0
 93
        1
 44
0.0
173
     0
291
     1
 45
0.0
  0
VISUALSTYLE
  5
2B
102
{ACAD_REACTORS
330
2A
102
}
102
{ACAD_XDICTIONARY
360
8A
102
}
330
2A
100
AcDbVisualStyle
  2
Flat
 70
     0
 71
     2
 72
     1
 73
     1
 90
        2
 40
-0.6
 41
30.0
 62
     5
 63
     7
421
 16777215
 74
     0
 91
        4
 64
     7
 65
   257
 75
     1
175
     1
 42
1.0
 92
        8
 66
     7
 43
1.0
 76
     1
 77
     6
 78
     2
 67
     7
 79
     5
170
     0
171
     0
290
     0
174
     0
 93
       13
 44
0.0
173
     0
291
     1
 45
0.0
  0
VISUALSTYLE
  5
2C
102
{ACAD_REACTORS
330
2A
102
}
102
{ACAD_XDICTIONARY
360
8C
102
}
330
2A
100
AcDbVisualStyle
  2
FlatWithEdges
 70
     1
 71
     2
 72
     1
 73
     1
 90
        2
 40
-0.6
 41
30.0
 62
     5
 63
     7
421
 16777215
 74
     1
 91
        4
 64
     7
 65
   257
 75
     1
175
     1
 42
1.0
 92
        0
 66
   257
 43
1.0
 76
     1
 77
     6
 78
     2
 67
     7
 79
     5
170
     0
171
     0
290
     0
174
     0
 93
       13
 44
0.0
173
     0
291
     1
 45
0.0
  0
VISUALSTYLE
  5
2D
102
{ACAD_REACTORS
330
2A
102
}
102
{ACAD_XDICTIONARY
360
8E
102
}
330
2A
100
AcDbVisualStyle
  2
Gouraud
 70
     2
 71
     2
 72
     2
 73
     1
 90
        2
 40
-0.6
 41
30.0
 62
     5
 63
     7
421
 16777215
 74
     0
 91
        4
 64
     7
 65
   257
 75
     1
175
     1
 42
1.0
 92
        0
 66
     7
 43
1.0
 76
     1
 77
     6
 78
     2
 67
     7
 79
     5
170
     0
171
     0
290
     0
174
     0
 93
       13
 44
0.0
173
     0
291
     1
 45
0.0
  0
VISUALSTYLE
  5
2E
102
{ACAD_REACTORS
330
2A
102
}
102
{ACAD_XDICTIONARY
360
90
102
}
330
2A
100
AcDbVisualStyle
  2
GouraudWithEdges
 70
     3
 71
     2
 72
     2
 73
     1
 90
        2
 40
-0.6
 41
30.0
 62
     5
 63
     7
421
 16777215
 74
     1
 91
        4
 64
     7
 65
   257
 75
     1
175
     1
 42
1.0
 92
        0
 66
   257
 43
1.0
 76
     1
 77
     6
 78
     2
 67
     7
 79
     5
170
     0
171
     0
290
     0
174
     0
 93
       13
 44
0.0
173
     0
291
     1
 45
0.0
  0
VISUALSTYLE
  5
38
102
{ACAD_REACTORS
330
2A
102
}
102
{ACAD_XDICTIONARY
360
A4
102
}
330
2A
100
AcDbVisualStyle
  2
Linepattern
 70
    14
 71
     2
 72
     2
 73
     0
 90
        0
 40
-0.6
 41
-30.0
 62
     5
 63
     7
421
 16777215
 74
     1
 91
        4
 64
     7
 65
   257
 75
     7
175
     7
 42
1.0
 92
        8
 66
     7
 43
1.0
 76
     1
 77
     6
 78
     2
 67
     7
 79
     5
170
     0
171
     0
290
     0
174
     0
 93
        1
 44
0.0
173
     0
291
     1
 45
0.0
  0
VISUALSTYLE
  5
33
102
{ACAD_REACTORS
330
2A
102
}
102
{ACAD_XDICTIONARY
360
9A
102
}
330
2A
100
AcDbVisualStyle
  2
Realistic
 70
     8
 71
     2
 72
     2
 73
     0
 90
        0
 40
-0.6
 41
-30.0
 62
     5
 63
     7
421
 16777215
 74
     1
 91
        0
 64
     7
 65
   257
 75
     1
175
     1
 42
1.0
 92
        8
 66
     8
424
  7895160
 43
1.0
 76
     1
 77
     6
 78
     2
 67
     7
 79
     5
170
     0
171
     0
290
     0
174
     0
 93
       13
 44
0.0
173
     0
291
     0
 45
0.0
  0
VISUALSTYLE
  5
37
102
{ACAD_REACTORS
330
2A
102
}
102
{ACAD_XDICTIONARY
360
A2
102
}
330
2A
100
AcDbVisualStyle
  2
Thicken
 70
    13
 71
     2
 72
     2
 73
     0
 90
        0
 40
-0.6
 41
-30.0
 62
     5
 63
     7
421
 16777215
 74
     1
 91
        4
 64
     7
 65
   257
 75
     1
175
     1
 42
1.0
 92
       12
 66
     7
 43
1.0
 76
     1
 77
     6
 78
     2
 67
     7
 79
     5
170
     0
171
     0
290
     0
174
     0
 93
        1
 44
0.0
173
     0
291
     1
 45
0.0
  0
DICTIONARY
  5
92
330
2F
100
AcDbDictionary
280
     1
281
     1
  3
ACAD_XREC_ROUNDTRIP
360
93
  0
DICTIONARY
  5
96
330
31
100
AcDbDictionary
280
     1
281
     1
  3
ACAD_XREC_ROUNDTRIP
360
97
  0
DICTIONARY
  5
94
330
30
100
AcDbDictionary
280
     1
281
     1
  3
ACAD_XREC_ROUNDTRIP
360
95
  0
DICTIONARY
  5
98
330
32
100
AcDbDictionary
280
     1
281
     1
  3
ACAD_XREC_ROUNDTRIP
360
99
  0
DICTIONARY
  5
A0
330
36
100
AcDbDictionary
280
     1
281
     1
  3
ACAD_XREC_ROUNDTRIP
360
A1
  0
DICTIONARY
  5
A8
330
3A
100
AcDbDictionary
280
     1
281
     1
  3
ACAD_XREC_ROUNDTRIP
360
A9
  0
DICTIONARY
  5
9C
330
34
100
AcDbDictionary
280
     1
281
     1
  3
ACAD_XREC_ROUNDTRIP
360
9D
  0
DICTIONARY
  5
9E
330
35
100
AcDbDictionary
280
     1
281
     1
  3
ACAD_XREC_ROUNDTRIP
360
9F
  0
DICTIONARY
  5
A6
330
39
100
AcDbDictionary
280
     1
281
     1
  3
ACAD_XREC_ROUNDTRIP
360
A7
  0
DICTIONARY
  5
8A
330
2B
100
AcDbDictionary
280
     1
281
     1
  3
ACAD_XREC_ROUNDTRIP
360
8B
  0
DICTIONARY
  5
8C
330
2C
100
AcDbDictionary
280
     1
281
     1
  3
ACAD_XREC_ROUNDTRIP
360
8D
  0
DICTIONARY
  5
8E
330
2D
100
AcDbDictionary
280
     1
281
     1
  3
ACAD_XREC_ROUNDTRIP
360
8F
  0
DICTIONARY
  5
90
330
2E
100
AcDbDictionary
280
     1
281
     1
  3
ACAD_XREC_ROUNDTRIP
360
91
  0
DICTIONARY
  5
A4
330
38
100
AcDbDictionary
280
     1
281
     1
  3
ACAD_XREC_ROUNDTRIP
360
A5
  0
DICTIONARY
  5
9A
330
33
100
AcDbDictionary
280
     1
281
     1
  3
ACAD_XREC_ROUNDTRIP
360
9B
  0
DICTIONARY
  5
A2
330
37
100
AcDbDictionary
280
     1
281
     1
  3
ACAD_XREC_ROUNDTRIP
360
A3
  0
XRECORD
  5
93
102
{ACAD_REACTORS
330
92
102
}
330
92
100
AcDbXrecord
280
     1
102
RTVSPropertyOp0
 70
     1
102
RTVSPropertyOp1
 70
     1
102
RTVSPropertyOp2
 70
     1
102
RTVSPropertyOp3
 70
     1
102
RTVSPropertyOp4
 70
     1
102
RTVSPropertyOp5
 70
     1
102
RTVSPropertyOp6
 70
     1
102
RTVSPropertyOp7
 70
     1
102
RTVSPropertyOp8
 70
     1
102
RTVSPropertyOp9
 70
     1
102
RTVSPropertyOp10
 70
     1
102
RTVSPropertyOp11
 70
     1
102
RTVSPropertyOp12
 70
     1
102
RTVSPropertyOp13
 70
     1
102
RTVSPropertyOp14
 70
     1
102
RTVSPropertyOp15
 70
     1
102
RTVSPropertyOp16
 70
     1
102
RTVSPropertyOp17
 70
     1
102
RTVSPropertyOp18
 70
     1
102
RTVSPropertyOp19
 70
     1
102
RTVSPropertyOp20
 70
     1
102
RTVSPropertyOp21
 70
     1
102
RTVSPropertyOp22
 70
     1
102
RTVSPropertyOp23
 70
     1
102
RTVSPropertyOp24
 70
     1
102
RTVSPropertyOp25
 70
     1
102
RTVSPropertyOp26
 70
     1
102
RTVSPropertyOp27
 70
     1
102
RTVSPropertyOp28
 70
     1
102
RTVSPropertyOp29
 70
     1
102
RTVSPropertyOp30
 70
     1
102
RTVSPropertyOp31
 70
     1
102
RTVSPropertyOp32
 70
     1
  0
XRECORD
  5
97
102
{ACAD_REACTORS
330
96
102
}
330
96
100
AcDbXrecord
280
     1
102
RTVSPropertyOp0
 70
     1
102
RTVSPropertyOp1
 70
     1
102
RTVSPropertyOp2
 70
     1
102
RTVSPropertyOp3
 70
     1
102
RTVSPropertyOp4
 70
     1
102
RTVSPropertyOp5
 70
     1
102
RTVSPropertyOp6
 70
     1
102
RTVSPropertyOp7
 70
     1
102
RTVSPropertyOp8
 70
     1
102
RTVSPropertyOp9
 70
     1
102
RTVSPropertyOp10
 70
     1
102
RTVSPropertyOp11
 70
     1
102
RTVSPropertyOp12
 70
     1
102
RTVSPropertyOp13
 70
     1
102
RTVSPropertyOp14
 70
     1
102
RTVSPropertyOp15
 70
     1
102
RTVSPropertyOp16
 70
     1
102
RTVSPropertyOp17
 70
     1
102
RTVSPropertyOp18
 70
     1
102
RTVSPropertyOp19
 70
     1
102
RTVSPropertyOp20
 70
     1
102
RTVSPropertyOp21
 70
     1
102
RTVSPropertyOp22
 70
     1
102
RTVSPropertyOp23
 70
     1
102
RTVSPropertyOp24
 70
     1
102
RTVSPropertyOp25
 70
     1
102
RTVSPropertyOp26
 70
     1
102
RTVSPropertyOp27
 70
     1
102
RTVSPropertyOp28
 70
     1
102
RTVSPropertyOp29
 70
     1
102
RTVSPropertyOp30
 70
     1
102
RTVSPropertyOp31
 70
     1
102
RTVSPropertyOp32
 70
     1
  0
XRECORD
  5
95
102
{ACAD_REACTORS
330
94
102
}
330
94
100
AcDbXrecord
280
     1
102
RTVSPropertyOp0
 70
     1
102
RTVSPropertyOp1
 70
     1
102
RTVSPropertyOp2
 70
     1
102
RTVSPropertyOp3
 70
     1
102
RTVSPropertyOp4
 70
     1
102
RTVSPropertyOp5
 70
     1
102
RTVSPropertyOp6
 70
     1
102
RTVSPropertyOp7
 70
     1
102
RTVSPropertyOp8
 70
     1
102
RTVSPropertyOp9
 70
     1
102
RTVSPropertyOp10
 70
     1
102
RTVSPropertyOp11
 70
     1
102
RTVSPropertyOp12
 70
     1
102
RTVSPropertyOp13
 70
     1
102
RTVSPropertyOp14
 70
     1
102
RTVSPropertyOp15
 70
     1
102
RTVSPropertyOp16
 70
     1
102
RTVSPropertyOp17
 70
     1
102
RTVSPropertyOp18
 70
     1
102
RTVSPropertyOp19
 70
     1
102
RTVSPropertyOp20
 70
     1
102
RTVSPropertyOp21
 70
     1
102
RTVSPropertyOp22
 70
     1
102
RTVSPropertyOp23
 70
     1
102
RTVSPropertyOp24
 70
     1
102
RTVSPropertyOp25
 70
     1
102
RTVSPropertyOp26
 70
     1
102
RTVSPropertyOp27
 70
     1
102
RTVSPropertyOp28
 70
     1
102
RTVSPropertyOp29
 70
     1
102
RTVSPropertyOp30
 70
     1
102
RTVSPropertyOp31
 70
     1
102
RTVSPropertyOp32
 70
     1
  0
XRECORD
  5
99
102
{ACAD_REACTORS
330
98
102
}
330
98
100
AcDbXrecord
280
     1
102
RTVSPropertyOp0
 70
     1
102
RTVSPropertyOp1
 70
     1
102
RTVSPropertyOp2
 70
     1
102
RTVSPropertyOp3
 70
     1
102
RTVSPropertyOp4
 70
     1
102
RTVSPropertyOp5
 70
     1
102
RTVSPropertyOp6
 70
     1
102
RTVSPropertyOp7
 70
     1
102
RTVSPropertyOp8
 70
     1
102
RTVSPropertyOp9
 70
     1
102
RTVSPropertyOp10
 70
     1
102
RTVSPropertyOp11
 70
     1
102
RTVSPropertyOp12
 70
     1
102
RTVSPropertyOp13
 70
     1
102
RTVSPropertyOp14
 70
     1
102
RTVSPropertyOp15
 70
     1
102
RTVSPropertyOp16
 70
     1
102
RTVSPropertyOp17
 70
     1
102
RTVSPropertyOp18
 70
     1
102
RTVSPropertyOp19
 70
     1
102
RTVSPropertyOp20
 70
     1
102
RTVSPropertyOp21
 70
     1
102
RTVSPropertyOp22
 70
     1
102
RTVSPropertyOp23
 70
     1
102
RTVSPropertyOp24
 70
     1
102
RTVSPropertyOp25
 70
     1
102
RTVSPropertyOp26
 70
     1
102
RTVSPropertyOp27
 70
     1
102
RTVSPropertyOp28
 70
     1
102
RTVSPropertyOp29
 70
     1
102
RTVSPropertyOp30
 70
     1
102
RTVSPropertyOp31
 70
     1
102
RTVSPropertyOp32
 70
     1
  0
XRECORD
  5
A1
102
{ACAD_REACTORS
330
A0
102
}
330
A0
100
AcDbXrecord
280
     1
102
RTVSPropertyOp0
 70
     1
102
RTVSPropertyOp1
 70
     1
102
RTVSPropertyOp2
 70
     1
102
RTVSPropertyOp3
 70
     1
102
RTVSPropertyOp4
 70
     1
102
RTVSPropertyOp5
 70
     1
102
RTVSPropertyOp6
 70
     1
102
RTVSPropertyOp7
 70
     1
102
RTVSPropertyOp8
 70
     1
102
RTVSPropertyOp9
 70
     1
102
RTVSPropertyOp10
 70
     1
102
RTVSPropertyOp11
 70
     1
102
RTVSPropertyOp12
 70
     1
102
RTVSPropertyOp13
 70
     1
102
RTVSPropertyOp14
 70
     1
102
RTVSPropertyOp15
 70
     1
102
RTVSPropertyOp16
 70
     1
102
RTVSPropertyOp17
 70
     1
102
RTVSPropertyOp18
 70
     1
102
RTVSPropertyOp19
 70
     1
102
RTVSPropertyOp20
 70
     1
102
RTVSPropertyOp21
 70
     1
102
RTVSPropertyOp22
 70
     1
102
RTVSPropertyOp23
 70
     1
102
RTVSPropertyOp24
 70
     1
102
RTVSPropertyOp25
 70
     1
102
RTVSPropertyOp26
 70
     1
102
RTVSPropertyOp27
 70
     1
102
RTVSPropertyOp28
 70
     1
102
RTVSPropertyOp29
 70
     1
102
RTVSPropertyOp30
 70
     1
102
RTVSPropertyOp31
 70
     1
102
RTVSPropertyOp32
 70
     1
  0
XRECORD
  5
A9
102
{ACAD_REACTORS
330
A8
102
}
330
A8
100
AcDbXrecord
280
     1
102
RTVSPropertyOp0
 70
     1
102
RTVSPropertyOp1
 70
     1
102
RTVSPropertyOp2
 70
     1
102
RTVSPropertyOp3
 70
     1
102
RTVSPropertyOp4
 70
     1
102
RTVSPropertyOp5
 70
     1
102
RTVSPropertyOp6
 70
     1
102
RTVSPropertyOp7
 70
     1
102
RTVSPropertyOp8
 70
     1
102
RTVSPropertyOp9
 70
     1
102
RTVSPropertyOp10
 70
     1
102
RTVSPropertyOp11
 70
     1
102
RTVSPropertyOp12
 70
     1
102
RTVSPropertyOp13
 70
     1
102
RTVSPropertyOp14
 70
     1
102
RTVSPropertyOp15
 70
     1
102
RTVSPropertyOp16
 70
     1
102
RTVSPropertyOp17
 70
     1
102
RTVSPropertyOp18
 70
     1
102
RTVSPropertyOp19
 70
     1
102
RTVSPropertyOp20
 70
     1
102
RTVSPropertyOp21
 70
     1
102
RTVSPropertyOp22
 70
     1
102
RTVSPropertyOp23
 70
     1
102
RTVSPropertyOp24
 70
     1
102
RTVSPropertyOp25
 70
     1
102
RTVSPropertyOp26
 70
     1
102
RTVSPropertyOp27
 70
     1
102
RTVSPropertyOp28
 70
     1
102
RTVSPropertyOp29
 70
     1
102
RTVSPropertyOp30
 70
     1
102
RTVSPropertyOp31
 70
     1
102
RTVSPropertyOp32
 70
     1
  0
XRECORD
  5
9D
102
{ACAD_REACTORS
330
9C
102
}
330
9C
100
AcDbXrecord
280
     1
102
RTVSPropertyOp0
 70
     1
102
RTVSPropertyOp1
 70
     1
102
RTVSPropertyOp2
 70
     1
102
RTVSPropertyOp3
 70
     1
102
RTVSPropertyOp4
 70
     1
102
RTVSPropertyOp5
 70
     1
102
RTVSPropertyOp6
 70
     1
102
RTVSPropertyOp7
 70
     1
102
RTVSPropertyOp8
 70
     1
102
RTVSPropertyOp9
 70
     1
102
RTVSPropertyOp10
 70
     1
102
RTVSPropertyOp11
 70
     1
102
RTVSPropertyOp12
 70
     1
102
RTVSPropertyOp13
 70
     1
102
RTVSPropertyOp14
 70
     1
102
RTVSPropertyOp15
 70
     1
102
RTVSPropertyOp16
 70
     1
102
RTVSPropertyOp17
 70
     1
102
RTVSPropertyOp18
 70
     1
102
RTVSPropertyOp19
 70
     1
102
RTVSPropertyOp20
 70
     1
102
RTVSPropertyOp21
 70
     1
102
RTVSPropertyOp22
 70
     1
102
RTVSPropertyOp23
 70
     1
102
RTVSPropertyOp24
 70
     1
102
RTVSPropertyOp25
 70
     1
102
RTVSPropertyOp26
 70
     1
102
RTVSPropertyOp27
 70
     1
102
RTVSPropertyOp28
 70
     1
102
RTVSPropertyOp29
 70
     1
102
RTVSPropertyOp30
 70
     1
102
RTVSPropertyOp31
 70
     1
102
RTVSPropertyOp32
 70
     1
  0
XRECORD
  5
9F
102
{ACAD_REACTORS
330
9E
102
}
330
9E
100
AcDbXrecord
280
     1
102
RTVSPropertyOp0
 70
     1
102
RTVSPropertyOp1
 70
     1
102
RTVSPropertyOp2
 70
     1
102
RTVSPropertyOp3
 70
     1
102
RTVSPropertyOp4
 70
     1
102
RTVSPropertyOp5
 70
     1
102
RTVSPropertyOp6
 70
     1
102
RTVSPropertyOp7
 70
     1
102
RTVSPropertyOp8
 70
     1
102
RTVSPropertyOp9
 70
     1
102
RTVSPropertyOp10
 70
     1
102
RTVSPropertyOp11
 70
     1
102
RTVSPropertyOp12
 70
     1
102
RTVSPropertyOp13
 70
     1
102
RTVSPropertyOp14
 70
     1
102
RTVSPropertyOp15
 70
     1
102
RTVSPropertyOp16
 70
     1
102
RTVSPropertyOp17
 70
     1
102
RTVSPropertyOp18
 70
     1
102
RTVSPropertyOp19
 70
     1
102
RTVSPropertyOp20
 70
     1
102
RTVSPropertyOp21
 70
     1
102
RTVSPropertyOp22
 70
     1
102
RTVSPropertyOp23
 70
     1
102
RTVSPropertyOp24
 70
     1
102
RTVSPropertyOp25
 70
     1
102
RTVSPropertyOp26
 70
     1
102
RTVSPropertyOp27
 70
     1
102
RTVSPropertyOp28
 70
     1
102
RTVSPropertyOp29
 70
     1
102
RTVSPropertyOp30
 70
     1
102
RTVSPropertyOp31
 70
     1
102
RTVSPropertyOp32
 70
     1
  0
XRECORD
  5
A7
102
{ACAD_REACTORS
330
A6
102
}
330
A6
100
AcDbXrecord
280
     1
102
RTVSPropertyOp0
 70
     1
102
RTVSPropertyOp1
 70
     1
102
RTVSPropertyOp2
 70
     1
102
RTVSPropertyOp3
 70
     1
102
RTVSPropertyOp4
 70
     1
102
RTVSPropertyOp5
 70
     1
102
RTVSPropertyOp6
 70
     1
102
RTVSPropertyOp7
 70
     1
102
RTVSPropertyOp8
 70
     1
102
RTVSPropertyOp9
 70
     1
102
RTVSPropertyOp10
 70
     1
102
RTVSPropertyOp11
 70
     1
102
RTVSPropertyOp12
 70
     1
102
RTVSPropertyOp13
 70
     1
102
RTVSPropertyOp14
 70
     1
102
RTVSPropertyOp15
 70
     1
102
RTVSPropertyOp16
 70
     1
102
RTVSPropertyOp17
 70
     1
102
RTVSPropertyOp18
 70
     1
102
RTVSPropertyOp19
 70
     1
102
RTVSPropertyOp20
 70
     1
102
RTVSPropertyOp21
 70
     1
102
RTVSPropertyOp22
 70
     1
102
RTVSPropertyOp23
 70
     1
102
RTVSPropertyOp24
 70
     1
102
RTVSPropertyOp25
 70
     1
102
RTVSPropertyOp26
 70
     1
102
RTVSPropertyOp27
 70
     1
102
RTVSPropertyOp28
 70
     1
102
RTVSPropertyOp29
 70
     1
102
RTVSPropertyOp30
 70
     1
102
RTVSPropertyOp31
 70
     1
102
RTVSPropertyOp32
 70
     1
  0
XRECORD
  5
8B
102
{ACAD_REACTORS
330
8A
102
}
330
8A
100
AcDbXrecord
280
     1
102
RTVSPropertyOp0
 70
     1
102
RTVSPropertyOp1
 70
     1
102
RTVSPropertyOp2
 70
     1
102
RTVSPropertyOp3
 70
     1
102
RTVSPropertyOp4
 70
     1
102
RTVSPropertyOp5
 70
     1
102
RTVSPropertyOp6
 70
     1
102
RTVSPropertyOp7
 70
     1
102
RTVSPropertyOp8
 70
     1
102
RTVSPropertyOp9
 70
     1
102
RTVSPropertyOp10
 70
     1
102
RTVSPropertyOp11
 70
     1
102
RTVSPropertyOp12
 70
     1
102
RTVSPropertyOp13
 70
     1
102
RTVSPropertyOp14
 70
     1
102
RTVSPropertyOp15
 70
     1
102
RTVSPropertyOp16
 70
     1
102
RTVSPropertyOp17
 70
     1
102
RTVSPropertyOp18
 70
     1
102
RTVSPropertyOp19
 70
     1
102
RTVSPropertyOp20
 70
     1
102
RTVSPropertyOp21
 70
     1
102
RTVSPropertyOp22
 70
     1
102
RTVSPropertyOp23
 70
     1
102
RTVSPropertyOp24
 70
     1
102
RTVSPropertyOp25
 70
     1
102
RTVSPropertyOp26
 70
     1
102
RTVSPropertyOp27
 70
     1
102
RTVSPropertyOp28
 70
     1
102
RTVSPropertyOp29
 70
     1
102
RTVSPropertyOp30
 70
     1
102
RTVSPropertyOp31
 70
     1
102
RTVSPropertyOp32
 70
     1
  0
XRECORD
  5
8D
102
{ACAD_REACTORS
330
8C
102
}
330
8C
100
AcDbXrecord
280
     1
102
RTVSPropertyOp0
 70
     1
102
RTVSPropertyOp1
 70
     1
102
RTVSPropertyOp2
 70
     1
102
RTVSPropertyOp3
 70
     1
102
RTVSPropertyOp4
 70
     1
102
RTVSPropertyOp5
 70
     1
102
RTVSPropertyOp6
 70
     1
102
RTVSPropertyOp7
 70
     1
102
RTVSPropertyOp8
 70
     1
102
RTVSPropertyOp9
 70
     1
102
RTVSPropertyOp10
 70
     1
102
RTVSPropertyOp11
 70
     1
102
RTVSPropertyOp12
 70
     1
102
RTVSPropertyOp13
 70
     1
102
RTVSPropertyOp14
 70
     1
102
RTVSPropertyOp15
 70
     1
102
RTVSPropertyOp16
 70
     1
102
RTVSPropertyOp17
 70
     1
102
RTVSPropertyOp18
 70
     1
102
RTVSPropertyOp19
 70
     1
102
RTVSPropertyOp20
 70
     1
102
RTVSPropertyOp21
 70
     1
102
RTVSPropertyOp22
 70
     1
102
RTVSPropertyOp23
 70
     1
102
RTVSPropertyOp24
 70
     1
102
RTVSPropertyOp25
 70
     1
102
RTVSPropertyOp26
 70
     1
102
RTVSPropertyOp27
 70
     1
102
RTVSPropertyOp28
 70
     1
102
RTVSPropertyOp29
 70
     1
102
RTVSPropertyOp30
 70
     1
102
RTVSPropertyOp31
 70
     1
102
RTVSPropertyOp32
 70
     1
  0
XRECORD
  5
8F
102
{ACAD_REACTORS
330
8E
102
}
330
8E
100
AcDbXrecord
280
     1
102
RTVSPropertyOp0
 70
     1
102
RTVSPropertyOp1
 70
     1
102
RTVSPropertyOp2
 70
     1
102
RTVSPropertyOp3
 70
     1
102
RTVSPropertyOp4
 70
     1
102
RTVSPropertyOp5
 70
     1
102
RTVSPropertyOp6
 70
     1
102
RTVSPropertyOp7
 70
     1
102
RTVSPropertyOp8
 70
     1
102
RTVSPropertyOp9
 70
     1
102
RTVSPropertyOp10
 70
     1
102
RTVSPropertyOp11
 70
     1
102
RTVSPropertyOp12
 70
     1
102
RTVSPropertyOp13
 70
     1
102
RTVSPropertyOp14
 70
     1
102
RTVSPropertyOp15
 70
     1
102
RTVSPropertyOp16
 70
     1
102
RTVSPropertyOp17
 70
     1
102
RTVSPropertyOp18
 70
     1
102
RTVSPropertyOp19
 70
     1
102
RTVSPropertyOp20
 70
     1
102
RTVSPropertyOp21
 70
     1
102
RTVSPropertyOp22
 70
     1
102
RTVSPropertyOp23
 70
     1
102
RTVSPropertyOp24
 70
     1
102
RTVSPropertyOp25
 70
     1
102
RTVSPropertyOp26
 70
     1
102
RTVSPropertyOp27
 70
     1
102
RTVSPropertyOp28
 70
     1
102
RTVSPropertyOp29
 70
     1
102
RTVSPropertyOp30
 70
     1
102
RTVSPropertyOp31
 70
     1
102
RTVSPropertyOp32
 70
     1
  0
XRECORD
  5
91
102
{ACAD_REACTORS
330
90
102
}
330
90
100
AcDbXrecord
280
     1
102
RTVSPropertyOp0
 70
     1
102
RTVSPropertyOp1
 70
     1
102
RTVSPropertyOp2
 70
     1
102
RTVSPropertyOp3
 70
     1
102
RTVSPropertyOp4
 70
     1
102
RTVSPropertyOp5
 70
     1
102
RTVSPropertyOp6
 70
     1
102
RTVSPropertyOp7
 70
     1
102
RTVSPropertyOp8
 70
     1
102
RTVSPropertyOp9
 70
     1
102
RTVSPropertyOp10
 70
     1
102
RTVSPropertyOp11
 70
     1
102
RTVSPropertyOp12
 70
     1
102
RTVSPropertyOp13
 70
     1
102
RTVSPropertyOp14
 70
     1
102
RTVSPropertyOp15
 70
     1
102
RTVSPropertyOp16
 70
     1
102
RTVSPropertyOp17
 70
     1
102
RTVSPropertyOp18
 70
     1
102
RTVSPropertyOp19
 70
     1
102
RTVSPropertyOp20
 70
     1
102
RTVSPropertyOp21
 70
     1
102
RTVSPropertyOp22
 70
     1
102
RTVSPropertyOp23
 70
     1
102
RTVSPropertyOp24
 70
     1
102
RTVSPropertyOp25
 70
     1
102
RTVSPropertyOp26
 70
     1
102
RTVSPropertyOp27
 70
     1
102
RTVSPropertyOp28
 70
     1
102
RTVSPropertyOp29
 70
     1
102
RTVSPropertyOp30
 70
     1
102
RTVSPropertyOp31
 70
     1
102
RTVSPropertyOp32
 70
     1
  0
XRECORD
  5
A5
102
{ACAD_REACTORS
330
A4
102
}
330
A4
100
AcDbXrecord
280
     1
102
RTVSPropertyOp0
 70
     1
102
RTVSPropertyOp1
 70
     1
102
RTVSPropertyOp2
 70
     1
102
RTVSPropertyOp3
 70
     1
102
RTVSPropertyOp4
 70
     1
102
RTVSPropertyOp5
 70
     1
102
RTVSPropertyOp6
 70
     1
102
RTVSPropertyOp7
 70
     1
102
RTVSPropertyOp8
 70
     1
102
RTVSPropertyOp9
 70
     1
102
RTVSPropertyOp10
 70
     1
102
RTVSPropertyOp11
 70
     1
102
RTVSPropertyOp12
 70
     1
102
RTVSPropertyOp13
 70
     1
102
RTVSPropertyOp14
 70
     1
102
RTVSPropertyOp15
 70
     1
102
RTVSPropertyOp16
 70
     1
102
RTVSPropertyOp17
 70
     1
102
RTVSPropertyOp18
 70
     1
102
RTVSPropertyOp19
 70
     1
102
RTVSPropertyOp20
 70
     1
102
RTVSPropertyOp21
 70
     1
102
RTVSPropertyOp22
 70
     1
102
RTVSPropertyOp23
 70
     1
102
RTVSPropertyOp24
 70
     1
102
RTVSPropertyOp25
 70
     1
102
RTVSPropertyOp26
 70
     1
102
RTVSPropertyOp27
 70
     1
102
RTVSPropertyOp28
 70
     1
102
RTVSPropertyOp29
 70
     1
102
RTVSPropertyOp30
 70
     1
102
RTVSPropertyOp31
 70
     1
102
RTVSPropertyOp32
 70
     1
  0
XRECORD
  5
9B
102
{ACAD_REACTORS
330
9A
102
}
330
9A
100
AcDbXrecord
280
     1
102
RTVSPropertyOp0
 70
     1
102
RTVSPropertyOp1
 70
     1
102
RTVSPropertyOp2
 70
     1
102
RTVSPropertyOp3
 70
     1
102
RTVSPropertyOp4
 70
     1
102
RTVSPropertyOp5
 70
     1
102
RTVSPropertyOp6
 70
     1
102
RTVSPropertyOp7
 70
     1
102
RTVSPropertyOp8
 70
     1
102
RTVSPropertyOp9
 70
     1
102
RTVSPropertyOp10
 70
     1
102
RTVSPropertyOp11
 70
     1
102
RTVSPropertyOp12
 70
     1
102
RTVSPropertyOp13
 70
     1
102
RTVSPropertyOp14
 70
     1
102
RTVSPropertyOp15
 70
     1
102
RTVSPropertyOp16
 70
     1
102
RTVSPropertyOp17
 70
     1
102
RTVSPropertyOp18
 70
     1
102
RTVSPropertyOp19
 70
     1
102
RTVSPropertyOp20
 70
     1
102
RTVSPropertyOp21
 70
     1
102
RTVSPropertyOp22
 70
     1
102
RTVSPropertyOp23
 70
     1
102
RTVSPropertyOp24
 70
     1
102
RTVSPropertyOp25
 70
     1
102
RTVSPropertyOp26
 70
     1
102
RTVSPropertyOp27
 70
     1
102
RTVSPropertyOp28
 70
     1
102
RTVSPropertyOp29
 70
     1
102
RTVSPropertyOp30
 70
     1
102
RTVSPropertyOp31
 70
     1
102
RTVSPropertyOp32
 70
     1
  0
XRECORD
  5
A3
102
{ACAD_REACTORS
330
A2
102
}
330
A2
100
AcDbXrecord
280
     1
102
RTVSPropertyOp0
 70
     1
102
RTVSPropertyOp1
 70
     1
102
RTVSPropertyOp2
 70
     1
102
RTVSPropertyOp3
 70
     1
102
RTVSPropertyOp4
 70
     1
102
RTVSPropertyOp5
 70
     1
102
RTVSPropertyOp6
 70
     1
102
RTVSPropertyOp7
 70
     1
102
RTVSPropertyOp8
 70
     1
102
RTVSPropertyOp9
 70
     1
102
RTVSPropertyOp10
 70
     1
102
RTVSPropertyOp11
 70
     1
102
RTVSPropertyOp12
 70
     1
102
RTVSPropertyOp13
 70
     1
102
RTVSPropertyOp14
 70
     1
102
RTVSPropertyOp15
 70
     1
102
RTVSPropertyOp16
 70
     1
102
RTVSPropertyOp17
 70
     1
102
RTVSPropertyOp18
 70
     1
102
RTVSPropertyOp19
 70
     1
102
RTVSPropertyOp20
 70
     1
102
RTVSPropertyOp21
 70
     1
102
RTVSPropertyOp22
 70
     1
102
RTVSPropertyOp23
 70
     1
102
RTVSPropertyOp24
 70
     1
102
RTVSPropertyOp25
 70
     1
102
RTVSPropertyOp26
 70
     1
102
RTVSPropertyOp27
 70
     1
102
RTVSPropertyOp28
 70
     1
102
RTVSPropertyOp29
 70
     1
102
RTVSPropertyOp30
 70
     1
102
RTVSPropertyOp31
 70
     1
102
RTVSPropertyOp32
 70
     1
  0
ENDSEC
  0
EOF
