M48
;GenerationSoftware,Autodesk,EAGLE,9.4.2*%
;CreationDate,2020-02-26T06:17:32Z*%
FMAT,2
ICI,OFF
METRIC,TZ,000.000
T11C0.200
T10C0.350
T9C0.400
T8C0.550
T7C0.600
T6C0.700
T5C0.850
T4C1.000
T3C2.750
T2C3.000
T1C3.150
%
G90
M71
T1
X19410Y7690
X9290Y51980
X115260Y53480
X144800Y7700
T2
X159500Y109000
X159500Y4000
X4000Y109000
X4000Y4000
T3
X150170Y85400
X150170Y62400
X92170Y85400
X92170Y62400
T4
X102120Y61130
X145300Y63670
X124980Y63670
X97040Y63670
X99580Y61130
X99580Y63670
X112280Y61130
X102120Y63670
X104660Y61130
X104660Y63670
X107200Y61130
X107200Y63670
X109740Y61130
X109740Y63670
X112280Y63670
X114820Y61130
X114820Y63670
X117360Y61130
X117360Y63670
X119900Y61130
X122440Y63670
X119900Y63670
X122440Y61130
X127520Y61130
X127520Y63670
X135140Y61130
X97040Y61130
X145300Y61130
X130060Y61130
X130060Y63670
X132600Y61130
X132600Y63670
X124980Y61130
X135140Y63670
X137680Y61130
X137680Y63670
X140220Y61130
X140220Y63670
X142760Y61130
X142760Y63670
T5
X1450Y101398
X1450Y98398
T6
X158960Y95872
X158960Y101652
T7
X125000Y106000
X125000Y109000
X122000Y109000
X149000Y109000
X152000Y109000
X152000Y106000
X149000Y106000
X122000Y106000
T8
X41100Y45085
X49990Y45085
X58880Y45085
X23320Y45720
X32845Y45085
T9
X11227Y95976
X9427Y95976
X10327Y95076
X9427Y94176
X11227Y94176
T10
X69715Y42839
X3048Y48514
X35052Y70183
X35560Y90805
X35560Y72390
X137033Y100076
X7739Y13470
X129532Y7279
X25138Y42839
X34028Y42839
X42918Y42839
X51935Y42839
X60698Y42839
X78478Y42839
X87495Y42839
X149725Y51729
X140835Y51729
X131310Y51729
X122674Y51729
X157170Y52110
X74033Y33949
X82923Y33949
X65143Y33949
X56253Y33949
X47236Y33949
X38473Y33949
X29583Y33949
X18153Y33949
X7612Y33949
X105148Y42839
X96258Y42839
X114038Y42839
X123055Y42839
X131691Y42839
X140835Y42839
X149852Y42839
X89908Y33949
X156964Y43347
X127119Y33822
X145788Y33822
X118229Y33822
X109593Y33949
X100703Y33949
X91813Y33949
X7485Y25186
X77462Y25186
X68318Y25186
X59428Y25186
X41775Y25186
X32758Y25186
X15613Y25186
X84320Y25186
X153963Y33568
X86479Y25186
X145915Y25186
X122039Y25186
X113022Y25186
X104132Y25186
X95242Y25186
X7485Y16296
X64508Y16296
X55618Y16296
X46601Y16296
X37711Y16296
X17772Y16296
X73398Y16296
X80256Y16296
X154170Y25440
X82161Y16296
X143502Y16296
X117848Y16296
X109085Y16296
X100068Y16296
X91051Y16296
X23868Y7406
X32885Y7406
X129413Y102997
X131572Y100965
X50665Y25186
X16383Y58928
X2283Y59514
X139700Y100076
X39624Y61214
X39624Y57531
X14351Y49784
T11
X138430Y38100
X153154Y37973
X68580Y78486
X62281Y80467
X123698Y40005
X119380Y96520
X114554Y101600
X114554Y96393
X65786Y96393
X67310Y96393
X67310Y100457
X65786Y96393
X65786Y100457
X68580Y96393
X68580Y100457
X69850Y96393
X69850Y100457
X71120Y96393
X71120Y100457
X64262Y96393
X64262Y100457
X116840Y101600
X117030Y96329
X111760Y100457
X111633Y96393
X109220Y100457
X109220Y96393
X106426Y100457
X106426Y100457
X106299Y96393
X144780Y99060
X148590Y96520
X55753Y75692
X53340Y85232
X61461Y86494
X64135Y78359
X66040Y81534
X60452Y93345
X57912Y93345
X34671Y96647
X4064Y98552
X13716Y93091
X68196Y86106
X152146Y99568
X67437Y86106
X152273Y100584
X15494Y68580
X9144Y69156
X12700Y72009
X10287Y86233
X29972Y70866
X155829Y100965
X149860Y101800
X21971Y50292
X10668Y59944
X30226Y90678
X34671Y50419
X34925Y67310
X32131Y54483
X121920Y101600
X119380Y101600
X42418Y89662
X41529Y92075
X12192Y82677
X37338Y54483
X29972Y69342
X119380Y96520
X59338Y84426
X1905Y70485
X138430Y66040
X58801Y84963
X136271Y99060
X139113Y65357
X66421Y68707
X119380Y93980
X99060Y68580
X65771Y82662
X61087Y88138
X60452Y86995
X156464Y93599
X152146Y93726
X153289Y97409
X40005Y71628
X45085Y71628
X60198Y94615
X60325Y89027
X40894Y87249
X45847Y87249
X39878Y80264
X42037Y80264
X9017Y82423
X5080Y93599
X3175Y93345
X3175Y91694
X5080Y74930
X6350Y76200
X14732Y63500
X15367Y57531
X15176Y55562
X13335Y56769
X10160Y60833
X3429Y62484
X4953Y62484
X5334Y64897
X3556Y64897
X3683Y67818
X2208Y68199
X15596Y76733
X4826Y91567
X15748Y94176
X16383Y98425
X5461Y102362
X5715Y100965
X3175Y86233
X8890Y86233
X41529Y7406
X52070Y78740
X33782Y19431
X50292Y78867
X31369Y25186
X49533Y78867
X68326Y76327
X52680Y70002
X53217Y69465
X42101Y53149
X48895Y79629
X41148Y49530
X48136Y79629
X53594Y89154
X46347Y39116
X36068Y39116
X53594Y89913
X51054Y80010
X57150Y89916
X57033Y79629
X57791Y79629
X58550Y79629
X59309Y79629
X61208Y81540
X61744Y81004
X129540Y53975
X121158Y54229
X62992Y89408
X135120Y39878
X135034Y98839
M30