<svg id="Layer_1" data-name="Layer 1" xmlns="http://www.w3.org/2000/svg" viewBox="0 0 440.11 163"><defs><style>.cls-1{fill:none;stroke:#231f20;stroke-miterlimit:10;}</style></defs><title>SiliconeSmallerComplete</title><g id="SiliconeOutline"><path class="cls-1" d="M607.1,224.68H481.4a9.15,9.15,0,0,0-9.1,9l-.09,7.75a9.15,9.15,0,0,1-9.1,9H214.61a9,9,0,0,1-9-9v-.55a8.82,8.82,0,0,0-9-8.83l-10.63.2a9.24,9.24,0,0,0-9,9.17h0V348.88a9,9,0,0,0,9,9H200.3a9,9,0,0,1,9,9v10.8a9,9,0,0,0,9,9H589.1a9,9,0,0,0,9-9V360.87c0-3.84,4-7,9-7h0a9,9,0,0,0,9-9V233.68h0a9,9,0,0,0-9-9Z" transform="translate(-176.49 -224.18)"/><circle class="cls-1" cx="398.54" cy="145.71" r="4.25"/><circle class="cls-1" cx="314.81" cy="15.92" r="4.25"/><circle class="cls-1" cx="14.45" cy="20.17" r="4.25"/><circle class="cls-1" cx="43.1" cy="145.71" r="4.25"/></g><rect class="cls-1" x="363.64" y="36.13" width="15.14" height="15.14" rx="2.88" ry="2.88"/><rect class="cls-1" x="36.04" y="61.33" width="27.74" height="15.14" rx="2.82" ry="2.82"/><rect class="cls-1" x="36.04" y="86.53" width="36.93" height="15.14" rx="2.84" ry="2.84"/><rect class="cls-1" x="36.04" y="111.73" width="50.77" height="15.14" rx="2.81" ry="2.81"/><rect class="cls-1" x="349.24" y="111.73" width="36.84" height="15.14" rx="5.37" ry="5.37"/><rect class="cls-1" x="108.45" y="136.93" width="218.63" height="15.14" rx="6.63" ry="6.63"/><rect class="cls-1" x="174.95" y="272.91" width="40.34" height="15.14" rx="2.79" ry="2.79" transform="translate(-261.86 251.42) rotate(-90)"/><rect class="cls-1" x="388.84" y="36.13" width="15.14" height="15.14" rx="2.88" ry="2.88"/><rect class="cls-1" x="388.84" y="10.93" width="15.14" height="15.14" rx="2.88" ry="2.88"/><rect class="cls-1" x="363.64" y="10.93" width="15.14" height="15.14" rx="2.88" ry="2.88"/><rect class="cls-1" x="338.44" y="10.93" width="15.14" height="15.14" rx="2.88" ry="2.88"/><rect class="cls-1" x="414.04" y="10.93" width="15.14" height="15.14" rx="2.88" ry="2.88"/><rect class="cls-1" x="414.04" y="36.13" width="15.14" height="15.14" rx="2.88" ry="2.88"/><rect class="cls-1" x="338.44" y="36.13" width="15.14" height="15.14" rx="2.88" ry="2.88"/><rect class="cls-1" x="313.24" y="36.13" width="15.14" height="15.14" rx="2.88" ry="2.88"/><rect class="cls-1" x="403.24" y="61.33" width="15.14" height="15.14" rx="2.88" ry="2.88"/><rect class="cls-1" x="288.04" y="36.13" width="15.14" height="15.14" rx="2.88" ry="2.88"/><rect class="cls-1" x="275.44" y="61.33" width="15.14" height="15.14" rx="2.88" ry="2.88"/><rect class="cls-1" x="237.64" y="36.13" width="15.14" height="15.14" rx="2.88" ry="2.88"/><rect class="cls-1" x="250.24" y="61.33" width="15.14" height="15.14" rx="2.88" ry="2.88"/><rect class="cls-1" x="225.04" y="61.33" width="15.14" height="15.14" rx="2.88" ry="2.88"/><rect class="cls-1" x="262.84" y="36.13" width="15.14" height="15.14" rx="2.88" ry="2.88"/><rect class="cls-1" x="300.64" y="61.33" width="15.14" height="15.14" rx="2.88" ry="2.88"/><rect class="cls-1" x="325.84" y="61.33" width="15.14" height="15.14" rx="2.88" ry="2.88"/><rect class="cls-1" x="351.04" y="61.33" width="15.14" height="15.14" rx="2.88" ry="2.88"/><rect class="cls-1" x="335.69" y="86.53" width="15.14" height="15.14" rx="2.88" ry="2.88"/><rect class="cls-1" x="310.49" y="86.53" width="15.14" height="15.14" rx="2.88" ry="2.88"/><rect class="cls-1" x="285.29" y="86.53" width="15.14" height="15.14" rx="2.88" ry="2.88"/><rect class="cls-1" x="298.84" y="111.73" width="15.14" height="15.14" rx="2.88" ry="2.88"/><rect class="cls-1" x="324.04" y="111.73" width="15.14" height="15.14" rx="2.88" ry="2.88"/><rect class="cls-1" x="337.14" y="136.93" width="15.14" height="15.14" rx="2.88" ry="2.88"/><rect class="cls-1" x="362.85" y="136.93" width="15.14" height="15.14" rx="2.88" ry="2.88"/><rect class="cls-1" x="396.14" y="111.73" width="15.14" height="15.14" rx="2.88" ry="2.88"/><rect class="cls-1" x="403.24" y="86.53" width="15.14" height="15.14" rx="2.88" ry="2.88"/><rect class="cls-1" x="36.04" y="36.13" width="15.14" height="15.14" rx="2.88" ry="2.88"/><rect class="cls-1" x="61.24" y="36.13" width="15.14" height="15.14" rx="2.88" ry="2.88"/><rect class="cls-1" x="86.07" y="36.13" width="15.14" height="15.14" rx="2.88" ry="2.88"/><rect class="cls-1" x="111.64" y="36.13" width="15.14" height="15.14" rx="2.88" ry="2.88"/><rect class="cls-1" x="73.84" y="61.33" width="15.14" height="15.14" rx="2.88" ry="2.88"/><rect class="cls-1" x="99.04" y="61.33" width="15.14" height="15.14" rx="2.88" ry="2.88"/><rect class="cls-1" x="124.24" y="61.33" width="15.14" height="15.14" rx="2.88" ry="2.88"/><rect class="cls-1" x="83.03" y="86.53" width="15.14" height="15.14" rx="2.88" ry="2.88"/><rect class="cls-1" x="108.45" y="86.53" width="15.14" height="15.14" rx="2.88" ry="2.88"/><rect class="cls-1" x="96.87" y="111.73" width="15.14" height="15.14" rx="2.88" ry="2.88"/><rect class="cls-1" x="57.64" y="136.93" width="15.14" height="15.14" rx="2.88" ry="2.88"/><rect class="cls-1" x="11.05" y="111.73" width="15.14" height="15.14" rx="2.88" ry="2.88"/><rect class="cls-1" x="11.05" y="86.53" width="15.14" height="15.14" rx="2.88" ry="2.88"/><rect class="cls-1" x="83.25" y="136.93" width="15.14" height="15.14" rx="2.88" ry="2.88"/><rect class="cls-1" x="122.44" y="111.73" width="15.14" height="15.14" rx="2.88" ry="2.88"/><rect class="cls-1" x="133.65" y="86.53" width="15.14" height="15.14" rx="2.88" ry="2.88"/><rect class="cls-1" x="147.64" y="111.73" width="15.14" height="15.14" rx="2.88" ry="2.88"/><rect class="cls-1" x="172.84" y="111.73" width="15.14" height="15.14" rx="2.88" ry="2.88"/><rect class="cls-1" x="198.04" y="111.73" width="15.14" height="15.14" rx="2.88" ry="2.88"/><rect class="cls-1" x="158.85" y="86.53" width="15.14" height="15.14" rx="2.88" ry="2.88"/><rect class="cls-1" x="184.35" y="86.53" width="15.14" height="15.14" rx="2.88" ry="2.88"/><rect class="cls-1" x="149.44" y="61.33" width="15.14" height="15.14" rx="2.88" ry="2.88"/><rect class="cls-1" x="136.84" y="36.13" width="15.14" height="15.14" rx="2.88" ry="2.88"/><rect class="cls-1" x="162.04" y="36.13" width="15.14" height="15.14" rx="2.88" ry="2.88"/><rect class="cls-1" x="187.24" y="36.13" width="15.14" height="15.14" rx="2.88" ry="2.88"/><rect class="cls-1" x="174.64" y="61.33" width="15.14" height="15.14" rx="2.88" ry="2.88"/><rect class="cls-1" x="199.84" y="61.33" width="15.14" height="15.14" rx="2.88" ry="2.88"/><rect class="cls-1" x="212.44" y="36.13" width="15.14" height="15.14" rx="2.88" ry="2.88"/><rect class="cls-1" x="209.44" y="86.53" width="15.14" height="15.14" rx="2.88" ry="2.88"/><rect class="cls-1" x="223.24" y="111.73" width="15.14" height="15.14" rx="2.88" ry="2.88"/><rect class="cls-1" x="248.44" y="111.73" width="15.14" height="15.14" rx="2.88" ry="2.88"/><rect class="cls-1" x="234.82" y="86.53" width="15.14" height="15.14" rx="2.88" ry="2.88"/><rect class="cls-1" x="260.02" y="86.53" width="15.14" height="15.14" rx="2.88" ry="2.88"/><rect class="cls-1" x="273.64" y="111.73" width="15.14" height="15.14" rx="2.88" ry="2.88"/><path class="cls-1" d="M569.22,292.24a6.72,6.72,0,0,0-6.72-6.72h-3a6.72,6.72,0,0,0-6.72,6.72v18.48h-8.68a6.68,6.68,0,0,0-6.68,6.68v1.78a6.68,6.68,0,0,0,6.68,6.68h18.49a6.68,6.68,0,0,0,6.68-6.68v-1.78c0-.15,0-.29,0-.43s0-.29,0-.43Z" transform="translate(-176.49 -224.18)"/></svg>