  0
SECTION
  2
HEADER
  9
$ACADVER
  1
AC1014
  9
$ACADMAINTVER
 70
     9
  9
$DWGCODEPAGE
  3
ANSI_1252
  9
$INSBASE
 10
0.0
 20
0.0
 30
0.0
  9
$EXTMIN
 10
1.000000000000000E+20
 20
1.000000000000000E+20
 30
1.000000000000000E+20
  9
$EXTMAX
 10
-1.000000000000000E+20
 20
-1.000000000000000E+20
 30
-1.000000000000000E+20
  9
$LIMMIN
 10
0.0
 20
0.0
  9
$LIMMAX
 10
12.0
 20
9.0
  9
$ORTHOMODE
 70
     0
  9
$REGENMODE
 70
     1
  9
$FILLMODE
 70
     1
  9
$QTEXTMODE
 70
     0
  9
$MIRRTEXT
 70
     1
  9
$DRAGMODE
 70
     2
  9
$LTSCALE
 40
1.0
  9
$OSMODE
 70
    37
  9
$ATTMODE
 70
     1
  9
$TEXTSIZE
 40
0.2
  9
$TRACEWID
 40
0.05
  9
$TEXTSTYLE
  7
STANDARD
  9
$CLAYER
  8
0
  9
$CELTYPE
  6
BYLAYER
  9
$CECOLOR
 62
   256
  9
$CELTSCALE
 40
1.0
  9
$DELOBJ
 70
     1
  9
$DISPSILH
 70
     0
  9
$DIMSCALE
 40
1.0
  9
$DIMASZ
 40
0.18
  9
$DIMEXO
 40
0.0625
  9
$DIMDLI
 40
0.38
  9
$DIMRND
 40
0.0
  9
$DIMDLE
 40
0.0
  9
$DIMEXE
 40
0.18
  9
$DIMTP
 40
0.0
  9
$DIMTM
 40
0.0
  9
$DIMTXT
 40
0.18
  9
$DIMCEN
 40
0.09
  9
$DIMTSZ
 40
0.0
  9
$DIMTOL
 70
     0
  9
$DIMLIM
 70
     0
  9
$DIMTIH
 70
     1
  9
$DIMTOH
 70
     1
  9
$DIMSE1
 70
     0
  9
$DIMSE2
 70
     0
  9
$DIMTAD
 70
     0
  9
$DIMZIN
 70
     0
  9
$DIMBLK
  1

  9
$DIMASO
 70
     1
  9
$DIMSHO
 70
     1
  9
$DIMPOST
  1

  9
$DIMAPOST
  1

  9
$DIMALT
 70
     0
  9
$DIMALTD
 70
     2
  9
$DIMALTF
 40
25.4
  9
$DIMLFAC
 40
1.0
  9
$DIMTOFL
 70
     0
  9
$DIMTVP
 40
0.0
  9
$DIMTIX
 70
     0
  9
$DIMSOXD
 70
     0
  9
$DIMSAH
 70
     0
  9
$DIMBLK1
  1

  9
$DIMBLK2
  1

  9
$DIMSTYLE
  2
STANDARD
  9
$DIMCLRD
 70
     0
  9
$DIMCLRE
 70
     0
  9
$DIMCLRT
 70
     0
  9
$DIMTFAC
 40
1.0
  9
$DIMGAP
 40
0.09
  9
$DIMJUST
 70
     0
  9
$DIMSD1
 70
     0
  9
$DIMSD2
 70
     0
  9
$DIMTOLJ
 70
     1
  9
$DIMTZIN
 70
     0
  9
$DIMALTZ
 70
     0
  9
$DIMALTTZ
 70
     0
  9
$DIMFIT
 70
     3
  9
$DIMUPT
 70
     0
  9
$DIMUNIT
 70
     2
  9
$DIMDEC
 70
     4
  9
$DIMTDEC
 70
     4
  9
$DIMALTU
 70
     2
  9
$DIMALTTD
 70
     2
  9
$DIMTXSTY
  7
STANDARD
  9
$DIMAUNIT
 70
     0
  9
$LUNITS
 70
     2
  9
$LUPREC
 70
     4
  9
$SKETCHINC
 40
0.1
  9
$FILLETRAD
 40
0.5
  9
$AUNITS
 70
     0
  9
$AUPREC
 70
     0
  9
$MENU
  1
.
  9
$ELEVATION
 40
0.0
  9
$PELEVATION
 40
0.0
  9
$THICKNESS
 40
0.0
  9
$LIMCHECK
 70
     0
  9
$CHAMFERA
 40
0.5
  9
$CHAMFERB
 40
0.5
  9
$CHAMFERC
 40
1.0
  9
$CHAMFERD
 40
0.0
  9
$SKPOLY
 70
     0
  9
$TDCREATE
 40
2458534.903487349
  9
$TDUPDATE
 40
2458534.903487373
  9
$TDINDWG
 40
0.0000000116
  9
$TDUSRTIMER
 40
0.0000000116
  9
$USRTIMER
 70
     1
  9
$ANGBASE
 50
0.0
  9
$ANGDIR
 70
     0
  9
$PDMODE
 70
     0
  9
$PDSIZE
 40
0.0
  9
$PLINEWID
 40
0.0
  9
$COORDS
 70
     1
  9
$SPLFRAME
 70
     0
  9
$SPLINETYPE
 70
     6
  9
$SPLINESEGS
 70
     8
  9
$ATTDIA
 70
     0
  9
$ATTREQ
 70
     1
  9
$HANDLING
 70
     1
  9
$HANDSEED
  5
D3
  9
$SURFTAB1
 70
     6
  9
$SURFTAB2
 70
     6
  9
$SURFTYPE
 70
     6
  9
$SURFU
 70
     6
  9
$SURFV
 70
     6
  9
$UCSNAME
  2

  9
$UCSORG
 10
0.0
 20
0.0
 30
0.0
  9
$UCSXDIR
 10
1.0
 20
0.0
 30
0.0
  9
$UCSYDIR
 10
0.0
 20
1.0
 30
0.0
  9
$PUCSNAME
  2

  9
$PUCSORG
 10
0.0
 20
0.0
 30
0.0
  9
$PUCSXDIR
 10
1.0
 20
0.0
 30
0.0
  9
$PUCSYDIR
 10
0.0
 20
1.0
 30
0.0
  9
$USERI1
 70
     0
  9
$USERI2
 70
     0
  9
$USERI3
 70
     0
  9
$USERI4
 70
     0
  9
$USERI5
 70
     0
  9
$USERR1
 40
0.0
  9
$USERR2
 40
0.0
  9
$USERR3
 40
0.0
  9
$USERR4
 40
0.0
  9
$USERR5
 40
0.0
  9
$WORLDVIEW
 70
     1
  9
$SHADEDGE
 70
     3
  9
$SHADEDIF
 70
    70
  9
$TILEMODE
 70
     1
  9
$MAXACTVP
 70
    64
  9
$PINSBASE
 10
0.0
 20
0.0
 30
0.0
  9
$PLIMCHECK
 70
     0
  9
$PEXTMIN
 10
1.000000000000000E+20
 20
1.000000000000000E+20
 30
1.000000000000000E+20
  9
$PEXTMAX
 10
-1.000000000000000E+20
 20
-1.000000000000000E+20
 30
-1.000000000000000E+20
  9
$PLIMMIN
 10
0.0
 20
0.0
  9
$PLIMMAX
 10
12.0
 20
9.0
  9
$UNITMODE
 70
     0
  9
$VISRETAIN
 70
     1
  9
$PLINEGEN
 70
     0
  9
$PSLTSCALE
 70
     1
  9
$TREEDEPTH
 70
  3020
  9
$PICKSTYLE
 70
     1
  9
$CMLSTYLE
  2
STANDARD
  9
$CMLJUST
 70
     0
  9
$CMLSCALE
 40
1.0
  9
$PROXYGRAPHICS
 70
     1
  9
$MEASUREMENT
 70
     0
  0
ENDSEC
  0
SECTION
  2
CLASSES
  0
CLASS
  1
ACDBDICTIONARYWDFLT
  2
AcDbDictionaryWithDefault
  3
ObjectDBX Classes
 90
        0
280
     0
281
     0
  0
CLASS
  1
VISUALSTYLE
  2
AcDbVisualStyle
  3
ObjectDBX Classes
 90
     4095
280
     0
281
     0
  0
CLASS
  1
MATERIAL
  2
AcDbMaterial
  3
ObjectDBX Classes
 90
     1153
280
     0
281
     0
  0
CLASS
  1
SUN
  2
AcDbSun
  3
SCENEOE
 90
     1024
280
     0
281
     0
  0
CLASS
  1
DICTIONARYVAR
  2
AcDbDictionaryVar
  3
ObjectDBX Classes
 90
        0
280
     0
281
     0
  0
CLASS
  1
XRECORD
  2
AcDbXrecord
  3
AutoCAD 2000
 90
        0
280
     0
281
     0
  0
CLASS
  1
LWPOLYLINE
  2
AcDbPolyline
  3
AutoCAD 2000
 90
        0
280
     0
281
     1
  0
CLASS
  1
HATCH
  2
AcDbHatch
  3
AutoCAD 2000
 90
        0
280
     0
281
     1
  0
CLASS
  1
ACDBPLACEHOLDER
  2
AcDbPlaceHolder
  3
ObjectDBX Classes
 90
        0
280
     0
281
     0
  0
CLASS
  1
LAYOUT
  2
AcDbLayout
  3
ObjectDBX Classes
 90
        0
280
     0
281
     0
  0
ENDSEC
  0
SECTION
  2
TABLES
  0
TABLE
  2
VPORT
  5
8
330
0
100
AcDbSymbolTable
 70
     1
  0
VPORT
  5
29
330
8
100
AcDbSymbolTableRecord
100
AcDbViewportTableRecord
  2
*ACTIVE
 70
     0
 10
0.0
 20
0.0
 11
1.0
 21
1.0
 12
0.0
 22
0.0
 13
0.0
 23
0.0
 14
0.5
 24
0.5
 15
0.5
 25
0.5
 16
0.0
 26
0.0
 36
1.0
 17
139.699999965075
 27
-107.9499999730125
 37
0.0
 40
215.899999946025
 41
1.294117647058823
 42
50.0
 43
0.0
 44
0.0
 50
0.0
 51
0.0
 71
     0
 72
   100
 73
     1
 74
     3
 75
     0
 76
     0
 77
     0
 78
     0
  0
ENDTAB
  0
TABLE
  2
LTYPE
  5
5
330
0
100
AcDbSymbolTable
 70
     1
  0
LTYPE
  5
14
330
5
100
AcDbSymbolTableRecord
100
AcDbLinetypeTableRecord
  2
BYBLOCK
 70
     0
  3

 72
    65
 73
     0
 40
0.0
  0
LTYPE
  5
15
330
5
100
AcDbSymbolTableRecord
100
AcDbLinetypeTableRecord
  2
BYLAYER
 70
     0
  3

 72
    65
 73
     0
 40
0.0
  0
LTYPE
  5
16
330
5
100
AcDbSymbolTableRecord
100
AcDbLinetypeTableRecord
  2
CONTINUOUS
 70
     0
  3
Solid line
 72
    65
 73
     0
 40
0.0
  0
ENDTAB
  0
TABLE
  2
LAYER
  5
2
330
0
100
AcDbSymbolTable
 70
     2
  0
LAYER
  5
10
330
2
100
AcDbSymbolTableRecord
100
AcDbLayerTableRecord
  2
0
 70
     0
 62
     7
  6
CONTINUOUS
  0
LAYER
  5
40
330
2
100
AcDbSymbolTableRecord
100
AcDbLayerTableRecord
  2
LAYER_1
 70
     0
 62
     7
  6
CONTINUOUS
  0
ENDTAB
  0
TABLE
  2
STYLE
  5
3
330
0
100
AcDbSymbolTable
 70
     1
  0
STYLE
  5
11
330
3
100
AcDbSymbolTableRecord
100
AcDbTextStyleTableRecord
  2
STANDARD
 70
     0
 40
0.0
 41
1.0
 50
0.0
 71
     0
 42
0.2
  3
txt
  4

  0
ENDTAB
  0
TABLE
  2
VIEW
  5
6
330
0
100
AcDbSymbolTable
 70
     0
  0
ENDTAB
  0
TABLE
  2
UCS
  5
7
330
0
100
AcDbSymbolTable
 70
     0
  0
ENDTAB
  0
TABLE
  2
APPID
  5
9
330
0
100
AcDbSymbolTable
 70
     1
  0
APPID
  5
12
330
9
100
AcDbSymbolTableRecord
100
AcDbRegAppTableRecord
  2
ACAD
 70
     0
  0
ENDTAB
  0
TABLE
  2
DIMSTYLE
  5
A
330
0
100
AcDbSymbolTable
 70
     1
  0
DIMSTYLE
105
27
330
A
100
AcDbSymbolTableRecord
100
AcDbDimStyleTableRecord
  2
STANDARD
 70
     0
  3

  4

  5

  6

  7

 40
1.0
 41
0.18
 42
0.0625
 43
0.38
 44
0.18
 45
0.0
 46
0.0
 47
0.0
 48
0.0
140
0.18
141
0.09
142
0.0
143
25.4
144
1.0
145
0.0
146
1.0
147
0.09
 71
     0
 72
     0
 73
     1
 74
     1
 75
     0
 76
     0
 77
     0
 78
     0
170
     0
171
     2
172
     0
173
     0
174
     0
175
     0
176
     0
177
     0
178
     0
270
     2
271
     4
272
     4
273
     2
274
     2
340
11
275
     0
280
     0
281
     0
282
     0
283
     1
284
     0
285
     0
286
     0
287
     3
288
     0
  0
ENDTAB
  0
TABLE
  2
BLOCK_RECORD
  5
1
330
0
100
AcDbSymbolTable
 70
     3
  0
BLOCK_RECORD
  5
1F
330
1
100
AcDbSymbolTableRecord
100
AcDbBlockTableRecord
  2
*MODEL_SPACE
  0
BLOCK_RECORD
  5
1B
330
1
100
AcDbSymbolTableRecord
100
AcDbBlockTableRecord
  2
*PAPER_SPACE
  0
BLOCK_RECORD
  5
41
330
1
100
AcDbSymbolTableRecord
100
AcDbBlockTableRecord
  2
BLOCK_2
  0
BLOCK_RECORD
  5
5F
330
1
100
AcDbSymbolTableRecord
100
AcDbBlockTableRecord
  2
BLOCK_3
  0
ENDTAB
  0
ENDSEC
  0
SECTION
  2
BLOCKS
  0
BLOCK
  5
20
330
1F
100
AcDbEntity
  8
0
100
AcDbBlockBegin
  2
*MODEL_SPACE
 70
     0
 10
0.0
 20
0.0
 30
0.0
  3
*MODEL_SPACE
  1

  0
ENDBLK
  5
21
330
1F
100
AcDbEntity
  8
0
100
AcDbBlockEnd
  0
BLOCK
  5
1C
330
1B
100
AcDbEntity
 67
     1
  8
0
100
AcDbBlockBegin
  2
*PAPER_SPACE
 70
     0
 10
0.0
 20
0.0
 30
0.0
  3
*PAPER_SPACE
  1

  0
ENDBLK
  5
1D
330
1B
100
AcDbEntity
 67
     1
  8
0
100
AcDbBlockEnd
  0
BLOCK
  5
43
330
41
100
AcDbEntity
  8
0
100
AcDbBlockBegin
  2
BLOCK_2
 70
     0
 10
0.0
 20
0.0
 30
0.0
  3
BLOCK_2
  1

  0
POLYLINE
  5
45
330
41
100
AcDbEntity
  8
LAYER_1
 62
     7
100
AcDb2dPolyline
 66
     1
 10
0.0
 20
0.0
 30
0.0
  0
VERTEX
  5
46
330
45
100
AcDbEntity
  8
LAYER_1
 62
     7
100
AcDbVertex
100
AcDb2dVertex
 10
210.9971075213352
 20
-79.26230229409533
 30
0.0
  0
VERTEX
  5
47
330
45
100
AcDbEntity
  8
LAYER_1
 62
     7
100
AcDbVertex
100
AcDb2dVertex
 10
184.3271161407414
 20
-79.26230229409533
 30
0.0
  0
VERTEX
  5
48
330
45
100
AcDbEntity
  8
LAYER_1
 62
     7
100
AcDbVertex
100
AcDb2dVertex
 10
166.652958091232
 20
-79.26230229409533
 30
0.0
  0
VERTEX
  5
49
330
45
100
AcDbEntity
  8
LAYER_1
 62
     7
100
AcDbVertex
100
AcDb2dVertex
 10
166.5471075324477
 20
-88.34503815879482
 30
0.0
  0
VERTEX
  5
4A
330
45
100
AcDbEntity
  8
LAYER_1
 62
     7
100
AcDbVertex
100
AcDb2dVertex
 10
72.53639452969203
 20
-88.34503815879482
 30
0.0
  0
VERTEX
  5
4B
330
45
100
AcDbEntity
  8
LAYER_1
 62
     7
100
AcDbVertex
100
AcDb2dVertex
 10
72.53639452969203
 20
-81.80230659982938
 30
0.0
  0
VERTEX
  5
4C
330
45
100
AcDbEntity
  8
LAYER_1
 62
     7
100
AcDbVertex
100
AcDb2dVertex
 10
62.43901344904549
 20
-81.99503816038263
 30
0.0
  0
VERTEX
  5
4D
330
45
100
AcDbEntity
  8
LAYER_1
 62
     7
100
AcDbVertex
100
AcDb2dVertex
 10
62.43901344904549
 20
-88.34503815879482
 30
0.0
  0
VERTEX
  5
4E
330
45
100
AcDbEntity
  8
LAYER_1
 62
     7
100
AcDbVertex
100
AcDb2dVertex
 10
62.43901344904549
 20
-92.77827315660144
 30
0.0
  0
VERTEX
  5
4F
330
45
100
AcDbEntity
  8
LAYER_1
 62
     7
100
AcDbVertex
100
AcDb2dVertex
 10
62.43901344904549
 20
-126.2523065887169
 30
0.0
  0
VERTEX
  5
50
330
45
100
AcDbEntity
  8
LAYER_1
 62
     7
100
AcDbVertex
100
AcDb2dVertex
 10
73.83711186199457
 20
-126.2523065887169
 30
0.0
  0
VERTEX
  5
51
330
45
100
AcDbEntity
  8
LAYER_1
 62
     7
100
AcDbVertex
100
AcDb2dVertex
 10
73.83711186199457
 20
-136.4123022798075
 30
0.0
  0
VERTEX
  5
52
330
45
100
AcDbEntity
  8
LAYER_1
 62
     7
100
AcDbVertex
100
AcDb2dVertex
 10
193.2171204448883
 20
-136.4123022798075
 30
0.0
  0
VERTEX
  5
53
330
45
100
AcDbEntity
  8
LAYER_1
 62
     7
100
AcDbVertex
100
AcDb2dVertex
 10
210.9971075213352
 20
-136.4123022798075
 30
0.0
  0
VERTEX
  5
54
330
45
100
AcDbEntity
  8
LAYER_1
 62
     7
100
AcDbVertex
100
AcDb2dVertex
 10
210.9971075213352
 20
-129.7727635377066
 30
0.0
  0
VERTEX
  5
55
330
45
100
AcDbEntity
  8
LAYER_1
 62
     7
100
AcDbVertex
100
AcDb2dVertex
 10
210.9971075213352
 20
-124.8430902804754
 30
0.0
  0
VERTEX
  5
56
330
45
100
AcDbEntity
  8
LAYER_1
 62
     7
100
AcDbVertex
100
AcDb2dVertex
 10
217.3471075197477
 20
-124.8430902804754
 30
0.0
  0
VERTEX
  5
57
330
45
100
AcDbEntity
  8
LAYER_1
 62
     7
100
AcDbVertex
100
AcDb2dVertex
 10
217.3471075197477
 20
-85.61230229250783
 30
0.0
  0
VERTEX
  5
58
330
45
100
AcDbEntity
  8
LAYER_1
 62
     7
100
AcDbVertex
100
AcDb2dVertex
 10
217.3471075197477
 20
-79.26230229409533
 30
0.0
  0
VERTEX
  5
59
330
45
100
AcDbEntity
  8
LAYER_1
 62
     7
100
AcDbVertex
100
AcDb2dVertex
 10
210.9971075213352
 20
-79.26230229409533
 30
0.0
  0
SEQEND
  5
5A
330
45
100
AcDbEntity
  8
LAYER_1
 62
     7
  0
SPLINE
  5
5B
330
41
100
AcDbEntity
  8
LAYER_1
 62
     7
100
AcDbSpline
210
0.0
220
0.0
230
1.0
 70
    11
 71
     3
 72
    17
 73
    13
 74
     0
 42
0.0000000001
 43
0.0000000001
 12
1.0
 22
0.0
 32
0.0
 13
1.0
 23
0.0
 33
0.0
 40
0.0
 40
0.0
 40
0.0
 40
0.0
 40
1.0
 40
1.0
 40
1.0
 40
2.0
 40
2.0
 40
2.0
 40
3.0
 40
3.0
 40
3.0
 40
4.0
 40
4.0
 40
4.0
 40
4.0
 10
204.3597928744208
 20
-130.4907282391729
 30
0.0
 10
204.3597928744208
 20
-131.3191553636655
 30
0.0
 10
203.6882782022718
 20
-131.9907282387979
 30
0.0
 10
202.859922874796
 20
-131.9907282387979
 30
0.0
 10
202.0315675473207
 20
-131.9907282387979
 30
0.0
 10
201.360052875171
 20
-131.3191553636655
 30
0.0
 10
201.360052875171
 20
-130.4907282391729
 30
0.0
 10
201.360052875171
 20
-129.6623011146803
 30
0.0
 10
202.0315675473207
 20
-128.9907282395479
 30
0.0
 10
202.859922874796
 20
-128.9907282395479
 30
0.0
 10
203.6882782022718
 20
-128.9907282395479
 30
0.0
 10
204.3597928744208
 20
-129.6623011146803
 30
0.0
 10
204.3597928744208
 20
-130.4907282391729
 30
0.0
  0
SPLINE
  5
5C
330
41
100
AcDbEntity
  8
LAYER_1
 62
     7
100
AcDbSpline
210
0.0
220
0.0
230
1.0
 70
    11
 71
     3
 72
    17
 73
    13
 74
     0
 42
0.0000000001
 43
0.0000000001
 12
1.0
 22
0.0
 32
0.0
 13
1.0
 23
0.0
 33
0.0
 40
0.0
 40
0.0
 40
0.0
 40
0.0
 40
1.0
 40
1.0
 40
1.0
 40
2.0
 40
2.0
 40
2.0
 40
3.0
 40
3.0
 40
3.0
 40
4.0
 40
4.0
 40
4.0
 40
4.0
 10
174.818836074609
 20
-84.70313318036254
 30
0.0
 10
174.818836074609
 20
-85.53156030485583
 30
0.0
 10
174.1473214024599
 20
-86.20313317998752
 30
0.0
 10
173.3189660749841
 20
-86.20313317998752
 30
0.0
 10
172.4906107475089
 20
-86.20313317998752
 30
0.0
 10
171.8190960753592
 20
-85.53156030485583
 30
0.0
 10
171.8190960753592
 20
-84.70313318036254
 30
0.0
 10
171.8190960753592
 20
-83.87470605586991
 30
0.0
 10
172.4906107475089
 20
-83.20313318073757
 30
0.0
 10
173.3189660749841
 20
-83.20313318073757
 30
0.0
 10
174.1473214024599
 20
-83.20313318073757
 30
0.0
 10
174.818836074609
 20
-83.87470605586991
 30
0.0
 10
174.818836074609
 20
-84.70313318036254
 30
0.0
  0
SPLINE
  5
5D
330
41
100
AcDbEntity
  8
LAYER_1
 62
     7
100
AcDbSpline
210
0.0
220
0.0
230
1.0
 70
    11
 71
     3
 72
    17
 73
    13
 74
     0
 42
0.0000000001
 43
0.0000000001
 12
1.0
 22
0.0
 32
0.0
 13
1.0
 23
0.0
 33
0.0
 40
0.0
 40
0.0
 40
0.0
 40
0.0
 40
1.0
 40
1.0
 40
1.0
 40
2.0
 40
2.0
 40
2.0
 40
3.0
 40
3.0
 40
3.0
 40
4.0
 40
4.0
 40
4.0
 40
4.0
 10
68.86138976022409
 20
-86.20313317998752
 30
0.0
 10
68.86138976022409
 20
-87.03156030448017
 30
0.0
 10
68.18987654520159
 20
-87.70313317961251
 30
0.0
 10
67.36151979848896
 20
-87.70313317961251
 30
0.0
 10
66.53316589025054
 20
-87.70313317961251
 30
0.0
 10
65.86165121810085
 20
-87.03156030448017
 30
0.0
 10
65.86165121810085
 20
-86.20313317998752
 30
0.0
 10
65.86165121810085
 20
-85.37470605549456
 30
0.0
 10
66.53316589025054
 20
-84.70313318036254
 30
0.0
 10
67.36151979848896
 20
-84.70313318036254
 30
0.0
 10
68.18987654520159
 20
-84.70313318036254
 30
0.0
 10
68.86138976022409
 20
-85.37470605549456
 30
0.0
 10
68.86138976022409
 20
-86.20313317998752
 30
0.0
  0
SPLINE
  5
5E
330
41
100
AcDbEntity
  8
LAYER_1
 62
     7
100
AcDbSpline
210
0.0
220
0.0
230
1.0
 70
    11
 71
     3
 72
    17
 73
    13
 74
     0
 42
0.0000000001
 43
0.0000000001
 12
1.0
 22
0.0
 32
0.0
 13
1.0
 23
0.0
 33
0.0
 40
0.0
 40
0.0
 40
0.0
 40
0.0
 40
1.0
 40
1.0
 40
1.0
 40
2.0
 40
2.0
 40
2.0
 40
3.0
 40
3.0
 40
3.0
 40
4.0
 40
4.0
 40
4.0
 40
4.0
 10
78.96765944834269
 20
-130.4907282391729
 30
0.0
 10
78.96765944834269
 20
-131.3191553636655
 30
0.0
 10
78.296144776193
 20
-131.9907282387979
 30
0.0
 10
77.46778944871748
 20
-131.9907282387979
 30
0.0
 10
76.63943412124229
 20
-131.9907282387979
 30
0.0
 10
75.96791944909259
 20
-131.3191553636655
 30
0.0
 10
75.96791944909259
 20
-130.4907282391729
 30
0.0
 10
75.96791944909259
 20
-129.6623011146803
 30
0.0
 10
76.63943412124229
 20
-128.9907282395479
 30
0.0
 10
77.46778944871748
 20
-128.9907282395479
 30
0.0
 10
78.296144776193
 20
-128.9907282395479
 30
0.0
 10
78.96765944834269
 20
-129.6623011146803
 30
0.0
 10
78.96765944834269
 20
-130.4907282391729
 30
0.0
  0
ENDBLK
  5
44
330
41
100
AcDbEntity
  8
0
100
AcDbBlockEnd
  0
BLOCK
  5
61
330
5F
100
AcDbEntity
  8
0
100
AcDbBlockBegin
  2
BLOCK_3
 70
     0
 10
0.0
 20
0.0
 30
0.0
  3
BLOCK_3
  1

  0
SPLINE
  5
63
330
5F
100
AcDbEntity
  8
LAYER_1
 62
     7
100
AcDbSpline
210
0.0
220
0.0
230
1.0
 70
    11
 71
     3
 72
    29
 73
    25
 74
     0
 42
0.0000000001
 43
0.0000000001
 12
1.0
 22
0.0
 32
0.0
 13
1.0
 23
0.0
 33
0.0
 40
0.0
 40
0.0
 40
0.0
 40
0.0
 40
1.0
 40
1.0
 40
1.0
 40
2.0
 40
2.0
 40
2.0
 40
3.0
 40
3.0
 40
3.0
 40
4.0
 40
4.0
 40
4.0
 40
5.0
 40
5.0
 40
5.0
 40
6.0
 40
6.0
 40
6.0
 40
7.0
 40
7.0
 40
7.0
 40
8.0
 40
8.0
 40
8.0
 40
8.0
 10
194.8704009535116
 20
-97.17231141796738
 30
0.0
 10
194.8704009535116
 20
-97.17231141796738
 30
0.0
 10
191.5638331604609
 20
-97.17231141796738
 30
0.0
 10
191.5638331604609
 20
-97.17231141796738
 30
0.0
 10
191.0023163620392
 20
-97.17231141796738
 30
0.0
 10
190.5471170577733
 20
-96.71711211370145
 30
0.0
 10
190.5471170577733
 20
-96.15559531528042
 30
0.0
 10
190.5471170577733
 20
-96.15559531528042
 30
0.0
 10
190.5471170577733
 20
-92.84902752222844
 30
0.0
 10
190.5471170577733
 20
-92.84902752222844
 30
0.0
 10
190.5471170577733
 20
-92.28751072380742
 30
0.0
 10
191.0023163620392
 20
-91.83231141954147
 30
0.0
 10
191.5638331604609
 20
-91.83231141954147
 30
0.0
 10
191.5638331604609
 20
-91.83231141954147
 30
0.0
 10
194.8704009535116
 20
-91.83231141954147
 30
0.0
 10
194.8704009535116
 20
-91.83231141954147
 30
0.0
 10
195.4319177519332
 20
-91.83231141954147
 30
0.0
 10
195.8871170561992
 20
-92.28751072380742
 30
0.0
 10
195.8871170561992
 20
-92.84902752222844
 30
0.0
 10
195.8871170561992
 20
-92.84902752222844
 30
0.0
 10
195.8871170561992
 20
-96.15559531528042
 30
0.0
 10
195.8871170561992
 20
-96.15559531528042
 30
0.0
 10
195.8871170561992
 20
-96.71711211370145
 30
0.0
 10
195.4319177519332
 20
-97.17231141796738
 30
0.0
 10
194.8704009535116
 20
-97.17231141796738
 30
0.0
  0
SPLINE
  5
64
330
5F
100
AcDbEntity
  8
LAYER_1
 62
     7
100
AcDbSpline
210
0.0
220
0.0
230
1.0
 70
    11
 71
     3
 72
    29
 73
    25
 74
     0
 42
0.0000000001
 43
0.0000000001
 12
1.0
 22
0.0
 32
0.0
 13
1.0
 23
0.0
 33
0.0
 40
0.0
 40
0.0
 40
0.0
 40
0.0
 40
1.0
 40
1.0
 40
1.0
 40
2.0
 40
2.0
 40
2.0
 40
3.0
 40
3.0
 40
3.0
 40
4.0
 40
4.0
 40
4.0
 40
5.0
 40
5.0
 40
5.0
 40
6.0
 40
6.0
 40
6.0
 40
7.0
 40
7.0
 40
7.0
 40
8.0
 40
8.0
 40
8.0
 40
8.0
 10
83.76572796336092
 20
-106.0623114157426
 30
0.0
 10
83.76572796336092
 20
-106.0623114157426
 30
0.0
 10
75.97350620752131
 20
-106.0623114157426
 30
0.0
 10
75.97350620752131
 20
-106.0623114157426
 30
0.0
 10
75.42321569117469
 20
-106.0623114157426
 30
0.0
 10
74.97711708666404
 20
-105.6162128112319
 30
0.0
 10
74.97711708666404
 20
-105.065922294885
 30
0.0
 10
74.97711708666404
 20
-105.065922294885
 30
0.0
 10
74.97711708666404
 20
-101.7187005381768
 30
0.0
 10
74.97711708666404
 20
-101.7187005381768
 30
0.0
 10
74.97711708666404
 20
-101.1684100218292
 30
0.0
 10
75.42321569117502
 20
-100.7223114173186
 30
0.0
 10
75.97350620752195
 20
-100.7223114173186
 30
0.0
 10
75.97350620752195
 20
-100.7223114173186
 30
0.0
 10
83.76572796336028
 20
-100.7223114173186
 30
0.0
 10
83.76572796336028
 20
-100.7223114173186
 30
0.0
 10
84.31601847970754
 20
-100.7223114173186
 30
0.0
 10
84.7621170842185
 20
-101.1684100218292
 30
0.0
 10
84.7621170842185
 20
-101.7187005381768
 30
0.0
 10
84.7621170842185
 20
-101.7187005381768
 30
0.0
 10
84.7621170842185
 20
-105.065922294885
 30
0.0
 10
84.7621170842185
 20
-105.065922294885
 30
0.0
 10
84.7621170842185
 20
-105.6162128112319
 30
0.0
 10
84.31601847970785
 20
-106.0623114157426
 30
0.0
 10
83.76572796336092
 20
-106.0623114157426
 30
0.0
  0
SPLINE
  5
65
330
5F
100
AcDbEntity
  8
LAYER_1
 62
     7
100
AcDbSpline
210
0.0
220
0.0
230
1.0
 70
    11
 71
     3
 72
    29
 73
    25
 74
     0
 42
0.0000000001
 43
0.0000000001
 12
1.0
 22
0.0
 32
0.0
 13
1.0
 23
0.0
 33
0.0
 40
0.0
 40
0.0
 40
0.0
 40
0.0
 40
1.0
 40
1.0
 40
1.0
 40
2.0
 40
2.0
 40
2.0
 40
3.0
 40
3.0
 40
3.0
 40
4.0
 40
4.0
 40
4.0
 40
5.0
 40
5.0
 40
5.0
 40
6.0
 40
6.0
 40
6.0
 40
7.0
 40
7.0
 40
7.0
 40
8.0
 40
8.0
 40
8.0
 40
8.0
 10
87.00295644396837
 20
-114.9523114135216
 30
0.0
 10
87.00295644396837
 20
-114.9523114135216
 30
0.0
 10
75.979374763959
 20
-114.9523114135216
 30
0.0
 10
75.979374763959
 20
-114.9523114135216
 30
0.0
 10
75.42584313338808
 20
-114.9523114135216
 30
0.0
 10
74.97711708666404
 20
-114.5035853667973
 30
0.0
 10
74.97711708666404
 20
-113.9500537362267
 30
0.0
 10
74.97711708666404
 20
-113.9500537362267
 30
0.0
 10
74.97711708666404
 20
-110.6145690923875
 30
0.0
 10
74.97711708666404
 20
-110.6145690923875
 30
0.0
 10
74.97711708666404
 20
-110.0610374618162
 30
0.0
 10
75.42584313338841
 20
-109.6123114150919
 30
0.0
 10
75.97937476395964
 20
-109.6123114150919
 30
0.0
 10
75.97937476395964
 20
-109.6123114150919
 30
0.0
 10
87.00295644396772
 20
-109.6123114150919
 30
0.0
 10
87.00295644396772
 20
-109.6123114150919
 30
0.0
 10
87.55648807453896
 20
-109.6123114150919
 30
0.0
 10
88.00521412126332
 20
-110.0610374618162
 30
0.0
 10
88.00521412126332
 20
-110.6145690923875
 30
0.0
 10
88.00521412126332
 20
-110.6145690923875
 30
0.0
 10
88.00521412126332
 20
-113.9500537362267
 30
0.0
 10
88.00521412126332
 20
-113.9500537362267
 30
0.0
 10
88.00521412126332
 20
-114.5035853667973
 30
0.0
 10
87.55648807453927
 20
-114.9523114135216
 30
0.0
 10
87.00295644396837
 20
-114.9523114135216
 30
0.0
  0
SPLINE
  5
66
330
5F
100
AcDbEntity
  8
LAYER_1
 62
     7
100
AcDbSpline
210
0.0
220
0.0
230
1.0
 70
    11
 71
     3
 72
    29
 73
    25
 74
     0
 42
0.0000000001
 43
0.0000000001
 12
1.0
 22
0.0
 32
0.0
 13
1.0
 23
0.0
 33
0.0
 40
0.0
 40
0.0
 40
0.0
 40
0.0
 40
1.0
 40
1.0
 40
1.0
 40
2.0
 40
2.0
 40
2.0
 40
3.0
 40
3.0
 40
3.0
 40
4.0
 40
4.0
 40
4.0
 40
5.0
 40
5.0
 40
5.0
 40
6.0
 40
6.0
 40
6.0
 40
7.0
 40
7.0
 40
7.0
 40
8.0
 40
8.0
 40
8.0
 40
8.0
 10
91.89436656269102
 20
-123.8423114112987
 30
0.0
 10
91.89436656269102
 20
-123.8423114112987
 30
0.0
 10
75.96909648530507
 20
-123.8423114112987
 30
0.0
 10
75.96909648530507
 20
-123.8423114112987
 30
0.0
 10
75.4212413912891
 20
-123.8423114112987
 30
0.0
 10
74.97711708666404
 20
-123.3981871066737
 30
0.0
 10
74.97711708666404
 20
-122.850332012658
 30
0.0
 10
74.97711708666404
 20
-122.850332012658
 30
0.0
 10
74.97711708666404
 20
-119.4942908115058
 30
0.0
 10
74.97711708666404
 20
-119.4942908115058
 30
0.0
 10
74.97711708666404
 20
-118.9464357174902
 30
0.0
 10
75.42124139128943
 20
-118.5023114128645
 30
0.0
 10
75.96909648530571
 20
-118.5023114128645
 30
0.0
 10
75.96909648530571
 20
-118.5023114128645
 30
0.0
 10
91.89436656269038
 20
-118.5023114128645
 30
0.0
 10
91.89436656269038
 20
-118.5023114128645
 30
0.0
 10
92.44222165670635
 20
-118.5023114128645
 30
0.0
 10
92.88634596133173
 20
-118.9464357174902
 30
0.0
 10
92.88634596133173
 20
-119.4942908115058
 30
0.0
 10
92.88634596133173
 20
-119.4942908115058
 30
0.0
 10
92.88634596133173
 20
-122.850332012658
 30
0.0
 10
92.88634596133173
 20
-122.850332012658
 30
0.0
 10
92.88634596133173
 20
-123.3981871066737
 30
0.0
 10
92.44222165670666
 20
-123.8423114112987
 30
0.0
 10
91.89436656269102
 20
-123.8423114112987
 30
0.0
  0
SPLINE
  5
67
330
5F
100
AcDbEntity
  8
LAYER_1
 62
     7
100
AcDbSpline
210
0.0
220
0.0
230
1.0
 70
    11
 71
     3
 72
    29
 73
    25
 74
     0
 42
0.0000000001
 43
0.0000000001
 12
1.0
 22
0.0
 32
0.0
 13
1.0
 23
0.0
 33
0.0
 40
0.0
 40
0.0
 40
0.0
 40
0.0
 40
1.0
 40
1.0
 40
1.0
 40
2.0
 40
2.0
 40
2.0
 40
3.0
 40
3.0
 40
3.0
 40
4.0
 40
4.0
 40
4.0
 40
5.0
 40
5.0
 40
5.0
 40
6.0
 40
6.0
 40
6.0
 40
7.0
 40
7.0
 40
7.0
 40
8.0
 40
8.0
 40
8.0
 40
8.0
 10
196.5690851913928
 20
-123.8423114112904
 30
0.0
 10
196.5690851913928
 20
-123.8423114112904
 30
0.0
 10
187.3603577990709
 20
-123.8423114112904
 30
0.0
 10
187.3603577990709
 20
-123.8423114112904
 30
0.0
 10
186.3147498104634
 20
-123.8423114112904
 30
0.0
 10
185.4671170588041
 20
-122.994678659631
 30
0.0
 10
185.4671170588041
 20
-121.9490706710235
 30
0.0
 10
185.4671170588041
 20
-121.9490706710235
 30
0.0
 10
185.4671170588041
 20
-120.3955521531403
 30
0.0
 10
185.4671170588041
 20
-120.3955521531403
 30
0.0
 10
185.4671170588041
 20
-119.3499441645321
 30
0.0
 10
186.3147498104634
 20
-118.5023114128728
 30
0.0
 10
187.3603577990715
 20
-118.5023114128728
 30
0.0
 10
187.3603577990715
 20
-118.5023114128728
 30
0.0
 10
196.5690851913928
 20
-118.5023114128728
 30
0.0
 10
196.5690851913928
 20
-118.5023114128728
 30
0.0
 10
197.6146931800002
 20
-118.5023114128728
 30
0.0
 10
198.4623259316596
 20
-119.3499441645321
 30
0.0
 10
198.4623259316596
 20
-120.3955521531396
 30
0.0
 10
198.4623259316596
 20
-120.3955521531396
 30
0.0
 10
198.4623259316596
 20
-121.9490706710235
 30
0.0
 10
198.4623259316596
 20
-121.9490706710235
 30
0.0
 10
198.4623259316596
 20
-122.994678659631
 30
0.0
 10
197.6146931800002
 20
-123.8423114112904
 30
0.0
 10
196.5690851913928
 20
-123.8423114112904
 30
0.0
  0
SPLINE
  5
68
330
5F
100
AcDbEntity
  8
LAYER_1
 62
     7
100
AcDbSpline
210
0.0
220
0.0
230
1.0
 70
    11
 71
     3
 72
    29
 73
    25
 74
     0
 42
0.0000000001
 43
0.0000000001
 12
1.0
 22
0.0
 32
0.0
 13
1.0
 23
0.0
 33
0.0
 40
0.0
 40
0.0
 40
0.0
 40
0.0
 40
1.0
 40
1.0
 40
1.0
 40
2.0
 40
2.0
 40
2.0
 40
3.0
 40
3.0
 40
3.0
 40
4.0
 40
4.0
 40
4.0
 40
5.0
 40
5.0
 40
5.0
 40
6.0
 40
6.0
 40
6.0
 40
7.0
 40
7.0
 40
7.0
 40
8.0
 40
8.0
 40
8.0
 40
8.0
 10
175.3094025042245
 20
-132.7323114091452
 30
0.0
 10
175.3094025042245
 20
-132.7323114091452
 30
0.0
 10
102.8626439066947
 20
-132.7323114118724
 30
0.0
 10
102.8626439066947
 20
-132.7323114118724
 30
0.0
 10
101.5702080722877
 20
-132.7323114119205
 30
0.0
 10
100.522481816751
 20
-131.6845851563543
 30
0.0
 10
100.5224818168366
 20
-130.3921493219466
 30
0.0
 10
100.5224818168366
 20
-130.3921493219466
 30
0.0
 10
100.5224818168806
 20
-129.732473501811
 30
0.0
 10
100.5224818168806
 20
-129.732473501811
 30
0.0
 10
100.5224818169663
 20
-128.4400376659993
 30
0.0
 10
101.5702080736882
 20
-127.3923114093851
 30
0.0
 10
102.8626439094996
 20
-127.3923114094313
 30
0.0
 10
102.8626439094996
 20
-127.3923114094313
 30
0.0
 10
175.3094025019234
 20
-127.3923114120373
 30
0.0
 10
175.3094025019234
 20
-127.3923114120373
 30
0.0
 10
176.6018383357361
 20
-127.3923114120835
 30
0.0
 10
177.649564590748
 20
-128.44003766718
 30
0.0
 10
177.6495645906909
 20
-129.7324735009928
 30
0.0
 10
177.6495645906909
 20
-129.7324735009928
 30
0.0
 10
177.649564590662
 20
-130.3921493227231
 30
0.0
 10
177.649564590662
 20
-130.3921493227231
 30
0.0
 10
177.6495645906049
 20
-131.6845851551684
 30
0.0
 10
176.6018383366698
 20
-132.7323114090964
 30
0.0
 10
175.3094025042245
 20
-132.7323114091452
 30
0.0
  0
SPLINE
  5
69
330
5F
100
AcDbEntity
  8
LAYER_1
 62
     7
100
AcDbSpline
210
0.0
220
0.0
230
1.0
 70
    11
 71
     3
 72
    29
 73
    25
 74
     0
 42
0.0000000001
 43
0.0000000001
 12
1.0
 22
0.0
 32
0.0
 13
1.0
 23
0.0
 33
0.0
 40
0.0
 40
0.0
 40
0.0
 40
0.0
 40
1.0
 40
1.0
 40
1.0
 40
2.0
 40
2.0
 40
2.0
 40
3.0
 40
3.0
 40
3.0
 40
4.0
 40
4.0
 40
4.0
 40
5.0
 40
5.0
 40
5.0
 40
6.0
 40
6.0
 40
6.0
 40
7.0
 40
7.0
 40
7.0
 40
8.0
 40
8.0
 40
8.0
 40
8.0
 10
71.50223846143201
 20
-92.81759818666565
 30
0.0
 10
71.50223846143201
 20
-92.81759818666565
 30
0.0
 10
71.50223846143201
 20
-105.0770246486184
 30
0.0
 10
71.50223846143201
 20
-105.0770246486184
 30
0.0
 10
71.50223846143201
 20
-105.6211835043113
 30
0.0
 10
71.06111055000038
 20
-106.0623114157426
 30
0.0
 10
70.51695169430783
 20
-106.0623114157426
 30
0.0
 10
70.51695169430783
 20
-106.0623114157426
 30
0.0
 10
67.1475252301322
 20
-106.0623114157426
 30
0.0
 10
67.1475252301322
 20
-106.0623114157426
 30
0.0
 10
66.60336637443869
 20
-106.0623114157426
 30
0.0
 10
66.16223846300707
 20
-105.6211835043106
 30
0.0
 10
66.16223846300707
 20
-105.0770246486178
 30
0.0
 10
66.16223846300707
 20
-105.0770246486178
 30
0.0
 10
66.16223846300707
 20
-92.81759818666565
 30
0.0
 10
66.16223846300707
 20
-92.81759818666565
 30
0.0
 10
66.16223846300707
 20
-92.27343933097279
 30
0.0
 10
66.60336637443869
 20
-91.83231141954147
 30
0.0
 10
67.14752523013156
 20
-91.83231141954147
 30
0.0
 10
67.14752523013156
 20
-91.83231141954147
 30
0.0
 10
70.51695169430783
 20
-91.83231141954147
 30
0.0
 10
70.51695169430783
 20
-91.83231141954147
 30
0.0
 10
71.06111055000038
 20
-91.83231141954147
 30
0.0
 10
71.50223846143201
 20
-92.27343933097279
 30
0.0
 10
71.50223846143201
 20
-92.81759818666565
 30
0.0
  0
SPLINE
  5
6A
330
5F
100
AcDbEntity
  8
LAYER_1
 62
     7
100
AcDbSpline
210
0.0
220
0.0
230
1.0
 70
    11
 71
     3
 72
    29
 73
    25
 74
     0
 42
0.0000000001
 43
0.0000000001
 12
1.0
 22
0.0
 32
0.0
 13
1.0
 23
0.0
 33
0.0
 40
0.0
 40
0.0
 40
0.0
 40
0.0
 40
1.0
 40
1.0
 40
1.0
 40
2.0
 40
2.0
 40
2.0
 40
3.0
 40
3.0
 40
3.0
 40
4.0
 40
4.0
 40
4.0
 40
5.0
 40
5.0
 40
5.0
 40
6.0
 40
6.0
 40
6.0
 40
7.0
 40
7.0
 40
7.0
 40
8.0
 40
8.0
 40
8.0
 40
8.0
 10
203.7604009512887
 20
-97.17231141796738
 30
0.0
 10
203.7604009512887
 20
-97.17231141796738
 30
0.0
 10
200.453833158238
 20
-97.17231141796738
 30
0.0
 10
200.453833158238
 20
-97.17231141796738
 30
0.0
 10
199.8923163598163
 20
-97.17231141796738
 30
0.0
 10
199.4371170555504
 20
-96.71711211370145
 30
0.0
 10
199.4371170555504
 20
-96.15559531528042
 30
0.0
 10
199.4371170555504
 20
-96.15559531528042
 30
0.0
 10
199.4371170555504
 20
-92.84902752222844
 30
0.0
 10
199.4371170555504
 20
-92.84902752222844
 30
0.0
 10
199.4371170555504
 20
-92.28751072380742
 30
0.0
 10
199.8923163598163
 20
-91.83231141954147
 30
0.0
 10
200.453833158238
 20
-91.83231141954147
 30
0.0
 10
200.453833158238
 20
-91.83231141954147
 30
0.0
 10
203.7604009512887
 20
-91.83231141954147
 30
0.0
 10
203.7604009512887
 20
-91.83231141954147
 30
0.0
 10
204.3219177497104
 20
-91.83231141954147
 30
0.0
 10
204.7771170539763
 20
-92.28751072380742
 30
0.0
 10
204.7771170539763
 20
-92.84902752222844
 30
0.0
 10
204.7771170539763
 20
-92.84902752222844
 30
0.0
 10
204.7771170539763
 20
-96.15559531528042
 30
0.0
 10
204.7771170539763
 20
-96.15559531528042
 30
0.0
 10
204.7771170539763
 20
-96.71711211370145
 30
0.0
 10
204.3219177497104
 20
-97.17231141796738
 30
0.0
 10
203.7604009512887
 20
-97.17231141796738
 30
0.0
  0
SPLINE
  5
6B
330
5F
100
AcDbEntity
  8
LAYER_1
 62
     7
100
AcDbSpline
210
0.0
220
0.0
230
1.0
 70
    11
 71
     3
 72
    29
 73
    25
 74
     0
 42
0.0000000001
 43
0.0000000001
 12
1.0
 22
0.0
 32
0.0
 13
1.0
 23
0.0
 33
0.0
 40
0.0
 40
0.0
 40
0.0
 40
0.0
 40
1.0
 40
1.0
 40
1.0
 40
2.0
 40
2.0
 40
2.0
 40
3.0
 40
3.0
 40
3.0
 40
4.0
 40
4.0
 40
4.0
 40
5.0
 40
5.0
 40
5.0
 40
6.0
 40
6.0
 40
6.0
 40
7.0
 40
7.0
 40
7.0
 40
8.0
 40
8.0
 40
8.0
 40
8.0
 10
203.7604086455605
 20
-88.28231142008951
 30
0.0
 10
203.7604086455605
 20
-88.28231142008951
 30
0.0
 10
200.4538408525098
 20
-88.28231142008951
 30
0.0
 10
200.4538408525098
 20
-88.28231142008951
 30
0.0
 10
199.8923240540881
 20
-88.28231142008951
 30
0.0
 10
199.4371247498222
 20
-87.82711211582358
 30
0.0
 10
199.4371247498222
 20
-87.26559531740256
 30
0.0
 10
199.4371247498222
 20
-87.26559531740256
 30
0.0
 10
199.4371247498222
 20
-83.95902752435026
 30
0.0
 10
199.4371247498222
 20
-83.95902752435026
 30
0.0
 10
199.4371247498222
 20
-83.39751072592922
 30
0.0
 10
199.8923240540881
 20
-82.94231142166329
 30
0.0
 10
200.4538408525098
 20
-82.94231142166329
 30
0.0
 10
200.4538408525098
 20
-82.94231142166329
 30
0.0
 10
203.7604086455605
 20
-82.94231142166329
 30
0.0
 10
203.7604086455605
 20
-82.94231142166329
 30
0.0
 10
204.3219254439822
 20
-82.94231142166329
 30
0.0
 10
204.7771247482481
 20
-83.39751072592922
 30
0.0
 10
204.7771247482481
 20
-83.95902752435026
 30
0.0
 10
204.7771247482481
 20
-83.95902752435026
 30
0.0
 10
204.7771247482481
 20
-87.26559531740256
 30
0.0
 10
204.7771247482481
 20
-87.26559531740256
 30
0.0
 10
204.7771247482481
 20
-87.82711211582358
 30
0.0
 10
204.3219254439822
 20
-88.28231142008951
 30
0.0
 10
203.7604086455605
 20
-88.28231142008951
 30
0.0
  0
SPLINE
  5
6C
330
5F
100
AcDbEntity
  8
LAYER_1
 62
     7
100
AcDbSpline
210
0.0
220
0.0
230
1.0
 70
    11
 71
     3
 72
    29
 73
    25
 74
     0
 42
0.0000000001
 43
0.0000000001
 12
1.0
 22
0.0
 32
0.0
 13
1.0
 23
0.0
 33
0.0
 40
0.0
 40
0.0
 40
0.0
 40
0.0
 40
1.0
 40
1.0
 40
1.0
 40
2.0
 40
2.0
 40
2.0
 40
3.0
 40
3.0
 40
3.0
 40
4.0
 40
4.0
 40
4.0
 40
5.0
 40
5.0
 40
5.0
 40
6.0
 40
6.0
 40
6.0
 40
7.0
 40
7.0
 40
7.0
 40
8.0
 40
8.0
 40
8.0
 40
8.0
 10
194.8704009535116
 20
-88.28231142008951
 30
0.0
 10
194.8704009535116
 20
-88.28231142008951
 30
0.0
 10
191.5638331604609
 20
-88.28231142008951
 30
0.0
 10
191.5638331604609
 20
-88.28231142008951
 30
0.0
 10
191.0023163620392
 20
-88.28231142008951
 30
0.0
 10
190.5471170577733
 20
-87.82711211582358
 30
0.0
 10
190.5471170577733
 20
-87.26559531740256
 30
0.0
 10
190.5471170577733
 20
-87.26559531740256
 30
0.0
 10
190.5471170577733
 20
-83.95902752435057
 30
0.0
 10
190.5471170577733
 20
-83.95902752435057
 30
0.0
 10
190.5471170577733
 20
-83.39751072592955
 30
0.0
 10
191.0023163620392
 20
-82.9423114216636
 30
0.0
 10
191.5638331604609
 20
-82.9423114216636
 30
0.0
 10
191.5638331604609
 20
-82.9423114216636
 30
0.0
 10
194.8704009535116
 20
-82.9423114216636
 30
0.0
 10
194.8704009535116
 20
-82.9423114216636
 30
0.0
 10
195.4319177519332
 20
-82.9423114216636
 30
0.0
 10
195.8871170561992
 20
-83.39751072592955
 30
0.0
 10
195.8871170561992
 20
-83.95902752435057
 30
0.0
 10
195.8871170561992
 20
-83.95902752435057
 30
0.0
 10
195.8871170561992
 20
-87.26559531740256
 30
0.0
 10
195.8871170561992
 20
-87.26559531740256
 30
0.0
 10
195.8871170561992
 20
-87.82711211582358
 30
0.0
 10
195.4319177519332
 20
-88.28231142008951
 30
0.0
 10
194.8704009535116
 20
-88.28231142008951
 30
0.0
  0
SPLINE
  5
6D
330
5F
100
AcDbEntity
  8
LAYER_1
 62
     7
100
AcDbSpline
210
0.0
220
0.0
230
1.0
 70
    11
 71
     3
 72
    29
 73
    25
 74
     0
 42
0.0000000001
 43
0.0000000001
 12
1.0
 22
0.0
 32
0.0
 13
1.0
 23
0.0
 33
0.0
 40
0.0
 40
0.0
 40
0.0
 40
0.0
 40
1.0
 40
1.0
 40
1.0
 40
2.0
 40
2.0
 40
2.0
 40
3.0
 40
3.0
 40
3.0
 40
4.0
 40
4.0
 40
4.0
 40
5.0
 40
5.0
 40
5.0
 40
6.0
 40
6.0
 40
6.0
 40
7.0
 40
7.0
 40
7.0
 40
8.0
 40
8.0
 40
8.0
 40
8.0
 10
185.9804009557332
 20
-88.28231142008951
 30
0.0
 10
185.9804009557332
 20
-88.28231142008951
 30
0.0
 10
182.6738331626825
 20
-88.28231142008951
 30
0.0
 10
182.6738331626825
 20
-88.28231142008951
 30
0.0
 10
182.1123163642608
 20
-88.28231142008951
 30
0.0
 10
181.6571170599949
 20
-87.82711211582358
 30
0.0
 10
181.6571170599949
 20
-87.26559531740256
 30
0.0
 10
181.6571170599949
 20
-87.26559531740256
 30
0.0
 10
181.6571170599949
 20
-83.95902752435057
 30
0.0
 10
181.6571170599949
 20
-83.95902752435057
 30
0.0
 10
181.6571170599949
 20
-83.39751072592955
 30
0.0
 10
182.1123163642608
 20
-82.9423114216636
 30
0.0
 10
182.6738331626825
 20
-82.9423114216636
 30
0.0
 10
182.6738331626825
 20
-82.9423114216636
 30
0.0
 10
185.9804009557332
 20
-82.9423114216636
 30
0.0
 10
185.9804009557332
 20
-82.9423114216636
 30
0.0
 10
186.5419177541549
 20
-82.9423114216636
 30
0.0
 10
186.9971170584208
 20
-83.39751072592955
 30
0.0
 10
186.9971170584208
 20
-83.95902752435057
 30
0.0
 10
186.9971170584208
 20
-83.95902752435057
 30
0.0
 10
186.9971170584208
 20
-87.26559531740256
 30
0.0
 10
186.9971170584208
 20
-87.26559531740256
 30
0.0
 10
186.9971170584208
 20
-87.82711211582358
 30
0.0
 10
186.5419177541549
 20
-88.28231142008951
 30
0.0
 10
185.9804009557332
 20
-88.28231142008951
 30
0.0
  0
SPLINE
  5
6E
330
5F
100
AcDbEntity
  8
LAYER_1
 62
     7
100
AcDbSpline
210
0.0
220
0.0
230
1.0
 70
    11
 71
     3
 72
    29
 73
    25
 74
     0
 42
0.0000000001
 43
0.0000000001
 12
1.0
 22
0.0
 32
0.0
 13
1.0
 23
0.0
 33
0.0
 40
0.0
 40
0.0
 40
0.0
 40
0.0
 40
1.0
 40
1.0
 40
1.0
 40
2.0
 40
2.0
 40
2.0
 40
3.0
 40
3.0
 40
3.0
 40
4.0
 40
4.0
 40
4.0
 40
5.0
 40
5.0
 40
5.0
 40
6.0
 40
6.0
 40
6.0
 40
7.0
 40
7.0
 40
7.0
 40
8.0
 40
8.0
 40
8.0
 40
8.0
 10
212.6504009490677
 20
-88.28231142008951
 30
0.0
 10
212.6504009490677
 20
-88.28231142008951
 30
0.0
 10
209.343833156017
 20
-88.28231142008951
 30
0.0
 10
209.343833156017
 20
-88.28231142008951
 30
0.0
 10
208.7823163575954
 20
-88.28231142008951
 30
0.0
 10
208.3271170533294
 20
-87.82711211582358
 30
0.0
 10
208.3271170533294
 20
-87.26559531740256
 30
0.0
 10
208.3271170533294
 20
-87.26559531740256
 30
0.0
 10
208.3271170533294
 20
-83.95902752435057
 30
0.0
 10
208.3271170533294
 20
-83.95902752435057
 30
0.0
 10
208.3271170533294
 20
-83.39751072592955
 30
0.0
 10
208.7823163575954
 20
-82.9423114216636
 30
0.0
 10
209.343833156017
 20
-82.9423114216636
 30
0.0
 10
209.343833156017
 20
-82.9423114216636
 30
0.0
 10
212.6504009490677
 20
-82.9423114216636
 30
0.0
 10
212.6504009490677
 20
-82.9423114216636
 30
0.0
 10
213.2119177474894
 20
-82.9423114216636
 30
0.0
 10
213.6671170517554
 20
-83.39751072592955
 30
0.0
 10
213.6671170517554
 20
-83.95902752435057
 30
0.0
 10
213.6671170517554
 20
-83.95902752435057
 30
0.0
 10
213.6671170517554
 20
-87.26559531740256
 30
0.0
 10
213.6671170517554
 20
-87.26559531740256
 30
0.0
 10
213.6671170517554
 20
-87.82711211582358
 30
0.0
 10
213.2119177474894
 20
-88.28231142008951
 30
0.0
 10
212.6504009490677
 20
-88.28231142008951
 30
0.0
  0
SPLINE
  5
6F
330
5F
100
AcDbEntity
  8
LAYER_1
 62
     7
100
AcDbSpline
210
0.0
220
0.0
230
1.0
 70
    11
 71
     3
 72
    29
 73
    25
 74
     0
 42
0.0000000001
 43
0.0000000001
 12
1.0
 22
0.0
 32
0.0
 13
1.0
 23
0.0
 33
0.0
 40
0.0
 40
0.0
 40
0.0
 40
0.0
 40
1.0
 40
1.0
 40
1.0
 40
2.0
 40
2.0
 40
2.0
 40
3.0
 40
3.0
 40
3.0
 40
4.0
 40
4.0
 40
4.0
 40
5.0
 40
5.0
 40
5.0
 40
6.0
 40
6.0
 40
6.0
 40
7.0
 40
7.0
 40
7.0
 40
8.0
 40
8.0
 40
8.0
 40
8.0
 10
212.6504009490677
 20
-97.17231141796738
 30
0.0
 10
212.6504009490677
 20
-97.17231141796738
 30
0.0
 10
209.343833156017
 20
-97.17231141796738
 30
0.0
 10
209.343833156017
 20
-97.17231141796738
 30
0.0
 10
208.7823163575954
 20
-97.17231141796738
 30
0.0
 10
208.3271170533294
 20
-96.71711211370145
 30
0.0
 10
208.3271170533294
 20
-96.15559531528042
 30
0.0
 10
208.3271170533294
 20
-96.15559531528042
 30
0.0
 10
208.3271170533294
 20
-92.84902752222844
 30
0.0
 10
208.3271170533294
 20
-92.84902752222844
 30
0.0
 10
208.3271170533294
 20
-92.28751072380742
 30
0.0
 10
208.7823163575954
 20
-91.83231141954147
 30
0.0
 10
209.343833156017
 20
-91.83231141954147
 30
0.0
 10
209.343833156017
 20
-91.83231141954147
 30
0.0
 10
212.6504009490677
 20
-91.83231141954147
 30
0.0
 10
212.6504009490677
 20
-91.83231141954147
 30
0.0
 10
213.2119177474894
 20
-91.83231141954147
 30
0.0
 10
213.6671170517554
 20
-92.28751072380742
 30
0.0
 10
213.6671170517554
 20
-92.84902752222844
 30
0.0
 10
213.6671170517554
 20
-92.84902752222844
 30
0.0
 10
213.6671170517554
 20
-96.15559531528042
 30
0.0
 10
213.6671170517554
 20
-96.15559531528042
 30
0.0
 10
213.6671170517554
 20
-96.71711211370145
 30
0.0
 10
213.2119177474894
 20
-97.17231141796738
 30
0.0
 10
212.6504009490677
 20
-97.17231141796738
 30
0.0
  0
SPLINE
  5
70
330
5F
100
AcDbEntity
  8
LAYER_1
 62
     7
100
AcDbSpline
210
0.0
220
0.0
230
1.0
 70
    11
 71
     3
 72
    29
 73
    25
 74
     0
 42
0.0000000001
 43
0.0000000001
 12
1.0
 22
0.0
 32
0.0
 13
1.0
 23
0.0
 33
0.0
 40
0.0
 40
0.0
 40
0.0
 40
0.0
 40
1.0
 40
1.0
 40
1.0
 40
2.0
 40
2.0
 40
2.0
 40
3.0
 40
3.0
 40
3.0
 40
4.0
 40
4.0
 40
4.0
 40
5.0
 40
5.0
 40
5.0
 40
6.0
 40
6.0
 40
6.0
 40
7.0
 40
7.0
 40
7.0
 40
8.0
 40
8.0
 40
8.0
 40
8.0
 10
185.9804009557345
 20
-97.17231141796738
 30
0.0
 10
185.9804009557345
 20
-97.17231141796738
 30
0.0
 10
182.6738331626838
 20
-97.17231141796738
 30
0.0
 10
182.6738331626838
 20
-97.17231141796738
 30
0.0
 10
182.1123163642621
 20
-97.17231141796738
 30
0.0
 10
181.6571170599962
 20
-96.71711211370145
 30
0.0
 10
181.6571170599962
 20
-96.15559531528042
 30
0.0
 10
181.6571170599962
 20
-96.15559531528042
 30
0.0
 10
181.6571170599962
 20
-92.84902752222844
 30
0.0
 10
181.6571170599962
 20
-92.84902752222844
 30
0.0
 10
181.6571170599962
 20
-92.28751072380742
 30
0.0
 10
182.1123163642621
 20
-91.83231141954147
 30
0.0
 10
182.6738331626838
 20
-91.83231141954147
 30
0.0
 10
182.6738331626838
 20
-91.83231141954147
 30
0.0
 10
185.9804009557345
 20
-91.83231141954147
 30
0.0
 10
185.9804009557345
 20
-91.83231141954147
 30
0.0
 10
186.5419177541561
 20
-91.83231141954147
 30
0.0
 10
186.9971170584221
 20
-92.28751072380742
 30
0.0
 10
186.9971170584221
 20
-92.84902752222844
 30
0.0
 10
186.9971170584221
 20
-92.84902752222844
 30
0.0
 10
186.9971170584221
 20
-96.15559531528042
 30
0.0
 10
186.9971170584221
 20
-96.15559531528042
 30
0.0
 10
186.9971170584221
 20
-96.71711211370145
 30
0.0
 10
186.5419177541561
 20
-97.17231141796738
 30
0.0
 10
185.9804009557345
 20
-97.17231141796738
 30
0.0
  0
SPLINE
  5
71
330
5F
100
AcDbEntity
  8
LAYER_1
 62
     7
100
AcDbSpline
210
0.0
220
0.0
230
1.0
 70
    11
 71
     3
 72
    29
 73
    25
 74
     0
 42
0.0000000001
 43
0.0000000001
 12
1.0
 22
0.0
 32
0.0
 13
1.0
 23
0.0
 33
0.0
 40
0.0
 40
0.0
 40
0.0
 40
0.0
 40
1.0
 40
1.0
 40
1.0
 40
2.0
 40
2.0
 40
2.0
 40
3.0
 40
3.0
 40
3.0
 40
4.0
 40
4.0
 40
4.0
 40
5.0
 40
5.0
 40
5.0
 40
6.0
 40
6.0
 40
6.0
 40
7.0
 40
7.0
 40
7.0
 40
8.0
 40
8.0
 40
8.0
 40
8.0
 10
177.0904009579554
 20
-97.17231141796738
 30
0.0
 10
177.0904009579554
 20
-97.17231141796738
 30
0.0
 10
173.7838331649047
 20
-97.17231141796738
 30
0.0
 10
173.7838331649047
 20
-97.17231141796738
 30
0.0
 10
173.2223163664831
 20
-97.17231141796738
 30
0.0
 10
172.7671170622171
 20
-96.71711211370145
 30
0.0
 10
172.7671170622171
 20
-96.15559531528042
 30
0.0
 10
172.7671170622171
 20
-96.15559531528042
 30
0.0
 10
172.7671170622171
 20
-92.84902752222844
 30
0.0
 10
172.7671170622171
 20
-92.84902752222844
 30
0.0
 10
172.7671170622171
 20
-92.28751072380742
 30
0.0
 10
173.2223163664831
 20
-91.83231141954147
 30
0.0
 10
173.7838331649047
 20
-91.83231141954147
 30
0.0
 10
173.7838331649047
 20
-91.83231141954147
 30
0.0
 10
177.0904009579554
 20
-91.83231141954147
 30
0.0
 10
177.0904009579554
 20
-91.83231141954147
 30
0.0
 10
177.6519177563771
 20
-91.83231141954147
 30
0.0
 10
178.107117060643
 20
-92.28751072380742
 30
0.0
 10
178.107117060643
 20
-92.84902752222844
 30
0.0
 10
178.107117060643
 20
-92.84902752222844
 30
0.0
 10
178.107117060643
 20
-96.15559531528042
 30
0.0
 10
178.107117060643
 20
-96.15559531528042
 30
0.0
 10
178.107117060643
 20
-96.71711211370145
 30
0.0
 10
177.6519177563771
 20
-97.17231141796738
 30
0.0
 10
177.0904009579554
 20
-97.17231141796738
 30
0.0
  0
SPLINE
  5
72
330
5F
100
AcDbEntity
  8
LAYER_1
 62
     7
100
AcDbSpline
210
0.0
220
0.0
230
1.0
 70
    11
 71
     3
 72
    29
 73
    25
 74
     0
 42
0.0000000001
 43
0.0000000001
 12
1.0
 22
0.0
 32
0.0
 13
1.0
 23
0.0
 33
0.0
 40
0.0
 40
0.0
 40
0.0
 40
0.0
 40
1.0
 40
1.0
 40
1.0
 40
2.0
 40
2.0
 40
2.0
 40
3.0
 40
3.0
 40
3.0
 40
4.0
 40
4.0
 40
4.0
 40
5.0
 40
5.0
 40
5.0
 40
6.0
 40
6.0
 40
6.0
 40
7.0
 40
7.0
 40
7.0
 40
8.0
 40
8.0
 40
8.0
 40
8.0
 10
208.8404009500192
 20
-106.0623114157445
 30
0.0
 10
208.8404009500192
 20
-106.0623114157445
 30
0.0
 10
205.5338331569685
 20
-106.0623114157445
 30
0.0
 10
205.5338331569685
 20
-106.0623114157445
 30
0.0
 10
204.9723163585468
 20
-106.0623114157445
 30
0.0
 10
204.5171170542809
 20
-105.6071121114786
 30
0.0
 10
204.5171170542809
 20
-105.0455953130575
 30
0.0
 10
204.5171170542809
 20
-105.0455953130575
 30
0.0
 10
204.5171170542809
 20
-101.7390275200055
 30
0.0
 10
204.5171170542809
 20
-101.7390275200055
 30
0.0
 10
204.5171170542809
 20
-101.1775107215845
 30
0.0
 10
204.9723163585468
 20
-100.7223114173186
 30
0.0
 10
205.5338331569685
 20
-100.7223114173186
 30
0.0
 10
205.5338331569685
 20
-100.7223114173186
 30
0.0
 10
208.8404009500192
 20
-100.7223114173186
 30
0.0
 10
208.8404009500192
 20
-100.7223114173186
 30
0.0
 10
209.4019177484409
 20
-100.7223114173186
 30
0.0
 10
209.8571170527068
 20
-101.1775107215845
 30
0.0
 10
209.8571170527068
 20
-101.7390275200055
 30
0.0
 10
209.8571170527068
 20
-101.7390275200055
 30
0.0
 10
209.8571170527068
 20
-105.0455953130575
 30
0.0
 10
209.8571170527068
 20
-105.0455953130575
 30
0.0
 10
209.8571170527068
 20
-105.6071121114786
 30
0.0
 10
209.4019177484409
 20
-106.0623114157445
 30
0.0
 10
208.8404009500192
 20
-106.0623114157445
 30
0.0
  0
SPLINE
  5
73
330
5F
100
AcDbEntity
  8
LAYER_1
 62
     7
100
AcDbSpline
210
0.0
220
0.0
230
1.0
 70
    11
 71
     3
 72
    29
 73
    25
 74
     0
 42
0.0000000001
 43
0.0000000001
 12
1.0
 22
0.0
 32
0.0
 13
1.0
 23
0.0
 33
0.0
 40
0.0
 40
0.0
 40
0.0
 40
0.0
 40
1.0
 40
1.0
 40
1.0
 40
2.0
 40
2.0
 40
2.0
 40
3.0
 40
3.0
 40
3.0
 40
4.0
 40
4.0
 40
4.0
 40
5.0
 40
5.0
 40
5.0
 40
6.0
 40
6.0
 40
6.0
 40
7.0
 40
7.0
 40
7.0
 40
8.0
 40
8.0
 40
8.0
 40
8.0
 10
168.2004009601777
 20
-97.17231141796738
 30
0.0
 10
168.2004009601777
 20
-97.17231141796738
 30
0.0
 10
164.893833167127
 20
-97.17231141796738
 30
0.0
 10
164.893833167127
 20
-97.17231141796738
 30
0.0
 10
164.3323163687053
 20
-97.17231141796738
 30
0.0
 10
163.8771170644394
 20
-96.71711211370145
 30
0.0
 10
163.8771170644394
 20
-96.15559531528042
 30
0.0
 10
163.8771170644394
 20
-96.15559531528042
 30
0.0
 10
163.8771170644394
 20
-92.84902752222844
 30
0.0
 10
163.8771170644394
 20
-92.84902752222844
 30
0.0
 10
163.8771170644394
 20
-92.28751072380742
 30
0.0
 10
164.3323163687053
 20
-91.83231141954147
 30
0.0
 10
164.893833167127
 20
-91.83231141954147
 30
0.0
 10
164.893833167127
 20
-91.83231141954147
 30
0.0
 10
168.2004009601777
 20
-91.83231141954147
 30
0.0
 10
168.2004009601777
 20
-91.83231141954147
 30
0.0
 10
168.7619177585993
 20
-91.83231141954147
 30
0.0
 10
169.2171170628653
 20
-92.28751072380742
 30
0.0
 10
169.2171170628653
 20
-92.84902752222844
 30
0.0
 10
169.2171170628653
 20
-92.84902752222844
 30
0.0
 10
169.2171170628653
 20
-96.15559531528042
 30
0.0
 10
169.2171170628653
 20
-96.15559531528042
 30
0.0
 10
169.2171170628653
 20
-96.71711211370145
 30
0.0
 10
168.7619177585993
 20
-97.17231141796738
 30
0.0
 10
168.2004009601777
 20
-97.17231141796738
 30
0.0
  0
SPLINE
  5
74
330
5F
100
AcDbEntity
  8
LAYER_1
 62
     7
100
AcDbSpline
210
0.0
220
0.0
230
1.0
 70
    11
 71
     3
 72
    29
 73
    25
 74
     0
 42
0.0000000001
 43
0.0000000001
 12
1.0
 22
0.0
 32
0.0
 13
1.0
 23
0.0
 33
0.0
 40
0.0
 40
0.0
 40
0.0
 40
0.0
 40
1.0
 40
1.0
 40
1.0
 40
2.0
 40
2.0
 40
2.0
 40
3.0
 40
3.0
 40
3.0
 40
4.0
 40
4.0
 40
4.0
 40
5.0
 40
5.0
 40
5.0
 40
6.0
 40
6.0
 40
6.0
 40
7.0
 40
7.0
 40
7.0
 40
8.0
 40
8.0
 40
8.0
 40
8.0
 10
163.7554009612894
 20
-106.0623114157426
 30
0.0
 10
163.7554009612894
 20
-106.0623114157426
 30
0.0
 10
160.4488331682387
 20
-106.0623114157426
 30
0.0
 10
160.4488331682387
 20
-106.0623114157426
 30
0.0
 10
159.8873163698171
 20
-106.0623114157426
 30
0.0
 10
159.4321170655511
 20
-105.6071121114766
 30
0.0
 10
159.4321170655511
 20
-105.0455953130556
 30
0.0
 10
159.4321170655511
 20
-105.0455953130556
 30
0.0
 10
159.4321170655511
 20
-101.7390275200036
 30
0.0
 10
159.4321170655511
 20
-101.7390275200036
 30
0.0
 10
159.4321170655511
 20
-101.1775107215826
 30
0.0
 10
159.8873163698171
 20
-100.7223114173167
 30
0.0
 10
160.4488331682387
 20
-100.7223114173167
 30
0.0
 10
160.4488331682387
 20
-100.7223114173167
 30
0.0
 10
163.7554009612894
 20
-100.7223114173167
 30
0.0
 10
163.7554009612894
 20
-100.7223114173167
 30
0.0
 10
164.3169177597111
 20
-100.7223114173167
 30
0.0
 10
164.772117063977
 20
-101.1775107215826
 30
0.0
 10
164.772117063977
 20
-101.7390275200036
 30
0.0
 10
164.772117063977
 20
-101.7390275200036
 30
0.0
 10
164.772117063977
 20
-105.0455953130556
 30
0.0
 10
164.772117063977
 20
-105.0455953130556
 30
0.0
 10
164.772117063977
 20
-105.6071121114766
 30
0.0
 10
164.3169177597111
 20
-106.0623114157426
 30
0.0
 10
163.7554009612894
 20
-106.0623114157426
 30
0.0
  0
SPLINE
  5
75
330
5F
100
AcDbEntity
  8
LAYER_1
 62
     7
100
AcDbSpline
210
0.0
220
0.0
230
1.0
 70
    11
 71
     3
 72
    29
 73
    25
 74
     0
 42
0.0000000001
 43
0.0000000001
 12
1.0
 22
0.0
 32
0.0
 13
1.0
 23
0.0
 33
0.0
 40
0.0
 40
0.0
 40
0.0
 40
0.0
 40
1.0
 40
1.0
 40
1.0
 40
2.0
 40
2.0
 40
2.0
 40
3.0
 40
3.0
 40
3.0
 40
4.0
 40
4.0
 40
4.0
 40
5.0
 40
5.0
 40
5.0
 40
6.0
 40
6.0
 40
6.0
 40
7.0
 40
7.0
 40
7.0
 40
8.0
 40
8.0
 40
8.0
 40
8.0
 10
150.4204009646234
 20
-97.17231141796802
 30
0.0
 10
150.4204009646234
 20
-97.17231141796802
 30
0.0
 10
147.1138331715727
 20
-97.17231141796802
 30
0.0
 10
147.1138331715727
 20
-97.17231141796802
 30
0.0
 10
146.5523163731511
 20
-97.17231141796802
 30
0.0
 10
146.0971170688851
 20
-96.71711211370209
 30
0.0
 10
146.0971170688851
 20
-96.15559531528106
 30
0.0
 10
146.0971170688851
 20
-96.15559531528106
 30
0.0
 10
146.0971170688851
 20
-92.84902752222908
 30
0.0
 10
146.0971170688851
 20
-92.84902752222908
 30
0.0
 10
146.0971170688851
 20
-92.28751072380805
 30
0.0
 10
146.5523163731511
 20
-91.83231141954211
 30
0.0
 10
147.1138331715727
 20
-91.83231141954211
 30
0.0
 10
147.1138331715727
 20
-91.83231141954211
 30
0.0
 10
150.4204009646234
 20
-91.83231141954211
 30
0.0
 10
150.4204009646234
 20
-91.83231141954211
 30
0.0
 10
150.9819177630451
 20
-91.83231141954211
 30
0.0
 10
151.437117067311
 20
-92.28751072380805
 30
0.0
 10
151.437117067311
 20
-92.84902752222908
 30
0.0
 10
151.437117067311
 20
-92.84902752222908
 30
0.0
 10
151.437117067311
 20
-96.15559531528106
 30
0.0
 10
151.437117067311
 20
-96.15559531528106
 30
0.0
 10
151.437117067311
 20
-96.71711211370209
 30
0.0
 10
150.9819177630451
 20
-97.17231141796802
 30
0.0
 10
150.4204009646234
 20
-97.17231141796802
 30
0.0
  0
SPLINE
  5
76
330
5F
100
AcDbEntity
  8
LAYER_1
 62
     7
100
AcDbSpline
210
0.0
220
0.0
230
1.0
 70
    11
 71
     3
 72
    29
 73
    25
 74
     0
 42
0.0000000001
 43
0.0000000001
 12
1.0
 22
0.0
 32
0.0
 13
1.0
 23
0.0
 33
0.0
 40
0.0
 40
0.0
 40
0.0
 40
0.0
 40
1.0
 40
1.0
 40
1.0
 40
2.0
 40
2.0
 40
2.0
 40
3.0
 40
3.0
 40
3.0
 40
4.0
 40
4.0
 40
4.0
 40
5.0
 40
5.0
 40
5.0
 40
6.0
 40
6.0
 40
6.0
 40
7.0
 40
7.0
 40
7.0
 40
8.0
 40
8.0
 40
8.0
 40
8.0
 10
154.8654009635117
 20
-106.0623114157438
 30
0.0
 10
154.8654009635117
 20
-106.0623114157438
 30
0.0
 10
151.558833170461
 20
-106.0623114157438
 30
0.0
 10
151.558833170461
 20
-106.0623114157438
 30
0.0
 10
150.9973163720393
 20
-106.0623114157438
 30
0.0
 10
150.5421170677734
 20
-105.6071121114779
 30
0.0
 10
150.5421170677734
 20
-105.0455953130569
 30
0.0
 10
150.5421170677734
 20
-105.0455953130569
 30
0.0
 10
150.5421170677734
 20
-101.7390275200049
 30
0.0
 10
150.5421170677734
 20
-101.7390275200049
 30
0.0
 10
150.5421170677734
 20
-101.1775107215839
 30
0.0
 10
150.9973163720393
 20
-100.7223114173179
 30
0.0
 10
151.558833170461
 20
-100.7223114173179
 30
0.0
 10
151.558833170461
 20
-100.7223114173179
 30
0.0
 10
154.8654009635117
 20
-100.7223114173179
 30
0.0
 10
154.8654009635117
 20
-100.7223114173179
 30
0.0
 10
155.4269177619333
 20
-100.7223114173179
 30
0.0
 10
155.8821170661993
 20
-101.1775107215839
 30
0.0
 10
155.8821170661993
 20
-101.7390275200049
 30
0.0
 10
155.8821170661993
 20
-101.7390275200049
 30
0.0
 10
155.8821170661993
 20
-105.0455953130569
 30
0.0
 10
155.8821170661993
 20
-105.0455953130569
 30
0.0
 10
155.8821170661993
 20
-105.6071121114779
 30
0.0
 10
155.4269177619333
 20
-106.0623114157438
 30
0.0
 10
154.8654009635117
 20
-106.0623114157438
 30
0.0
  0
SPLINE
  5
77
330
5F
100
AcDbEntity
  8
LAYER_1
 62
     7
100
AcDbSpline
210
0.0
220
0.0
230
1.0
 70
    11
 71
     3
 72
    29
 73
    25
 74
     0
 42
0.0000000001
 43
0.0000000001
 12
1.0
 22
0.0
 32
0.0
 13
1.0
 23
0.0
 33
0.0
 40
0.0
 40
0.0
 40
0.0
 40
0.0
 40
1.0
 40
1.0
 40
1.0
 40
2.0
 40
2.0
 40
2.0
 40
3.0
 40
3.0
 40
3.0
 40
4.0
 40
4.0
 40
4.0
 40
5.0
 40
5.0
 40
5.0
 40
6.0
 40
6.0
 40
6.0
 40
7.0
 40
7.0
 40
7.0
 40
8.0
 40
8.0
 40
8.0
 40
8.0
 10
145.9754009657346
 20
-106.0623114157426
 30
0.0
 10
145.9754009657346
 20
-106.0623114157426
 30
0.0
 10
142.6688331726839
 20
-106.0623114157426
 30
0.0
 10
142.6688331726839
 20
-106.0623114157426
 30
0.0
 10
142.1073163742622
 20
-106.0623114157426
 30
0.0
 10
141.6521170699963
 20
-105.6071121114766
 30
0.0
 10
141.6521170699963
 20
-105.0455953130556
 30
0.0
 10
141.6521170699963
 20
-105.0455953130556
 30
0.0
 10
141.6521170699963
 20
-101.7390275200036
 30
0.0
 10
141.6521170699963
 20
-101.7390275200036
 30
0.0
 10
141.6521170699963
 20
-101.1775107215826
 30
0.0
 10
142.1073163742622
 20
-100.7223114173167
 30
0.0
 10
142.6688331726839
 20
-100.7223114173167
 30
0.0
 10
142.6688331726839
 20
-100.7223114173167
 30
0.0
 10
145.9754009657346
 20
-100.7223114173167
 30
0.0
 10
145.9754009657346
 20
-100.7223114173167
 30
0.0
 10
146.5369177641562
 20
-100.7223114173167
 30
0.0
 10
146.9921170684222
 20
-101.1775107215826
 30
0.0
 10
146.9921170684222
 20
-101.7390275200036
 30
0.0
 10
146.9921170684222
 20
-101.7390275200036
 30
0.0
 10
146.9921170684222
 20
-105.0455953130556
 30
0.0
 10
146.9921170684222
 20
-105.0455953130556
 30
0.0
 10
146.9921170684222
 20
-105.6071121114766
 30
0.0
 10
146.5369177641562
 20
-106.0623114157426
 30
0.0
 10
145.9754009657346
 20
-106.0623114157426
 30
0.0
  0
SPLINE
  5
78
330
5F
100
AcDbEntity
  8
LAYER_1
 62
     7
100
AcDbSpline
210
0.0
220
0.0
230
1.0
 70
    11
 71
     3
 72
    29
 73
    25
 74
     0
 42
0.0000000001
 43
0.0000000001
 12
1.0
 22
0.0
 32
0.0
 13
1.0
 23
0.0
 33
0.0
 40
0.0
 40
0.0
 40
0.0
 40
0.0
 40
1.0
 40
1.0
 40
1.0
 40
2.0
 40
2.0
 40
2.0
 40
3.0
 40
3.0
 40
3.0
 40
4.0
 40
4.0
 40
4.0
 40
5.0
 40
5.0
 40
5.0
 40
6.0
 40
6.0
 40
6.0
 40
7.0
 40
7.0
 40
7.0
 40
8.0
 40
8.0
 40
8.0
 40
8.0
 10
159.3104009623999
 20
-97.17231141796802
 30
0.0
 10
159.3104009623999
 20
-97.17231141796802
 30
0.0
 10
156.0038331693492
 20
-97.17231141796802
 30
0.0
 10
156.0038331693492
 20
-97.17231141796802
 30
0.0
 10
155.4423163709276
 20
-97.17231141796802
 30
0.0
 10
154.9871170666616
 20
-96.71711211370209
 30
0.0
 10
154.9871170666616
 20
-96.15559531528106
 30
0.0
 10
154.9871170666616
 20
-96.15559531528106
 30
0.0
 10
154.9871170666616
 20
-92.84902752222908
 30
0.0
 10
154.9871170666616
 20
-92.84902752222908
 30
0.0
 10
154.9871170666616
 20
-92.28751072380805
 30
0.0
 10
155.4423163709276
 20
-91.83231141954211
 30
0.0
 10
156.0038331693492
 20
-91.83231141954211
 30
0.0
 10
156.0038331693492
 20
-91.83231141954211
 30
0.0
 10
159.3104009623999
 20
-91.83231141954211
 30
0.0
 10
159.3104009623999
 20
-91.83231141954211
 30
0.0
 10
159.8719177608216
 20
-91.83231141954211
 30
0.0
 10
160.3271170650875
 20
-92.28751072380805
 30
0.0
 10
160.3271170650875
 20
-92.84902752222908
 30
0.0
 10
160.3271170650875
 20
-92.84902752222908
 30
0.0
 10
160.3271170650875
 20
-96.15559531528106
 30
0.0
 10
160.3271170650875
 20
-96.15559531528106
 30
0.0
 10
160.3271170650875
 20
-96.71711211370209
 30
0.0
 10
159.8719177608216
 20
-97.17231141796802
 30
0.0
 10
159.3104009623999
 20
-97.17231141796802
 30
0.0
  0
SPLINE
  5
79
330
5F
100
AcDbEntity
  8
LAYER_1
 62
     7
100
AcDbSpline
210
0.0
220
0.0
230
1.0
 70
    11
 71
     3
 72
    29
 73
    25
 74
     0
 42
0.0000000001
 43
0.0000000001
 12
1.0
 22
0.0
 32
0.0
 13
1.0
 23
0.0
 33
0.0
 40
0.0
 40
0.0
 40
0.0
 40
0.0
 40
1.0
 40
1.0
 40
1.0
 40
2.0
 40
2.0
 40
2.0
 40
3.0
 40
3.0
 40
3.0
 40
4.0
 40
4.0
 40
4.0
 40
5.0
 40
5.0
 40
5.0
 40
6.0
 40
6.0
 40
6.0
 40
7.0
 40
7.0
 40
7.0
 40
8.0
 40
8.0
 40
8.0
 40
8.0
 10
172.6454009590659
 20
-106.0623114157426
 30
0.0
 10
172.6454009590659
 20
-106.0623114157426
 30
0.0
 10
169.3388331660152
 20
-106.0623114157426
 30
0.0
 10
169.3388331660152
 20
-106.0623114157426
 30
0.0
 10
168.7773163675935
 20
-106.0623114157426
 30
0.0
 10
168.3221170633276
 20
-105.6071121114766
 30
0.0
 10
168.3221170633276
 20
-105.0455953130556
 30
0.0
 10
168.3221170633276
 20
-105.0455953130556
 30
0.0
 10
168.3221170633276
 20
-101.7390275200036
 30
0.0
 10
168.3221170633276
 20
-101.7390275200036
 30
0.0
 10
168.3221170633276
 20
-101.1775107215826
 30
0.0
 10
168.7773163675935
 20
-100.7223114173167
 30
0.0
 10
169.3388331660152
 20
-100.7223114173167
 30
0.0
 10
169.3388331660152
 20
-100.7223114173167
 30
0.0
 10
172.6454009590659
 20
-100.7223114173167
 30
0.0
 10
172.6454009590659
 20
-100.7223114173167
 30
0.0
 10
173.2069177574876
 20
-100.7223114173167
 30
0.0
 10
173.6621170617535
 20
-101.1775107215826
 30
0.0
 10
173.6621170617535
 20
-101.7390275200036
 30
0.0
 10
173.6621170617535
 20
-101.7390275200036
 30
0.0
 10
173.6621170617535
 20
-105.0455953130556
 30
0.0
 10
173.6621170617535
 20
-105.0455953130556
 30
0.0
 10
173.6621170617535
 20
-105.6071121114766
 30
0.0
 10
173.2069177574876
 20
-106.0623114157426
 30
0.0
 10
172.6454009590659
 20
-106.0623114157426
 30
0.0
  0
SPLINE
  5
7A
330
5F
100
AcDbEntity
  8
LAYER_1
 62
     7
100
AcDbSpline
210
0.0
220
0.0
230
1.0
 70
    11
 71
     3
 72
    29
 73
    25
 74
     0
 42
0.0000000001
 43
0.0000000001
 12
1.0
 22
0.0
 32
0.0
 13
1.0
 23
0.0
 33
0.0
 40
0.0
 40
0.0
 40
0.0
 40
0.0
 40
1.0
 40
1.0
 40
1.0
 40
2.0
 40
2.0
 40
2.0
 40
3.0
 40
3.0
 40
3.0
 40
4.0
 40
4.0
 40
4.0
 40
5.0
 40
5.0
 40
5.0
 40
6.0
 40
6.0
 40
6.0
 40
7.0
 40
7.0
 40
7.0
 40
8.0
 40
8.0
 40
8.0
 40
8.0
 10
181.5354009568437
 20
-106.0623114157445
 30
0.0
 10
181.5354009568437
 20
-106.0623114157445
 30
0.0
 10
178.228833163793
 20
-106.0623114157445
 30
0.0
 10
178.228833163793
 20
-106.0623114157445
 30
0.0
 10
177.6673163653713
 20
-106.0623114157445
 30
0.0
 10
177.2121170611054
 20
-105.6071121114786
 30
0.0
 10
177.2121170611054
 20
-105.0455953130575
 30
0.0
 10
177.2121170611054
 20
-105.0455953130575
 30
0.0
 10
177.2121170611054
 20
-101.7390275200055
 30
0.0
 10
177.2121170611054
 20
-101.7390275200055
 30
0.0
 10
177.2121170611054
 20
-101.1775107215845
 30
0.0
 10
177.6673163653713
 20
-100.7223114173186
 30
0.0
 10
178.228833163793
 20
-100.7223114173186
 30
0.0
 10
178.228833163793
 20
-100.7223114173186
 30
0.0
 10
181.5354009568437
 20
-100.7223114173186
 30
0.0
 10
181.5354009568437
 20
-100.7223114173186
 30
0.0
 10
182.0969177552653
 20
-100.7223114173186
 30
0.0
 10
182.5521170595313
 20
-101.1775107215845
 30
0.0
 10
182.5521170595313
 20
-101.7390275200055
 30
0.0
 10
182.5521170595313
 20
-101.7390275200055
 30
0.0
 10
182.5521170595313
 20
-105.0455953130575
 30
0.0
 10
182.5521170595313
 20
-105.0455953130575
 30
0.0
 10
182.5521170595313
 20
-105.6071121114786
 30
0.0
 10
182.0969177552653
 20
-106.0623114157445
 30
0.0
 10
181.5354009568437
 20
-106.0623114157445
 30
0.0
  0
SPLINE
  5
7B
330
5F
100
AcDbEntity
  8
LAYER_1
 62
     7
100
AcDbSpline
210
0.0
220
0.0
230
1.0
 70
    11
 71
     3
 72
    29
 73
    25
 74
     0
 42
0.0000000001
 43
0.0000000001
 12
1.0
 22
0.0
 32
0.0
 13
1.0
 23
0.0
 33
0.0
 40
0.0
 40
0.0
 40
0.0
 40
0.0
 40
1.0
 40
1.0
 40
1.0
 40
2.0
 40
2.0
 40
2.0
 40
3.0
 40
3.0
 40
3.0
 40
4.0
 40
4.0
 40
4.0
 40
5.0
 40
5.0
 40
5.0
 40
6.0
 40
6.0
 40
6.0
 40
7.0
 40
7.0
 40
7.0
 40
8.0
 40
8.0
 40
8.0
 40
8.0
 10
190.4254009546227
 20
-106.0623114157445
 30
0.0
 10
190.4254009546227
 20
-106.0623114157445
 30
0.0
 10
187.118833161572
 20
-106.0623114157445
 30
0.0
 10
187.118833161572
 20
-106.0623114157445
 30
0.0
 10
186.5573163631503
 20
-106.0623114157445
 30
0.0
 10
186.1021170588844
 20
-105.6071121114786
 30
0.0
 10
186.1021170588844
 20
-105.0455953130575
 30
0.0
 10
186.1021170588844
 20
-105.0455953130575
 30
0.0
 10
186.1021170588844
 20
-101.7390275200055
 30
0.0
 10
186.1021170588844
 20
-101.7390275200055
 30
0.0
 10
186.1021170588844
 20
-101.1775107215845
 30
0.0
 10
186.5573163631503
 20
-100.7223114173186
 30
0.0
 10
187.118833161572
 20
-100.7223114173186
 30
0.0
 10
187.118833161572
 20
-100.7223114173186
 30
0.0
 10
190.4254009546227
 20
-100.7223114173186
 30
0.0
 10
190.4254009546227
 20
-100.7223114173186
 30
0.0
 10
190.9869177530444
 20
-100.7223114173186
 30
0.0
 10
191.4421170573103
 20
-101.1775107215845
 30
0.0
 10
191.4421170573103
 20
-101.7390275200055
 30
0.0
 10
191.4421170573103
 20
-101.7390275200055
 30
0.0
 10
191.4421170573103
 20
-105.0455953130575
 30
0.0
 10
191.4421170573103
 20
-105.0455953130575
 30
0.0
 10
191.4421170573103
 20
-105.6071121114786
 30
0.0
 10
190.9869177530444
 20
-106.0623114157445
 30
0.0
 10
190.4254009546227
 20
-106.0623114157445
 30
0.0
  0
SPLINE
  5
7C
330
5F
100
AcDbEntity
  8
LAYER_1
 62
     7
100
AcDbSpline
210
0.0
220
0.0
230
1.0
 70
    11
 71
     3
 72
    29
 73
    25
 74
     0
 42
0.0000000001
 43
0.0000000001
 12
1.0
 22
0.0
 32
0.0
 13
1.0
 23
0.0
 33
0.0
 40
0.0
 40
0.0
 40
0.0
 40
0.0
 40
1.0
 40
1.0
 40
1.0
 40
2.0
 40
2.0
 40
2.0
 40
3.0
 40
3.0
 40
3.0
 40
4.0
 40
4.0
 40
4.0
 40
5.0
 40
5.0
 40
5.0
 40
6.0
 40
6.0
 40
6.0
 40
7.0
 40
7.0
 40
7.0
 40
8.0
 40
8.0
 40
8.0
 40
8.0
 10
185.0082133023329
 20
-114.9523114135216
 30
0.0
 10
185.0082133023329
 20
-114.9523114135216
 30
0.0
 10
181.7016455092822
 20
-114.9523114135216
 30
0.0
 10
181.7016455092822
 20
-114.9523114135216
 30
0.0
 10
181.1401287108605
 20
-114.9523114135216
 30
0.0
 10
180.6849294065946
 20
-114.4971121092557
 30
0.0
 10
180.6849294065946
 20
-113.9355953108346
 30
0.0
 10
180.6849294065946
 20
-113.9355953108346
 30
0.0
 10
180.6849294065946
 20
-110.6290275177827
 30
0.0
 10
180.6849294065946
 20
-110.6290275177827
 30
0.0
 10
180.6849294065946
 20
-110.0675107193616
 30
0.0
 10
181.1401287108605
 20
-109.6123114150957
 30
0.0
 10
181.7016455092822
 20
-109.6123114150957
 30
0.0
 10
181.7016455092822
 20
-109.6123114150957
 30
0.0
 10
185.0082133023329
 20
-109.6123114150957
 30
0.0
 10
185.0082133023329
 20
-109.6123114150957
 30
0.0
 10
185.5697301007546
 20
-109.6123114150957
 30
0.0
 10
186.0249294050205
 20
-110.0675107193616
 30
0.0
 10
186.0249294050205
 20
-110.6290275177827
 30
0.0
 10
186.0249294050205
 20
-110.6290275177827
 30
0.0
 10
186.0249294050205
 20
-113.9355953108346
 30
0.0
 10
186.0249294050205
 20
-113.9355953108346
 30
0.0
 10
186.0249294050205
 20
-114.4971121092557
 30
0.0
 10
185.5697301007546
 20
-114.9523114135216
 30
0.0
 10
185.0082133023329
 20
-114.9523114135216
 30
0.0
  0
SPLINE
  5
7D
330
5F
100
AcDbEntity
  8
LAYER_1
 62
     7
100
AcDbSpline
210
0.0
220
0.0
230
1.0
 70
    11
 71
     3
 72
    29
 73
    25
 74
     0
 42
0.0000000001
 43
0.0000000001
 12
1.0
 22
0.0
 32
0.0
 13
1.0
 23
0.0
 33
0.0
 40
0.0
 40
0.0
 40
0.0
 40
0.0
 40
1.0
 40
1.0
 40
1.0
 40
2.0
 40
2.0
 40
2.0
 40
3.0
 40
3.0
 40
3.0
 40
4.0
 40
4.0
 40
4.0
 40
5.0
 40
5.0
 40
5.0
 40
6.0
 40
6.0
 40
6.0
 40
7.0
 40
7.0
 40
7.0
 40
8.0
 40
8.0
 40
8.0
 40
8.0
 10
176.1182133045564
 20
-114.9523114135178
 30
0.0
 10
176.1182133045564
 20
-114.9523114135178
 30
0.0
 10
172.8116455115057
 20
-114.9523114135178
 30
0.0
 10
172.8116455115057
 20
-114.9523114135178
 30
0.0
 10
172.2501287130841
 20
-114.9523114135178
 30
0.0
 10
171.7949294088181
 20
-114.4971121092518
 30
0.0
 10
171.7949294088181
 20
-113.9355953108308
 30
0.0
 10
171.7949294088181
 20
-113.9355953108308
 30
0.0
 10
171.7949294088181
 20
-110.6290275177788
 30
0.0
 10
171.7949294088181
 20
-110.6290275177788
 30
0.0
 10
171.7949294088181
 20
-110.0675107193578
 30
0.0
 10
172.2501287130841
 20
-109.6123114150919
 30
0.0
 10
172.8116455115057
 20
-109.6123114150919
 30
0.0
 10
172.8116455115057
 20
-109.6123114150919
 30
0.0
 10
176.1182133045564
 20
-109.6123114150919
 30
0.0
 10
176.1182133045564
 20
-109.6123114150919
 30
0.0
 10
176.6797301029781
 20
-109.6123114150919
 30
0.0
 10
177.134929407244
 20
-110.0675107193578
 30
0.0
 10
177.134929407244
 20
-110.6290275177788
 30
0.0
 10
177.134929407244
 20
-110.6290275177788
 30
0.0
 10
177.134929407244
 20
-113.9355953108308
 30
0.0
 10
177.134929407244
 20
-113.9355953108308
 30
0.0
 10
177.134929407244
 20
-114.4971121092518
 30
0.0
 10
176.6797301029781
 20
-114.9523114135178
 30
0.0
 10
176.1182133045564
 20
-114.9523114135178
 30
0.0
  0
SPLINE
  5
7E
330
5F
100
AcDbEntity
  8
LAYER_1
 62
     7
100
AcDbSpline
210
0.0
220
0.0
230
1.0
 70
    11
 71
     3
 72
    29
 73
    25
 74
     0
 42
0.0000000001
 43
0.0000000001
 12
1.0
 22
0.0
 32
0.0
 13
1.0
 23
0.0
 33
0.0
 40
0.0
 40
0.0
 40
0.0
 40
0.0
 40
1.0
 40
1.0
 40
1.0
 40
2.0
 40
2.0
 40
2.0
 40
3.0
 40
3.0
 40
3.0
 40
4.0
 40
4.0
 40
4.0
 40
5.0
 40
5.0
 40
5.0
 40
6.0
 40
6.0
 40
6.0
 40
7.0
 40
7.0
 40
7.0
 40
8.0
 40
8.0
 40
8.0
 40
8.0
 10
167.2282133067799
 20
-114.9523114135178
 30
0.0
 10
167.2282133067799
 20
-114.9523114135178
 30
0.0
 10
163.9216455137292
 20
-114.9523114135178
 30
0.0
 10
163.9216455137292
 20
-114.9523114135178
 30
0.0
 10
163.3601287153076
 20
-114.9523114135178
 30
0.0
 10
162.9049294110416
 20
-114.4971121092518
 30
0.0
 10
162.9049294110416
 20
-113.9355953108308
 30
0.0
 10
162.9049294110416
 20
-113.9355953108308
 30
0.0
 10
162.9049294110416
 20
-110.6290275177788
 30
0.0
 10
162.9049294110416
 20
-110.6290275177788
 30
0.0
 10
162.9049294110416
 20
-110.0675107193578
 30
0.0
 10
163.3601287153076
 20
-109.6123114150919
 30
0.0
 10
163.9216455137292
 20
-109.6123114150919
 30
0.0
 10
163.9216455137292
 20
-109.6123114150919
 30
0.0
 10
167.2282133067799
 20
-109.6123114150919
 30
0.0
 10
167.2282133067799
 20
-109.6123114150919
 30
0.0
 10
167.7897301052016
 20
-109.6123114150919
 30
0.0
 10
168.2449294094675
 20
-110.0675107193578
 30
0.0
 10
168.2449294094675
 20
-110.6290275177788
 30
0.0
 10
168.2449294094675
 20
-110.6290275177788
 30
0.0
 10
168.2449294094675
 20
-113.9355953108308
 30
0.0
 10
168.2449294094675
 20
-113.9355953108308
 30
0.0
 10
168.2449294094675
 20
-114.4971121092518
 30
0.0
 10
167.7897301052016
 20
-114.9523114135178
 30
0.0
 10
167.2282133067799
 20
-114.9523114135178
 30
0.0
  0
SPLINE
  5
7F
330
5F
100
AcDbEntity
  8
LAYER_1
 62
     7
100
AcDbSpline
210
0.0
220
0.0
230
1.0
 70
    11
 71
     3
 72
    29
 73
    25
 74
     0
 42
0.0000000001
 43
0.0000000001
 12
1.0
 22
0.0
 32
0.0
 13
1.0
 23
0.0
 33
0.0
 40
0.0
 40
0.0
 40
0.0
 40
0.0
 40
1.0
 40
1.0
 40
1.0
 40
2.0
 40
2.0
 40
2.0
 40
3.0
 40
3.0
 40
3.0
 40
4.0
 40
4.0
 40
4.0
 40
5.0
 40
5.0
 40
5.0
 40
6.0
 40
6.0
 40
6.0
 40
7.0
 40
7.0
 40
7.0
 40
8.0
 40
8.0
 40
8.0
 40
8.0
 10
172.0104009592275
 20
-123.8423114112987
 30
0.0
 10
172.0104009592275
 20
-123.8423114112987
 30
0.0
 10
168.7038331661768
 20
-123.8423114112987
 30
0.0
 10
168.7038331661768
 20
-123.8423114112987
 30
0.0
 10
168.1423163677551
 20
-123.8423114112987
 30
0.0
 10
167.6871170634892
 20
-123.3871121070328
 30
0.0
 10
167.6871170634892
 20
-122.8255953086118
 30
0.0
 10
167.6871170634892
 20
-122.8255953086118
 30
0.0
 10
167.6871170634892
 20
-119.5190275155598
 30
0.0
 10
167.6871170634892
 20
-119.5190275155598
 30
0.0
 10
167.6871170634892
 20
-118.9575107171388
 30
0.0
 10
168.1423163677551
 20
-118.5023114128728
 30
0.0
 10
168.7038331661768
 20
-118.5023114128728
 30
0.0
 10
168.7038331661768
 20
-118.5023114128728
 30
0.0
 10
172.0104009592275
 20
-118.5023114128728
 30
0.0
 10
172.0104009592275
 20
-118.5023114128728
 30
0.0
 10
172.5719177576491
 20
-118.5023114128728
 30
0.0
 10
173.0271170619151
 20
-118.9575107171388
 30
0.0
 10
173.0271170619151
 20
-119.5190275155598
 30
0.0
 10
173.0271170619151
 20
-119.5190275155598
 30
0.0
 10
173.0271170619151
 20
-122.8255953086118
 30
0.0
 10
173.0271170619151
 20
-122.8255953086118
 30
0.0
 10
173.0271170619151
 20
-123.3871121070328
 30
0.0
 10
172.5719177576491
 20
-123.8423114112987
 30
0.0
 10
172.0104009592275
 20
-123.8423114112987
 30
0.0
  0
SPLINE
  5
80
330
5F
100
AcDbEntity
  8
LAYER_1
 62
     7
100
AcDbSpline
210
0.0
220
0.0
230
1.0
 70
    11
 71
     3
 72
    29
 73
    25
 74
     0
 42
0.0000000001
 43
0.0000000001
 12
1.0
 22
0.0
 32
0.0
 13
1.0
 23
0.0
 33
0.0
 40
0.0
 40
0.0
 40
0.0
 40
0.0
 40
1.0
 40
1.0
 40
1.0
 40
2.0
 40
2.0
 40
2.0
 40
3.0
 40
3.0
 40
3.0
 40
4.0
 40
4.0
 40
4.0
 40
5.0
 40
5.0
 40
5.0
 40
6.0
 40
6.0
 40
6.0
 40
7.0
 40
7.0
 40
7.0
 40
8.0
 40
8.0
 40
8.0
 40
8.0
 10
180.900400957004
 20
-123.8423114112987
 30
0.0
 10
180.900400957004
 20
-123.8423114112987
 30
0.0
 10
177.5938331639533
 20
-123.8423114112987
 30
0.0
 10
177.5938331639533
 20
-123.8423114112987
 30
0.0
 10
177.0323163655316
 20
-123.8423114112987
 30
0.0
 10
176.5771170612657
 20
-123.3871121070328
 30
0.0
 10
176.5771170612657
 20
-122.8255953086118
 30
0.0
 10
176.5771170612657
 20
-122.8255953086118
 30
0.0
 10
176.5771170612657
 20
-119.5190275155598
 30
0.0
 10
176.5771170612657
 20
-119.5190275155598
 30
0.0
 10
176.5771170612657
 20
-118.9575107171388
 30
0.0
 10
177.0323163655316
 20
-118.5023114128728
 30
0.0
 10
177.5938331639533
 20
-118.5023114128728
 30
0.0
 10
177.5938331639533
 20
-118.5023114128728
 30
0.0
 10
180.900400957004
 20
-118.5023114128728
 30
0.0
 10
180.900400957004
 20
-118.5023114128728
 30
0.0
 10
181.4619177554256
 20
-118.5023114128728
 30
0.0
 10
181.9171170596915
 20
-118.9575107171388
 30
0.0
 10
181.9171170596915
 20
-119.5190275155598
 30
0.0
 10
181.9171170596915
 20
-119.5190275155598
 30
0.0
 10
181.9171170596915
 20
-122.8255953086118
 30
0.0
 10
181.9171170596915
 20
-122.8255953086118
 30
0.0
 10
181.9171170596915
 20
-123.3871121070328
 30
0.0
 10
181.4619177554256
 20
-123.8423114112987
 30
0.0
 10
180.900400957004
 20
-123.8423114112987
 30
0.0
  0
SPLINE
  5
81
330
5F
100
AcDbEntity
  8
LAYER_1
 62
     7
100
AcDbSpline
210
0.0
220
0.0
230
1.0
 70
    11
 71
     3
 72
    29
 73
    25
 74
     0
 42
0.0000000001
 43
0.0000000001
 12
1.0
 22
0.0
 32
0.0
 13
1.0
 23
0.0
 33
0.0
 40
0.0
 40
0.0
 40
0.0
 40
0.0
 40
1.0
 40
1.0
 40
1.0
 40
2.0
 40
2.0
 40
2.0
 40
3.0
 40
3.0
 40
3.0
 40
4.0
 40
4.0
 40
4.0
 40
5.0
 40
5.0
 40
5.0
 40
6.0
 40
6.0
 40
6.0
 40
7.0
 40
7.0
 40
7.0
 40
8.0
 40
8.0
 40
8.0
 40
8.0
 10
185.5228484855994
 20
-132.7323114090604
 30
0.0
 10
185.5228484855994
 20
-132.7323114090604
 30
0.0
 10
182.2162806925487
 20
-132.7323114090604
 30
0.0
 10
182.2162806925487
 20
-132.7323114090604
 30
0.0
 10
181.654763894127
 20
-132.7323114090604
 30
0.0
 10
181.1995645898611
 20
-132.2771121047945
 30
0.0
 10
181.1995645898611
 20
-131.7155953063735
 30
0.0
 10
181.1995645898611
 20
-131.7155953063735
 30
0.0
 10
181.1995645898611
 20
-128.4090275133215
 30
0.0
 10
181.1995645898611
 20
-128.4090275133215
 30
0.0
 10
181.1995645898611
 20
-127.8475107149005
 30
0.0
 10
181.654763894127
 20
-127.3923114106345
 30
0.0
 10
182.2162806925487
 20
-127.3923114106345
 30
0.0
 10
182.2162806925487
 20
-127.3923114106345
 30
0.0
 10
185.5228484855994
 20
-127.3923114106345
 30
0.0
 10
185.5228484855994
 20
-127.3923114106345
 30
0.0
 10
186.0843652840211
 20
-127.3923114106345
 30
0.0
 10
186.539564588287
 20
-127.8475107149005
 30
0.0
 10
186.539564588287
 20
-128.4090275133215
 30
0.0
 10
186.539564588287
 20
-128.4090275133215
 30
0.0
 10
186.539564588287
 20
-131.7155953063735
 30
0.0
 10
186.539564588287
 20
-131.7155953063735
 30
0.0
 10
186.539564588287
 20
-132.2771121047945
 30
0.0
 10
186.0843652840211
 20
-132.7323114090604
 30
0.0
 10
185.5228484855994
 20
-132.7323114090604
 30
0.0
  0
SPLINE
  5
82
330
5F
100
AcDbEntity
  8
LAYER_1
 62
     7
100
AcDbSpline
210
0.0
220
0.0
230
1.0
 70
    11
 71
     3
 72
    29
 73
    25
 74
     0
 42
0.0000000001
 43
0.0000000001
 12
1.0
 22
0.0
 32
0.0
 13
1.0
 23
0.0
 33
0.0
 40
0.0
 40
0.0
 40
0.0
 40
0.0
 40
1.0
 40
1.0
 40
1.0
 40
2.0
 40
2.0
 40
2.0
 40
3.0
 40
3.0
 40
3.0
 40
4.0
 40
4.0
 40
4.0
 40
5.0
 40
5.0
 40
5.0
 40
6.0
 40
6.0
 40
6.0
 40
7.0
 40
7.0
 40
7.0
 40
8.0
 40
8.0
 40
8.0
 40
8.0
 10
194.5902960130837
 20
-132.7323114090726
 30
0.0
 10
194.5902960130837
 20
-132.7323114090726
 30
0.0
 10
191.283728220033
 20
-132.7323114090726
 30
0.0
 10
191.283728220033
 20
-132.7323114090726
 30
0.0
 10
190.7222114216113
 20
-132.7323114090726
 30
0.0
 10
190.2670121173454
 20
-132.2771121048067
 30
0.0
 10
190.2670121173454
 20
-131.7155953063857
 30
0.0
 10
190.2670121173454
 20
-131.7155953063857
 30
0.0
 10
190.2670121173454
 20
-128.4090275133337
 30
0.0
 10
190.2670121173454
 20
-128.4090275133337
 30
0.0
 10
190.2670121173454
 20
-127.8475107149127
 30
0.0
 10
190.7222114216113
 20
-127.3923114106467
 30
0.0
 10
191.283728220033
 20
-127.3923114106467
 30
0.0
 10
191.283728220033
 20
-127.3923114106467
 30
0.0
 10
194.5902960130837
 20
-127.3923114106467
 30
0.0
 10
194.5902960130837
 20
-127.3923114106467
 30
0.0
 10
195.1518128115054
 20
-127.3923114106467
 30
0.0
 10
195.6070121157713
 20
-127.8475107149127
 30
0.0
 10
195.6070121157713
 20
-128.4090275133337
 30
0.0
 10
195.6070121157713
 20
-128.4090275133337
 30
0.0
 10
195.6070121157713
 20
-131.7155953063857
 30
0.0
 10
195.6070121157713
 20
-131.7155953063857
 30
0.0
 10
195.6070121157713
 20
-132.2771121048067
 30
0.0
 10
195.1518128115054
 20
-132.7323114090726
 30
0.0
 10
194.5902960130837
 20
-132.7323114090726
 30
0.0
  0
SPLINE
  5
83
330
5F
100
AcDbEntity
  8
LAYER_1
 62
     7
100
AcDbSpline
210
0.0
220
0.0
230
1.0
 70
    11
 71
     3
 72
    29
 73
    25
 74
     0
 42
0.0000000001
 43
0.0000000001
 12
1.0
 22
0.0
 32
0.0
 13
1.0
 23
0.0
 33
0.0
 40
0.0
 40
0.0
 40
0.0
 40
0.0
 40
1.0
 40
1.0
 40
1.0
 40
2.0
 40
2.0
 40
2.0
 40
3.0
 40
3.0
 40
3.0
 40
4.0
 40
4.0
 40
4.0
 40
5.0
 40
5.0
 40
5.0
 40
6.0
 40
6.0
 40
6.0
 40
7.0
 40
7.0
 40
7.0
 40
8.0
 40
8.0
 40
8.0
 40
8.0
 10
206.3356098265104
 20
-123.8423114112904
 30
0.0
 10
206.3356098265104
 20
-123.8423114112904
 30
0.0
 10
203.0290420334597
 20
-123.8423114112904
 30
0.0
 10
203.0290420334597
 20
-123.8423114112904
 30
0.0
 10
202.467525235038
 20
-123.8423114112904
 30
0.0
 10
202.0123259307721
 20
-123.3871121070244
 30
0.0
 10
202.0123259307721
 20
-122.8255953086034
 30
0.0
 10
202.0123259307721
 20
-122.8255953086034
 30
0.0
 10
202.0123259307721
 20
-119.5190275155514
 30
0.0
 10
202.0123259307721
 20
-119.5190275155514
 30
0.0
 10
202.0123259307721
 20
-118.9575107171304
 30
0.0
 10
202.467525235038
 20
-118.5023114128645
 30
0.0
 10
203.0290420334597
 20
-118.5023114128645
 30
0.0
 10
203.0290420334597
 20
-118.5023114128645
 30
0.0
 10
206.3356098265104
 20
-118.5023114128645
 30
0.0
 10
206.3356098265104
 20
-118.5023114128645
 30
0.0
 10
206.897126624932
 20
-118.5023114128645
 30
0.0
 10
207.352325929198
 20
-118.9575107171304
 30
0.0
 10
207.352325929198
 20
-119.5190275155514
 30
0.0
 10
207.352325929198
 20
-119.5190275155514
 30
0.0
 10
207.352325929198
 20
-122.8255953086034
 30
0.0
 10
207.352325929198
 20
-122.8255953086034
 30
0.0
 10
207.352325929198
 20
-123.3871121070244
 30
0.0
 10
206.897126624932
 20
-123.8423114112904
 30
0.0
 10
206.3356098265104
 20
-123.8423114112904
 30
0.0
  0
SPLINE
  5
84
330
5F
100
AcDbEntity
  8
LAYER_1
 62
     7
100
AcDbSpline
210
0.0
220
0.0
230
1.0
 70
    11
 71
     3
 72
    29
 73
    25
 74
     0
 42
0.0000000001
 43
0.0000000001
 12
1.0
 22
0.0
 32
0.0
 13
1.0
 23
0.0
 33
0.0
 40
0.0
 40
0.0
 40
0.0
 40
0.0
 40
1.0
 40
1.0
 40
1.0
 40
2.0
 40
2.0
 40
2.0
 40
3.0
 40
3.0
 40
3.0
 40
4.0
 40
4.0
 40
4.0
 40
5.0
 40
5.0
 40
5.0
 40
6.0
 40
6.0
 40
6.0
 40
7.0
 40
7.0
 40
7.0
 40
8.0
 40
8.0
 40
8.0
 40
8.0
 10
208.8404009500205
 20
-114.9523114135216
 30
0.0
 10
208.8404009500205
 20
-114.9523114135216
 30
0.0
 10
205.5338331569698
 20
-114.9523114135216
 30
0.0
 10
205.5338331569698
 20
-114.9523114135216
 30
0.0
 10
204.9723163585481
 20
-114.9523114135216
 30
0.0
 10
204.5171170542822
 20
-114.4971121092557
 30
0.0
 10
204.5171170542822
 20
-113.9355953108346
 30
0.0
 10
204.5171170542822
 20
-113.9355953108346
 30
0.0
 10
204.5171170542822
 20
-110.6290275177827
 30
0.0
 10
204.5171170542822
 20
-110.6290275177827
 30
0.0
 10
204.5171170542822
 20
-110.0675107193616
 30
0.0
 10
204.9723163585481
 20
-109.6123114150957
 30
0.0
 10
205.5338331569698
 20
-109.6123114150957
 30
0.0
 10
205.5338331569698
 20
-109.6123114150957
 30
0.0
 10
208.8404009500205
 20
-109.6123114150957
 30
0.0
 10
208.8404009500205
 20
-109.6123114150957
 30
0.0
 10
209.4019177484422
 20
-109.6123114150957
 30
0.0
 10
209.8571170527081
 20
-110.0675107193616
 30
0.0
 10
209.8571170527081
 20
-110.6290275177827
 30
0.0
 10
209.8571170527081
 20
-110.6290275177827
 30
0.0
 10
209.8571170527081
 20
-113.9355953108346
 30
0.0
 10
209.8571170527081
 20
-113.9355953108346
 30
0.0
 10
209.8571170527081
 20
-114.4971121092557
 30
0.0
 10
209.4019177484422
 20
-114.9523114135216
 30
0.0
 10
208.8404009500205
 20
-114.9523114135216
 30
0.0
  0
SPLINE
  5
85
330
5F
100
AcDbEntity
  8
LAYER_1
 62
     7
100
AcDbSpline
210
0.0
220
0.0
230
1.0
 70
    11
 71
     3
 72
    29
 73
    25
 74
     0
 42
0.0000000001
 43
0.0000000001
 12
1.0
 22
0.0
 32
0.0
 13
1.0
 23
0.0
 33
0.0
 40
0.0
 40
0.0
 40
0.0
 40
0.0
 40
1.0
 40
1.0
 40
1.0
 40
2.0
 40
2.0
 40
2.0
 40
3.0
 40
3.0
 40
3.0
 40
4.0
 40
4.0
 40
4.0
 40
5.0
 40
5.0
 40
5.0
 40
6.0
 40
6.0
 40
6.0
 40
7.0
 40
7.0
 40
7.0
 40
8.0
 40
8.0
 40
8.0
 40
8.0
 10
79.30040098240235
 20
-97.1723114179661
 30
0.0
 10
79.30040098240235
 20
-97.1723114179661
 30
0.0
 10
75.99383318935165
 20
-97.1723114179661
 30
0.0
 10
75.99383318935165
 20
-97.1723114179661
 30
0.0
 10
75.43231639092998
 20
-97.1723114179661
 30
0.0
 10
74.97711708666404
 20
-96.71711211370017
 30
0.0
 10
74.97711708666404
 20
-96.15559531527913
 30
0.0
 10
74.97711708666404
 20
-96.15559531527913
 30
0.0
 10
74.97711708666404
 20
-92.84902752222716
 30
0.0
 10
74.97711708666404
 20
-92.84902752222716
 30
0.0
 10
74.97711708666404
 20
-92.28751072380612
 30
0.0
 10
75.43231639092998
 20
-91.83231141954019
 30
0.0
 10
75.99383318935165
 20
-91.83231141954019
 30
0.0
 10
75.99383318935165
 20
-91.83231141954019
 30
0.0
 10
79.30040098240235
 20
-91.83231141954019
 30
0.0
 10
79.30040098240235
 20
-91.83231141954019
 30
0.0
 10
79.86191778082402
 20
-91.83231141954019
 30
0.0
 10
80.31711708508995
 20
-92.28751072380612
 30
0.0
 10
80.31711708508995
 20
-92.84902752222716
 30
0.0
 10
80.31711708508995
 20
-92.84902752222716
 30
0.0
 10
80.31711708508995
 20
-96.15559531527913
 30
0.0
 10
80.31711708508995
 20
-96.15559531527913
 30
0.0
 10
80.31711708508995
 20
-96.71711211370017
 30
0.0
 10
79.86191778082402
 20
-97.1723114179661
 30
0.0
 10
79.30040098240235
 20
-97.1723114179661
 30
0.0
  0
SPLINE
  5
86
330
5F
100
AcDbEntity
  8
LAYER_1
 62
     7
100
AcDbSpline
210
0.0
220
0.0
230
1.0
 70
    11
 71
     3
 72
    29
 73
    25
 74
     0
 42
0.0000000001
 43
0.0000000001
 12
1.0
 22
0.0
 32
0.0
 13
1.0
 23
0.0
 33
0.0
 40
0.0
 40
0.0
 40
0.0
 40
0.0
 40
1.0
 40
1.0
 40
1.0
 40
2.0
 40
2.0
 40
2.0
 40
3.0
 40
3.0
 40
3.0
 40
4.0
 40
4.0
 40
4.0
 40
5.0
 40
5.0
 40
5.0
 40
6.0
 40
6.0
 40
6.0
 40
7.0
 40
7.0
 40
7.0
 40
8.0
 40
8.0
 40
8.0
 40
8.0
 10
88.19040098017977
 20
-97.17231141796738
 30
0.0
 10
88.19040098017977
 20
-97.17231141796738
 30
0.0
 10
84.88383318712908
 20
-97.17231141796738
 30
0.0
 10
84.88383318712908
 20
-97.17231141796738
 30
0.0
 10
84.32231638870742
 20
-97.17231141796738
 30
0.0
 10
83.86711708444147
 20
-96.71711211370145
 30
0.0
 10
83.86711708444147
 20
-96.15559531528042
 30
0.0
 10
83.86711708444147
 20
-96.15559531528042
 30
0.0
 10
83.86711708444147
 20
-92.84902752222844
 30
0.0
 10
83.86711708444147
 20
-92.84902752222844
 30
0.0
 10
83.86711708444147
 20
-92.28751072380742
 30
0.0
 10
84.32231638870742
 20
-91.83231141954147
 30
0.0
 10
84.88383318712908
 20
-91.83231141954147
 30
0.0
 10
84.88383318712908
 20
-91.83231141954147
 30
0.0
 10
88.19040098017977
 20
-91.83231141954147
 30
0.0
 10
88.19040098017977
 20
-91.83231141954147
 30
0.0
 10
88.75191777860145
 20
-91.83231141954147
 30
0.0
 10
89.20711708286738
 20
-92.28751072380742
 30
0.0
 10
89.20711708286738
 20
-92.84902752222844
 30
0.0
 10
89.20711708286738
 20
-92.84902752222844
 30
0.0
 10
89.20711708286738
 20
-96.15559531528042
 30
0.0
 10
89.20711708286738
 20
-96.15559531528042
 30
0.0
 10
89.20711708286738
 20
-96.71711211370145
 30
0.0
 10
88.75191777860145
 20
-97.17231141796738
 30
0.0
 10
88.19040098017977
 20
-97.17231141796738
 30
0.0
  0
SPLINE
  5
87
330
5F
100
AcDbEntity
  8
LAYER_1
 62
     7
100
AcDbSpline
210
0.0
220
0.0
230
1.0
 70
    11
 71
     3
 72
    29
 73
    25
 74
     0
 42
0.0000000001
 43
0.0000000001
 12
1.0
 22
0.0
 32
0.0
 13
1.0
 23
0.0
 33
0.0
 40
0.0
 40
0.0
 40
0.0
 40
0.0
 40
1.0
 40
1.0
 40
1.0
 40
2.0
 40
2.0
 40
2.0
 40
3.0
 40
3.0
 40
3.0
 40
4.0
 40
4.0
 40
4.0
 40
5.0
 40
5.0
 40
5.0
 40
6.0
 40
6.0
 40
6.0
 40
7.0
 40
7.0
 40
7.0
 40
8.0
 40
8.0
 40
8.0
 40
8.0
 10
96.95040097811112
 20
-97.17231141796738
 30
0.0
 10
96.95040097811112
 20
-97.17231141796738
 30
0.0
 10
93.64383318506043
 20
-97.17231141796738
 30
0.0
 10
93.64383318506043
 20
-97.17231141796738
 30
0.0
 10
93.08231638663877
 20
-97.17231141796738
 30
0.0
 10
92.62711708237282
 20
-96.71711211370145
 30
0.0
 10
92.62711708237282
 20
-96.15559531528042
 30
0.0
 10
92.62711708237282
 20
-96.15559531528042
 30
0.0
 10
92.62711708237282
 20
-92.84902752222844
 30
0.0
 10
92.62711708237282
 20
-92.84902752222844
 30
0.0
 10
92.62711708237282
 20
-92.28751072380742
 30
0.0
 10
93.08231638663877
 20
-91.83231141954147
 30
0.0
 10
93.64383318506043
 20
-91.83231141954147
 30
0.0
 10
93.64383318506043
 20
-91.83231141954147
 30
0.0
 10
96.95040097811112
 20
-91.83231141954147
 30
0.0
 10
96.95040097811112
 20
-91.83231141954147
 30
0.0
 10
97.5119177765328
 20
-91.83231141954147
 30
0.0
 10
97.96711708079873
 20
-92.28751072380742
 30
0.0
 10
97.96711708079873
 20
-92.84902752222844
 30
0.0
 10
97.96711708079873
 20
-92.84902752222844
 30
0.0
 10
97.96711708079873
 20
-96.15559531528042
 30
0.0
 10
97.96711708079873
 20
-96.15559531528042
 30
0.0
 10
97.96711708079873
 20
-96.71711211370145
 30
0.0
 10
97.5119177765328
 20
-97.17231141796738
 30
0.0
 10
96.95040097811112
 20
-97.17231141796738
 30
0.0
  0
SPLINE
  5
88
330
5F
100
AcDbEntity
  8
LAYER_1
 62
     7
100
AcDbSpline
210
0.0
220
0.0
230
1.0
 70
    11
 71
     3
 72
    29
 73
    25
 74
     0
 42
0.0000000001
 43
0.0000000001
 12
1.0
 22
0.0
 32
0.0
 13
1.0
 23
0.0
 33
0.0
 40
0.0
 40
0.0
 40
0.0
 40
0.0
 40
1.0
 40
1.0
 40
1.0
 40
2.0
 40
2.0
 40
2.0
 40
3.0
 40
3.0
 40
3.0
 40
4.0
 40
4.0
 40
4.0
 40
5.0
 40
5.0
 40
5.0
 40
6.0
 40
6.0
 40
6.0
 40
7.0
 40
7.0
 40
7.0
 40
8.0
 40
8.0
 40
8.0
 40
8.0
 10
105.9704009757353
 20
-97.1723114179661
 30
0.0
 10
105.9704009757353
 20
-97.1723114179661
 30
0.0
 10
102.6638331826846
 20
-97.1723114179661
 30
0.0
 10
102.6638331826846
 20
-97.1723114179661
 30
0.0
 10
102.1023163842629
 20
-97.1723114179661
 30
0.0
 10
101.647117079997
 20
-96.71711211370017
 30
0.0
 10
101.647117079997
 20
-96.15559531527913
 30
0.0
 10
101.647117079997
 20
-96.15559531527913
 30
0.0
 10
101.647117079997
 20
-92.84902752222716
 30
0.0
 10
101.647117079997
 20
-92.84902752222716
 30
0.0
 10
101.647117079997
 20
-92.28751072380612
 30
0.0
 10
102.1023163842629
 20
-91.83231141954019
 30
0.0
 10
102.6638331826846
 20
-91.83231141954019
 30
0.0
 10
102.6638331826846
 20
-91.83231141954019
 30
0.0
 10
105.9704009757353
 20
-91.83231141954019
 30
0.0
 10
105.9704009757353
 20
-91.83231141954019
 30
0.0
 10
106.531917774157
 20
-91.83231141954019
 30
0.0
 10
106.9871170784229
 20
-92.28751072380612
 30
0.0
 10
106.9871170784229
 20
-92.84902752222716
 30
0.0
 10
106.9871170784229
 20
-92.84902752222716
 30
0.0
 10
106.9871170784229
 20
-96.15559531527913
 30
0.0
 10
106.9871170784229
 20
-96.15559531527913
 30
0.0
 10
106.9871170784229
 20
-96.71711211370017
 30
0.0
 10
106.531917774157
 20
-97.1723114179661
 30
0.0
 10
105.9704009757353
 20
-97.1723114179661
 30
0.0
  0
SPLINE
  5
89
330
5F
100
AcDbEntity
  8
LAYER_1
 62
     7
100
AcDbSpline
210
0.0
220
0.0
230
1.0
 70
    11
 71
     3
 72
    29
 73
    25
 74
     0
 42
0.0000000001
 43
0.0000000001
 12
1.0
 22
0.0
 32
0.0
 13
1.0
 23
0.0
 33
0.0
 40
0.0
 40
0.0
 40
0.0
 40
0.0
 40
1.0
 40
1.0
 40
1.0
 40
2.0
 40
2.0
 40
2.0
 40
3.0
 40
3.0
 40
3.0
 40
4.0
 40
4.0
 40
4.0
 40
5.0
 40
5.0
 40
5.0
 40
6.0
 40
6.0
 40
6.0
 40
7.0
 40
7.0
 40
7.0
 40
8.0
 40
8.0
 40
8.0
 40
8.0
 10
92.6354009790693
 20
-106.0623114157432
 30
0.0
 10
92.6354009790693
 20
-106.0623114157432
 30
0.0
 10
89.32883318601861
 20
-106.0623114157432
 30
0.0
 10
89.32883318601861
 20
-106.0623114157432
 30
0.0
 10
88.76731638759694
 20
-106.0623114157432
 30
0.0
 10
88.312117083331
 20
-105.6071121114773
 30
0.0
 10
88.312117083331
 20
-105.0455953130563
 30
0.0
 10
88.312117083331
 20
-105.0455953130563
 30
0.0
 10
88.312117083331
 20
-101.7390275200043
 30
0.0
 10
88.312117083331
 20
-101.7390275200043
 30
0.0
 10
88.312117083331
 20
-101.1775107215832
 30
0.0
 10
88.76731638759694
 20
-100.7223114173173
 30
0.0
 10
89.32883318601861
 20
-100.7223114173173
 30
0.0
 10
89.32883318601861
 20
-100.7223114173173
 30
0.0
 10
92.6354009790693
 20
-100.7223114173173
 30
0.0
 10
92.6354009790693
 20
-100.7223114173173
 30
0.0
 10
93.19691777749097
 20
-100.7223114173173
 30
0.0
 10
93.65211708175691
 20
-101.1775107215832
 30
0.0
 10
93.65211708175691
 20
-101.7390275200043
 30
0.0
 10
93.65211708175691
 20
-101.7390275200043
 30
0.0
 10
93.65211708175691
 20
-105.0455953130563
 30
0.0
 10
93.65211708175691
 20
-105.0455953130563
 30
0.0
 10
93.65211708175691
 20
-105.6071121114773
 30
0.0
 10
93.19691777749097
 20
-106.0623114157432
 30
0.0
 10
92.6354009790693
 20
-106.0623114157432
 30
0.0
  0
SPLINE
  5
8A
330
5F
100
AcDbEntity
  8
LAYER_1
 62
     7
100
AcDbSpline
210
0.0
220
0.0
230
1.0
 70
    11
 71
     3
 72
    29
 73
    25
 74
     0
 42
0.0000000001
 43
0.0000000001
 12
1.0
 22
0.0
 32
0.0
 13
1.0
 23
0.0
 33
0.0
 40
0.0
 40
0.0
 40
0.0
 40
0.0
 40
1.0
 40
1.0
 40
1.0
 40
2.0
 40
2.0
 40
2.0
 40
3.0
 40
3.0
 40
3.0
 40
4.0
 40
4.0
 40
4.0
 40
5.0
 40
5.0
 40
5.0
 40
6.0
 40
6.0
 40
6.0
 40
7.0
 40
7.0
 40
7.0
 40
8.0
 40
8.0
 40
8.0
 40
8.0
 10
101.5254009768471
 20
-106.0623114157445
 30
0.0
 10
101.5254009768471
 20
-106.0623114157445
 30
0.0
 10
98.21883318379636
 20
-106.0623114157445
 30
0.0
 10
98.21883318379636
 20
-106.0623114157445
 30
0.0
 10
97.6573163853747
 20
-106.0623114157445
 30
0.0
 10
97.20211708110875
 20
-105.6071121114786
 30
0.0
 10
97.20211708110875
 20
-105.0455953130575
 30
0.0
 10
97.20211708110875
 20
-105.0455953130575
 30
0.0
 10
97.20211708110875
 20
-101.7390275200055
 30
0.0
 10
97.20211708110875
 20
-101.7390275200055
 30
0.0
 10
97.20211708110875
 20
-101.1775107215845
 30
0.0
 10
97.6573163853747
 20
-100.7223114173186
 30
0.0
 10
98.21883318379636
 20
-100.7223114173186
 30
0.0
 10
98.21883318379636
 20
-100.7223114173186
 30
0.0
 10
101.5254009768471
 20
-100.7223114173186
 30
0.0
 10
101.5254009768471
 20
-100.7223114173186
 30
0.0
 10
102.0869177752687
 20
-100.7223114173186
 30
0.0
 10
102.5421170795347
 20
-101.1775107215845
 30
0.0
 10
102.5421170795347
 20
-101.7390275200055
 30
0.0
 10
102.5421170795347
 20
-101.7390275200055
 30
0.0
 10
102.5421170795347
 20
-105.0455953130575
 30
0.0
 10
102.5421170795347
 20
-105.0455953130575
 30
0.0
 10
102.5421170795347
 20
-105.6071121114786
 30
0.0
 10
102.0869177752687
 20
-106.0623114157445
 30
0.0
 10
101.5254009768471
 20
-106.0623114157445
 30
0.0
  0
SPLINE
  5
8B
330
5F
100
AcDbEntity
  8
LAYER_1
 62
     7
100
AcDbSpline
210
0.0
220
0.0
230
1.0
 70
    11
 71
     3
 72
    29
 73
    25
 74
     0
 42
0.0000000001
 43
0.0000000001
 12
1.0
 22
0.0
 32
0.0
 13
1.0
 23
0.0
 33
0.0
 40
0.0
 40
0.0
 40
0.0
 40
0.0
 40
1.0
 40
1.0
 40
1.0
 40
2.0
 40
2.0
 40
2.0
 40
3.0
 40
3.0
 40
3.0
 40
4.0
 40
4.0
 40
4.0
 40
5.0
 40
5.0
 40
5.0
 40
6.0
 40
6.0
 40
6.0
 40
7.0
 40
7.0
 40
7.0
 40
8.0
 40
8.0
 40
8.0
 40
8.0
 10
110.4154009746245
 20
-106.0623114157432
 30
0.0
 10
110.4154009746245
 20
-106.0623114157432
 30
0.0
 10
107.1088331815738
 20
-106.0623114157432
 30
0.0
 10
107.1088331815738
 20
-106.0623114157432
 30
0.0
 10
106.5473163831521
 20
-106.0623114157432
 30
0.0
 10
106.0921170788862
 20
-105.6071121114773
 30
0.0
 10
106.0921170788862
 20
-105.0455953130563
 30
0.0
 10
106.0921170788862
 20
-105.0455953130563
 30
0.0
 10
106.0921170788862
 20
-101.7390275200043
 30
0.0
 10
106.0921170788862
 20
-101.7390275200043
 30
0.0
 10
106.0921170788862
 20
-101.1775107215832
 30
0.0
 10
106.5473163831521
 20
-100.7223114173173
 30
0.0
 10
107.1088331815738
 20
-100.7223114173173
 30
0.0
 10
107.1088331815738
 20
-100.7223114173173
 30
0.0
 10
110.4154009746245
 20
-100.7223114173173
 30
0.0
 10
110.4154009746245
 20
-100.7223114173173
 30
0.0
 10
110.9769177730462
 20
-100.7223114173173
 30
0.0
 10
111.4321170773121
 20
-101.1775107215832
 30
0.0
 10
111.4321170773121
 20
-101.7390275200043
 30
0.0
 10
111.4321170773121
 20
-101.7390275200043
 30
0.0
 10
111.4321170773121
 20
-105.0455953130563
 30
0.0
 10
111.4321170773121
 20
-105.0455953130563
 30
0.0
 10
111.4321170773121
 20
-105.6071121114773
 30
0.0
 10
110.9769177730462
 20
-106.0623114157432
 30
0.0
 10
110.4154009746245
 20
-106.0623114157432
 30
0.0
  0
SPLINE
  5
8C
330
5F
100
AcDbEntity
  8
LAYER_1
 62
     7
100
AcDbSpline
210
0.0
220
0.0
230
1.0
 70
    11
 71
     3
 72
    29
 73
    25
 74
     0
 42
0.0000000001
 43
0.0000000001
 12
1.0
 22
0.0
 32
0.0
 13
1.0
 23
0.0
 33
0.0
 40
0.0
 40
0.0
 40
0.0
 40
0.0
 40
1.0
 40
1.0
 40
1.0
 40
2.0
 40
2.0
 40
2.0
 40
3.0
 40
3.0
 40
3.0
 40
4.0
 40
4.0
 40
4.0
 40
5.0
 40
5.0
 40
5.0
 40
6.0
 40
6.0
 40
6.0
 40
7.0
 40
7.0
 40
7.0
 40
8.0
 40
8.0
 40
8.0
 40
8.0
 10
95.87849801611412
 20
-114.9523114135178
 30
0.0
 10
95.87849801611412
 20
-114.9523114135178
 30
0.0
 10
92.57193022306342
 20
-114.9523114135178
 30
0.0
 10
92.57193022306342
 20
-114.9523114135178
 30
0.0
 10
92.01041342464175
 20
-114.9523114135178
 30
0.0
 10
91.55521412037581
 20
-114.4971121092518
 30
0.0
 10
91.55521412037581
 20
-113.9355953108308
 30
0.0
 10
91.55521412037581
 20
-113.9355953108308
 30
0.0
 10
91.55521412037581
 20
-110.6290275177788
 30
0.0
 10
91.55521412037581
 20
-110.6290275177788
 30
0.0
 10
91.55521412037581
 20
-110.0675107193578
 30
0.0
 10
92.01041342464175
 20
-109.6123114150919
 30
0.0
 10
92.57193022306342
 20
-109.6123114150919
 30
0.0
 10
92.57193022306342
 20
-109.6123114150919
 30
0.0
 10
95.87849801611412
 20
-109.6123114150919
 30
0.0
 10
95.87849801611412
 20
-109.6123114150919
 30
0.0
 10
96.44001481453579
 20
-109.6123114150919
 30
0.0
 10
96.89521411880172
 20
-110.0675107193578
 30
0.0
 10
96.89521411880172
 20
-110.6290275177788
 30
0.0
 10
96.89521411880172
 20
-110.6290275177788
 30
0.0
 10
96.89521411880172
 20
-113.9355953108308
 30
0.0
 10
96.89521411880172
 20
-113.9355953108308
 30
0.0
 10
96.89521411880172
 20
-114.4971121092518
 30
0.0
 10
96.44001481453579
 20
-114.9523114135178
 30
0.0
 10
95.87849801611412
 20
-114.9523114135178
 30
0.0
  0
SPLINE
  5
8D
330
5F
100
AcDbEntity
  8
LAYER_1
 62
     7
100
AcDbSpline
210
0.0
220
0.0
230
1.0
 70
    11
 71
     3
 72
    29
 73
    25
 74
     0
 42
0.0000000001
 43
0.0000000001
 12
1.0
 22
0.0
 32
0.0
 13
1.0
 23
0.0
 33
0.0
 40
0.0
 40
0.0
 40
0.0
 40
0.0
 40
1.0
 40
1.0
 40
1.0
 40
2.0
 40
2.0
 40
2.0
 40
3.0
 40
3.0
 40
3.0
 40
4.0
 40
4.0
 40
4.0
 40
5.0
 40
5.0
 40
5.0
 40
6.0
 40
6.0
 40
6.0
 40
7.0
 40
7.0
 40
7.0
 40
8.0
 40
8.0
 40
8.0
 40
8.0
 10
104.8457657129879
 20
-114.9523114135216
 30
0.0
 10
104.8457657129879
 20
-114.9523114135216
 30
0.0
 10
101.5391979199372
 20
-114.9523114135216
 30
0.0
 10
101.5391979199372
 20
-114.9523114135216
 30
0.0
 10
100.9776811215155
 20
-114.9523114135216
 30
0.0
 10
100.5224818172496
 20
-114.4971121092557
 30
0.0
 10
100.5224818172496
 20
-113.9355953108346
 30
0.0
 10
100.5224818172496
 20
-113.9355953108346
 30
0.0
 10
100.5224818172496
 20
-110.6290275177827
 30
0.0
 10
100.5224818172496
 20
-110.6290275177827
 30
0.0
 10
100.5224818172496
 20
-110.0675107193616
 30
0.0
 10
100.9776811215155
 20
-109.6123114150957
 30
0.0
 10
101.5391979199372
 20
-109.6123114150957
 30
0.0
 10
101.5391979199372
 20
-109.6123114150957
 30
0.0
 10
104.8457657129879
 20
-109.6123114150957
 30
0.0
 10
104.8457657129879
 20
-109.6123114150957
 30
0.0
 10
105.4072825114095
 20
-109.6123114150957
 30
0.0
 10
105.8624818156755
 20
-110.0675107193616
 30
0.0
 10
105.8624818156755
 20
-110.6290275177827
 30
0.0
 10
105.8624818156755
 20
-110.6290275177827
 30
0.0
 10
105.8624818156755
 20
-113.9355953108346
 30
0.0
 10
105.8624818156755
 20
-113.9355953108346
 30
0.0
 10
105.8624818156755
 20
-114.4971121092557
 30
0.0
 10
105.4072825114095
 20
-114.9523114135216
 30
0.0
 10
104.8457657129879
 20
-114.9523114135216
 30
0.0
  0
SPLINE
  5
8E
330
5F
100
AcDbEntity
  8
LAYER_1
 62
     7
100
AcDbSpline
210
0.0
220
0.0
230
1.0
 70
    11
 71
     3
 72
    29
 73
    25
 74
     0
 42
0.0000000001
 43
0.0000000001
 12
1.0
 22
0.0
 32
0.0
 13
1.0
 23
0.0
 33
0.0
 40
0.0
 40
0.0
 40
0.0
 40
0.0
 40
1.0
 40
1.0
 40
1.0
 40
2.0
 40
2.0
 40
2.0
 40
3.0
 40
3.0
 40
3.0
 40
4.0
 40
4.0
 40
4.0
 40
5.0
 40
5.0
 40
5.0
 40
6.0
 40
6.0
 40
6.0
 40
7.0
 40
7.0
 40
7.0
 40
8.0
 40
8.0
 40
8.0
 40
8.0
 10
100.7596298561825
 20
-123.8423114112987
 30
0.0
 10
100.7596298561825
 20
-123.8423114112987
 30
0.0
 10
97.45306206313184
 20
-123.8423114112987
 30
0.0
 10
97.45306206313184
 20
-123.8423114112987
 30
0.0
 10
96.89154526471016
 20
-123.8423114112987
 30
0.0
 10
96.43634596044423
 20
-123.3871121070328
 30
0.0
 10
96.43634596044423
 20
-122.8255953086118
 30
0.0
 10
96.43634596044423
 20
-122.8255953086118
 30
0.0
 10
96.43634596044423
 20
-119.5190275155598
 30
0.0
 10
96.43634596044423
 20
-119.5190275155598
 30
0.0
 10
96.43634596044423
 20
-118.9575107171388
 30
0.0
 10
96.89154526471016
 20
-118.5023114128728
 30
0.0
 10
97.45306206313184
 20
-118.5023114128728
 30
0.0
 10
97.45306206313184
 20
-118.5023114128728
 30
0.0
 10
100.7596298561825
 20
-118.5023114128728
 30
0.0
 10
100.7596298561825
 20
-118.5023114128728
 30
0.0
 10
101.3211466546042
 20
-118.5023114128728
 30
0.0
 10
101.7763459588701
 20
-118.9575107171388
 30
0.0
 10
101.7763459588701
 20
-119.5190275155598
 30
0.0
 10
101.7763459588701
 20
-119.5190275155598
 30
0.0
 10
101.7763459588701
 20
-122.8255953086118
 30
0.0
 10
101.7763459588701
 20
-122.8255953086118
 30
0.0
 10
101.7763459588701
 20
-123.3871121070328
 30
0.0
 10
101.3211466546042
 20
-123.8423114112987
 30
0.0
 10
100.7596298561825
 20
-123.8423114112987
 30
0.0
  0
SPLINE
  5
8F
330
5F
100
AcDbEntity
  8
LAYER_1
 62
     7
100
AcDbSpline
210
0.0
220
0.0
230
1.0
 70
    11
 71
     3
 72
    29
 73
    25
 74
     0
 42
0.0000000001
 43
0.0000000001
 12
1.0
 22
0.0
 32
0.0
 13
1.0
 23
0.0
 33
0.0
 40
0.0
 40
0.0
 40
0.0
 40
0.0
 40
1.0
 40
1.0
 40
1.0
 40
2.0
 40
2.0
 40
2.0
 40
3.0
 40
3.0
 40
3.0
 40
4.0
 40
4.0
 40
4.0
 40
5.0
 40
5.0
 40
5.0
 40
6.0
 40
6.0
 40
6.0
 40
7.0
 40
7.0
 40
7.0
 40
8.0
 40
8.0
 40
8.0
 40
8.0
 10
86.92040098049748
 20
-132.7323114090604
 30
0.0
 10
86.92040098049748
 20
-132.7323114090604
 30
0.0
 10
83.61383318744679
 20
-132.7323114090604
 30
0.0
 10
83.61383318744679
 20
-132.7323114090604
 30
0.0
 10
83.05231638902511
 20
-132.7323114090604
 30
0.0
 10
82.59711708475918
 20
-132.2771121047945
 30
0.0
 10
82.59711708475918
 20
-131.7155953063735
 30
0.0
 10
82.59711708475918
 20
-131.7155953063735
 30
0.0
 10
82.59711708475918
 20
-128.4090275133215
 30
0.0
 10
82.59711708475918
 20
-128.4090275133215
 30
0.0
 10
82.59711708475918
 20
-127.8475107149005
 30
0.0
 10
83.05231638902511
 20
-127.3923114106345
 30
0.0
 10
83.61383318744679
 20
-127.3923114106345
 30
0.0
 10
83.61383318744679
 20
-127.3923114106345
 30
0.0
 10
86.92040098049748
 20
-127.3923114106345
 30
0.0
 10
86.92040098049748
 20
-127.3923114106345
 30
0.0
 10
87.48191777891914
 20
-127.3923114106345
 30
0.0
 10
87.93711708318509
 20
-127.8475107149005
 30
0.0
 10
87.93711708318509
 20
-128.4090275133215
 30
0.0
 10
87.93711708318509
 20
-128.4090275133215
 30
0.0
 10
87.93711708318509
 20
-131.7155953063735
 30
0.0
 10
87.93711708318509
 20
-131.7155953063735
 30
0.0
 10
87.93711708318509
 20
-132.2771121047945
 30
0.0
 10
87.48191777891914
 20
-132.7323114090604
 30
0.0
 10
86.92040098049748
 20
-132.7323114090604
 30
0.0
  0
SPLINE
  5
90
330
5F
100
AcDbEntity
  8
LAYER_1
 62
     7
100
AcDbSpline
210
0.0
220
0.0
230
1.0
 70
    11
 71
     3
 72
    29
 73
    25
 74
     0
 42
0.0000000001
 43
0.0000000001
 12
1.0
 22
0.0
 32
0.0
 13
1.0
 23
0.0
 33
0.0
 40
0.0
 40
0.0
 40
0.0
 40
0.0
 40
1.0
 40
1.0
 40
1.0
 40
2.0
 40
2.0
 40
2.0
 40
3.0
 40
3.0
 40
3.0
 40
4.0
 40
4.0
 40
4.0
 40
5.0
 40
5.0
 40
5.0
 40
6.0
 40
6.0
 40
6.0
 40
7.0
 40
7.0
 40
7.0
 40
8.0
 40
8.0
 40
8.0
 40
8.0
 10
70.48552235874537
 20
-123.8423114112987
 30
0.0
 10
70.48552235874537
 20
-123.8423114112987
 30
0.0
 10
67.17895456569467
 20
-123.8423114112987
 30
0.0
 10
67.17895456569467
 20
-123.8423114112987
 30
0.0
 10
66.617437767273
 20
-123.8423114112987
 30
0.0
 10
66.16223846300707
 20
-123.3871121070328
 30
0.0
 10
66.16223846300707
 20
-122.8255953086118
 30
0.0
 10
66.16223846300707
 20
-122.8255953086118
 30
0.0
 10
66.16223846300707
 20
-119.5190275155598
 30
0.0
 10
66.16223846300707
 20
-119.5190275155598
 30
0.0
 10
66.16223846300707
 20
-118.9575107171388
 30
0.0
 10
66.617437767273
 20
-118.5023114128728
 30
0.0
 10
67.17895456569467
 20
-118.5023114128728
 30
0.0
 10
67.17895456569467
 20
-118.5023114128728
 30
0.0
 10
70.48552235874537
 20
-118.5023114128728
 30
0.0
 10
70.48552235874537
 20
-118.5023114128728
 30
0.0
 10
71.04703915716703
 20
-118.5023114128728
 30
0.0
 10
71.50223846143297
 20
-118.9575107171388
 30
0.0
 10
71.50223846143297
 20
-119.5190275155598
 30
0.0
 10
71.50223846143297
 20
-119.5190275155598
 30
0.0
 10
71.50223846143297
 20
-122.8255953086118
 30
0.0
 10
71.50223846143297
 20
-122.8255953086118
 30
0.0
 10
71.50223846143297
 20
-123.3871121070328
 30
0.0
 10
71.04703915716703
 20
-123.8423114112987
 30
0.0
 10
70.48552235874537
 20
-123.8423114112987
 30
0.0
  0
SPLINE
  5
91
330
5F
100
AcDbEntity
  8
LAYER_1
 62
     7
100
AcDbSpline
210
0.0
220
0.0
230
1.0
 70
    11
 71
     3
 72
    29
 73
    25
 74
     0
 42
0.0000000001
 43
0.0000000001
 12
1.0
 22
0.0
 32
0.0
 13
1.0
 23
0.0
 33
0.0
 40
0.0
 40
0.0
 40
0.0
 40
0.0
 40
1.0
 40
1.0
 40
1.0
 40
2.0
 40
2.0
 40
2.0
 40
3.0
 40
3.0
 40
3.0
 40
4.0
 40
4.0
 40
4.0
 40
5.0
 40
5.0
 40
5.0
 40
6.0
 40
6.0
 40
6.0
 40
7.0
 40
7.0
 40
7.0
 40
8.0
 40
8.0
 40
8.0
 40
8.0
 10
70.4855223587444
 20
-114.9523114135216
 30
0.0
 10
70.4855223587444
 20
-114.9523114135216
 30
0.0
 10
67.17895456569372
 20
-114.9523114135216
 30
0.0
 10
67.17895456569372
 20
-114.9523114135216
 30
0.0
 10
66.61743776727204
 20
-114.9523114135216
 30
0.0
 10
66.1622384630061
 20
-114.4971121092557
 30
0.0
 10
66.1622384630061
 20
-113.9355953108346
 30
0.0
 10
66.1622384630061
 20
-113.9355953108346
 30
0.0
 10
66.1622384630061
 20
-110.6290275177827
 30
0.0
 10
66.1622384630061
 20
-110.6290275177827
 30
0.0
 10
66.1622384630061
 20
-110.0675107193616
 30
0.0
 10
66.61743776727204
 20
-109.6123114150957
 30
0.0
 10
67.17895456569372
 20
-109.6123114150957
 30
0.0
 10
67.17895456569372
 20
-109.6123114150957
 30
0.0
 10
70.4855223587444
 20
-109.6123114150957
 30
0.0
 10
70.4855223587444
 20
-109.6123114150957
 30
0.0
 10
71.04703915716607
 20
-109.6123114150957
 30
0.0
 10
71.50223846143201
 20
-110.0675107193616
 30
0.0
 10
71.50223846143201
 20
-110.6290275177827
 30
0.0
 10
71.50223846143201
 20
-110.6290275177827
 30
0.0
 10
71.50223846143201
 20
-113.9355953108346
 30
0.0
 10
71.50223846143201
 20
-113.9355953108346
 30
0.0
 10
71.50223846143201
 20
-114.4971121092557
 30
0.0
 10
71.04703915716607
 20
-114.9523114135216
 30
0.0
 10
70.4855223587444
 20
-114.9523114135216
 30
0.0
  0
SPLINE
  5
92
330
5F
100
AcDbEntity
  8
LAYER_1
 62
     7
100
AcDbSpline
210
0.0
220
0.0
230
1.0
 70
    11
 71
     3
 72
    29
 73
    25
 74
     0
 42
0.0000000001
 43
0.0000000001
 12
1.0
 22
0.0
 32
0.0
 13
1.0
 23
0.0
 33
0.0
 40
0.0
 40
0.0
 40
0.0
 40
0.0
 40
1.0
 40
1.0
 40
1.0
 40
2.0
 40
2.0
 40
2.0
 40
3.0
 40
3.0
 40
3.0
 40
4.0
 40
4.0
 40
4.0
 40
5.0
 40
5.0
 40
5.0
 40
6.0
 40
6.0
 40
6.0
 40
7.0
 40
7.0
 40
7.0
 40
8.0
 40
8.0
 40
8.0
 40
8.0
 10
95.95576571521012
 20
-132.7323114090649
 30
0.0
 10
95.95576571521012
 20
-132.7323114090649
 30
0.0
 10
92.64919792215943
 20
-132.7323114090649
 30
0.0
 10
92.64919792215943
 20
-132.7323114090649
 30
0.0
 10
92.08768112373775
 20
-132.7323114090649
 30
0.0
 10
91.63248181947182
 20
-132.277112104799
 30
0.0
 10
91.63248181947182
 20
-131.715595306378
 30
0.0
 10
91.63248181947182
 20
-131.715595306378
 30
0.0
 10
91.63248181947182
 20
-128.409027513326
 30
0.0
 10
91.63248181947182
 20
-128.409027513326
 30
0.0
 10
91.63248181947182
 20
-127.847510714905
 30
0.0
 10
92.08768112373775
 20
-127.392311410639
 30
0.0
 10
92.64919792215943
 20
-127.392311410639
 30
0.0
 10
92.64919792215943
 20
-127.392311410639
 30
0.0
 10
95.95576571521012
 20
-127.392311410639
 30
0.0
 10
95.95576571521012
 20
-127.392311410639
 30
0.0
 10
96.5172825136318
 20
-127.392311410639
 30
0.0
 10
96.97248181789773
 20
-127.847510714905
 30
0.0
 10
96.97248181789773
 20
-128.409027513326
 30
0.0
 10
96.97248181789773
 20
-128.409027513326
 30
0.0
 10
96.97248181789773
 20
-131.715595306378
 30
0.0
 10
96.97248181789773
 20
-131.715595306378
 30
0.0
 10
96.97248181789773
 20
-132.277112104799
 30
0.0
 10
96.5172825136318
 20
-132.7323114090649
 30
0.0
 10
95.95576571521012
 20
-132.7323114090649
 30
0.0
  0
SPLINE
  5
93
330
5F
100
AcDbEntity
  8
LAYER_1
 62
     7
100
AcDbSpline
210
0.0
220
0.0
230
1.0
 70
    11
 71
     3
 72
    29
 73
    25
 74
     0
 42
0.0000000001
 43
0.0000000001
 12
1.0
 22
0.0
 32
0.0
 13
1.0
 23
0.0
 33
0.0
 40
0.0
 40
0.0
 40
0.0
 40
0.0
 40
1.0
 40
1.0
 40
1.0
 40
2.0
 40
2.0
 40
2.0
 40
3.0
 40
3.0
 40
3.0
 40
4.0
 40
4.0
 40
4.0
 40
5.0
 40
5.0
 40
5.0
 40
6.0
 40
6.0
 40
6.0
 40
7.0
 40
7.0
 40
7.0
 40
8.0
 40
8.0
 40
8.0
 40
8.0
 10
109.7804009747829
 20
-123.8423114112904
 30
0.0
 10
109.7804009747829
 20
-123.8423114112904
 30
0.0
 10
106.4738331817322
 20
-123.8423114112904
 30
0.0
 10
106.4738331817322
 20
-123.8423114112904
 30
0.0
 10
105.9123163833105
 20
-123.8423114112904
 30
0.0
 10
105.4571170790446
 20
-123.3871121070244
 30
0.0
 10
105.4571170790446
 20
-122.8255953086034
 30
0.0
 10
105.4571170790446
 20
-122.8255953086034
 30
0.0
 10
105.4571170790446
 20
-119.5190275155514
 30
0.0
 10
105.4571170790446
 20
-119.5190275155514
 30
0.0
 10
105.4571170790446
 20
-118.9575107171304
 30
0.0
 10
105.9123163833105
 20
-118.5023114128645
 30
0.0
 10
106.4738331817322
 20
-118.5023114128645
 30
0.0
 10
106.4738331817322
 20
-118.5023114128645
 30
0.0
 10
109.7804009747829
 20
-118.5023114128645
 30
0.0
 10
109.7804009747829
 20
-118.5023114128645
 30
0.0
 10
110.3419177732045
 20
-118.5023114128645
 30
0.0
 10
110.7971170774705
 20
-118.9575107171304
 30
0.0
 10
110.7971170774705
 20
-119.5190275155514
 30
0.0
 10
110.7971170774705
 20
-119.5190275155514
 30
0.0
 10
110.7971170774705
 20
-122.8255953086034
 30
0.0
 10
110.7971170774705
 20
-122.8255953086034
 30
0.0
 10
110.7971170774705
 20
-123.3871121070244
 30
0.0
 10
110.3419177732045
 20
-123.8423114112904
 30
0.0
 10
109.7804009747829
 20
-123.8423114112904
 30
0.0
  0
SPLINE
  5
94
330
5F
100
AcDbEntity
  8
LAYER_1
 62
     7
100
AcDbSpline
210
0.0
220
0.0
230
1.0
 70
    11
 71
     3
 72
    29
 73
    25
 74
     0
 42
0.0000000001
 43
0.0000000001
 12
1.0
 22
0.0
 32
0.0
 13
1.0
 23
0.0
 33
0.0
 40
0.0
 40
0.0
 40
0.0
 40
0.0
 40
1.0
 40
1.0
 40
1.0
 40
2.0
 40
2.0
 40
2.0
 40
3.0
 40
3.0
 40
3.0
 40
4.0
 40
4.0
 40
4.0
 40
5.0
 40
5.0
 40
5.0
 40
6.0
 40
6.0
 40
6.0
 40
7.0
 40
7.0
 40
7.0
 40
8.0
 40
8.0
 40
8.0
 40
8.0
 10
113.7357657107653
 20
-114.9523114135178
 30
0.0
 10
113.7357657107653
 20
-114.9523114135178
 30
0.0
 10
110.4291979177146
 20
-114.9523114135178
 30
0.0
 10
110.4291979177146
 20
-114.9523114135178
 30
0.0
 10
109.867681119293
 20
-114.9523114135178
 30
0.0
 10
109.412481815027
 20
-114.4971121092518
 30
0.0
 10
109.412481815027
 20
-113.9355953108308
 30
0.0
 10
109.412481815027
 20
-113.9355953108308
 30
0.0
 10
109.412481815027
 20
-110.6290275177788
 30
0.0
 10
109.412481815027
 20
-110.6290275177788
 30
0.0
 10
109.412481815027
 20
-110.0675107193578
 30
0.0
 10
109.867681119293
 20
-109.6123114150919
 30
0.0
 10
110.4291979177146
 20
-109.6123114150919
 30
0.0
 10
110.4291979177146
 20
-109.6123114150919
 30
0.0
 10
113.7357657107653
 20
-109.6123114150919
 30
0.0
 10
113.7357657107653
 20
-109.6123114150919
 30
0.0
 10
114.297282509187
 20
-109.6123114150919
 30
0.0
 10
114.7524818134529
 20
-110.0675107193578
 30
0.0
 10
114.7524818134529
 20
-110.6290275177788
 30
0.0
 10
114.7524818134529
 20
-110.6290275177788
 30
0.0
 10
114.7524818134529
 20
-113.9355953108308
 30
0.0
 10
114.7524818134529
 20
-113.9355953108308
 30
0.0
 10
114.7524818134529
 20
-114.4971121092518
 30
0.0
 10
114.297282509187
 20
-114.9523114135178
 30
0.0
 10
113.7357657107653
 20
-114.9523114135178
 30
0.0
  0
SPLINE
  5
95
330
5F
100
AcDbEntity
  8
LAYER_1
 62
     7
100
AcDbSpline
210
0.0
220
0.0
230
1.0
 70
    11
 71
     3
 72
    29
 73
    25
 74
     0
 42
0.0000000001
 43
0.0000000001
 12
1.0
 22
0.0
 32
0.0
 13
1.0
 23
0.0
 33
0.0
 40
0.0
 40
0.0
 40
0.0
 40
0.0
 40
1.0
 40
1.0
 40
1.0
 40
2.0
 40
2.0
 40
2.0
 40
3.0
 40
3.0
 40
3.0
 40
4.0
 40
4.0
 40
4.0
 40
5.0
 40
5.0
 40
5.0
 40
6.0
 40
6.0
 40
6.0
 40
7.0
 40
7.0
 40
7.0
 40
8.0
 40
8.0
 40
8.0
 40
8.0
 10
118.6704009725625
 20
-123.8423114112987
 30
0.0
 10
118.6704009725625
 20
-123.8423114112987
 30
0.0
 10
115.3638331795118
 20
-123.8423114112987
 30
0.0
 10
115.3638331795118
 20
-123.8423114112987
 30
0.0
 10
114.8023163810902
 20
-123.8423114112987
 30
0.0
 10
114.3471170768242
 20
-123.3871121070328
 30
0.0
 10
114.3471170768242
 20
-122.8255953086118
 30
0.0
 10
114.3471170768242
 20
-122.8255953086118
 30
0.0
 10
114.3471170768242
 20
-119.5190275155598
 30
0.0
 10
114.3471170768242
 20
-119.5190275155598
 30
0.0
 10
114.3471170768242
 20
-118.9575107171388
 30
0.0
 10
114.8023163810902
 20
-118.5023114128728
 30
0.0
 10
115.3638331795118
 20
-118.5023114128728
 30
0.0
 10
115.3638331795118
 20
-118.5023114128728
 30
0.0
 10
118.6704009725625
 20
-118.5023114128728
 30
0.0
 10
118.6704009725625
 20
-118.5023114128728
 30
0.0
 10
119.2319177709842
 20
-118.5023114128728
 30
0.0
 10
119.6871170752501
 20
-118.9575107171388
 30
0.0
 10
119.6871170752501
 20
-119.5190275155598
 30
0.0
 10
119.6871170752501
 20
-119.5190275155598
 30
0.0
 10
119.6871170752501
 20
-122.8255953086118
 30
0.0
 10
119.6871170752501
 20
-122.8255953086118
 30
0.0
 10
119.6871170752501
 20
-123.3871121070328
 30
0.0
 10
119.2319177709842
 20
-123.8423114112987
 30
0.0
 10
118.6704009725625
 20
-123.8423114112987
 30
0.0
  0
SPLINE
  5
96
330
5F
100
AcDbEntity
  8
LAYER_1
 62
     7
100
AcDbSpline
210
0.0
220
0.0
230
1.0
 70
    11
 71
     3
 72
    29
 73
    25
 74
     0
 42
0.0000000001
 43
0.0000000001
 12
1.0
 22
0.0
 32
0.0
 13
1.0
 23
0.0
 33
0.0
 40
0.0
 40
0.0
 40
0.0
 40
0.0
 40
1.0
 40
1.0
 40
1.0
 40
2.0
 40
2.0
 40
2.0
 40
3.0
 40
3.0
 40
3.0
 40
4.0
 40
4.0
 40
4.0
 40
5.0
 40
5.0
 40
5.0
 40
6.0
 40
6.0
 40
6.0
 40
7.0
 40
7.0
 40
7.0
 40
8.0
 40
8.0
 40
8.0
 40
8.0
 10
127.5604009703403
 20
-123.8423114112987
 30
0.0
 10
127.5604009703403
 20
-123.8423114112987
 30
0.0
 10
124.2538331772896
 20
-123.8423114112987
 30
0.0
 10
124.2538331772896
 20
-123.8423114112987
 30
0.0
 10
123.6923163788679
 20
-123.8423114112987
 30
0.0
 10
123.237117074602
 20
-123.3871121070328
 30
0.0
 10
123.237117074602
 20
-122.8255953086118
 30
0.0
 10
123.237117074602
 20
-122.8255953086118
 30
0.0
 10
123.237117074602
 20
-119.5190275155598
 30
0.0
 10
123.237117074602
 20
-119.5190275155598
 30
0.0
 10
123.237117074602
 20
-118.9575107171388
 30
0.0
 10
123.6923163788679
 20
-118.5023114128728
 30
0.0
 10
124.2538331772896
 20
-118.5023114128728
 30
0.0
 10
124.2538331772896
 20
-118.5023114128728
 30
0.0
 10
127.5604009703403
 20
-118.5023114128728
 30
0.0
 10
127.5604009703403
 20
-118.5023114128728
 30
0.0
 10
128.121917768762
 20
-118.5023114128728
 30
0.0
 10
128.5771170730279
 20
-118.9575107171388
 30
0.0
 10
128.5771170730279
 20
-119.5190275155598
 30
0.0
 10
128.5771170730279
 20
-119.5190275155598
 30
0.0
 10
128.5771170730279
 20
-122.8255953086118
 30
0.0
 10
128.5771170730279
 20
-122.8255953086118
 30
0.0
 10
128.5771170730279
 20
-123.3871121070328
 30
0.0
 10
128.121917768762
 20
-123.8423114112987
 30
0.0
 10
127.5604009703403
 20
-123.8423114112987
 30
0.0
  0
SPLINE
  5
97
330
5F
100
AcDbEntity
  8
LAYER_1
 62
     7
100
AcDbSpline
210
0.0
220
0.0
230
1.0
 70
    11
 71
     3
 72
    29
 73
    25
 74
     0
 42
0.0000000001
 43
0.0000000001
 12
1.0
 22
0.0
 32
0.0
 13
1.0
 23
0.0
 33
0.0
 40
0.0
 40
0.0
 40
0.0
 40
0.0
 40
1.0
 40
1.0
 40
1.0
 40
2.0
 40
2.0
 40
2.0
 40
3.0
 40
3.0
 40
3.0
 40
4.0
 40
4.0
 40
4.0
 40
5.0
 40
5.0
 40
5.0
 40
6.0
 40
6.0
 40
6.0
 40
7.0
 40
7.0
 40
7.0
 40
8.0
 40
8.0
 40
8.0
 40
8.0
 10
136.4504009681184
 20
-123.8423114112904
 30
0.0
 10
136.4504009681184
 20
-123.8423114112904
 30
0.0
 10
133.1438331750677
 20
-123.8423114112904
 30
0.0
 10
133.1438331750677
 20
-123.8423114112904
 30
0.0
 10
132.582316376646
 20
-123.8423114112904
 30
0.0
 10
132.1271170723801
 20
-123.3871121070244
 30
0.0
 10
132.1271170723801
 20
-122.8255953086034
 30
0.0
 10
132.1271170723801
 20
-122.8255953086034
 30
0.0
 10
132.1271170723801
 20
-119.5190275155514
 30
0.0
 10
132.1271170723801
 20
-119.5190275155514
 30
0.0
 10
132.1271170723801
 20
-118.9575107171304
 30
0.0
 10
132.582316376646
 20
-118.5023114128645
 30
0.0
 10
133.1438331750677
 20
-118.5023114128645
 30
0.0
 10
133.1438331750677
 20
-118.5023114128645
 30
0.0
 10
136.4504009681184
 20
-118.5023114128645
 30
0.0
 10
136.4504009681184
 20
-118.5023114128645
 30
0.0
 10
137.0119177665401
 20
-118.5023114128645
 30
0.0
 10
137.467117070806
 20
-118.9575107171304
 30
0.0
 10
137.467117070806
 20
-119.5190275155514
 30
0.0
 10
137.467117070806
 20
-119.5190275155514
 30
0.0
 10
137.467117070806
 20
-122.8255953086034
 30
0.0
 10
137.467117070806
 20
-122.8255953086034
 30
0.0
 10
137.467117070806
 20
-123.3871121070244
 30
0.0
 10
137.0119177665401
 20
-123.8423114112904
 30
0.0
 10
136.4504009681184
 20
-123.8423114112904
 30
0.0
  0
SPLINE
  5
98
330
5F
100
AcDbEntity
  8
LAYER_1
 62
     7
100
AcDbSpline
210
0.0
220
0.0
230
1.0
 70
    11
 71
     3
 72
    29
 73
    25
 74
     0
 42
0.0000000001
 43
0.0000000001
 12
1.0
 22
0.0
 32
0.0
 13
1.0
 23
0.0
 33
0.0
 40
0.0
 40
0.0
 40
0.0
 40
0.0
 40
1.0
 40
1.0
 40
1.0
 40
2.0
 40
2.0
 40
2.0
 40
3.0
 40
3.0
 40
3.0
 40
4.0
 40
4.0
 40
4.0
 40
5.0
 40
5.0
 40
5.0
 40
6.0
 40
6.0
 40
6.0
 40
7.0
 40
7.0
 40
7.0
 40
8.0
 40
8.0
 40
8.0
 40
8.0
 10
122.6257657085431
 20
-114.9523114135178
 30
0.0
 10
122.6257657085431
 20
-114.9523114135178
 30
0.0
 10
119.3191979154924
 20
-114.9523114135178
 30
0.0
 10
119.3191979154924
 20
-114.9523114135178
 30
0.0
 10
118.7576811170707
 20
-114.9523114135178
 30
0.0
 10
118.3024818128048
 20
-114.4971121092518
 30
0.0
 10
118.3024818128048
 20
-113.9355953108308
 30
0.0
 10
118.3024818128048
 20
-113.9355953108308
 30
0.0
 10
118.3024818128048
 20
-110.6290275177788
 30
0.0
 10
118.3024818128048
 20
-110.6290275177788
 30
0.0
 10
118.3024818128048
 20
-110.0675107193578
 30
0.0
 10
118.7576811170707
 20
-109.6123114150919
 30
0.0
 10
119.3191979154924
 20
-109.6123114150919
 30
0.0
 10
119.3191979154924
 20
-109.6123114150919
 30
0.0
 10
122.6257657085431
 20
-109.6123114150919
 30
0.0
 10
122.6257657085431
 20
-109.6123114150919
 30
0.0
 10
123.1872825069647
 20
-109.6123114150919
 30
0.0
 10
123.6424818112307
 20
-110.0675107193578
 30
0.0
 10
123.6424818112307
 20
-110.6290275177788
 30
0.0
 10
123.6424818112307
 20
-110.6290275177788
 30
0.0
 10
123.6424818112307
 20
-113.9355953108308
 30
0.0
 10
123.6424818112307
 20
-113.9355953108308
 30
0.0
 10
123.6424818112307
 20
-114.4971121092518
 30
0.0
 10
123.1872825069647
 20
-114.9523114135178
 30
0.0
 10
122.6257657085431
 20
-114.9523114135178
 30
0.0
  0
SPLINE
  5
99
330
5F
100
AcDbEntity
  8
LAYER_1
 62
     7
100
AcDbSpline
210
0.0
220
0.0
230
1.0
 70
    11
 71
     3
 72
    29
 73
    25
 74
     0
 42
0.0000000001
 43
0.0000000001
 12
1.0
 22
0.0
 32
0.0
 13
1.0
 23
0.0
 33
0.0
 40
0.0
 40
0.0
 40
0.0
 40
0.0
 40
1.0
 40
1.0
 40
1.0
 40
2.0
 40
2.0
 40
2.0
 40
3.0
 40
3.0
 40
3.0
 40
4.0
 40
4.0
 40
4.0
 40
5.0
 40
5.0
 40
5.0
 40
6.0
 40
6.0
 40
6.0
 40
7.0
 40
7.0
 40
7.0
 40
8.0
 40
8.0
 40
8.0
 40
8.0
 10
131.619472226699
 20
-114.9523114135216
 30
0.0
 10
131.619472226699
 20
-114.9523114135216
 30
0.0
 10
128.3129044336483
 20
-114.9523114135216
 30
0.0
 10
128.3129044336483
 20
-114.9523114135216
 30
0.0
 10
127.7513876352266
 20
-114.9523114135216
 30
0.0
 10
127.2961883309607
 20
-114.4971121092557
 30
0.0
 10
127.2961883309607
 20
-113.9355953108346
 30
0.0
 10
127.2961883309607
 20
-113.9355953108346
 30
0.0
 10
127.2961883309607
 20
-110.6290275177827
 30
0.0
 10
127.2961883309607
 20
-110.6290275177827
 30
0.0
 10
127.2961883309607
 20
-110.0675107193616
 30
0.0
 10
127.7513876352266
 20
-109.6123114150957
 30
0.0
 10
128.3129044336483
 20
-109.6123114150957
 30
0.0
 10
128.3129044336483
 20
-109.6123114150957
 30
0.0
 10
131.619472226699
 20
-109.6123114150957
 30
0.0
 10
131.619472226699
 20
-109.6123114150957
 30
0.0
 10
132.1809890251207
 20
-109.6123114150957
 30
0.0
 10
132.6361883293866
 20
-110.0675107193616
 30
0.0
 10
132.6361883293866
 20
-110.6290275177827
 30
0.0
 10
132.6361883293866
 20
-110.6290275177827
 30
0.0
 10
132.6361883293866
 20
-113.9355953108346
 30
0.0
 10
132.6361883293866
 20
-113.9355953108346
 30
0.0
 10
132.6361883293866
 20
-114.4971121092557
 30
0.0
 10
132.1809890251207
 20
-114.9523114135216
 30
0.0
 10
131.619472226699
 20
-114.9523114135216
 30
0.0
  0
SPLINE
  5
9A
330
5F
100
AcDbEntity
  8
LAYER_1
 62
     7
100
AcDbSpline
210
0.0
220
0.0
230
1.0
 70
    11
 71
     3
 72
    29
 73
    25
 74
     0
 42
0.0000000001
 43
0.0000000001
 12
1.0
 22
0.0
 32
0.0
 13
1.0
 23
0.0
 33
0.0
 40
0.0
 40
0.0
 40
0.0
 40
0.0
 40
1.0
 40
1.0
 40
1.0
 40
2.0
 40
2.0
 40
2.0
 40
3.0
 40
3.0
 40
3.0
 40
4.0
 40
4.0
 40
4.0
 40
5.0
 40
5.0
 40
5.0
 40
6.0
 40
6.0
 40
6.0
 40
7.0
 40
7.0
 40
7.0
 40
8.0
 40
8.0
 40
8.0
 40
8.0
 10
119.3054009724023
 20
-106.0623114157426
 30
0.0
 10
119.3054009724023
 20
-106.0623114157426
 30
0.0
 10
115.9988331793516
 20
-106.0623114157426
 30
0.0
 10
115.9988331793516
 20
-106.0623114157426
 30
0.0
 10
115.4373163809299
 20
-106.0623114157426
 30
0.0
 10
114.982117076664
 20
-105.6071121114766
 30
0.0
 10
114.982117076664
 20
-105.0455953130556
 30
0.0
 10
114.982117076664
 20
-105.0455953130556
 30
0.0
 10
114.982117076664
 20
-101.7390275200036
 30
0.0
 10
114.982117076664
 20
-101.7390275200036
 30
0.0
 10
114.982117076664
 20
-101.1775107215826
 30
0.0
 10
115.4373163809299
 20
-100.7223114173167
 30
0.0
 10
115.9988331793516
 20
-100.7223114173167
 30
0.0
 10
115.9988331793516
 20
-100.7223114173167
 30
0.0
 10
119.3054009724023
 20
-100.7223114173167
 30
0.0
 10
119.3054009724023
 20
-100.7223114173167
 30
0.0
 10
119.8669177708239
 20
-100.7223114173167
 30
0.0
 10
120.3221170750899
 20
-101.1775107215826
 30
0.0
 10
120.3221170750899
 20
-101.7390275200036
 30
0.0
 10
120.3221170750899
 20
-101.7390275200036
 30
0.0
 10
120.3221170750899
 20
-105.0455953130556
 30
0.0
 10
120.3221170750899
 20
-105.0455953130556
 30
0.0
 10
120.3221170750899
 20
-105.6071121114766
 30
0.0
 10
119.8669177708239
 20
-106.0623114157426
 30
0.0
 10
119.3054009724023
 20
-106.0623114157426
 30
0.0
  0
SPLINE
  5
9B
330
5F
100
AcDbEntity
  8
LAYER_1
 62
     7
100
AcDbSpline
210
0.0
220
0.0
230
1.0
 70
    11
 71
     3
 72
    29
 73
    25
 74
     0
 42
0.0000000001
 43
0.0000000001
 12
1.0
 22
0.0
 32
0.0
 13
1.0
 23
0.0
 33
0.0
 40
0.0
 40
0.0
 40
0.0
 40
0.0
 40
1.0
 40
1.0
 40
1.0
 40
2.0
 40
2.0
 40
2.0
 40
3.0
 40
3.0
 40
3.0
 40
4.0
 40
4.0
 40
4.0
 40
5.0
 40
5.0
 40
5.0
 40
6.0
 40
6.0
 40
6.0
 40
7.0
 40
7.0
 40
7.0
 40
8.0
 40
8.0
 40
8.0
 40
8.0
 10
114.860400973515
 20
-97.1723114179661
 30
0.0
 10
114.860400973515
 20
-97.1723114179661
 30
0.0
 10
111.5538331804643
 20
-97.1723114179661
 30
0.0
 10
111.5538331804643
 20
-97.1723114179661
 30
0.0
 10
110.9923163820426
 20
-97.1723114179661
 30
0.0
 10
110.5371170777767
 20
-96.71711211370017
 30
0.0
 10
110.5371170777767
 20
-96.15559531527913
 30
0.0
 10
110.5371170777767
 20
-96.15559531527913
 30
0.0
 10
110.5371170777767
 20
-92.84902752222716
 30
0.0
 10
110.5371170777767
 20
-92.84902752222716
 30
0.0
 10
110.5371170777767
 20
-92.28751072380612
 30
0.0
 10
110.9923163820426
 20
-91.83231141954019
 30
0.0
 10
111.5538331804643
 20
-91.83231141954019
 30
0.0
 10
111.5538331804643
 20
-91.83231141954019
 30
0.0
 10
114.860400973515
 20
-91.83231141954019
 30
0.0
 10
114.860400973515
 20
-91.83231141954019
 30
0.0
 10
115.4219177719366
 20
-91.83231141954019
 30
0.0
 10
115.8771170762026
 20
-92.28751072380612
 30
0.0
 10
115.8771170762026
 20
-92.84902752222716
 30
0.0
 10
115.8771170762026
 20
-92.84902752222716
 30
0.0
 10
115.8771170762026
 20
-96.15559531527913
 30
0.0
 10
115.8771170762026
 20
-96.15559531527913
 30
0.0
 10
115.8771170762026
 20
-96.71711211370017
 30
0.0
 10
115.4219177719366
 20
-97.1723114179661
 30
0.0
 10
114.860400973515
 20
-97.1723114179661
 30
0.0
  0
SPLINE
  5
9C
330
5F
100
AcDbEntity
  8
LAYER_1
 62
     7
100
AcDbSpline
210
0.0
220
0.0
230
1.0
 70
    11
 71
     3
 72
    29
 73
    25
 74
     0
 42
0.0000000001
 43
0.0000000001
 12
1.0
 22
0.0
 32
0.0
 13
1.0
 23
0.0
 33
0.0
 40
0.0
 40
0.0
 40
0.0
 40
0.0
 40
1.0
 40
1.0
 40
1.0
 40
2.0
 40
2.0
 40
2.0
 40
3.0
 40
3.0
 40
3.0
 40
4.0
 40
4.0
 40
4.0
 40
5.0
 40
5.0
 40
5.0
 40
6.0
 40
6.0
 40
6.0
 40
7.0
 40
7.0
 40
7.0
 40
8.0
 40
8.0
 40
8.0
 40
8.0
 10
123.7504009712927
 20
-97.17231141797059
 30
0.0
 10
123.7504009712927
 20
-97.17231141797059
 30
0.0
 10
120.443833178242
 20
-97.17231141797059
 30
0.0
 10
120.443833178242
 20
-97.17231141797059
 30
0.0
 10
119.8823163798204
 20
-97.17231141797059
 30
0.0
 10
119.4271170755544
 20
-96.71711211370466
 30
0.0
 10
119.4271170755544
 20
-96.15559531528362
 30
0.0
 10
119.4271170755544
 20
-96.15559531528362
 30
0.0
 10
119.4271170755544
 20
-92.84902752223165
 30
0.0
 10
119.4271170755544
 20
-92.84902752223165
 30
0.0
 10
119.4271170755544
 20
-92.28751072381061
 30
0.0
 10
119.8823163798204
 20
-91.83231141954468
 30
0.0
 10
120.443833178242
 20
-91.83231141954468
 30
0.0
 10
120.443833178242
 20
-91.83231141954468
 30
0.0
 10
123.7504009712927
 20
-91.83231141954468
 30
0.0
 10
123.7504009712927
 20
-91.83231141954468
 30
0.0
 10
124.3119177697144
 20
-91.83231141954468
 30
0.0
 10
124.7671170739803
 20
-92.28751072381061
 30
0.0
 10
124.7671170739803
 20
-92.84902752223165
 30
0.0
 10
124.7671170739803
 20
-92.84902752223165
 30
0.0
 10
124.7671170739803
 20
-96.15559531528362
 30
0.0
 10
124.7671170739803
 20
-96.15559531528362
 30
0.0
 10
124.7671170739803
 20
-96.71711211370466
 30
0.0
 10
124.3119177697144
 20
-97.17231141797059
 30
0.0
 10
123.7504009712927
 20
-97.17231141797059
 30
0.0
  0
SPLINE
  5
9D
330
5F
100
AcDbEntity
  8
LAYER_1
 62
     7
100
AcDbSpline
210
0.0
220
0.0
230
1.0
 70
    11
 71
     3
 72
    29
 73
    25
 74
     0
 42
0.0000000001
 43
0.0000000001
 12
1.0
 22
0.0
 32
0.0
 13
1.0
 23
0.0
 33
0.0
 40
0.0
 40
0.0
 40
0.0
 40
0.0
 40
1.0
 40
1.0
 40
1.0
 40
2.0
 40
2.0
 40
2.0
 40
3.0
 40
3.0
 40
3.0
 40
4.0
 40
4.0
 40
4.0
 40
5.0
 40
5.0
 40
5.0
 40
6.0
 40
6.0
 40
6.0
 40
7.0
 40
7.0
 40
7.0
 40
8.0
 40
8.0
 40
8.0
 40
8.0
 10
132.6404009690705
 20
-97.1723114179661
 30
0.0
 10
132.6404009690705
 20
-97.1723114179661
 30
0.0
 10
129.3338331760198
 20
-97.1723114179661
 30
0.0
 10
129.3338331760198
 20
-97.1723114179661
 30
0.0
 10
128.7723163775981
 20
-97.1723114179661
 30
0.0
 10
128.3171170733322
 20
-96.71711211370017
 30
0.0
 10
128.3171170733322
 20
-96.15559531527913
 30
0.0
 10
128.3171170733322
 20
-96.15559531527913
 30
0.0
 10
128.3171170733322
 20
-92.84902752222716
 30
0.0
 10
128.3171170733322
 20
-92.84902752222716
 30
0.0
 10
128.3171170733322
 20
-92.28751072380612
 30
0.0
 10
128.7723163775981
 20
-91.83231141954019
 30
0.0
 10
129.3338331760198
 20
-91.83231141954019
 30
0.0
 10
129.3338331760198
 20
-91.83231141954019
 30
0.0
 10
132.6404009690705
 20
-91.83231141954019
 30
0.0
 10
132.6404009690705
 20
-91.83231141954019
 30
0.0
 10
133.2019177674922
 20
-91.83231141954019
 30
0.0
 10
133.6571170717581
 20
-92.28751072380612
 30
0.0
 10
133.6571170717581
 20
-92.84902752222716
 30
0.0
 10
133.6571170717581
 20
-92.84902752222716
 30
0.0
 10
133.6571170717581
 20
-96.15559531527913
 30
0.0
 10
133.6571170717581
 20
-96.15559531527913
 30
0.0
 10
133.6571170717581
 20
-96.71711211370017
 30
0.0
 10
133.2019177674922
 20
-97.1723114179661
 30
0.0
 10
132.6404009690705
 20
-97.1723114179661
 30
0.0
  0
SPLINE
  5
9E
330
5F
100
AcDbEntity
  8
LAYER_1
 62
     7
100
AcDbSpline
210
0.0
220
0.0
230
1.0
 70
    11
 71
     3
 72
    29
 73
    25
 74
     0
 42
0.0000000001
 43
0.0000000001
 12
1.0
 22
0.0
 32
0.0
 13
1.0
 23
0.0
 33
0.0
 40
0.0
 40
0.0
 40
0.0
 40
0.0
 40
1.0
 40
1.0
 40
1.0
 40
2.0
 40
2.0
 40
2.0
 40
3.0
 40
3.0
 40
3.0
 40
4.0
 40
4.0
 40
4.0
 40
5.0
 40
5.0
 40
5.0
 40
6.0
 40
6.0
 40
6.0
 40
7.0
 40
7.0
 40
7.0
 40
8.0
 40
8.0
 40
8.0
 40
8.0
 10
128.1954009701803
 20
-106.0623114157445
 30
0.0
 10
128.1954009701803
 20
-106.0623114157445
 30
0.0
 10
124.8888331771296
 20
-106.0623114157445
 30
0.0
 10
124.8888331771296
 20
-106.0623114157445
 30
0.0
 10
124.327316378708
 20
-106.0623114157445
 30
0.0
 10
123.872117074442
 20
-105.6071121114786
 30
0.0
 10
123.872117074442
 20
-105.0455953130575
 30
0.0
 10
123.872117074442
 20
-105.0455953130575
 30
0.0
 10
123.872117074442
 20
-101.7390275200055
 30
0.0
 10
123.872117074442
 20
-101.7390275200055
 30
0.0
 10
123.872117074442
 20
-101.1775107215845
 30
0.0
 10
124.327316378708
 20
-100.7223114173186
 30
0.0
 10
124.8888331771296
 20
-100.7223114173186
 30
0.0
 10
124.8888331771296
 20
-100.7223114173186
 30
0.0
 10
128.1954009701803
 20
-100.7223114173186
 30
0.0
 10
128.1954009701803
 20
-100.7223114173186
 30
0.0
 10
128.756917768602
 20
-100.7223114173186
 30
0.0
 10
129.2121170728679
 20
-101.1775107215845
 30
0.0
 10
129.2121170728679
 20
-101.7390275200055
 30
0.0
 10
129.2121170728679
 20
-101.7390275200055
 30
0.0
 10
129.2121170728679
 20
-105.0455953130575
 30
0.0
 10
129.2121170728679
 20
-105.0455953130575
 30
0.0
 10
129.2121170728679
 20
-105.6071121114786
 30
0.0
 10
128.756917768602
 20
-106.0623114157445
 30
0.0
 10
128.1954009701803
 20
-106.0623114157445
 30
0.0
  0
SPLINE
  5
9F
330
5F
100
AcDbEntity
  8
LAYER_1
 62
     7
100
AcDbSpline
210
0.0
220
0.0
230
1.0
 70
    11
 71
     3
 72
    29
 73
    25
 74
     0
 42
0.0000000001
 43
0.0000000001
 12
1.0
 22
0.0
 32
0.0
 13
1.0
 23
0.0
 33
0.0
 40
0.0
 40
0.0
 40
0.0
 40
0.0
 40
1.0
 40
1.0
 40
1.0
 40
2.0
 40
2.0
 40
2.0
 40
3.0
 40
3.0
 40
3.0
 40
4.0
 40
4.0
 40
4.0
 40
5.0
 40
5.0
 40
5.0
 40
6.0
 40
6.0
 40
6.0
 40
7.0
 40
7.0
 40
7.0
 40
8.0
 40
8.0
 40
8.0
 40
8.0
 10
137.0854009679578
 20
-106.0623114157445
 30
0.0
 10
137.0854009679578
 20
-106.0623114157445
 30
0.0
 10
133.7788331749071
 20
-106.0623114157445
 30
0.0
 10
133.7788331749071
 20
-106.0623114157445
 30
0.0
 10
133.2173163764854
 20
-106.0623114157445
 30
0.0
 10
132.7621170722195
 20
-105.6071121114786
 30
0.0
 10
132.7621170722195
 20
-105.0455953130575
 30
0.0
 10
132.7621170722195
 20
-105.0455953130575
 30
0.0
 10
132.7621170722195
 20
-101.7390275200055
 30
0.0
 10
132.7621170722195
 20
-101.7390275200055
 30
0.0
 10
132.7621170722195
 20
-101.1775107215845
 30
0.0
 10
133.2173163764854
 20
-100.7223114173186
 30
0.0
 10
133.7788331749071
 20
-100.7223114173186
 30
0.0
 10
133.7788331749071
 20
-100.7223114173186
 30
0.0
 10
137.0854009679578
 20
-100.7223114173186
 30
0.0
 10
137.0854009679578
 20
-100.7223114173186
 30
0.0
 10
137.6469177663794
 20
-100.7223114173186
 30
0.0
 10
138.1021170706454
 20
-101.1775107215845
 30
0.0
 10
138.1021170706454
 20
-101.7390275200055
 30
0.0
 10
138.1021170706454
 20
-101.7390275200055
 30
0.0
 10
138.1021170706454
 20
-105.0455953130575
 30
0.0
 10
138.1021170706454
 20
-105.0455953130575
 30
0.0
 10
138.1021170706454
 20
-105.6071121114786
 30
0.0
 10
137.6469177663794
 20
-106.0623114157445
 30
0.0
 10
137.0854009679578
 20
-106.0623114157445
 30
0.0
  0
SPLINE
  5
A0
330
5F
100
AcDbEntity
  8
LAYER_1
 62
     7
100
AcDbSpline
210
0.0
220
0.0
230
1.0
 70
    11
 71
     3
 72
    29
 73
    25
 74
     0
 42
0.0000000001
 43
0.0000000001
 12
1.0
 22
0.0
 32
0.0
 13
1.0
 23
0.0
 33
0.0
 40
0.0
 40
0.0
 40
0.0
 40
0.0
 40
1.0
 40
1.0
 40
1.0
 40
2.0
 40
2.0
 40
2.0
 40
3.0
 40
3.0
 40
3.0
 40
4.0
 40
4.0
 40
4.0
 40
5.0
 40
5.0
 40
5.0
 40
6.0
 40
6.0
 40
6.0
 40
7.0
 40
7.0
 40
7.0
 40
8.0
 40
8.0
 40
8.0
 40
8.0
 10
141.5304009668457
 20
-97.1723114179661
 30
0.0
 10
141.5304009668457
 20
-97.1723114179661
 30
0.0
 10
138.223833173795
 20
-97.1723114179661
 30
0.0
 10
138.223833173795
 20
-97.1723114179661
 30
0.0
 10
137.6623163753733
 20
-97.1723114179661
 30
0.0
 10
137.2071170711074
 20
-96.71711211370017
 30
0.0
 10
137.2071170711074
 20
-96.15559531527913
 30
0.0
 10
137.2071170711074
 20
-96.15559531527913
 30
0.0
 10
137.2071170711074
 20
-92.84902752222716
 30
0.0
 10
137.2071170711074
 20
-92.84902752222716
 30
0.0
 10
137.2071170711074
 20
-92.28751072380612
 30
0.0
 10
137.6623163753733
 20
-91.83231141954019
 30
0.0
 10
138.223833173795
 20
-91.83231141954019
 30
0.0
 10
138.223833173795
 20
-91.83231141954019
 30
0.0
 10
141.5304009668457
 20
-91.83231141954019
 30
0.0
 10
141.5304009668457
 20
-91.83231141954019
 30
0.0
 10
142.0919177652673
 20
-91.83231141954019
 30
0.0
 10
142.5471170695333
 20
-92.28751072380612
 30
0.0
 10
142.5471170695333
 20
-92.84902752222716
 30
0.0
 10
142.5471170695333
 20
-92.84902752222716
 30
0.0
 10
142.5471170695333
 20
-96.15559531527913
 30
0.0
 10
142.5471170695333
 20
-96.15559531527913
 30
0.0
 10
142.5471170695333
 20
-96.71711211370017
 30
0.0
 10
142.0919177652673
 20
-97.1723114179661
 30
0.0
 10
141.5304009668457
 20
-97.1723114179661
 30
0.0
  0
SPLINE
  5
A1
330
5F
100
AcDbEntity
  8
LAYER_1
 62
     7
100
AcDbSpline
210
0.0
220
0.0
230
1.0
 70
    11
 71
     3
 72
    29
 73
    25
 74
     0
 42
0.0000000001
 43
0.0000000001
 12
1.0
 22
0.0
 32
0.0
 13
1.0
 23
0.0
 33
0.0
 40
0.0
 40
0.0
 40
0.0
 40
0.0
 40
1.0
 40
1.0
 40
1.0
 40
2.0
 40
2.0
 40
2.0
 40
3.0
 40
3.0
 40
3.0
 40
4.0
 40
4.0
 40
4.0
 40
5.0
 40
5.0
 40
5.0
 40
6.0
 40
6.0
 40
6.0
 40
7.0
 40
7.0
 40
7.0
 40
8.0
 40
8.0
 40
8.0
 40
8.0
 10
140.4709635407587
 20
-114.9523114135178
 30
0.0
 10
140.4709635407587
 20
-114.9523114135178
 30
0.0
 10
137.164395747708
 20
-114.9523114135178
 30
0.0
 10
137.164395747708
 20
-114.9523114135178
 30
0.0
 10
136.6028789492864
 20
-114.9523114135178
 30
0.0
 10
136.1476796450204
 20
-114.4971121092518
 30
0.0
 10
136.1476796450204
 20
-113.9355953108308
 30
0.0
 10
136.1476796450204
 20
-113.9355953108308
 30
0.0
 10
136.1476796450204
 20
-110.6290275177788
 30
0.0
 10
136.1476796450204
 20
-110.6290275177788
 30
0.0
 10
136.1476796450204
 20
-110.0675107193578
 30
0.0
 10
136.6028789492864
 20
-109.6123114150919
 30
0.0
 10
137.164395747708
 20
-109.6123114150919
 30
0.0
 10
137.164395747708
 20
-109.6123114150919
 30
0.0
 10
140.4709635407587
 20
-109.6123114150919
 30
0.0
 10
140.4709635407587
 20
-109.6123114150919
 30
0.0
 10
141.0324803391804
 20
-109.6123114150919
 30
0.0
 10
141.4876796434463
 20
-110.0675107193578
 30
0.0
 10
141.4876796434463
 20
-110.6290275177788
 30
0.0
 10
141.4876796434463
 20
-110.6290275177788
 30
0.0
 10
141.4876796434463
 20
-113.9355953108308
 30
0.0
 10
141.4876796434463
 20
-113.9355953108308
 30
0.0
 10
141.4876796434463
 20
-114.4971121092518
 30
0.0
 10
141.0324803391804
 20
-114.9523114135178
 30
0.0
 10
140.4709635407587
 20
-114.9523114135178
 30
0.0
  0
SPLINE
  5
A2
330
5F
100
AcDbEntity
  8
LAYER_1
 62
     7
100
AcDbSpline
210
0.0
220
0.0
230
1.0
 70
    11
 71
     3
 72
    29
 73
    25
 74
     0
 42
0.0000000001
 43
0.0000000001
 12
1.0
 22
0.0
 32
0.0
 13
1.0
 23
0.0
 33
0.0
 40
0.0
 40
0.0
 40
0.0
 40
0.0
 40
1.0
 40
1.0
 40
1.0
 40
2.0
 40
2.0
 40
2.0
 40
3.0
 40
3.0
 40
3.0
 40
4.0
 40
4.0
 40
4.0
 40
5.0
 40
5.0
 40
5.0
 40
6.0
 40
6.0
 40
6.0
 40
7.0
 40
7.0
 40
7.0
 40
8.0
 40
8.0
 40
8.0
 40
8.0
 10
145.3404009658955
 20
-123.8423114112987
 30
0.0
 10
145.3404009658955
 20
-123.8423114112987
 30
0.0
 10
142.0338331728448
 20
-123.8423114112987
 30
0.0
 10
142.0338331728448
 20
-123.8423114112987
 30
0.0
 10
141.4723163744238
 20
-123.8423114112987
 30
0.0
 10
141.0171170701578
 20
-123.3871121070328
 30
0.0
 10
141.0171170701578
 20
-122.8255953086118
 30
0.0
 10
141.0171170701578
 20
-122.8255953086118
 30
0.0
 10
141.0171170701578
 20
-119.5190275155598
 30
0.0
 10
141.0171170701578
 20
-119.5190275155598
 30
0.0
 10
141.0171170701578
 20
-118.9575107171388
 30
0.0
 10
141.4723163744238
 20
-118.5023114128728
 30
0.0
 10
142.0338331728448
 20
-118.5023114128728
 30
0.0
 10
142.0338331728448
 20
-118.5023114128728
 30
0.0
 10
145.3404009658955
 20
-118.5023114128728
 30
0.0
 10
145.3404009658955
 20
-118.5023114128728
 30
0.0
 10
145.9019177643178
 20
-118.5023114128728
 30
0.0
 10
146.3571170685837
 20
-118.9575107171388
 30
0.0
 10
146.3571170685837
 20
-119.5190275155598
 30
0.0
 10
146.3571170685837
 20
-119.5190275155598
 30
0.0
 10
146.3571170685837
 20
-122.8255953086118
 30
0.0
 10
146.3571170685837
 20
-122.8255953086118
 30
0.0
 10
146.3571170685837
 20
-123.3871121070328
 30
0.0
 10
145.9019177643178
 20
-123.8423114112987
 30
0.0
 10
145.3404009658955
 20
-123.8423114112987
 30
0.0
  0
SPLINE
  5
A3
330
5F
100
AcDbEntity
  8
LAYER_1
 62
     7
100
AcDbSpline
210
0.0
220
0.0
230
1.0
 70
    11
 71
     3
 72
    29
 73
    25
 74
     0
 42
0.0000000001
 43
0.0000000001
 12
1.0
 22
0.0
 32
0.0
 13
1.0
 23
0.0
 33
0.0
 40
0.0
 40
0.0
 40
0.0
 40
0.0
 40
1.0
 40
1.0
 40
1.0
 40
2.0
 40
2.0
 40
2.0
 40
3.0
 40
3.0
 40
3.0
 40
4.0
 40
4.0
 40
4.0
 40
5.0
 40
5.0
 40
5.0
 40
6.0
 40
6.0
 40
6.0
 40
7.0
 40
7.0
 40
7.0
 40
8.0
 40
8.0
 40
8.0
 40
8.0
 10
154.2304009636726
 20
-123.8423114112987
 30
0.0
 10
154.2304009636726
 20
-123.8423114112987
 30
0.0
 10
150.9238331706219
 20
-123.8423114112987
 30
0.0
 10
150.9238331706219
 20
-123.8423114112987
 30
0.0
 10
150.3623163722002
 20
-123.8423114112987
 30
0.0
 10
149.9071170679343
 20
-123.3871121070328
 30
0.0
 10
149.9071170679343
 20
-122.8255953086118
 30
0.0
 10
149.9071170679343
 20
-122.8255953086118
 30
0.0
 10
149.9071170679343
 20
-119.5190275155598
 30
0.0
 10
149.9071170679343
 20
-119.5190275155598
 30
0.0
 10
149.9071170679343
 20
-118.9575107171388
 30
0.0
 10
150.3623163722002
 20
-118.5023114128728
 30
0.0
 10
150.9238331706219
 20
-118.5023114128728
 30
0.0
 10
150.9238331706219
 20
-118.5023114128728
 30
0.0
 10
154.2304009636726
 20
-118.5023114128728
 30
0.0
 10
154.2304009636726
 20
-118.5023114128728
 30
0.0
 10
154.7919177620943
 20
-118.5023114128728
 30
0.0
 10
155.2471170663602
 20
-118.9575107171388
 30
0.0
 10
155.2471170663602
 20
-119.5190275155598
 30
0.0
 10
155.2471170663602
 20
-119.5190275155598
 30
0.0
 10
155.2471170663602
 20
-122.8255953086118
 30
0.0
 10
155.2471170663602
 20
-122.8255953086118
 30
0.0
 10
155.2471170663602
 20
-123.3871121070328
 30
0.0
 10
154.7919177620943
 20
-123.8423114112987
 30
0.0
 10
154.2304009636726
 20
-123.8423114112987
 30
0.0
  0
SPLINE
  5
A4
330
5F
100
AcDbEntity
  8
LAYER_1
 62
     7
100
AcDbSpline
210
0.0
220
0.0
230
1.0
 70
    11
 71
     3
 72
    29
 73
    25
 74
     0
 42
0.0000000001
 43
0.0000000001
 12
1.0
 22
0.0
 32
0.0
 13
1.0
 23
0.0
 33
0.0
 40
0.0
 40
0.0
 40
0.0
 40
0.0
 40
1.0
 40
1.0
 40
1.0
 40
2.0
 40
2.0
 40
2.0
 40
3.0
 40
3.0
 40
3.0
 40
4.0
 40
4.0
 40
4.0
 40
5.0
 40
5.0
 40
5.0
 40
6.0
 40
6.0
 40
6.0
 40
7.0
 40
7.0
 40
7.0
 40
8.0
 40
8.0
 40
8.0
 40
8.0
 10
149.4261630376589
 20
-114.9523114135178
 30
0.0
 10
149.4261630376589
 20
-114.9523114135178
 30
0.0
 10
146.1195952446081
 20
-114.9523114135178
 30
0.0
 10
146.1195952446081
 20
-114.9523114135178
 30
0.0
 10
145.5580784461865
 20
-114.9523114135178
 30
0.0
 10
145.1028791419205
 20
-114.4971121092518
 30
0.0
 10
145.1028791419205
 20
-113.9355953108308
 30
0.0
 10
145.1028791419205
 20
-113.9355953108308
 30
0.0
 10
145.1028791419205
 20
-110.6290275177788
 30
0.0
 10
145.1028791419205
 20
-110.6290275177788
 30
0.0
 10
145.1028791419205
 20
-110.0675107193578
 30
0.0
 10
145.5580784461865
 20
-109.6123114150919
 30
0.0
 10
146.1195952446081
 20
-109.6123114150919
 30
0.0
 10
146.1195952446081
 20
-109.6123114150919
 30
0.0
 10
149.4261630376589
 20
-109.6123114150919
 30
0.0
 10
149.4261630376589
 20
-109.6123114150919
 30
0.0
 10
149.9876798360805
 20
-109.6123114150919
 30
0.0
 10
150.4428791403465
 20
-110.0675107193578
 30
0.0
 10
150.4428791403465
 20
-110.6290275177788
 30
0.0
 10
150.4428791403465
 20
-110.6290275177788
 30
0.0
 10
150.4428791403465
 20
-113.9355953108308
 30
0.0
 10
150.4428791403465
 20
-113.9355953108308
 30
0.0
 10
150.4428791403465
 20
-114.4971121092518
 30
0.0
 10
149.9876798360805
 20
-114.9523114135178
 30
0.0
 10
149.4261630376589
 20
-114.9523114135178
 30
0.0
  0
SPLINE
  5
A5
330
5F
100
AcDbEntity
  8
LAYER_1
 62
     7
100
AcDbSpline
210
0.0
220
0.0
230
1.0
 70
    11
 71
     3
 72
    29
 73
    25
 74
     0
 42
0.0000000001
 43
0.0000000001
 12
1.0
 22
0.0
 32
0.0
 13
1.0
 23
0.0
 33
0.0
 40
0.0
 40
0.0
 40
0.0
 40
0.0
 40
1.0
 40
1.0
 40
1.0
 40
2.0
 40
2.0
 40
2.0
 40
3.0
 40
3.0
 40
3.0
 40
4.0
 40
4.0
 40
4.0
 40
5.0
 40
5.0
 40
5.0
 40
6.0
 40
6.0
 40
6.0
 40
7.0
 40
7.0
 40
7.0
 40
8.0
 40
8.0
 40
8.0
 40
8.0
 10
158.3161646978985
 20
-114.9523114135216
 30
0.0
 10
158.3161646978985
 20
-114.9523114135216
 30
0.0
 10
155.0095969048478
 20
-114.9523114135216
 30
0.0
 10
155.0095969048478
 20
-114.9523114135216
 30
0.0
 10
154.4480801064261
 20
-114.9523114135216
 30
0.0
 10
153.9928808021602
 20
-114.4971121092557
 30
0.0
 10
153.9928808021602
 20
-113.9355953108346
 30
0.0
 10
153.9928808021602
 20
-113.9355953108346
 30
0.0
 10
153.9928808021602
 20
-110.6290275177827
 30
0.0
 10
153.9928808021602
 20
-110.6290275177827
 30
0.0
 10
153.9928808021602
 20
-110.0675107193616
 30
0.0
 10
154.4480801064261
 20
-109.6123114150957
 30
0.0
 10
155.0095969048478
 20
-109.6123114150957
 30
0.0
 10
155.0095969048478
 20
-109.6123114150957
 30
0.0
 10
158.3161646978985
 20
-109.6123114150957
 30
0.0
 10
158.3161646978985
 20
-109.6123114150957
 30
0.0
 10
158.8776814963202
 20
-109.6123114150957
 30
0.0
 10
159.3328808005861
 20
-110.0675107193616
 30
0.0
 10
159.3328808005861
 20
-110.6290275177827
 30
0.0
 10
159.3328808005861
 20
-110.6290275177827
 30
0.0
 10
159.3328808005861
 20
-113.9355953108346
 30
0.0
 10
159.3328808005861
 20
-113.9355953108346
 30
0.0
 10
159.3328808005861
 20
-114.4971121092557
 30
0.0
 10
158.8776814963202
 20
-114.9523114135216
 30
0.0
 10
158.3161646978985
 20
-114.9523114135216
 30
0.0
  0
SPLINE
  5
A6
330
5F
100
AcDbEntity
  8
LAYER_1
 62
     7
100
AcDbSpline
210
0.0
220
0.0
230
1.0
 70
    11
 71
     3
 72
    29
 73
    25
 74
     0
 42
0.0000000001
 43
0.0000000001
 12
1.0
 22
0.0
 32
0.0
 13
1.0
 23
0.0
 33
0.0
 40
0.0
 40
0.0
 40
0.0
 40
0.0
 40
1.0
 40
1.0
 40
1.0
 40
2.0
 40
2.0
 40
2.0
 40
3.0
 40
3.0
 40
3.0
 40
4.0
 40
4.0
 40
4.0
 40
5.0
 40
5.0
 40
5.0
 40
6.0
 40
6.0
 40
6.0
 40
7.0
 40
7.0
 40
7.0
 40
8.0
 40
8.0
 40
8.0
 40
8.0
 10
163.1204009614504
 20
-123.8423114112904
 30
0.0
 10
163.1204009614504
 20
-123.8423114112904
 30
0.0
 10
159.8138331683997
 20
-123.8423114112904
 30
0.0
 10
159.8138331683997
 20
-123.8423114112904
 30
0.0
 10
159.252316369978
 20
-123.8423114112904
 30
0.0
 10
158.7971170657121
 20
-123.3871121070244
 30
0.0
 10
158.7971170657121
 20
-122.8255953086034
 30
0.0
 10
158.7971170657121
 20
-122.8255953086034
 30
0.0
 10
158.7971170657121
 20
-119.5190275155514
 30
0.0
 10
158.7971170657121
 20
-119.5190275155514
 30
0.0
 10
158.7971170657121
 20
-118.9575107171304
 30
0.0
 10
159.252316369978
 20
-118.5023114128645
 30
0.0
 10
159.8138331683997
 20
-118.5023114128645
 30
0.0
 10
159.8138331683997
 20
-118.5023114128645
 30
0.0
 10
163.1204009614504
 20
-118.5023114128645
 30
0.0
 10
163.1204009614504
 20
-118.5023114128645
 30
0.0
 10
163.681917759872
 20
-118.5023114128645
 30
0.0
 10
164.137117064138
 20
-118.9575107171304
 30
0.0
 10
164.137117064138
 20
-119.5190275155514
 30
0.0
 10
164.137117064138
 20
-119.5190275155514
 30
0.0
 10
164.137117064138
 20
-122.8255953086034
 30
0.0
 10
164.137117064138
 20
-122.8255953086034
 30
0.0
 10
164.137117064138
 20
-123.3871121070244
 30
0.0
 10
163.681917759872
 20
-123.8423114112904
 30
0.0
 10
163.1204009614504
 20
-123.8423114112904
 30
0.0
  0
SPLINE
  5
A7
330
5F
100
AcDbEntity
  8
LAYER_1
 62
     7
100
AcDbSpline
210
0.0
220
0.0
230
1.0
 70
    11
 71
     3
 72
    47
 73
    43
 74
     0
 42
0.0000000001
 43
0.0000000001
 12
1.0
 22
0.0
 32
0.0
 13
1.0
 23
0.0
 33
0.0
 40
0.0
 40
0.0
 40
0.0
 40
0.0
 40
1.0
 40
1.0
 40
1.0
 40
2.0
 40
2.0
 40
2.0
 40
3.0
 40
3.0
 40
3.0
 40
4.0
 40
4.0
 40
4.0
 40
5.0
 40
5.0
 40
5.0
 40
6.0
 40
6.0
 40
6.0
 40
7.0
 40
7.0
 40
7.0
 40
8.0
 40
8.0
 40
8.0
 40
9.0
 40
9.0
 40
9.0
 40
10.0
 40
10.0
 40
10.0
 40
11.0
 40
11.0
 40
11.0
 40
12.0
 40
12.0
 40
12.0
 40
13.0
 40
13.0
 40
13.0
 40
14.0
 40
14.0
 40
14.0
 40
14.0
 10
200.8097879166772
 20
-103.094525459795
 30
0.0
 10
200.8097879166772
 20
-101.7843771786012
 30
0.0
 10
199.7477080422682
 20
-100.7222973041923
 30
0.0
 10
198.4375597610745
 20
-100.7222973041923
 30
0.0
 10
198.4375597610745
 20
-100.7222973041923
 30
0.0
 10
197.3643479218788
 20
-100.7222973041923
 30
0.0
 10
197.3643479218788
 20
-100.7222973041923
 30
0.0
 10
196.0541996406851
 20
-100.7222973041923
 30
0.0
 10
194.9921197662761
 20
-101.7843771786012
 30
0.0
 10
194.9921197662761
 20
-103.094525459795
 30
0.0
 10
194.9921197662761
 20
-103.094525459795
 30
0.0
 10
194.9921197662761
 20
-109.6123016083391
 30
0.0
 10
194.9921197662761
 20
-109.6123016083391
 30
0.0
 10
194.9921197662761
 20
-109.6123016083391
 30
0.0
 10
191.9305280040749
 20
-109.6123016083391
 30
0.0
 10
191.9305280040749
 20
-109.6123016083391
 30
0.0
 10
190.6295738214575
 20
-109.6123016083391
 30
0.0
 10
189.5749224341886
 20
-110.666952995608
 30
0.0
 10
189.5749224341886
 20
-111.9679071782255
 30
0.0
 10
189.5749224341886
 20
-111.9679071782255
 30
0.0
 10
189.5749224341886
 20
-112.5967016998239
 30
0.0
 10
189.5749224341886
 20
-112.5967016998239
 30
0.0
 10
189.5749224341886
 20
-113.8976558824414
 30
0.0
 10
190.6295738214575
 20
-114.9523072697103
 30
0.0
 10
191.9305280040749
 20
-114.9523072697103
 30
0.0
 10
191.9305280040749
 20
-114.9523072697103
 30
0.0
 10
198.4541823467908
 20
-114.9523072697103
 30
0.0
 10
198.4541823467908
 20
-114.9523072697103
 30
0.0
 10
199.7551580612551
 20
-114.9523072697103
 30
0.0
 10
200.8097879166772
 20
-113.8976558824414
 30
0.0
 10
200.8097879166772
 20
-112.5967016998239
 30
0.0
 10
200.8097879166772
 20
-112.5967016998239
 30
0.0
 10
200.8097879166772
 20
-111.9679071782255
 30
0.0
 10
200.8097879166772
 20
-111.9679071782255
 30
0.0
 10
200.8097879166772
 20
-111.9164675962613
 30
0.0
 10
200.8053523562399
 20
-111.8661692021767
 30
0.0
 10
200.8021010473757
 20
-111.8155478303903
 30
0.0
 10
200.8053308243931
 20
-111.7649264586039
 30
0.0
 10
200.8097879166772
 20
-111.7146280645193
 30
0.0
 10
200.8097879166772
 20
-111.6631884825551
 30
0.0
 10
200.8097879166772
 20
-111.6631884825551
 30
0.0
 10
200.8097879166772
 20
-103.094525459795
 30
0.0
 10
200.8097879166772
 20
-103.094525459795
 30
0.0
  0
ENDBLK
  5
62
330
5F
100
AcDbEntity
  8
0
100
AcDbBlockEnd
  0
ENDSEC
  0
SECTION
  2
ENTITIES
  0
INSERT
  5
42
330
1F
100
AcDbEntity
  8
LAYER_1
100
AcDbBlockReference
  2
BLOCK_2
 10
0.0
 20
0.0
 30
0.0
  0
INSERT
  5
60
330
1F
100
AcDbEntity
  8
LAYER_1
100
AcDbBlockReference
  2
BLOCK_3
 10
0.0
 20
0.0
 30
0.0
  0
ENDSEC
  0
SECTION
  2
OBJECTS
  0
DICTIONARY
  5
C
330
0
100
AcDbDictionary
  3
ACAD_GROUP
350
D
  3
ACAD_LAYOUT
350
1A
  3
ACAD_MATERIAL
350
3B
  3
ACAD_MLEADERSTYLE
350
CA
  3
ACAD_MLINESTYLE
350
17
  3
ACAD_PLOTSETTINGS
350
19
  3
ACAD_VISUALSTYLE
350
2A
  3
ACDBHEADERROUNDTRIPXREC
350
A8
  3
ACDBVARIABLEDICTIONARY
350
C8
  0
DICTIONARY
  5
D
102
{ACAD_REACTORS
330
C
102
}
330
C
100
AcDbDictionary
  0
DICTIONARY
  5
1A
102
{ACAD_REACTORS
330
C
102
}
330
C
100
AcDbDictionary
  0
DICTIONARY
  5
3B
102
{ACAD_REACTORS
330
C
102
}
330
C
100
AcDbDictionary
  3
BYBLOCK
350
3D
  3
BYLAYER
350
3C
  3
GLOBAL
350
3E
  0
DICTIONARY
  5
CA
102
{ACAD_REACTORS
330
C
102
}
330
C
100
AcDbDictionary
  0
DICTIONARY
  5
17
102
{ACAD_REACTORS
330
C
102
}
330
C
100
AcDbDictionary
  3
STANDARD
350
18
  0
DICTIONARY
  5
19
102
{ACAD_REACTORS
330
C
102
}
330
C
100
AcDbDictionary
  0
DICTIONARY
  5
2A
102
{ACAD_REACTORS
330
C
102
}
330
C
100
AcDbDictionary
  3
2DWIREFRAME
350
2F
  3
3D_HIDDEN
350
31
  3
3DWIREFRAME
350
30
  3
BASIC
350
32
  3
BRIGHTEN
350
36
  3
COLORCHANGE
350
3A
  3
CONCEPTUAL
350
34
  3
DIM
350
35
  3
FACEPATTERN
350
39
  3
FLAT
350
2B
  3
FLATWITHEDGES
350
2C
  3
GOURAUD
350
2D
  3
GOURAUDWITHEDGES
350
2E
  3
LINEPATTERN
350
38
  3
REALISTIC
350
33
  3
THICKEN
350
37
  0
DICTIONARY
  5
A8
102
{ACAD_REACTORS
330
C
102
}
330
C
100
AcDbDictionary
  3
CEPSNTYPE
350
B1
  3
DIMSTYLEDATA
350
C7
  3
FINGERPRINTGUID
350
B2
  3
HYPERLINKBASE
350
AB
  3
INSUNITS
350
B0
  3
LAYOUTDICT
350
AD
  3
LWETCUNION
350
AF
  3
PLOTSETDICT
350
AE
  3
PSVPSCALE
350
B4
  3
PUCSBASE
350
B7
  3
PUCSORGBACK
350
BD
  3
PUCSORGBOTTOM
350
B9
  3
PUCSORGFRONT
350
BC
  3
PUCSORGLEFT
350
BA
  3
PUCSORGRIGHT
350
BB
  3
PUCSORGTOP
350
B8
  3
PUCSORTHOREF
350
B5
  3
PUCSORTHOVIEW
350
B6
  3
STYLESHEET
350
AC
  3
TSTACKALIGN
350
A9
  3
TSTACKSIZE
350
AA
  3
UCSBASE
350
C0
  3
UCSORGBACK
350
C6
  3
UCSORGBOTTOM
350
C2
  3
UCSORGFRONT
350
C5
  3
UCSORGLEFT
350
C3
  3
UCSORGRIGHT
350
C4
  3
UCSORGTOP
350
C1
  3
UCSORTHOREF
350
BE
  3
UCSORTHOVIEW
350
BF
  3
VERSIONGUID
350
B3
  0
DICTIONARY
  5
C8
102
{ACAD_REACTORS
330
C
102
}
330
C
100
AcDbDictionary
  3
DIMASSOC
350
CB
  3
HIDETEXT
350
CC
  0
MATERIAL
  5
3D
102
{ACAD_REACTORS
330
3B
102
}
102
{ACAD_XDICTIONARY
360
CF
102
}
330
3B
100
AcDbMaterial
  1
ByBlock
  0
MATERIAL
  5
3C
102
{ACAD_REACTORS
330
3B
102
}
102
{ACAD_XDICTIONARY
360
CD
102
}
330
3B
100
AcDbMaterial
  1
ByLayer
  0
MATERIAL
  5
3E
102
{ACAD_REACTORS
330
3B
102
}
102
{ACAD_XDICTIONARY
360
D1
102
}
330
3B
100
AcDbMaterial
  1
Global
  0
MLINESTYLE
  5
18
102
{ACAD_REACTORS
330
17
102
}
330
17
100
AcDbMlineStyle
  2
Standard
 70
     0
  3

 62
   256
 51
90.0
 52
90.0
 71
     2
 49
0.5
 62
   256
  6
BYLAYER
 49
-0.5
 62
   256
  6
BYLAYER
  0
ACAD_PROXY_OBJECT
  5
2F
102
{ACAD_REACTORS
330
2A
102
}
330
2A
100
AcDbProxyObject
 90
      499
 91
      501
 93
      436
310
42CC9915DA5C99599C985B595049028333333333333E3BF0000000000000FB0107901411070040501600405405064090741402480A0340
1001
ACAD
1000
AcDbSavedByObjectVersion
1070
     0
  0
ACAD_PROXY_OBJECT
  5
31
102
{ACAD_REACTORS
330
2A
102
}
330
2A
100
AcDbProxyObject
 90
      499
 91
      501
 93
      500
310
424CD108121A5919195B90640502408333333333333E3BF0000000000000FB01079024090700405020000000000001110200405405064090740C02480A0340
1001
ACAD
1000
AcDbSavedByObjectVersion
1070
     0
  0
ACAD_PROXY_OBJECT
  5
30
102
{ACAD_REACTORS
330
2A
102
}
330
2A
100
AcDbProxyObject
 90
      499
 91
      501
 93
      436
310
42CCD915DA5C99599C985B595059028333333333333E3BF0000000000000FB0107901411070040501600405405064090741402480A0340
1001
ACAD
1000
AcDbSavedByObjectVersion
1070
     0
  0
ACAD_PROXY_OBJECT
  5
32
102
{ACAD_REACTORS
330
2A
102
}
330
2A
100
AcDbProxyObject
 90
      499
 91
      501
 93
      388
310
4150985CDA58D07406404333333333333E3BF0000000000000FB0107A41107004050150841D405064090741402480A0350
1001
ACAD
1000
AcDbSavedByObjectVersion
1070
     0
  0
ACAD_PROXY_OBJECT
  5
36
102
{ACAD_REACTORS
330
2A
102
}
330
2A
100
AcDbProxyObject
 90
      499
 91
      501
 93
      428
310
42109C9A59DA1D195B90C409028333333333333E3BF0000000000000FB010790141107004050150841D405064090741402480A029950
1001
ACAD
1000
AcDbSavedByObjectVersion
1070
     0
  0
ACAD_PROXY_OBJECT
  5
3A
102
{ACAD_REACTORS
330
2A
102
}
330
2A
100
AcDbProxyObject
 90
      499
 91
      501
 93
      452
310
42D0DBDB1BDC90DA185B99D95104090240C333333333333E3BF0000000000000FB0108901411070040501508421405064090741402480A0350
1001
ACAD
1000
AcDbSavedByObjectVersion
1070
     0
  0
ACAD_PROXY_OBJECT
  5
34
102
{ACAD_REACTORS
330
2A
102
}
330
2A
100
AcDbProxyObject
 90
      499
 91
      501
 93
      500
310
4290DBDB98D95C1D1D585B10940D028333333333333E3BF0000000000000FB0107902409070040501000000000000111010841D405064090740C02480A0340
1001
ACAD
1000
AcDbSavedByObjectVersion
1070
     0
  0
ACAD_PROXY_OBJECT
  5
35
102
{ACAD_REACTORS
330
2A
102
}
330
2A
100
AcDbProxyObject
 90
      499
 91
      501
 93
      412
310
40D11A5B50B409028333333333333E3BF0000000000000FB010790141107004050150841D405064090741402480A02677FFFFFD0
1001
ACAD
1000
AcDbSavedByObjectVersion
1070
     0
  0
ACAD_PROXY_OBJECT
  5
39
102
{ACAD_REACTORS
330
2A
102
}
330
2A
100
AcDbProxyObject
 90
      499
 91
      501
 93
      444
310
42D19858D95C185D1D195C9B90F409028333333333333E3BF0000000000000FB010790141107004050150841D405064090741402480A0350
1001
ACAD
1000
AcDbSavedByObjectVersion
1070
     0
  0
ACAD_PROXY_OBJECT
  5
2B
102
{ACAD_REACTORS
330
2A
102
}
330
2A
100
AcDbProxyObject
 90
      499
 91
      501
 93
      388
310
41119B185D240901404333333333333E3BF0000000000000F9010740A41107004050150841D405064090741402480A1B50
1001
ACAD
1000
AcDbSavedByObjectVersion
1070
     0
  0
ACAD_PROXY_OBJECT
  5
2C
102
{ACAD_REACTORS
330
2A
102
}
330
2A
100
AcDbProxyObject
 90
      499
 91
      501
 93
      476
310
43519B185D15DA5D1A115919D95CD0140901404333333333333E3BF0000000000000F9010740901411070040501600405405064090741402480A1B50
1001
ACAD
1000
AcDbSavedByObjectVersion
1070
     0
  0
ACAD_PROXY_OBJECT
  5
2D
102
{ACAD_REACTORS
330
2A
102
}
330
2A
100
AcDbProxyObject
 90
      499
 91
      501
 93
      412
310
41D1DBDD5C985D5910240902404333333333333E3BF0000000000000F9010740A411070040501641D405064090741402480A1B50
1001
ACAD
1000
AcDbSavedByObjectVersion
1070
     0
  0
ACAD_PROXY_OBJECT
  5
2E
102
{ACAD_REACTORS
330
2A
102
}
330
2A
100
AcDbProxyObject
 90
      499
 91
      501
 93
      500
310
4411DBDD5C985D5915DA5D1A115919D95CD0340902404333333333333E3BF0000000000000F9010740901411070040501600405405064090741402480A1B50
1001
ACAD
1000
AcDbSavedByObjectVersion
1070
     0
  0
ACAD_PROXY_OBJECT
  5
38
102
{ACAD_REACTORS
330
2A
102
}
330
2A
100
AcDbProxyObject
 90
      499
 91
      501
 93
      444
310
42D31A5B995C185D1D195C9B90E409028333333333333E3BF0000000000000FB010790141107004050750841D405064090741402483A0350
1001
ACAD
1000
AcDbSavedByObjectVersion
1070
     0
  0
ACAD_PROXY_OBJECT
  5
33
102
{ACAD_REACTORS
330
2A
102
}
330
2A
100
AcDbProxyObject
 90
      499
 91
      501
 93
      420
310
425499585B1A5CDD1A58D08409028333333333333E3BF0000000000000FB01079019070040501508421405064090741402480A1B40
1001
ACAD
1000
AcDbSavedByObjectVersion
1070
     0
  0
ACAD_PROXY_OBJECT
  5
37
102
{ACAD_REACTORS
330
2A
102
}
330
2A
100
AcDbProxyObject
 90
      499
 91
      501
 93
      412
310
41D51A1A58DAD95B90D409028333333333333E3BF0000000000000FB010790141107004050150C41D405064090741402480A0350
1001
ACAD
1000
AcDbSavedByObjectVersion
1070
     0
  0
XRECORD
  5
B1
102
{ACAD_REACTORS
330
A8
102
}
330
A8
100
AcDbXrecord
 90
        0
  0
XRECORD
  5
C7
102
{ACAD_REACTORS
330
A8
102
}
330
A8
100
AcDbXrecord
1000
DSTYLE
1002
{
1070
   340
340
11
1002
}
  0
XRECORD
  5
B2
102
{ACAD_REACTORS
330
A8
102
}
330
A8
100
AcDbXrecord
  1
{680F1BAB-4F91-4407-9CCB-BE2A0EF4ECD6}
  0
XRECORD
  5
AB
102
{ACAD_REACTORS
330
A8
102
}
330
A8
100
AcDbXrecord
  1

  0
XRECORD
  5
B0
102
{ACAD_REACTORS
330
A8
102
}
330
A8
100
AcDbXrecord
 90
        1
  0
XRECORD
  5
AD
102
{ACAD_REACTORS
330
A8
102
}
330
A8
100
AcDbXrecord
340
1A
  0
XRECORD
  5
AF
102
{ACAD_REACTORS
330
A8
102
}
330
A8
100
AcDbXrecord
 90
    10269
  0
XRECORD
  5
AE
102
{ACAD_REACTORS
330
A8
102
}
330
A8
100
AcDbXrecord
340
19
  0
XRECORD
  5
B4
102
{ACAD_REACTORS
330
A8
102
}
330
A8
100
AcDbXrecord
 40
0.0
  0
XRECORD
  5
B7
102
{ACAD_REACTORS
330
A8
102
}
330
A8
100
AcDbXrecord
340
0
  0
XRECORD
  5
BD
102
{ACAD_REACTORS
330
A8
102
}
330
A8
100
AcDbXrecord
 10
0.0
 20
0.0
 30
0.0
  0
XRECORD
  5
B9
102
{ACAD_REACTORS
330
A8
102
}
330
A8
100
AcDbXrecord
 10
0.0
 20
0.0
 30
0.0
  0
XRECORD
  5
BC
102
{ACAD_REACTORS
330
A8
102
}
330
A8
100
AcDbXrecord
 10
0.0
 20
0.0
 30
0.0
  0
XRECORD
  5
BA
102
{ACAD_REACTORS
330
A8
102
}
330
A8
100
AcDbXrecord
 10
0.0
 20
0.0
 30
0.0
  0
XRECORD
  5
BB
102
{ACAD_REACTORS
330
A8
102
}
330
A8
100
AcDbXrecord
 10
0.0
 20
0.0
 30
0.0
  0
XRECORD
  5
B8
102
{ACAD_REACTORS
330
A8
102
}
330
A8
100
AcDbXrecord
 10
0.0
 20
0.0
 30
0.0
  0
XRECORD
  5
B5
102
{ACAD_REACTORS
330
A8
102
}
330
A8
100
AcDbXrecord
340
0
  0
XRECORD
  5
B6
102
{ACAD_REACTORS
330
A8
102
}
330
A8
100
AcDbXrecord
 70
     0
  0
XRECORD
  5
AC
102
{ACAD_REACTORS
330
A8
102
}
330
A8
100
AcDbXrecord
  1

  0
XRECORD
  5
A9
102
{ACAD_REACTORS
330
A8
102
}
330
A8
100
AcDbXrecord
 90
        1
  0
XRECORD
  5
AA
102
{ACAD_REACTORS
330
A8
102
}
330
A8
100
AcDbXrecord
 90
       70
  0
XRECORD
  5
C0
102
{ACAD_REACTORS
330
A8
102
}
330
A8
100
AcDbXrecord
340
0
  0
XRECORD
  5
C6
102
{ACAD_REACTORS
330
A8
102
}
330
A8
100
AcDbXrecord
 10
0.0
 20
0.0
 30
0.0
  0
XRECORD
  5
C2
102
{ACAD_REACTORS
330
A8
102
}
330
A8
100
AcDbXrecord
 10
0.0
 20
0.0
 30
0.0
  0
XRECORD
  5
C5
102
{ACAD_REACTORS
330
A8
102
}
330
A8
100
AcDbXrecord
 10
0.0
 20
0.0
 30
0.0
  0
XRECORD
  5
C3
102
{ACAD_REACTORS
330
A8
102
}
330
A8
100
AcDbXrecord
 10
0.0
 20
0.0
 30
0.0
  0
XRECORD
  5
C4
102
{ACAD_REACTORS
330
A8
102
}
330
A8
100
AcDbXrecord
 10
0.0
 20
0.0
 30
0.0
  0
XRECORD
  5
C1
102
{ACAD_REACTORS
330
A8
102
}
330
A8
100
AcDbXrecord
 10
0.0
 20
0.0
 30
0.0
  0
XRECORD
  5
BE
102
{ACAD_REACTORS
330
A8
102
}
330
A8
100
AcDbXrecord
340
0
  0
XRECORD
  5
BF
102
{ACAD_REACTORS
330
A8
102
}
330
A8
100
AcDbXrecord
 70
     0
  0
XRECORD
  5
B3
102
{ACAD_REACTORS
330
A8
102
}
330
A8
100
AcDbXrecord
  1
{FAEB1C32-E019-11D5-929B-00C0DF256EC4}
  0
DICTIONARYVAR
  5
CB
102
{ACAD_REACTORS
330
C8
102
}
330
C8
100
DictionaryVariables
280
     0
  1
2
  0
DICTIONARYVAR
  5
CC
102
{ACAD_REACTORS
330
C8
102
}
330
C8
100
DictionaryVariables
280
     0
  1
1
  0
DICTIONARY
  5
CF
330
3D
100
AcDbDictionary
280
     1
  3
ACAD_XREC_ROUNDTRIP
360
D0
  0
DICTIONARY
  5
CD
330
3C
100
AcDbDictionary
280
     1
  3
ACAD_XREC_ROUNDTRIP
360
CE
  0
DICTIONARY
  5
D1
330
3E
100
AcDbDictionary
280
     1
  3
ACAD_XREC_ROUNDTRIP
360
D2
  0
XRECORD
  5
D0
102
{ACAD_REACTORS
330
CF
102
}
330
CF
100
AcDbXrecord
102
MATERIAL
148
0.0
149
0.0
149
0.0
 93
        0
 94
      127
282
     0
 72
     1
 77
     1
171
     1
175
     1
179
     1
273
     0
  0
XRECORD
  5
CE
102
{ACAD_REACTORS
330
CD
102
}
330
CD
100
AcDbXrecord
102
MATERIAL
148
0.0
149
0.0
149
0.0
 93
        0
 94
      127
282
     0
 72
     1
 77
     1
171
     1
175
     1
179
     1
273
     0
  0
XRECORD
  5
D2
102
{ACAD_REACTORS
330
D1
102
}
330
D1
100
AcDbXrecord
102
MATERIAL
148
0.0
149
0.0
149
0.0
 93
        0
 94
      127
282
     0
 72
     1
 77
     1
171
     1
175
     1
179
     1
273
     0
  0
ENDSEC
  0
EOF
