  0
SECTION
  2
HEADER
  9
$ACADVER
  1
AC1009
  9
$FILLMODE
 70
0
  9
$EXTMIN
 10
3.6449
 20
-5.0800
 30
0.0000
  9
$EXTMAX
 10
161.4551
 20
62.4840
 30
0.0000
  0
ENDSEC
  0
SECTION
  2
TABLES
  0
TABLE
  2
LTYPE
 70
1
  0
LTYPE
  2
CONTINUOUS
 70
64
  3
Solid line
 72
65
 73
0
 40
0
  0
ENDTAB
  0
TABLE
  2
LAYER
 70
255
  0
LAYER
  2
20
 70
64
 62
30
  6
CONTINUOUS
  0
LAYER
  2
21
 70
64
 62
253
  6
CONTINUOUS
  0
LAYER
  2
46
 70
64
 62
140
  6
CONTINUOUS
  0
ENDTAB
  0
ENDSEC
  0
SECTION
  2
BLOCKS
  0
BLOCK
  8
0
  2
RECT
 70
64
 10
0.0000
 20
0.0000
 30
0.0000
  3
RECT
  0
SOLID
  8
0
 10
-0.5000
 20
-0.5000
 30
0.0000
 11
0.5000
 21
-0.5000
 31
0.0000
 12
-0.5000
 22
0.5000
 32
0.0000
 13
0.5000
 23
0.5000
 33
0.0000
  0
ENDBLK
  8
0
  0
BLOCK
  8
0
  2
PIE
 70
64
 10
0.0000
 20
0.0000
 30
0.0000
  3
PIE
  0
CIRCLE
  8
0
 10
0.0000
 20
0.0000
 30
0.0000
 40
0.5000
  0
ENDBLK
  8
0
  0
BLOCK
  8
0
  2
OCTAGONP
 70
64
 10
0.0000
 20
0.0000
 30
0.0000
  3
OCTAGONP
  0
POLYLINE
  8
0
 66
1
 10
0.0000
 20
0.0000
 30
0.0000
 40
0.0000
 41
0.0000
 70
1
  0
VERTEX
  8
0
 10
-0.5000
 20
-0.2071
 30
0.0000
  0
VERTEX
  8
0
 10
-0.5000
 20
0.2071
 30
0.0000
  0
VERTEX
  8
0
 10
-0.2071
 20
0.5000
 30
0.0000
  0
VERTEX
  8
0
 10
0.2071
 20
0.5000
 30
0.0000
  0
VERTEX
  8
0
 10
0.5000
 20
0.2071
 30
0.0000
  0
VERTEX
  8
0
 10
0.5000
 20
-0.2071
 30
0.0000
  0
VERTEX
  8
0
 10
0.2071
 20
-0.5000
 30
0.0000
  0
VERTEX
  8
0
 10
-0.2071
 20
-0.5000
 30
0.0000
  0
SEQEND
  8
0
  0
ENDBLK
  8
0
  0
BLOCK
  8
0
  2
SQUAREP
 70
64
 10
0.0000
 20
0.0000
 30
0.0000
  3
SQUAREP
  0
SOLID
  8
0
 10
-0.5000
 20
-0.5000
 30
0.0000
 11
0.5000
 21
-0.5000
 31
0.0000
 12
-0.5000
 22
0.5000
 32
0.0000
 13
0.5000
 23
0.5000
 33
0.0000
  0
ENDBLK
  8
0
  0
BLOCK
  8
0
  2
ROUNDP
 70
64
 10
0.0000
 20
0.0000
 30
0.0000
  3
ROUNDP
  0
CIRCLE
  8
0
 10
0.0000
 20
0.0000
 30
0.0000
 40
0.5000
  0
ENDBLK
  8
0
  0
BLOCK
  8
0
  2
ANNULUSP
 70
64
 10
0.0000
 20
0.0000
 30
0.0000
  3
ANNULUSP
  0
CIRCLE
  8
0
 10
0.0000
 20
0.0000
 30
0.0000
 40
0.5000
  0
ENDBLK
  8
0
  0
BLOCK
  8
0
  2
THERMALP
 70
64
 10
0.0000
 20
0.0000
 30
0.0000
  3
THERMALP
  0
LINE
  8
0
 10
-0.2379
 20
0.4500
 30
0.0000
 11
0.2379
 21
0.4500
 31
0.0000
  0
LINE
  8
0
 10
0.4500
 20
0.2379
 30
0.0000
 11
0.4500
 21
-0.2379
 31
0.0000
  0
LINE
  8
0
 10
0.2379
 20
-0.4500
 30
0.0000
 11
-0.2379
 21
-0.4500
 31
0.0000
  0
LINE
  8
0
 10
-0.4500
 20
-0.2379
 30
0.0000
 11
-0.4500
 21
0.2379
 31
0.0000
  0
ENDBLK
  8
0
  0
BLOCK
  8
0
  2
OCTAGONV
 70
64
 10
0.0000
 20
0.0000
 30
0.0000
  3
OCTAGONV
  0
POLYLINE
  8
0
 66
1
 10
0.0000
 20
0.0000
 30
0.0000
 40
0.0000
 41
0.0000
 70
1
  0
VERTEX
  8
0
 10
-0.5000
 20
-0.2071
 30
0.0000
  0
VERTEX
  8
0
 10
-0.5000
 20
0.2071
 30
0.0000
  0
VERTEX
  8
0
 10
-0.2071
 20
0.5000
 30
0.0000
  0
VERTEX
  8
0
 10
0.2071
 20
0.5000
 30
0.0000
  0
VERTEX
  8
0
 10
0.5000
 20
0.2071
 30
0.0000
  0
VERTEX
  8
0
 10
0.5000
 20
-0.2071
 30
0.0000
  0
VERTEX
  8
0
 10
0.2071
 20
-0.5000
 30
0.0000
  0
VERTEX
  8
0
 10
-0.2071
 20
-0.5000
 30
0.0000
  0
SEQEND
  8
0
  0
ENDBLK
  8
0
  0
BLOCK
  8
0
  2
SQUAREV
 70
64
 10
0.0000
 20
0.0000
 30
0.0000
  3
SQUAREV
  0
SOLID
  8
0
 10
-0.5000
 20
-0.5000
 30
0.0000
 11
0.5000
 21
-0.5000
 31
0.0000
 12
-0.5000
 22
0.5000
 32
0.0000
 13
0.5000
 23
0.5000
 33
0.0000
  0
ENDBLK
  8
0
  0
BLOCK
  8
0
  2
ROUNDV
 70
64
 10
0.0000
 20
0.0000
 30
0.0000
  3
ROUNDV
  0
CIRCLE
  8
0
 10
0.0000
 20
0.0000
 30
0.0000
 40
0.5000
  0
ENDBLK
  8
0
  0
BLOCK
  8
0
  2
ANNULUSV
 70
64
 10
0.0000
 20
0.0000
 30
0.0000
  3
ANNULUSV
  0
CIRCLE
  8
0
 10
0.0000
 20
0.0000
 30
0.0000
 40
0.5000
  0
ENDBLK
  8
0
  0
BLOCK
  8
0
  2
THERMALV
 70
64
 10
0.0000
 20
0.0000
 30
0.0000
  3
THERMALV
  0
LINE
  8
0
 10
-0.2379
 20
0.4500
 30
0.0000
 11
0.2379
 21
0.4500
 31
0.0000
  0
LINE
  8
0
 10
0.4500
 20
0.2379
 30
0.0000
 11
0.4500
 21
-0.2379
 31
0.0000
  0
LINE
  8
0
 10
0.2379
 20
-0.4500
 30
0.0000
 11
-0.2379
 21
-0.4500
 31
0.0000
  0
LINE
  8
0
 10
-0.4500
 20
-0.2379
 30
0.0000
 11
-0.4500
 21
0.2379
 31
0.0000
  0
ENDBLK
  8
0
  0
ENDSEC
  0
SECTION
  2
ENTITIES
  0
ARC
  8
21
 10
8.5600
 20
53.2800
 30
0.0000
 40
3.0000
 50
90.0000
 51
180.0000
  0
LINE
  8
21
 10
5.5600
 20
53.2800
 30
0.0000
 11
5.5600
 21
14.2800
 31
0.0000
  0
ARC
  8
21
 10
8.5600
 20
14.2800
 30
0.0000
 40
3.0000
 50
180.0000
 51
270.0000
  0
LINE
  8
21
 10
8.5600
 20
11.2800
 30
0.0000
 11
13.9600
 21
11.2800
 31
0.0000
  0
ARC
  8
21
 10
13.9600
 20
8.2800
 30
0.0000
 40
3.0000
 50
0.0000
 51
90.0000
  0
LINE
  8
21
 10
16.9600
 20
8.2800
 30
0.0000
 11
16.9600
 21
4.1300
 31
0.0000
  0
ARC
  8
21
 10
19.9600
 20
4.1300
 30
0.0000
 40
3.0000
 50
180.0000
 51
270.0000
  0
LINE
  8
21
 10
19.9600
 20
1.1300
 30
0.0000
 11
151.1200
 21
1.1300
 31
0.0000
  0
ARC
  8
21
 10
151.1200
 20
4.1300
 30
0.0000
 40
3.0000
 50
270.0000
 51
0.0000
  0
LINE
  8
21
 10
154.1200
 20
4.1300
 30
0.0000
 11
154.1200
 21
9.7000
 31
0.0000
  0
ARC
  8
21
 10
157.1200
 20
9.7000
 30
0.0000
 40
3.0000
 50
90.0000
 51
180.0000
  0
LINE
  8
21
 10
157.1200
 20
12.7000
 30
0.0000
 11
157.4700
 21
12.7000
 31
0.0000
  0
ARC
  8
21
 10
157.4700
 20
15.7000
 30
0.0000
 40
3.0000
 50
270.0000
 51
0.0000
  0
LINE
  8
21
 10
160.4700
 20
15.7000
 30
0.0000
 11
160.4700
 21
55.5500
 31
0.0000
  0
ARC
  8
21
 10
12.5695
 20
53.2635
 30
0.0000
 40
2.9845
 50
0.2976
 51
90.2976
  0
LINE
  8
21
 10
15.5600
 20
53.2800
 30
0.0000
 11
15.5600
 21
52.4700
 31
0.0000
  0
ARC
  8
21
 10
157.4700
 20
55.5500
 30
0.0000
 40
3.0000
 50
0.0000
 51
90.0000
  0
LINE
  8
21
 10
157.4700
 20
58.5500
 30
0.0000
 11
112.7800
 21
58.5500
 31
0.0000
  0
ARC
  8
21
 10
112.7800
 20
55.5500
 30
0.0000
 40
3.0000
 50
90.0000
 51
180.0000
  0
LINE
  8
21
 10
109.7800
 20
55.5500
 30
0.0000
 11
109.7800
 21
52.4700
 31
0.0000
  0
ARC
  8
21
 10
106.7800
 20
52.4700
 30
0.0000
 40
3.0000
 50
270.0000
 51
0.0000
  0
ARC
  8
21
 10
18.5600
 20
52.4700
 30
0.0000
 40
3.0000
 50
180.0000
 51
270.0000
  0
LINE
  8
21
 10
18.5600
 20
49.4700
 30
0.0000
 11
106.7800
 21
49.4700
 31
0.0000
  0
LINE
  8
21
 10
8.6360
 20
56.2610
 30
0.0000
 11
12.5730
 21
56.2610
 31
0.0000
  0
LINE
  8
20
 10
3.8100
 20
19.0500
 30
0.0000
 11
3.8100
 21
5.0800
 31
0.0000
  0
ARC
  8
20
 10
8.8900
 20
5.0800
 30
0.0000
 40
5.0800
 50
180.0000
 51
270.0000
  0
LINE
  8
20
 10
8.8900
 20
0.0000
 30
0.0000
 11
158.7500
 21
0.0000
 31
0.0000
  0
ARC
  8
20
 10
158.7500
 20
2.5400
 30
0.0000
 40
2.5400
 50
270.0000
 51
0.0000
  0
LINE
  8
20
 10
161.2900
 20
2.5400
 30
0.0000
 11
161.2900
 21
54.6100
 31
0.0000
  0
ARC
  8
20
 10
156.2100
 20
54.6100
 30
0.0000
 40
5.0800
 50
0.0000
 51
90.0000
  0
LINE
  8
20
 10
156.2100
 20
59.6900
 30
0.0000
 11
8.8900
 21
59.6900
 31
0.0000
  0
ARC
  8
20
 10
8.8900
 20
54.6100
 30
0.0000
 40
5.0800
 50
90.0000
 51
180.0000
  0
LINE
  8
20
 10
3.8100
 20
54.6100
 30
0.0000
 11
3.8100
 21
39.3700
 31
0.0000
  0
LINE
  8
20
 10
3.8100
 20
39.3700
 30
0.0000
 11
3.8100
 21
19.0500
 31
0.0000
  0
ARC
  8
21
 10
8.5600
 20
53.2800
 30
0.0000
 40
3.0000
 50
90.0000
 51
180.0000
  0
LINE
  8
21
 10
5.5600
 20
53.2800
 30
0.0000
 11
5.5600
 21
14.2800
 31
0.0000
  0
ARC
  8
21
 10
8.5600
 20
14.2800
 30
0.0000
 40
3.0000
 50
180.0000
 51
270.0000
  0
LINE
  8
21
 10
8.5600
 20
11.2800
 30
0.0000
 11
13.9600
 21
11.2800
 31
0.0000
  0
ARC
  8
21
 10
13.9600
 20
8.2800
 30
0.0000
 40
3.0000
 50
0.0000
 51
90.0000
  0
LINE
  8
21
 10
16.9600
 20
8.2800
 30
0.0000
 11
16.9600
 21
4.1300
 31
0.0000
  0
ARC
  8
21
 10
19.9600
 20
4.1300
 30
0.0000
 40
3.0000
 50
180.0000
 51
270.0000
  0
LINE
  8
21
 10
19.9600
 20
1.1300
 30
0.0000
 11
151.1200
 21
1.1300
 31
0.0000
  0
ARC
  8
21
 10
151.1200
 20
4.1300
 30
0.0000
 40
3.0000
 50
270.0000
 51
0.0000
  0
LINE
  8
21
 10
154.1200
 20
4.1300
 30
0.0000
 11
154.1200
 21
9.7000
 31
0.0000
  0
ARC
  8
21
 10
157.1200
 20
9.7000
 30
0.0000
 40
3.0000
 50
90.0000
 51
180.0000
  0
LINE
  8
21
 10
157.1200
 20
12.7000
 30
0.0000
 11
157.4700
 21
12.7000
 31
0.0000
  0
ARC
  8
21
 10
157.4700
 20
15.7000
 30
0.0000
 40
3.0000
 50
270.0000
 51
0.0000
  0
LINE
  8
21
 10
160.4700
 20
15.7000
 30
0.0000
 11
160.4700
 21
55.5500
 31
0.0000
  0
ARC
  8
21
 10
12.5695
 20
53.2635
 30
0.0000
 40
2.9845
 50
0.2976
 51
90.2976
  0
LINE
  8
21
 10
15.5600
 20
53.2800
 30
0.0000
 11
15.5600
 21
52.4700
 31
0.0000
  0
ARC
  8
21
 10
157.4700
 20
55.5500
 30
0.0000
 40
3.0000
 50
0.0000
 51
90.0000
  0
LINE
  8
21
 10
157.4700
 20
58.5500
 30
0.0000
 11
112.7800
 21
58.5500
 31
0.0000
  0
ARC
  8
21
 10
112.7800
 20
55.5500
 30
0.0000
 40
3.0000
 50
90.0000
 51
180.0000
  0
LINE
  8
21
 10
109.7800
 20
55.5500
 30
0.0000
 11
109.7800
 21
52.4700
 31
0.0000
  0
ARC
  8
21
 10
106.7800
 20
52.4700
 30
0.0000
 40
3.0000
 50
270.0000
 51
0.0000
  0
ARC
  8
21
 10
18.5600
 20
52.4700
 30
0.0000
 40
3.0000
 50
180.0000
 51
270.0000
  0
ARC
  8
21
 10
21.0971
 20
50.8000
 30
0.0000
 40
1.1722
 50
154.0112
 51
180.0000
  0
ARC
  8
21
 10
20.3200
 20
51.2188
 30
0.0000
 40
0.2924
 50
90.0002
 51
161.0753
  0
ARC
  8
21
 10
20.3200
 20
51.2188
 30
0.0000
 40
0.2924
 50
18.9244
 51
90.0001
  0
ARC
  8
21
 10
19.5430
 20
50.8000
 30
0.0000
 40
1.1722
 50
0.0000
 51
25.9895
  0
ARC
  8
21
 10
21.0971
 20
50.8000
 30
0.0000
 40
1.1722
 50
180.0001
 51
205.9886
  0
ARC
  8
21
 10
20.3200
 20
50.3812
 30
0.0000
 40
0.2924
 50
198.9254
 51
270.0000
  0
ARC
  8
21
 10
19.5429
 20
50.8000
 30
0.0000
 40
1.1722
 50
334.0107
 51
359.9999
  0
ARC
  8
21
 10
20.3200
 20
50.3812
 30
0.0000
 40
0.2924
 50
270.0001
 51
341.0752
  0
LINE
  8
21
 10
20.0039
 20
50.4049
 30
0.0000
 11
20.6361
 21
51.1951
 31
0.0000
  0
LINE
  8
21
 10
22.4649
 20
51.1951
 30
0.0000
 11
22.8600
 21
51.5112
 31
0.0000
  0
LINE
  8
21
 10
22.8600
 20
51.5112
 30
0.0000
 11
22.8600
 21
50.0888
 31
0.0000
  0
LINE
  8
21
 10
22.4649
 20
50.0888
 30
0.0000
 11
23.2551
 21
50.0888
 31
0.0000
  0
ARC
  8
21
 10
25.4395
 20
51.1556
 30
0.0000
 40
0.3556
 50
0.0000
 51
90.0000
  0
ARC
  8
21
 10
25.4395
 20
51.0543
 30
0.0000
 40
0.4569
 50
90.0000
 51
162.0547
  0
ARC
  8
21
 10
25.4132
 20
51.1556
 30
0.0000
 40
0.3819
 50
313.6028
 51
359.9998
  0
LINE
  8
21
 10
25.6766
 20
50.8790
 30
0.0000
 11
25.0049
 21
50.0888
 31
0.0000
  0
LINE
  8
21
 10
25.0049
 20
50.0888
 30
0.0000
 11
25.7951
 21
50.0888
 31
0.0000
  0
LINE
  8
21
 10
27.5449
 20
50.0888
 30
0.0000
 11
27.9400
 21
50.0888
 31
0.0000
  0
ARC
  8
21
 10
27.9400
 20
50.4839
 30
0.0000
 40
0.3951
 50
270.0000
 51
90.0000
  0
LINE
  8
21
 10
27.5449
 20
51.5112
 30
0.0000
 11
28.0190
 21
51.5112
 31
0.0000
  0
ARC
  8
21
 10
28.0190
 20
51.1951
 30
0.0000
 40
0.3161
 50
270.0000
 51
90.0000
  0
LINE
  8
21
 10
28.0190
 20
50.8790
 30
0.0000
 11
27.7029
 21
50.8790
 31
0.0000
  0
LINE
  8
21
 10
30.4010
 20
51.5112
 30
0.0000
 11
30.0849
 21
50.4049
 31
0.0000
  0
LINE
  8
21
 10
30.0849
 20
50.4049
 30
0.0000
 11
30.8751
 21
50.4049
 31
0.0000
  0
LINE
  8
21
 10
30.6380
 20
50.7210
 30
0.0000
 11
30.6380
 21
50.0888
 31
0.0000
  0
LINE
  8
21
 10
32.6249
 20
50.0888
 30
0.0000
 11
33.0990
 21
50.0888
 31
0.0000
  0
ARC
  8
21
 10
33.0990
 20
50.4049
 30
0.0000
 40
0.3161
 50
270.0000
 51
0.0000
  0
LINE
  8
21
 10
33.4151
 20
50.4049
 30
0.0000
 11
33.4151
 21
50.5629
 31
0.0000
  0
ARC
  8
21
 10
33.0990
 20
50.5629
 30
0.0000
 40
0.3161
 50
0.0000
 51
90.0000
  0
LINE
  8
21
 10
33.0990
 20
50.8790
 30
0.0000
 11
32.6249
 21
50.8790
 31
0.0000
  0
LINE
  8
21
 10
32.6249
 20
50.8790
 30
0.0000
 11
32.6249
 21
51.5112
 31
0.0000
  0
LINE
  8
21
 10
32.6249
 20
51.5112
 30
0.0000
 11
33.4151
 21
51.5112
 31
0.0000
  0
LINE
  8
21
 10
35.1649
 20
50.8790
 30
0.0000
 11
35.6390
 21
50.8790
 31
0.0000
  0
ARC
  8
21
 10
35.6390
 20
50.5629
 30
0.0000
 40
0.3161
 50
0.0000
 51
90.0000
  0
LINE
  8
21
 10
35.9551
 20
50.5629
 30
0.0000
 11
35.9551
 21
50.4839
 31
0.0000
  0
ARC
  8
21
 10
35.5600
 20
50.4839
 30
0.0000
 40
0.3951
 50
180.0000
 51
0.0000
  0
LINE
  8
21
 10
35.1649
 20
50.4839
 30
0.0000
 11
35.1649
 21
50.8790
 31
0.0000
  0
ARC
  8
21
 10
35.7971
 20
50.8790
 30
0.0000
 40
0.6322
 50
90.0003
 51
180.0000
  0
LINE
  8
21
 10
37.7049
 20
51.3532
 30
0.0000
 11
37.7049
 21
51.5112
 31
0.0000
  0
LINE
  8
21
 10
37.7049
 20
51.5112
 30
0.0000
 11
38.4951
 21
51.5112
 31
0.0000
  0
LINE
  8
21
 10
38.4951
 20
51.5112
 30
0.0000
 11
38.1000
 21
50.0888
 31
0.0000
  0
ARC
  8
21
 10
40.6400
 20
50.4839
 30
0.0000
 40
0.3951
 50
0.0000
 51
180.0000
  0
ARC
  8
21
 10
40.6400
 20
50.4839
 30
0.0000
 40
0.3951
 50
180.0000
 51
0.0000
  0
ARC
  8
21
 10
40.6400
 20
51.1951
 30
0.0000
 40
0.3161
 50
0.0000
 51
180.0000
  0
ARC
  8
21
 10
40.6400
 20
51.1951
 30
0.0000
 40
0.3161
 50
180.0000
 51
0.0000
  0
LINE
  8
21
 10
43.5751
 20
50.7210
 30
0.0000
 11
43.1010
 21
50.7210
 31
0.0000
  0
ARC
  8
21
 10
43.1010
 20
51.0371
 30
0.0000
 40
0.3161
 50
179.9994
 51
270.0000
  0
LINE
  8
21
 10
42.7849
 20
51.0371
 30
0.0000
 11
42.7849
 21
51.1161
 31
0.0000
  0
ARC
  8
21
 10
43.1800
 20
51.1161
 30
0.0000
 40
0.3951
 50
0.0000
 51
180.0000
  0
LINE
  8
21
 10
43.5751
 20
51.1161
 30
0.0000
 11
43.5751
 21
50.7210
 31
0.0000
  0
ARC
  8
21
 10
42.9429
 20
50.7210
 30
0.0000
 40
0.6322
 50
270.0000
 51
0.0000
  0
LINE
  8
21
 10
20.4978
 20
55.1688
 30
0.0000
 11
20.4978
 21
56.5912
 31
0.0000
  0
LINE
  8
21
 10
21.2880
 20
56.5912
 30
0.0000
 11
20.4978
 21
55.7220
 31
0.0000
  0
LINE
  8
21
 10
21.2880
 20
55.1688
 30
0.0000
 11
20.8139
 21
56.0380
 31
0.0000
  0
LINE
  8
21
 10
22.6603
 20
55.1688
 30
0.0000
 11
22.0281
 21
55.1688
 31
0.0000
  0
LINE
  8
21
 10
22.0281
 20
55.1688
 30
0.0000
 11
22.0281
 21
56.5912
 31
0.0000
  0
LINE
  8
21
 10
22.0281
 20
56.5912
 30
0.0000
 11
22.6603
 21
56.5912
 31
0.0000
  0
LINE
  8
21
 10
22.0281
 20
55.9590
 30
0.0000
 11
22.5022
 21
55.9590
 31
0.0000
  0
LINE
  8
21
 10
23.2463
 20
56.5912
 30
0.0000
 11
23.7204
 21
55.9195
 31
0.0000
  0
LINE
  8
21
 10
23.7204
 20
55.9195
 30
0.0000
 11
24.1945
 21
56.5912
 31
0.0000
  0
LINE
  8
21
 10
23.7204
 20
55.1688
 30
0.0000
 11
23.7204
 21
55.9195
 31
0.0000
  0
LINE
  8
21
 10
25.7908
 20
55.1688
 30
0.0000
 11
25.7908
 21
56.5912
 31
0.0000
  0
LINE
  8
21
 10
25.7908
 20
56.5912
 30
0.0000
 11
26.1859
 21
56.5912
 31
0.0000
  0
ARC
  8
21
 10
26.1859
 20
56.1961
 30
0.0000
 40
0.3951
 50
270.0000
 51
90.0000
  0
LINE
  8
21
 10
26.1859
 20
55.8010
 30
0.0000
 11
25.7908
 21
55.8010
 31
0.0000
  0
LINE
  8
21
 10
26.5810
 20
55.1688
 30
0.0000
 11
26.2649
 21
55.8010
 31
0.0000
  0
LINE
  8
21
 10
27.3373
 20
55.5639
 30
0.0000
 11
27.3373
 21
56.1961
 31
0.0000
  0
ARC
  8
21
 10
27.7324
 20
56.1961
 30
0.0000
 40
0.3951
 50
0.0000
 51
180.0000
  0
LINE
  8
21
 10
28.1275
 20
56.1961
 30
0.0000
 11
28.1275
 21
55.5639
 31
0.0000
  0
ARC
  8
21
 10
27.7324
 20
55.5639
 30
0.0000
 40
0.3951
 50
180.0000
 51
0.0000
  0
LINE
  8
21
 10
28.8718
 20
56.5912
 30
0.0000
 11
29.1879
 21
55.1688
 31
0.0000
  0
LINE
  8
21
 10
29.1879
 20
55.1688
 30
0.0000
 11
29.5040
 21
56.1171
 31
0.0000
  0
LINE
  8
21
 10
29.5040
 20
56.1171
 30
0.0000
 11
29.8200
 21
55.1688
 31
0.0000
  0
LINE
  8
21
 10
29.8200
 20
55.1688
 30
0.0000
 11
30.1361
 21
56.5912
 31
0.0000
  0
LINE
  8
21
 10
89.0778
 20
55.1688
 30
0.0000
 11
89.0778
 21
56.5912
 31
0.0000
  0
LINE
  8
21
 10
89.8680
 20
56.5912
 30
0.0000
 11
89.0778
 21
55.7220
 31
0.0000
  0
LINE
  8
21
 10
89.8680
 20
55.1688
 30
0.0000
 11
89.3939
 21
56.0380
 31
0.0000
  0
LINE
  8
21
 10
91.2403
 20
55.1688
 30
0.0000
 11
90.6081
 21
55.1688
 31
0.0000
  0
LINE
  8
21
 10
90.6081
 20
55.1688
 30
0.0000
 11
90.6081
 21
56.5912
 31
0.0000
  0
LINE
  8
21
 10
90.6081
 20
56.5912
 30
0.0000
 11
91.2403
 21
56.5912
 31
0.0000
  0
LINE
  8
21
 10
90.6081
 20
55.9590
 30
0.0000
 11
91.0822
 21
55.9590
 31
0.0000
  0
LINE
  8
21
 10
91.8263
 20
56.5912
 30
0.0000
 11
92.3004
 21
55.9195
 31
0.0000
  0
LINE
  8
21
 10
92.3004
 20
55.9195
 30
0.0000
 11
92.7745
 21
56.5912
 31
0.0000
  0
LINE
  8
21
 10
92.3004
 20
55.1688
 30
0.0000
 11
92.3004
 21
55.9195
 31
0.0000
  0
LINE
  8
21
 10
94.0934
 20
55.1688
 30
0.0000
 11
93.7773
 21
55.1688
 31
0.0000
  0
ARC
  8
21
 10
93.7773
 20
55.4849
 30
0.0000
 40
0.3161
 50
180.0000
 51
270.0000
  0
LINE
  8
21
 10
93.4613
 20
55.4849
 30
0.0000
 11
93.4613
 21
56.2751
 31
0.0000
  0
ARC
  8
21
 10
93.7773
 20
56.2751
 30
0.0000
 40
0.3161
 50
90.0006
 51
180.0000
  0
LINE
  8
21
 10
93.7773
 20
56.5912
 30
0.0000
 11
94.0934
 21
56.5912
 31
0.0000
  0
LINE
  8
21
 10
94.7710
 20
55.5639
 30
0.0000
 11
94.7710
 21
56.1961
 31
0.0000
  0
ARC
  8
21
 10
95.1661
 20
56.1961
 30
0.0000
 40
0.3951
 50
0.0000
 51
180.0000
  0
LINE
  8
21
 10
95.5612
 20
56.1961
 30
0.0000
 11
95.5612
 21
55.5639
 31
0.0000
  0
ARC
  8
21
 10
95.1661
 20
55.5639
 30
0.0000
 40
0.3951
 50
180.0000
 51
0.0000
  0
LINE
  8
21
 10
96.3916
 20
56.5912
 30
0.0000
 11
96.3916
 21
55.1688
 31
0.0000
  0
LINE
  8
21
 10
96.3916
 20
55.1688
 30
0.0000
 11
97.0238
 21
55.1688
 31
0.0000
  0
LINE
  8
21
 10
97.7409
 20
56.5912
 30
0.0000
 11
97.7409
 21
55.5639
 31
0.0000
  0
ARC
  8
21
 10
98.1361
 20
55.5639
 30
0.0000
 40
0.3951
 50
180.0000
 51
0.0000
  0
LINE
  8
21
 10
98.5312
 20
55.5639
 30
0.0000
 11
98.5312
 21
56.5912
 31
0.0000
  0
LINE
  8
21
 10
99.4335
 20
55.1688
 30
0.0000
 11
99.4335
 21
56.5912
 31
0.0000
  0
LINE
  8
21
 10
99.4335
 20
56.5912
 30
0.0000
 11
99.9076
 21
55.8010
 31
0.0000
  0
LINE
  8
21
 10
99.9076
 20
55.8010
 30
0.0000
 11
100.3817
 21
56.5912
 31
0.0000
  0
LINE
  8
21
 10
100.3817
 20
56.5912
 30
0.0000
 11
100.3817
 21
55.1688
 31
0.0000
  0
ARC
  8
21
 10
104.9171
 20
50.8000
 30
0.0000
 40
1.1722
 50
154.0112
 51
180.0000
  0
ARC
  8
21
 10
104.1400
 20
51.2188
 30
0.0000
 40
0.2924
 50
90.0002
 51
161.0753
  0
ARC
  8
21
 10
104.1400
 20
51.2188
 30
0.0000
 40
0.2924
 50
18.9244
 51
90.0001
  0
ARC
  8
21
 10
103.3630
 20
50.8000
 30
0.0000
 40
1.1722
 50
0.0000
 51
25.9895
  0
ARC
  8
21
 10
104.9171
 20
50.8000
 30
0.0000
 40
1.1722
 50
180.0001
 51
205.9886
  0
ARC
  8
21
 10
104.1400
 20
50.3812
 30
0.0000
 40
0.2924
 50
198.9254
 51
270.0000
  0
ARC
  8
21
 10
103.3629
 20
50.8000
 30
0.0000
 40
1.1722
 50
334.0107
 51
359.9999
  0
ARC
  8
21
 10
104.1400
 20
50.3812
 30
0.0000
 40
0.2924
 50
270.0001
 51
341.0752
  0
LINE
  8
21
 10
103.8239
 20
50.4049
 30
0.0000
 11
104.4561
 21
51.1951
 31
0.0000
  0
LINE
  8
21
 10
101.2049
 20
51.1951
 30
0.0000
 11
101.6000
 21
51.5112
 31
0.0000
  0
LINE
  8
21
 10
101.6000
 20
51.5112
 30
0.0000
 11
101.6000
 21
50.0888
 31
0.0000
  0
LINE
  8
21
 10
101.2049
 20
50.0888
 30
0.0000
 11
101.9951
 21
50.0888
 31
0.0000
  0
ARC
  8
21
 10
99.0995
 20
51.1556
 30
0.0000
 40
0.3556
 50
0.0000
 51
90.0000
  0
ARC
  8
21
 10
99.0995
 20
51.0543
 30
0.0000
 40
0.4569
 50
90.0000
 51
162.0547
  0
ARC
  8
21
 10
99.0732
 20
51.1556
 30
0.0000
 40
0.3819
 50
313.6028
 51
359.9998
  0
LINE
  8
21
 10
99.3366
 20
50.8790
 30
0.0000
 11
98.6649
 21
50.0888
 31
0.0000
  0
LINE
  8
21
 10
98.6649
 20
50.0888
 30
0.0000
 11
99.4551
 21
50.0888
 31
0.0000
  0
LINE
  8
21
 10
96.1249
 20
50.0888
 30
0.0000
 11
96.5200
 21
50.0888
 31
0.0000
  0
ARC
  8
21
 10
96.5200
 20
50.4839
 30
0.0000
 40
0.3951
 50
270.0000
 51
90.0000
  0
LINE
  8
21
 10
96.1249
 20
51.5112
 30
0.0000
 11
96.5990
 21
51.5112
 31
0.0000
  0
ARC
  8
21
 10
96.5990
 20
51.1951
 30
0.0000
 40
0.3161
 50
270.0000
 51
90.0000
  0
LINE
  8
21
 10
96.5990
 20
50.8790
 30
0.0000
 11
96.2829
 21
50.8790
 31
0.0000
  0
LINE
  8
21
 10
93.9010
 20
51.5112
 30
0.0000
 11
93.5849
 21
50.4049
 31
0.0000
  0
LINE
  8
21
 10
93.5849
 20
50.4049
 30
0.0000
 11
94.3751
 21
50.4049
 31
0.0000
  0
LINE
  8
21
 10
94.1380
 20
50.7210
 30
0.0000
 11
94.1380
 21
50.0888
 31
0.0000
  0
LINE
  8
21
 10
91.0449
 20
50.0888
 30
0.0000
 11
91.5190
 21
50.0888
 31
0.0000
  0
ARC
  8
21
 10
91.5190
 20
50.4049
 30
0.0000
 40
0.3161
 50
270.0000
 51
0.0000
  0
LINE
  8
21
 10
91.8351
 20
50.4049
 30
0.0000
 11
91.8351
 21
50.5629
 31
0.0000
  0
ARC
  8
21
 10
91.5190
 20
50.5629
 30
0.0000
 40
0.3161
 50
0.0000
 51
90.0000
  0
LINE
  8
21
 10
91.5190
 20
50.8790
 30
0.0000
 11
91.0449
 21
50.8790
 31
0.0000
  0
LINE
  8
21
 10
91.0449
 20
50.8790
 30
0.0000
 11
91.0449
 21
51.5112
 31
0.0000
  0
LINE
  8
21
 10
91.0449
 20
51.5112
 30
0.0000
 11
91.8351
 21
51.5112
 31
0.0000
  0
LINE
  8
21
 10
88.5049
 20
50.8790
 30
0.0000
 11
88.9790
 21
50.8790
 31
0.0000
  0
ARC
  8
21
 10
88.9790
 20
50.5629
 30
0.0000
 40
0.3161
 50
0.0000
 51
90.0000
  0
LINE
  8
21
 10
89.2951
 20
50.5629
 30
0.0000
 11
89.2951
 21
50.4839
 31
0.0000
  0
ARC
  8
21
 10
88.9000
 20
50.4839
 30
0.0000
 40
0.3951
 50
180.0000
 51
0.0000
  0
LINE
  8
21
 10
88.5049
 20
50.4839
 30
0.0000
 11
88.5049
 21
50.8790
 31
0.0000
  0
ARC
  8
21
 10
89.1371
 20
50.8790
 30
0.0000
 40
0.6322
 50
90.0003
 51
180.0000
  0
LINE
  8
21
 10
51.6890
 20
57.5310
 30
0.0000
 11
52.3663
 21
55.4990
 31
0.0000
  0
LINE
  8
21
 10
52.3663
 20
55.4990
 30
0.0000
 11
53.0437
 21
57.5310
 31
0.0000
  0
LINE
  8
21
 10
54.3150
 20
55.4990
 30
0.0000
 11
54.3150
 21
57.5310
 31
0.0000
  0
LINE
  8
21
 10
53.7506
 20
57.5310
 30
0.0000
 11
54.8795
 21
57.5310
 31
0.0000
  0
LINE
  8
21
 10
55.7256
 20
56.2892
 30
0.0000
 11
57.0802
 21
56.2892
 31
0.0000
  0
LINE
  8
21
 10
58.0655
 20
56.6279
 30
0.0000
 11
58.7429
 21
56.6279
 31
0.0000
  0
ARC
  8
21
 10
58.7429
 20
56.1763
 30
0.0000
 40
0.4516
 50
0.0000
 51
90.0000
  0
LINE
  8
21
 10
59.1944
 20
56.1763
 30
0.0000
 11
59.1944
 21
56.0634
 31
0.0000
  0
ARC
  8
21
 10
58.6300
 20
56.0634
 30
0.0000
 40
0.5644
 50
180.0000
 51
0.0000
  0
LINE
  8
21
 10
58.0655
 20
56.0634
 30
0.0000
 11
58.0655
 21
56.6279
 31
0.0000
  0
ARC
  8
21
 10
58.9686
 20
56.6279
 30
0.0000
 40
0.9031
 50
90.0002
 51
180.0000
  0
LINE
  8
21
 10
61.2823
 20
56.4021
 30
0.0000
 11
60.6049
 21
56.4021
 31
0.0000
  0
ARC
  8
21
 10
60.6049
 20
56.8537
 30
0.0000
 40
0.4516
 50
180.0000
 51
270.0000
  0
LINE
  8
21
 10
60.1534
 20
56.8537
 30
0.0000
 11
60.1534
 21
56.9666
 31
0.0000
  0
ARC
  8
21
 10
60.7178
 20
56.9666
 30
0.0000
 40
0.5644
 50
0.0000
 51
180.0000
  0
LINE
  8
21
 10
61.2823
 20
56.9666
 30
0.0000
 11
61.2823
 21
56.4021
 31
0.0000
  0
ARC
  8
21
 10
60.3792
 20
56.4021
 30
0.0000
 40
0.9031
 50
269.9998
 51
360.0000
  0
LINE
  8
21
 10
52.2534
 20
51.6890
 30
0.0000
 11
52.2534
 21
53.7210
 31
0.0000
  0
LINE
  8
21
 10
51.6890
 20
53.7210
 30
0.0000
 11
52.8179
 21
53.7210
 31
0.0000
  0
LINE
  8
21
 10
54.6172
 20
51.6890
 30
0.0000
 11
53.7141
 21
51.6890
 31
0.0000
  0
LINE
  8
21
 10
53.7141
 20
51.6890
 30
0.0000
 11
53.7141
 21
53.7210
 31
0.0000
  0
LINE
  8
21
 10
53.7141
 20
53.7210
 30
0.0000
 11
54.6172
 21
53.7210
 31
0.0000
  0
LINE
  8
21
 10
53.7141
 20
52.8179
 30
0.0000
 11
54.3914
 21
52.8179
 31
0.0000
  0
ARC
  8
21
 10
56.0549
 20
52.1406
 30
0.0000
 40
0.4516
 50
269.9996
 51
0.0000
  0
ARC
  8
21
 10
56.0549
 20
52.6429
 30
0.0000
 40
0.9539
 50
224.7606
 51
269.9996
  0
ARC
  8
21
 10
55.8856
 20
53.2694
 30
0.0000
 40
0.4516
 50
90.0000
 51
180.0000
  0
ARC
  8
21
 10
55.8856
 20
52.8743
 30
0.0000
 40
0.8467
 50
53.1300
 51
89.9999
  0
ARC
  8
21
 10
55.8926
 20
53.2694
 30
0.0000
 40
0.4586
 50
180.0000
 51
239.4897
  0
ARC
  8
21
 10
56.0479
 20
52.1406
 30
0.0000
 40
0.4586
 50
0.0001
 51
59.4895
  0
LINE
  8
21
 10
56.2807
 20
52.5357
 30
0.0000
 11
55.6598
 21
52.8743
 31
0.0000
  0
LINE
  8
21
 10
57.8211
 20
51.6890
 30
0.0000
 11
57.8211
 21
53.7210
 31
0.0000
  0
LINE
  8
21
 10
57.2567
 20
53.7210
 30
0.0000
 11
58.3856
 21
53.7210
 31
0.0000
  0
LINE
  8
21
 10
60.3885
 20
51.6890
 30
0.0000
 11
60.3885
 21
53.7210
 31
0.0000
  0
LINE
  8
21
 10
60.3885
 20
52.8179
 30
0.0000
 11
61.5174
 21
52.8179
 31
0.0000
  0
LINE
  8
21
 10
61.5174
 20
53.7210
 30
0.0000
 11
61.5174
 21
51.6890
 31
0.0000
  0
LINE
  8
21
 10
62.4331
 20
51.6890
 30
0.0000
 11
63.1104
 21
53.7210
 31
0.0000
  0
LINE
  8
21
 10
63.1104
 20
53.7210
 30
0.0000
 11
63.7877
 21
51.6890
 31
0.0000
  0
LINE
  8
21
 10
63.6184
 20
52.1970
 30
0.0000
 11
62.6024
 21
52.1970
 31
0.0000
  0
LINE
  8
21
 10
64.7213
 20
51.6890
 30
0.0000
 11
64.7213
 21
53.7210
 31
0.0000
  0
LINE
  8
21
 10
64.7213
 20
53.7210
 30
0.0000
 11
65.2858
 21
53.7210
 31
0.0000
  0
ARC
  8
21
 10
65.2858
 20
53.1566
 30
0.0000
 40
0.5644
 50
270.0000
 51
90.0000
  0
LINE
  8
21
 10
65.2858
 20
52.5921
 30
0.0000
 11
64.7213
 21
52.5921
 31
0.0000
  0
LINE
  8
21
 10
65.8502
 20
51.6890
 30
0.0000
 11
65.3987
 21
52.5921
 31
0.0000
  0
LINE
  8
21
 10
66.8609
 20
51.6890
 30
0.0000
 11
66.8609
 21
53.7210
 31
0.0000
  0
LINE
  8
21
 10
66.8609
 20
53.7210
 30
0.0000
 11
67.4253
 21
53.7210
 31
0.0000
  0
ARC
  8
21
 10
67.4253
 20
53.1566
 30
0.0000
 40
0.5644
 50
0.0000
 51
90.0000
  0
LINE
  8
21
 10
67.9898
 20
53.1566
 30
0.0000
 11
67.9898
 21
52.2534
 31
0.0000
  0
ARC
  8
21
 10
67.4253
 20
52.2534
 30
0.0000
 40
0.5644
 50
270.0000
 51
0.0000
  0
LINE
  8
21
 10
67.4253
 20
51.6890
 30
0.0000
 11
66.8609
 21
51.6890
 31
0.0000
  0
LINE
  8
21
 10
68.9581
 20
53.7210
 30
0.0000
 11
69.4096
 21
51.6890
 31
0.0000
  0
LINE
  8
21
 10
69.4096
 20
51.6890
 30
0.0000
 11
69.8612
 21
53.0437
 31
0.0000
  0
LINE
  8
21
 10
69.8612
 20
53.0437
 30
0.0000
 11
70.3128
 21
51.6890
 31
0.0000
  0
LINE
  8
21
 10
70.3128
 20
51.6890
 30
0.0000
 11
70.7643
 21
53.7210
 31
0.0000
  0
LINE
  8
21
 10
71.5501
 20
51.6890
 30
0.0000
 11
72.2275
 21
53.7210
 31
0.0000
  0
LINE
  8
21
 10
72.2275
 20
53.7210
 30
0.0000
 11
72.9048
 21
51.6890
 31
0.0000
  0
LINE
  8
21
 10
72.7355
 20
52.1970
 30
0.0000
 11
71.7195
 21
52.1970
 31
0.0000
  0
LINE
  8
21
 10
73.8384
 20
51.6890
 30
0.0000
 11
73.8384
 21
53.7210
 31
0.0000
  0
LINE
  8
21
 10
73.8384
 20
53.7210
 30
0.0000
 11
74.4028
 21
53.7210
 31
0.0000
  0
ARC
  8
21
 10
74.4028
 20
53.1566
 30
0.0000
 40
0.5644
 50
270.0000
 51
90.0000
  0
LINE
  8
21
 10
74.4028
 20
52.5921
 30
0.0000
 11
73.8384
 21
52.5921
 31
0.0000
  0
LINE
  8
21
 10
74.9673
 20
51.6890
 30
0.0000
 11
74.5157
 21
52.5921
 31
0.0000
  0
LINE
  8
21
 10
76.8879
 20
51.6890
 30
0.0000
 11
75.9848
 21
51.6890
 31
0.0000
  0
LINE
  8
21
 10
75.9848
 20
51.6890
 30
0.0000
 11
75.9848
 21
53.7210
 31
0.0000
  0
LINE
  8
21
 10
75.9848
 20
53.7210
 30
0.0000
 11
76.8879
 21
53.7210
 31
0.0000
  0
LINE
  8
21
 10
75.9848
 20
52.8179
 30
0.0000
 11
76.6621
 21
52.8179
 31
0.0000
  0
CIRCLE
  8
21
 10
20.9550
 20
43.4848
 30
0.0000
 40
2.7292
  0
CIRCLE
  8
20
 10
116.5300
 20
53.4800
 30
0.0000
 40
1.5750
  0
CIRCLE
  8
20
 10
146.0700
 20
7.7000
 30
0.0000
 40
1.5750
  0
CIRCLE
  8
20
 10
20.6800
 20
7.6900
 30
0.0000
 40
1.5750
  0
CIRCLE
  8
20
 10
10.5600
 20
51.9800
 30
0.0000
 40
1.5750
  0
CIRCLE
  8
20
 10
116.5300
 20
53.4800
 30
0.0000
 40
1.5750
  0
CIRCLE
  8
20
 10
146.0700
 20
7.7000
 30
0.0000
 40
1.5750
  0
CIRCLE
  8
20
 10
20.6800
 20
7.6900
 30
0.0000
 40
1.5750
  0
CIRCLE
  8
20
 10
10.5600
 20
51.9800
 30
0.0000
 40
1.5750
  0
ENDSEC
  0
EOF
